<?xml version="1.0" encoding="utf-8" standalone="no"?>
<!DOCTYPE svg PUBLIC "-//W3C//DTD SVG 1.1//EN"
  "http://www.w3.org/Graphics/SVG/1.1/DTD/svg11.dtd">
<!-- Created with matplotlib (https://matplotlib.org/) -->
<svg height="573.95625pt" version="1.1" viewBox="0 0 591.403125 573.95625" width="591.403125pt" xmlns="http://www.w3.org/2000/svg" xmlns:xlink="http://www.w3.org/1999/xlink">
 <metadata>
  <rdf:RDF xmlns:cc="http://creativecommons.org/ns#" xmlns:dc="http://purl.org/dc/elements/1.1/" xmlns:rdf="http://www.w3.org/1999/02/22-rdf-syntax-ns#">
   <cc:Work>
    <dc:type rdf:resource="http://purl.org/dc/dcmitype/StillImage"/>
    <dc:date>2020-12-25T18:37:49.475238</dc:date>
    <dc:format>image/svg+xml</dc:format>
    <dc:creator>
     <cc:Agent>
      <dc:title>Matplotlib v3.3.2, https://matplotlib.org/</dc:title>
     </cc:Agent>
    </dc:creator>
   </cc:Work>
  </rdf:RDF>
 </metadata>
 <defs>
  <style type="text/css">*{stroke-linecap:butt;stroke-linejoin:round;}</style>
 </defs>
 <g id="figure_1">
  <g id="patch_1">
   <path d="M 0 573.95625 
L 591.403125 573.95625 
L 591.403125 0 
L 0 0 
z
" style="fill:none;"/>
  </g>
  <g id="axes_1">
   <g id="patch_2">
    <path d="M 33.403125 543.6 
L 591.403125 543.6 
L 591.403125 0 
L 33.403125 0 
z
" style="fill:#ffffff;"/>
   </g>
   <g id="PathCollection_1">
    <path clip-path="url(#pb613b7a670)" d="M 90.757599 158.719482 
C 94.275116 158.719482 97.649038 157.321958 100.136298 154.834698 
C 102.623558 152.347438 104.021082 148.973516 104.021082 145.455999 
C 104.021082 141.938482 102.623558 138.56456 100.136298 136.077299 
C 97.649038 133.590039 94.275116 132.192515 90.757599 132.192515 
C 87.240082 132.192515 83.866159 133.590039 81.378899 136.077299 
C 78.891639 138.56456 77.494115 141.938482 77.494115 145.455999 
C 77.494115 148.973516 78.891639 152.347438 81.378899 154.834698 
C 83.866159 157.321958 87.240082 158.719482 90.757599 158.719482 
z
" style="fill:#33638d;fill-opacity:0.6;stroke:#33638d;stroke-opacity:0.6;"/>
    <path clip-path="url(#pb613b7a670)" d="M 73.557207 310.882478 
C 76.091278 310.882478 78.521901 309.875681 80.31376 308.083823 
C 82.105619 306.291964 83.112416 303.861341 83.112416 301.32727 
C 83.112416 298.793199 82.105619 296.362576 80.31376 294.570718 
C 78.521901 292.778859 76.091278 291.772062 73.557207 291.772062 
C 71.023137 291.772062 68.592514 292.778859 66.800655 294.570718 
C 65.008796 296.362576 64.001999 298.793199 64.001999 301.32727 
C 64.001999 303.861341 65.008796 306.291964 66.800655 308.083823 
C 68.592514 309.875681 71.023137 310.882478 73.557207 310.882478 
z
" style="fill:#25ab82;fill-opacity:0.6;stroke:#25ab82;stroke-opacity:0.6;"/>
    <path clip-path="url(#pb613b7a670)" d="M 161.889367 229.537337 
C 164.989181 229.537337 167.962453 228.305768 170.154353 226.113868 
C 172.346253 223.921968 173.577823 220.948696 173.577823 217.848882 
C 173.577823 214.749067 172.346253 211.775795 170.154353 209.583895 
C 167.962453 207.391995 164.989181 206.160426 161.889367 206.160426 
C 158.789552 206.160426 155.81628 207.391995 153.62438 209.583895 
C 151.43248 211.775795 150.200911 214.749067 150.200911 217.848882 
C 150.200911 220.948696 151.43248 223.921968 153.62438 226.113868 
C 155.81628 228.305768 158.789552 229.537337 161.889367 229.537337 
z
" style="fill:#33628d;fill-opacity:0.6;stroke:#33628d;stroke-opacity:0.6;"/>
    <path clip-path="url(#pb613b7a670)" d="M 117.134091 262.0409 
C 120.021518 262.0409 122.791073 260.893713 124.832792 258.851993 
C 126.874512 256.810274 128.021699 254.040719 128.021699 251.153292 
C 128.021699 248.265865 126.874512 245.49631 124.832792 243.454591 
C 122.791073 241.412871 120.021518 240.265684 117.134091 240.265684 
C 114.246664 240.265684 111.477109 241.412871 109.43539 243.454591 
C 107.39367 245.49631 106.246483 248.265865 106.246483 251.153292 
C 106.246483 254.040719 107.39367 256.810274 109.43539 258.851993 
C 111.477109 260.893713 114.246664 262.0409 117.134091 262.0409 
z
" style="fill:#472f7d;fill-opacity:0.6;stroke:#472f7d;stroke-opacity:0.6;"/>
    <path clip-path="url(#pb613b7a670)" d="M 83.365329 352.082035 
C 85.555993 352.082035 87.657228 351.211675 89.206262 349.662641 
C 90.755296 348.113608 91.625656 346.012373 91.625656 343.821708 
C 91.625656 341.631044 90.755296 339.529809 89.206262 337.980775 
C 87.657228 336.431742 85.555993 335.561381 83.365329 335.561381 
C 81.174665 335.561381 79.073429 336.431742 77.524396 337.980775 
C 75.975362 339.529809 75.105002 341.631044 75.105002 343.821708 
C 75.105002 346.012373 75.975362 348.113608 77.524396 349.662641 
C 79.073429 351.211675 81.174665 352.082035 83.365329 352.082035 
z
" style="fill:#5ac864;fill-opacity:0.6;stroke:#5ac864;stroke-opacity:0.6;"/>
    <path clip-path="url(#pb613b7a670)" d="M 157.881652 261.466127 
C 160.772974 261.466127 163.546264 260.317392 165.590738 258.272919 
C 167.635211 256.228445 168.783945 253.455155 168.783945 250.563833 
C 168.783945 247.672511 167.635211 244.899221 165.590738 242.854748 
C 163.546264 240.810274 160.772974 239.66154 157.881652 239.66154 
C 154.99033 239.66154 152.21704 240.810274 150.172566 242.854748 
C 148.128093 244.899221 146.979359 247.672511 146.979359 250.563833 
C 146.979359 253.455155 148.128093 256.228445 150.172566 258.272919 
C 152.21704 260.317392 154.99033 261.466127 157.881652 261.466127 
z
" style="fill:#453581;fill-opacity:0.6;stroke:#453581;stroke-opacity:0.6;"/>
    <path clip-path="url(#pb613b7a670)" d="M 131.109409 396.00681 
C 132.858201 396.00681 134.535604 395.312007 135.772187 394.075424 
C 137.00877 392.838841 137.703573 391.161439 137.703573 389.412646 
C 137.703573 387.663853 137.00877 385.986451 135.772187 384.749868 
C 134.535604 383.513285 132.858201 382.818482 131.109409 382.818482 
C 129.360616 382.818482 127.683214 383.513285 126.446631 384.749868 
C 125.210047 385.986451 124.515245 387.663853 124.515245 389.412646 
C 124.515245 391.161439 125.210047 392.838841 126.446631 394.075424 
C 127.683214 395.312007 129.360616 396.00681 131.109409 396.00681 
z
" style="fill:#fde725;fill-opacity:0.6;stroke:#fde725;stroke-opacity:0.6;"/>
    <path clip-path="url(#pb613b7a670)" d="M 163.646618 259.418338 
C 166.551773 259.418338 169.338331 258.264108 171.392585 256.209854 
C 173.446839 254.155599 174.601069 251.369041 174.601069 248.463887 
C 174.601069 245.558733 173.446839 242.772175 171.392585 240.71792 
C 169.338331 238.663666 166.551773 237.509436 163.646618 237.509436 
C 160.741464 237.509436 157.954906 238.663666 155.900652 240.71792 
C 153.846397 242.772175 152.692167 245.558733 152.692167 248.463887 
C 152.692167 251.369041 153.846397 254.155599 155.900652 256.209854 
C 157.954906 258.264108 160.741464 259.418338 163.646618 259.418338 
z
" style="fill:#8ed645;fill-opacity:0.6;stroke:#8ed645;stroke-opacity:0.6;"/>
    <path clip-path="url(#pb613b7a670)" d="M 101.8652 356.082209 
C 104.019508 356.082209 106.085871 355.226293 107.609197 353.702968 
C 109.132523 352.179642 109.988438 350.113279 109.988438 347.958971 
C 109.988438 345.804663 109.132523 343.7383 107.609197 342.214974 
C 106.085871 340.691648 104.019508 339.835732 101.8652 339.835732 
C 99.710892 339.835732 97.644529 340.691648 96.121203 342.214974 
C 94.597877 343.7383 93.741962 345.804663 93.741962 347.958971 
C 93.741962 350.113279 94.597877 352.179642 96.121203 353.702968 
C 97.644529 355.226293 99.710892 356.082209 101.8652 356.082209 
z
" style="fill:#481769;fill-opacity:0.6;stroke:#481769;stroke-opacity:0.6;"/>
    <path clip-path="url(#pb613b7a670)" d="M 59.584843 405.384733 
C 61.223232 405.384733 62.794737 404.733794 63.953252 403.575278 
C 65.111768 402.416762 65.762707 400.845257 65.762707 399.206869 
C 65.762707 397.56848 65.111768 395.996975 63.953252 394.838459 
C 62.794737 393.679944 61.223232 393.029005 59.584843 393.029005 
C 57.946455 393.029005 56.37495 393.679944 55.216434 394.838459 
C 54.057918 395.996975 53.406979 397.56848 53.406979 399.206869 
C 53.406979 400.845257 54.057918 402.416762 55.216434 403.575278 
C 56.37495 404.733794 57.946455 405.384733 59.584843 405.384733 
z
" style="fill:#2f6c8e;fill-opacity:0.6;stroke:#2f6c8e;stroke-opacity:0.6;"/>
    <path clip-path="url(#pb613b7a670)" d="M 78.961863 415.306251 
C 80.474265 415.306251 81.924927 414.705367 82.994356 413.635938 
C 84.063786 412.566508 84.66467 411.115847 84.66467 409.603445 
C 84.66467 408.091043 84.063786 406.640381 82.994356 405.570952 
C 81.924927 404.501522 80.474265 403.900638 78.961863 403.900638 
C 77.449461 403.900638 75.9988 404.501522 74.92937 405.570952 
C 73.859941 406.640381 73.259057 408.091043 73.259057 409.603445 
C 73.259057 411.115847 73.859941 412.566508 74.92937 413.635938 
C 75.9988 414.705367 77.449461 415.306251 78.961863 415.306251 
z
" style="fill:#1f9f88;fill-opacity:0.6;stroke:#1f9f88;stroke-opacity:0.6;"/>
    <path clip-path="url(#pb613b7a670)" d="M 328.618569 196.351659 
C 331.920854 196.351659 335.08833 195.039647 337.423397 192.704579 
C 339.758465 190.369512 341.070477 187.202036 341.070477 183.899751 
C 341.070477 180.597467 339.758465 177.429991 337.423397 175.094923 
C 335.08833 172.759855 331.920854 171.447844 328.618569 171.447844 
C 325.316285 171.447844 322.148809 172.759855 319.813741 175.094923 
C 317.478673 177.429991 316.166662 180.597467 316.166662 183.899751 
C 316.166662 187.202036 317.478673 190.369512 319.813741 192.704579 
C 322.148809 195.039647 325.316285 196.351659 328.618569 196.351659 
z
" style="fill:#20a386;fill-opacity:0.6;stroke:#20a386;stroke-opacity:0.6;"/>
    <path clip-path="url(#pb613b7a670)" d="M 79.649997 417.009111 
C 81.13965 417.009111 82.568492 416.417265 83.621835 415.363921 
C 84.675179 414.310578 85.267025 412.881736 85.267025 411.392083 
C 85.267025 409.90243 84.675179 408.473589 83.621835 407.420245 
C 82.568492 406.366901 81.13965 405.775055 79.649997 405.775055 
C 78.160344 405.775055 76.731503 406.366901 75.678159 407.420245 
C 74.624815 408.473589 74.032969 409.90243 74.032969 411.392083 
C 74.032969 412.881736 74.624815 414.310578 75.678159 415.363921 
C 76.731503 416.417265 78.160344 417.009111 79.649997 417.009111 
z
" style="fill:#472d7b;fill-opacity:0.6;stroke:#472d7b;stroke-opacity:0.6;"/>
    <path clip-path="url(#pb613b7a670)" d="M 158.63476 344.907895 
C 160.889111 344.907895 163.051433 344.012232 164.6455 342.418165 
C 166.239567 340.824098 167.13523 338.661776 167.13523 336.407424 
C 167.13523 334.153073 166.239567 331.990751 164.6455 330.396684 
C 163.051433 328.802617 160.889111 327.906954 158.63476 327.906954 
C 156.380409 327.906954 154.218086 328.802617 152.624019 330.396684 
C 151.029952 331.990751 150.134289 334.153073 150.134289 336.407424 
C 150.134289 338.661776 151.029952 340.824098 152.624019 342.418165 
C 154.218086 344.012232 156.380409 344.907895 158.63476 344.907895 
z
" style="fill:#25ab82;fill-opacity:0.6;stroke:#25ab82;stroke-opacity:0.6;"/>
    <path clip-path="url(#pb613b7a670)" d="M 76.894509 458.99456 
C 77.604233 458.99456 78.284984 458.712584 78.786835 458.210733 
C 79.288686 457.708882 79.570663 457.028131 79.570663 456.318406 
C 79.570663 455.608682 79.288686 454.927931 78.786835 454.42608 
C 78.284984 453.924229 77.604233 453.642252 76.894509 453.642252 
C 76.184784 453.642252 75.504033 453.924229 75.002182 454.42608 
C 74.500331 454.927931 74.218355 455.608682 74.218355 456.318406 
C 74.218355 457.028131 74.500331 457.708882 75.002182 458.210733 
C 75.504033 458.712584 76.184784 458.99456 76.894509 458.99456 
z
" style="fill:#a8db34;fill-opacity:0.6;stroke:#a8db34;stroke-opacity:0.6;"/>
    <path clip-path="url(#pb613b7a670)" d="M 69.177369 410.728171 
C 70.74922 410.728171 72.256904 410.103668 73.368371 408.992202 
C 74.479838 407.880735 75.104341 406.373051 75.104341 404.801199 
C 75.104341 403.229348 74.479838 401.721664 73.368371 400.610197 
C 72.256904 399.49873 70.74922 398.874227 69.177369 398.874227 
C 67.605518 398.874227 66.097833 399.49873 64.986367 400.610197 
C 63.8749 401.721664 63.250397 403.229348 63.250397 404.801199 
C 63.250397 406.373051 63.8749 407.880735 64.986367 408.992202 
C 66.097833 410.103668 67.605518 410.728171 69.177369 410.728171 
z
" style="fill:#450559;fill-opacity:0.6;stroke:#450559;stroke-opacity:0.6;"/>
    <path clip-path="url(#pb613b7a670)" d="M 98.297536 379.076766 
C 100.229118 379.076766 102.081847 378.309341 103.447682 376.943506 
C 104.813517 375.577671 105.580942 373.724942 105.580942 371.79336 
C 105.580942 369.861779 104.813517 368.009049 103.447682 366.643215 
C 102.081847 365.27738 100.229118 364.509955 98.297536 364.509955 
C 96.365955 364.509955 94.513225 365.27738 93.147391 366.643215 
C 91.781556 368.009049 91.014131 369.861779 91.014131 371.79336 
C 91.014131 373.724942 91.781556 375.577671 93.147391 376.943506 
C 94.513225 378.309341 96.365955 379.076766 98.297536 379.076766 
z
" style="fill:#2d718e;fill-opacity:0.6;stroke:#2d718e;stroke-opacity:0.6;"/>
    <path clip-path="url(#pb613b7a670)" d="M 61.814633 461.549207 
C 62.442649 461.549207 63.045028 461.299693 63.489103 460.855619 
C 63.933178 460.411544 64.182691 459.809165 64.182691 459.181149 
C 64.182691 458.553132 63.933178 457.950753 63.489103 457.506679 
C 63.045028 457.062604 62.442649 456.81309 61.814633 456.81309 
C 61.186616 456.81309 60.584237 457.062604 60.140163 457.506679 
C 59.696088 457.950753 59.446575 458.553132 59.446575 459.181149 
C 59.446575 459.809165 59.696088 460.411544 60.140163 460.855619 
C 60.584237 461.299693 61.186616 461.549207 61.814633 461.549207 
z
" style="fill:#482878;fill-opacity:0.6;stroke:#482878;stroke-opacity:0.6;"/>
    <path clip-path="url(#pb613b7a670)" d="M 100.193596 408.285593 
C 101.796222 408.285593 103.333424 407.648863 104.466651 406.515636 
C 105.599879 405.382408 106.236609 403.845206 106.236609 402.242581 
C 106.236609 400.639955 105.599879 399.102753 104.466651 397.969525 
C 103.333424 396.836298 101.796222 396.199568 100.193596 396.199568 
C 98.59097 396.199568 97.053768 396.836298 95.920541 397.969525 
C 94.787313 399.102753 94.150584 400.639955 94.150584 402.242581 
C 94.150584 403.845206 94.787313 405.382408 95.920541 406.515636 
C 97.053768 407.648863 98.59097 408.285593 100.193596 408.285593 
z
" style="fill:#1e9b8a;fill-opacity:0.6;stroke:#1e9b8a;stroke-opacity:0.6;"/>
    <path clip-path="url(#pb613b7a670)" d="M 119.130565 377.578006 
C 121.07747 377.578006 122.944897 376.804493 124.321567 375.427823 
C 125.698237 374.051153 126.47175 372.183726 126.47175 370.236821 
C 126.47175 368.289916 125.698237 366.422489 124.321567 365.045819 
C 122.944897 363.66915 121.07747 362.895636 119.130565 362.895636 
C 117.18366 362.895636 115.316233 363.66915 113.939563 365.045819 
C 112.562893 366.422489 111.78938 368.289916 111.78938 370.236821 
C 111.78938 372.183726 112.562893 374.051153 113.939563 375.427823 
C 115.316233 376.804493 117.18366 377.578006 119.130565 377.578006 
z
" style="fill:#a8db34;fill-opacity:0.6;stroke:#a8db34;stroke-opacity:0.6;"/>
    <path clip-path="url(#pb613b7a670)" d="M 93.090756 417.298344 
C 94.576509 417.298344 96.001609 416.708048 97.052195 415.657462 
C 98.102781 414.606876 98.693077 413.181776 98.693077 411.696023 
C 98.693077 410.21027 98.102781 408.785169 97.052195 407.734584 
C 96.001609 406.683998 94.576509 406.093702 93.090756 406.093702 
C 91.605003 406.093702 90.179903 406.683998 89.129317 407.734584 
C 88.078731 408.785169 87.488435 410.21027 87.488435 411.696023 
C 87.488435 413.181776 88.078731 414.606876 89.129317 415.657462 
C 90.179903 416.708048 91.605003 417.298344 93.090756 417.298344 
z
" style="fill:#26ad81;fill-opacity:0.6;stroke:#26ad81;stroke-opacity:0.6;"/>
    <path clip-path="url(#pb613b7a670)" d="M 508.950966 83.303717 
C 512.863678 83.303717 516.616662 81.74918 519.383367 78.982475 
C 522.150072 76.21577 523.704609 72.462785 523.704609 68.550073 
C 523.704609 64.637361 522.150072 60.884377 519.383367 58.117672 
C 516.616662 55.350967 512.863678 53.79643 508.950966 53.79643 
C 505.038254 53.79643 501.285269 55.350967 498.518564 58.117672 
C 495.751859 60.884377 494.197322 64.637361 494.197322 68.550073 
C 494.197322 72.462785 495.751859 76.21577 498.518564 78.982475 
C 501.285269 81.74918 505.038254 83.303717 508.950966 83.303717 
z
" style="fill:#c5e021;fill-opacity:0.6;stroke:#c5e021;stroke-opacity:0.6;"/>
    <path clip-path="url(#pb613b7a670)" d="M 72.446743 397.513087 
C 74.178298 397.513087 75.839166 396.825133 77.06356 395.600739 
C 78.287954 394.376344 78.975908 392.715476 78.975908 390.983922 
C 78.975908 389.252367 78.287954 387.591499 77.06356 386.367104 
C 75.839166 385.14271 74.178298 384.454756 72.446743 384.454756 
C 70.715188 384.454756 69.05432 385.14271 67.829926 386.367104 
C 66.605531 387.591499 65.917577 389.252367 65.917577 390.983922 
C 65.917577 392.715476 66.605531 394.376344 67.829926 395.600739 
C 69.05432 396.825133 70.715188 397.513087 72.446743 397.513087 
z
" style="fill:#c5e021;fill-opacity:0.6;stroke:#c5e021;stroke-opacity:0.6;"/>
    <path clip-path="url(#pb613b7a670)" d="M 97.136864 381.156525 
C 99.046971 381.156525 100.879102 380.397631 102.229752 379.046982 
C 103.580401 377.696332 104.339295 375.864201 104.339295 373.954094 
C 104.339295 372.043988 103.580401 370.211857 102.229752 368.861207 
C 100.879102 367.510558 99.046971 366.751664 97.136864 366.751664 
C 95.226758 366.751664 93.394627 367.510558 92.043977 368.861207 
C 90.693328 370.211857 89.934434 372.043988 89.934434 373.954094 
C 89.934434 375.864201 90.693328 377.696332 92.043977 379.046982 
C 93.394627 380.397631 95.226758 381.156525 97.136864 381.156525 
z
" style="fill:#b5de2b;fill-opacity:0.6;stroke:#b5de2b;stroke-opacity:0.6;"/>
    <path clip-path="url(#pb613b7a670)" d="M 74.655859 418.281444 
C 76.128274 418.281444 77.54058 417.696447 78.581735 416.655293 
C 79.622889 415.614139 80.207886 414.201832 80.207886 412.729417 
C 80.207886 411.257003 79.622889 409.844696 78.581735 408.803542 
C 77.54058 407.762387 76.128274 407.177391 74.655859 407.177391 
C 73.183444 407.177391 71.771138 407.762387 70.729983 408.803542 
C 69.688829 409.844696 69.103832 411.257003 69.103832 412.729417 
C 69.103832 414.201832 69.688829 415.614139 70.729983 416.655293 
C 71.771138 417.696447 73.183444 418.281444 74.655859 418.281444 
z
" style="fill:#450559;fill-opacity:0.6;stroke:#450559;stroke-opacity:0.6;"/>
    <path clip-path="url(#pb613b7a670)" d="M 469.818895 67.551677 
C 473.809122 67.551677 477.636457 65.966343 480.457973 63.144826 
C 483.27949 60.32331 484.864824 56.495975 484.864824 52.505747 
C 484.864824 48.51552 483.27949 44.688185 480.457973 41.866669 
C 477.636457 39.045152 473.809122 37.459818 469.818895 37.459818 
C 465.828667 37.459818 462.001332 39.045152 459.179816 41.866669 
C 456.358299 44.688185 454.772965 48.51552 454.772965 52.505747 
C 454.772965 56.495975 456.358299 60.32331 459.179816 63.144826 
C 462.001332 65.966343 465.828667 67.551677 469.818895 67.551677 
z
" style="fill:#39568c;fill-opacity:0.6;stroke:#39568c;stroke-opacity:0.6;"/>
    <path clip-path="url(#pb613b7a670)" d="M 289.161628 232.433976 
C 292.243124 232.433976 295.198824 231.209684 297.377771 229.030738 
C 299.556717 226.851791 300.781009 223.896091 300.781009 220.814595 
C 300.781009 217.733099 299.556717 214.777399 297.377771 212.598453 
C 295.198824 210.419506 292.243124 209.195215 289.161628 209.195215 
C 286.080133 209.195215 283.124432 210.419506 280.945486 212.598453 
C 278.766539 214.777399 277.542248 217.733099 277.542248 220.814595 
C 277.542248 223.896091 278.766539 226.851791 280.945486 229.030738 
C 283.124432 231.209684 286.080133 232.433976 289.161628 232.433976 
z
" style="fill:#5ac864;fill-opacity:0.6;stroke:#5ac864;stroke-opacity:0.6;"/>
    <path clip-path="url(#pb613b7a670)" d="M 233.904191 348.101013 
C 236.130428 348.101013 238.265784 347.216519 239.839972 345.642332 
C 241.41416 344.068144 242.298653 341.932788 242.298653 339.70655 
C 242.298653 337.480313 241.41416 335.344957 239.839972 333.770769 
C 238.265784 332.196582 236.130428 331.312088 233.904191 331.312088 
C 231.677953 331.312088 229.542597 332.196582 227.968409 333.770769 
C 226.394222 335.344957 225.509728 337.480313 225.509728 339.70655 
C 225.509728 341.932788 226.394222 344.068144 227.968409 345.642332 
C 229.542597 347.216519 231.677953 348.101013 233.904191 348.101013 
z
" style="fill:#bade28;fill-opacity:0.6;stroke:#bade28;stroke-opacity:0.6;"/>
    <path clip-path="url(#pb613b7a670)" d="M 299.439334 210.996739 
C 302.653876 210.996739 305.737191 209.719588 308.010215 207.446564 
C 310.28324 205.17354 311.56039 202.090225 311.56039 198.875683 
C 311.56039 195.661142 310.28324 192.577827 308.010215 190.304802 
C 305.737191 188.031778 302.653876 186.754627 299.439334 186.754627 
C 296.224793 186.754627 293.141478 188.031778 290.868453 190.304802 
C 288.595429 192.577827 287.318278 195.661142 287.318278 198.875683 
C 287.318278 202.090225 288.595429 205.17354 290.868453 207.446564 
C 293.141478 209.719588 296.224793 210.996739 299.439334 210.996739 
z
" style="fill:#b8de29;fill-opacity:0.6;stroke:#b8de29;stroke-opacity:0.6;"/>
    <path clip-path="url(#pb613b7a670)" d="M 566.039489 40.248396 
C 570.16056 40.248396 574.113399 38.611077 577.027437 35.697039 
C 579.941474 32.783001 581.578794 28.830163 581.578794 24.709091 
C 581.578794 20.588019 579.941474 16.635181 577.027437 13.721143 
C 574.113399 10.807105 570.16056 9.169786 566.039489 9.169786 
C 561.918417 9.169786 557.965579 10.807105 555.051541 13.721143 
C 552.137503 16.635181 550.500184 20.588019 550.500184 24.709091 
C 550.500184 28.830163 552.137503 32.783001 555.051541 35.697039 
C 557.965579 38.611077 561.918417 40.248396 566.039489 40.248396 
z
" style="fill:#481b6d;fill-opacity:0.6;stroke:#481b6d;stroke-opacity:0.6;"/>
    <path clip-path="url(#pb613b7a670)" d="M 65.426597 495.476816 
C 66.352911 495.476816 67.241411 495.108788 67.896415 494.453784 
C 68.551418 493.798781 68.919447 492.910281 68.919447 491.983967 
C 68.919447 491.057652 68.551418 490.169152 67.896415 489.514149 
C 67.241411 488.859145 66.352911 488.491117 65.426597 488.491117 
C 64.500282 488.491117 63.611782 488.859145 62.956779 489.514149 
C 62.301776 490.169152 61.933747 491.057652 61.933747 491.983967 
C 61.933747 492.910281 62.301776 493.798781 62.956779 494.453784 
C 63.611782 495.108788 64.500282 495.476816 65.426597 495.476816 
z
" style="fill:#a0da39;fill-opacity:0.6;stroke:#a0da39;stroke-opacity:0.6;"/>
    <path clip-path="url(#pb613b7a670)" d="M 104.913071 366.793774 
C 106.966744 366.793774 108.936579 365.977842 110.388745 364.525676 
C 111.84091 363.07351 112.656843 361.103675 112.656843 359.050002 
C 112.656843 356.99633 111.84091 355.026495 110.388745 353.574329 
C 108.936579 352.122163 106.966744 351.306231 104.913071 351.306231 
C 102.859399 351.306231 100.889564 352.122163 99.437398 353.574329 
C 97.985232 355.026495 97.1693 356.99633 97.1693 359.050002 
C 97.1693 361.103675 97.985232 363.07351 99.437398 364.525676 
C 100.889564 365.977842 102.859399 366.793774 104.913071 366.793774 
z
" style="fill:#9bd93c;fill-opacity:0.6;stroke:#9bd93c;stroke-opacity:0.6;"/>
    <path clip-path="url(#pb613b7a670)" d="M 183.437109 257.010973 
C 186.358439 257.010973 189.160512 255.850316 191.226204 253.784624 
C 193.291896 251.718932 194.452553 248.916859 194.452553 245.995529 
C 194.452553 243.074199 193.291896 240.272126 191.226204 238.206434 
C 189.160512 236.140742 186.358439 234.980086 183.437109 234.980086 
C 180.51578 234.980086 177.713707 236.140742 175.648014 238.206434 
C 173.582322 240.272126 172.421666 243.074199 172.421666 245.995529 
C 172.421666 248.916859 173.582322 251.718932 175.648014 253.784624 
C 177.713707 255.850316 180.51578 257.010973 183.437109 257.010973 
z
" style="fill:#b2dd2d;fill-opacity:0.6;stroke:#b2dd2d;stroke-opacity:0.6;"/>
    <path clip-path="url(#pb613b7a670)" d="M 84.310405 439.742575 
C 85.450933 439.742575 86.544901 439.289438 87.351375 438.482964 
C 88.15785 437.676489 88.610987 436.582521 88.610987 435.441994 
C 88.610987 434.301466 88.15785 433.207498 87.351375 432.401023 
C 86.544901 431.594549 85.450933 431.141412 84.310405 431.141412 
C 83.169878 431.141412 82.07591 431.594549 81.269435 432.401023 
C 80.46296 433.207498 80.009824 434.301466 80.009824 435.441994 
C 80.009824 436.582521 80.46296 437.676489 81.269435 438.482964 
C 82.07591 439.289438 83.169878 439.742575 84.310405 439.742575 
z
" style="fill:#8bd646;fill-opacity:0.6;stroke:#8bd646;stroke-opacity:0.6;"/>
    <path clip-path="url(#pb613b7a670)" d="M 152.807773 357.080999 
C 154.952904 357.080999 157.010464 356.22873 158.527301 354.711893 
C 160.044137 353.195057 160.896407 351.137496 160.896407 348.992365 
C 160.896407 346.847234 160.044137 344.789674 158.527301 343.272837 
C 157.010464 341.756001 154.952904 340.903731 152.807773 340.903731 
C 150.662642 340.903731 148.605081 341.756001 147.088245 343.272837 
C 145.571408 344.789674 144.719139 346.847234 144.719139 348.992365 
C 144.719139 351.137496 145.571408 353.195057 147.088245 354.711893 
C 148.605081 356.22873 150.662642 357.080999 152.807773 357.080999 
z
" style="fill:#481668;fill-opacity:0.6;stroke:#481668;stroke-opacity:0.6;"/>
    <path clip-path="url(#pb613b7a670)" d="M 144.606282 392.225122 
C 146.397591 392.225122 148.115773 391.513427 149.38242 390.24678 
C 150.649067 388.980133 151.360761 387.261951 151.360761 385.470642 
C 151.360761 383.679333 150.649067 381.96115 149.38242 380.694503 
C 148.115773 379.427856 146.397591 378.716162 144.606282 378.716162 
C 142.814972 378.716162 141.09679 379.427856 139.830143 380.694503 
C 138.563496 381.96115 137.851802 383.679333 137.851802 385.470642 
C 137.851802 387.261951 138.563496 388.980133 139.830143 390.24678 
C 141.09679 391.513427 142.814972 392.225122 144.606282 392.225122 
z
" style="fill:#2b748e;fill-opacity:0.6;stroke:#2b748e;stroke-opacity:0.6;"/>
    <path clip-path="url(#pb613b7a670)" d="M 149.405498 400.100296 
C 151.107019 400.100296 152.739079 399.424275 153.942237 398.221118 
C 155.145394 397.01796 155.821415 395.3859 155.821415 393.684379 
C 155.821415 391.982857 155.145394 390.350797 153.942237 389.14764 
C 152.739079 387.944483 151.107019 387.268461 149.405498 387.268461 
C 147.703976 387.268461 146.071916 387.944483 144.868759 389.14764 
C 143.665602 390.350797 142.98958 391.982857 142.98958 393.684379 
C 142.98958 395.3859 143.665602 397.01796 144.868759 398.221118 
C 146.071916 399.424275 147.703976 400.100296 149.405498 400.100296 
z
" style="fill:#addc30;fill-opacity:0.6;stroke:#addc30;stroke-opacity:0.6;"/>
    <path clip-path="url(#pb613b7a670)" d="M 75.878551 412.838286 
C 77.4233 412.838286 78.904987 412.224551 79.997289 411.132249 
C 81.089591 410.039947 81.703326 408.558259 81.703326 407.013511 
C 81.703326 405.468763 81.089591 403.987075 79.997289 402.894773 
C 78.904987 401.802471 77.4233 401.188736 75.878551 401.188736 
C 74.333803 401.188736 72.852116 401.802471 71.759814 402.894773 
C 70.667512 403.987075 70.053777 405.468763 70.053777 407.013511 
C 70.053777 408.558259 70.667512 410.039947 71.759814 411.132249 
C 72.852116 412.224551 74.333803 412.838286 75.878551 412.838286 
z
" style="fill:#3c508b;fill-opacity:0.6;stroke:#3c508b;stroke-opacity:0.6;"/>
    <path clip-path="url(#pb613b7a670)" d="M 289.397897 293.208171 
C 292.065398 293.208171 294.624003 292.148362 296.510211 290.262154 
C 298.396418 288.375947 299.456227 285.817341 299.456227 283.149841 
C 299.456227 280.482341 298.396418 277.923735 296.510211 276.037528 
C 294.624003 274.15132 292.065398 273.091511 289.397897 273.091511 
C 286.730397 273.091511 284.171792 274.15132 282.285584 276.037528 
C 280.399377 277.923735 279.339567 280.482341 279.339567 283.149841 
C 279.339567 285.817341 280.399377 288.375947 282.285584 290.262154 
C 284.171792 292.148362 286.730397 293.208171 289.397897 293.208171 
z
" style="fill:#8bd646;fill-opacity:0.6;stroke:#8bd646;stroke-opacity:0.6;"/>
    <path clip-path="url(#pb613b7a670)" d="M 97.943133 375.660002 
C 99.909467 375.660002 101.795529 374.878769 103.185937 373.488361 
C 104.576345 372.097953 105.357578 370.21189 105.357578 368.245556 
C 105.357578 366.279223 104.576345 364.39316 103.185937 363.002752 
C 101.795529 361.612344 99.909467 360.831111 97.943133 360.831111 
C 95.976799 360.831111 94.090736 361.612344 92.700328 363.002752 
C 91.30992 364.39316 90.528687 366.279223 90.528687 368.245556 
C 90.528687 370.21189 91.30992 372.097953 92.700328 373.488361 
C 94.090736 374.878769 95.976799 375.660002 97.943133 375.660002 
z
" style="fill:#2d718e;fill-opacity:0.6;stroke:#2d718e;stroke-opacity:0.6;"/>
    <path clip-path="url(#pb613b7a670)" d="M 69.989544 461.617689 
C 70.615204 461.617689 71.215323 461.369111 71.657732 460.926703 
C 72.10014 460.484294 72.348718 459.884175 72.348718 459.258515 
C 72.348718 458.632855 72.10014 458.032736 71.657732 457.590328 
C 71.215323 457.147919 70.615204 456.899342 69.989544 456.899342 
C 69.363884 456.899342 68.763765 457.147919 68.321356 457.590328 
C 67.878948 458.032736 67.63037 458.632855 67.63037 459.258515 
C 67.63037 459.884175 67.878948 460.484294 68.321356 460.926703 
C 68.763765 461.369111 69.363884 461.617689 69.989544 461.617689 
z
" style="fill:#1f978b;fill-opacity:0.6;stroke:#1f978b;stroke-opacity:0.6;"/>
    <path clip-path="url(#pb613b7a670)" d="M 113.569381 403.712954 
C 115.228014 403.712954 116.818937 403.053972 117.991767 401.881142 
C 119.164598 400.708311 119.823579 399.117389 119.823579 397.458756 
C 119.823579 395.800123 119.164598 394.2092 117.991767 393.036369 
C 116.818937 391.863539 115.228014 391.204557 113.569381 391.204557 
C 111.910748 391.204557 110.319825 391.863539 109.146995 393.036369 
C 107.974164 394.2092 107.315182 395.800123 107.315182 397.458756 
C 107.315182 399.117389 107.974164 400.708311 109.146995 401.881142 
C 110.319825 403.053972 111.910748 403.712954 113.569381 403.712954 
z
" style="fill:#472f7d;fill-opacity:0.6;stroke:#472f7d;stroke-opacity:0.6;"/>
    <path clip-path="url(#pb613b7a670)" d="M 256.083953 377.64719 
C 258.030154 377.64719 259.896905 376.873956 261.273076 375.497785 
C 262.649248 374.121613 263.422482 372.254862 263.422482 370.308662 
C 263.422482 368.362461 262.649248 366.49571 261.273076 365.119538 
C 259.896905 363.743367 258.030154 362.970133 256.083953 362.970133 
C 254.137753 362.970133 252.271001 363.743367 250.89483 365.119538 
C 249.518658 366.49571 248.745425 368.362461 248.745425 370.308662 
C 248.745425 372.254862 249.518658 374.121613 250.89483 375.497785 
C 252.271001 376.873956 254.137753 377.64719 256.083953 377.64719 
z
" style="fill:#2db27d;fill-opacity:0.6;stroke:#2db27d;stroke-opacity:0.6;"/>
    <path clip-path="url(#pb613b7a670)" d="M 80.822483 429.493831 
C 82.13265 429.493831 83.389333 428.973296 84.315762 428.046867 
C 85.24219 427.120439 85.762725 425.863756 85.762725 424.553588 
C 85.762725 423.24342 85.24219 421.986737 84.315762 421.060309 
C 83.389333 420.13388 82.13265 419.613345 80.822483 419.613345 
C 79.512315 419.613345 78.255632 420.13388 77.329203 421.060309 
C 76.402775 421.986737 75.88224 423.24342 75.88224 424.553588 
C 75.88224 425.863756 76.402775 427.120439 77.329203 428.046867 
C 78.255632 428.973296 79.512315 429.493831 80.822483 429.493831 
z
" style="fill:#fbe723;fill-opacity:0.6;stroke:#fbe723;stroke-opacity:0.6;"/>
    <path clip-path="url(#pb613b7a670)" d="M 141.395975 353.711946 
C 143.571901 353.711946 145.659 352.847441 147.197613 351.308829 
C 148.736225 349.770217 149.60073 347.683118 149.60073 345.507191 
C 149.60073 343.331265 148.736225 341.244166 147.197613 339.705554 
C 145.659 338.166941 143.571901 337.302437 141.395975 337.302437 
C 139.220049 337.302437 137.13295 338.166941 135.594337 339.705554 
C 134.055725 341.244166 133.19122 343.331265 133.19122 345.507191 
C 133.19122 347.683118 134.055725 349.770217 135.594337 351.308829 
C 137.13295 352.847441 139.220049 353.711946 141.395975 353.711946 
z
" style="fill:#481f70;fill-opacity:0.6;stroke:#481f70;stroke-opacity:0.6;"/>
    <path clip-path="url(#pb613b7a670)" d="M 119.789165 453.47206 
C 120.647006 453.47206 121.469827 453.131236 122.076412 452.524651 
C 122.682997 451.918066 123.023821 451.095245 123.023821 450.237404 
C 123.023821 449.379563 122.682997 448.556742 122.076412 447.950157 
C 121.469827 447.343572 120.647006 447.002748 119.789165 447.002748 
C 118.931324 447.002748 118.108503 447.343572 117.501918 447.950157 
C 116.895333 448.556742 116.554509 449.379563 116.554509 450.237404 
C 116.554509 451.095245 116.895333 451.918066 117.501918 452.524651 
C 118.108503 453.131236 118.931324 453.47206 119.789165 453.47206 
z
" style="fill:#306a8e;fill-opacity:0.6;stroke:#306a8e;stroke-opacity:0.6;"/>
    <path clip-path="url(#pb613b7a670)" d="M 60.045568 382.110106 
C 61.945744 382.110106 63.76835 381.355158 65.111977 380.011531 
C 66.455604 378.667903 67.210552 376.845298 67.210552 374.945122 
C 67.210552 373.044946 66.455604 371.22234 65.111977 369.878713 
C 63.76835 368.535085 61.945744 367.780137 60.045568 367.780137 
C 58.145392 367.780137 56.322786 368.535085 54.979159 369.878713 
C 53.635532 371.22234 52.880584 373.044946 52.880584 374.945122 
C 52.880584 376.845298 53.635532 378.667903 54.979159 380.011531 
C 56.322786 381.355158 58.145392 382.110106 60.045568 382.110106 
z
" style="fill:#34608d;fill-opacity:0.6;stroke:#34608d;stroke-opacity:0.6;"/>
    <path clip-path="url(#pb613b7a670)" d="M 81.640564 439.837489 
C 82.779395 439.837489 83.871735 439.385027 84.67701 438.579752 
C 85.482284 437.774477 85.934746 436.682137 85.934746 435.543307 
C 85.934746 434.404476 85.482284 433.312136 84.67701 432.506861 
C 83.871735 431.701587 82.779395 431.249125 81.640564 431.249125 
C 80.501734 431.249125 79.409394 431.701587 78.604119 432.506861 
C 77.798844 433.312136 77.346382 434.404476 77.346382 435.543307 
C 77.346382 436.682137 77.798844 437.774477 78.604119 438.579752 
C 79.409394 439.385027 80.501734 439.837489 81.640564 439.837489 
z
" style="fill:#1f978b;fill-opacity:0.6;stroke:#1f978b;stroke-opacity:0.6;"/>
    <path clip-path="url(#pb613b7a670)" d="M 255.847684 331.013678 
C 258.22037 331.013678 260.496196 330.070999 262.173939 328.393257 
C 263.851681 326.715515 264.794359 324.439688 264.794359 322.067002 
C 264.794359 319.694316 263.851681 317.41849 262.173939 315.740747 
C 260.496196 314.063005 258.22037 313.120327 255.847684 313.120327 
C 253.474998 313.120327 251.199172 314.063005 249.521429 315.740747 
C 247.843687 317.41849 246.901009 319.694316 246.901009 322.067002 
C 246.901009 324.439688 247.843687 326.715515 249.521429 328.393257 
C 251.199172 330.070999 253.474998 331.013678 255.847684 331.013678 
z
" style="fill:#24aa83;fill-opacity:0.6;stroke:#24aa83;stroke-opacity:0.6;"/>
    <path clip-path="url(#pb613b7a670)" d="M 73.967725 453.951003 
C 74.813843 453.951003 75.625421 453.614837 76.223717 453.016541 
C 76.822013 452.418245 77.15818 451.606667 77.15818 450.760549 
C 77.15818 449.91443 76.822013 449.102853 76.223717 448.504557 
C 75.625421 447.90626 74.813843 447.570094 73.967725 447.570094 
C 73.121607 447.570094 72.310029 447.90626 71.711733 448.504557 
C 71.113437 449.102853 70.777271 449.91443 70.777271 450.760549 
C 70.777271 451.606667 71.113437 452.418245 71.711733 453.016541 
C 72.310029 453.614837 73.121607 453.951003 73.967725 453.951003 
z
" style="fill:#481467;fill-opacity:0.6;stroke:#481467;stroke-opacity:0.6;"/>
    <path clip-path="url(#pb613b7a670)" d="M 132.993655 353.38065 
C 135.172585 353.38065 137.262566 352.514952 138.803302 350.974216 
C 140.344038 349.433479 141.209737 347.343499 141.209737 345.164569 
C 141.209737 342.985638 140.344038 340.895658 138.803302 339.354921 
C 137.262566 337.814185 135.172585 336.948487 132.993655 336.948487 
C 130.814725 336.948487 128.724744 337.814185 127.184008 339.354921 
C 125.643271 340.895658 124.777573 342.985638 124.777573 345.164569 
C 124.777573 347.343499 125.643271 349.433479 127.184008 350.974216 
C 128.724744 352.514952 130.814725 353.38065 132.993655 353.38065 
z
" style="fill:#8ed645;fill-opacity:0.6;stroke:#8ed645;stroke-opacity:0.6;"/>
    <path clip-path="url(#pb613b7a670)" d="M 67.059807 439.913413 
C 68.197278 439.913413 69.288314 439.461491 70.092628 438.657178 
C 70.896941 437.852864 71.348863 436.761828 71.348863 435.624357 
C 71.348863 434.486886 70.896941 433.39585 70.092628 432.591537 
C 69.288314 431.787223 68.197278 431.335301 67.059807 431.335301 
C 65.922336 431.335301 64.8313 431.787223 64.026987 432.591537 
C 63.222673 433.39585 62.770751 434.486886 62.770751 435.624357 
C 62.770751 436.761828 63.222673 437.852864 64.026987 438.657178 
C 64.8313 439.461491 65.922336 439.913413 67.059807 439.913413 
z
" style="fill:#25858e;fill-opacity:0.6;stroke:#25858e;stroke-opacity:0.6;"/>
    <path clip-path="url(#pb613b7a670)" d="M 129.558893 397.062861 
C 131.295619 397.062861 132.961447 396.372852 134.189497 395.144801 
C 135.417548 393.916751 136.107557 392.250923 136.107557 390.514197 
C 136.107557 388.777471 135.417548 387.111643 134.189497 385.883592 
C 132.961447 384.655541 131.295619 383.965533 129.558893 383.965533 
C 127.822167 383.965533 126.156339 384.655541 124.928288 385.883592 
C 123.700237 387.111643 123.010229 388.777471 123.010229 390.514197 
C 123.010229 392.250923 123.700237 393.916751 124.928288 395.144801 
C 126.156339 396.372852 127.822167 397.062861 129.558893 397.062861 
z
" style="fill:#218e8d;fill-opacity:0.6;stroke:#218e8d;stroke-opacity:0.6;"/>
    <path clip-path="url(#pb613b7a670)" d="M 134.851321 384.512677 
C 136.726233 384.512677 138.524607 383.767766 139.850371 382.442002 
C 141.176134 381.116239 141.921045 379.317865 141.921045 377.442952 
C 141.921045 375.56804 141.176134 373.769666 139.850371 372.443903 
C 138.524607 371.118139 136.726233 370.373228 134.851321 370.373228 
C 132.976408 370.373228 131.178034 371.118139 129.852271 372.443903 
C 128.526507 373.769666 127.781597 375.56804 127.781597 377.442952 
C 127.781597 379.317865 128.526507 381.116239 129.852271 382.442002 
C 131.178034 383.767766 132.976408 384.512677 134.851321 384.512677 
z
" style="fill:#56c667;fill-opacity:0.6;stroke:#56c667;stroke-opacity:0.6;"/>
    <path clip-path="url(#pb613b7a670)" d="M 97.33474 447.06551 
C 98.335262 447.06551 99.294941 446.667998 100.002417 445.960522 
C 100.709893 445.253046 101.107405 444.293367 101.107405 443.292845 
C 101.107405 442.292323 100.709893 441.332644 100.002417 440.625168 
C 99.294941 439.917692 98.335262 439.52018 97.33474 439.52018 
C 96.334217 439.52018 95.374539 439.917692 94.667063 440.625168 
C 93.959587 441.332644 93.562075 442.292323 93.562075 443.292845 
C 93.562075 444.293367 93.959587 445.253046 94.667063 445.960522 
C 95.374539 446.667998 96.334217 447.06551 97.33474 447.06551 
z
" style="fill:#9bd93c;fill-opacity:0.6;stroke:#9bd93c;stroke-opacity:0.6;"/>
    <path clip-path="url(#pb613b7a670)" d="M 98.105568 499.458093 
C 99.105317 499.458093 100.064253 499.060889 100.771182 498.35396 
C 101.478111 497.647031 101.875316 496.688094 101.875316 495.688345 
C 101.875316 494.688597 101.478111 493.72966 100.771182 493.022731 
C 100.064253 492.315802 99.105317 491.918597 98.105568 491.918597 
C 97.105819 491.918597 96.146883 492.315802 95.439953 493.022731 
C 94.733024 493.72966 94.33582 494.688597 94.33582 495.688345 
C 94.33582 496.688094 94.733024 497.647031 95.439953 498.35396 
C 96.146883 499.060889 97.105819 499.458093 98.105568 499.458093 
z
" style="fill:#481f70;fill-opacity:0.6;stroke:#481f70;stroke-opacity:0.6;"/>
    <path clip-path="url(#pb613b7a670)" d="M 95.604069 428.884408 
C 96.923597 428.884408 98.189259 428.360154 99.122307 427.427106 
C 100.055354 426.494058 100.579609 425.228396 100.579609 423.908868 
C 100.579609 422.589339 100.055354 421.323677 99.122307 420.39063 
C 98.189259 419.457582 96.923597 418.933328 95.604069 418.933328 
C 94.28454 418.933328 93.018878 419.457582 92.08583 420.39063 
C 91.152783 421.323677 90.628528 422.589339 90.628528 423.908868 
C 90.628528 425.228396 91.152783 426.494058 92.08583 427.427106 
C 93.018878 428.360154 94.28454 428.884408 95.604069 428.884408 
z
" style="fill:#dae319;fill-opacity:0.6;stroke:#dae319;stroke-opacity:0.6;"/>
    <path clip-path="url(#pb613b7a670)" d="M 76.864975 391.484245 
C 78.664491 391.484245 80.390546 390.76929 81.662995 389.49684 
C 82.935445 388.22439 83.650401 386.498335 83.650401 384.698819 
C 83.650401 382.899303 82.935445 381.173249 81.662995 379.900799 
C 80.390546 378.628349 78.664491 377.913394 76.864975 377.913394 
C 75.065459 377.913394 73.339404 378.628349 72.066955 379.900799 
C 70.794505 381.173249 70.079549 382.899303 70.079549 384.698819 
C 70.079549 386.498335 70.794505 388.22439 72.066955 389.49684 
C 73.339404 390.76929 75.065459 391.484245 76.864975 391.484245 
z
" style="fill:#20928c;fill-opacity:0.6;stroke:#20928c;stroke-opacity:0.6;"/>
    <path clip-path="url(#pb613b7a670)" d="M 185.268195 402.815908 
C 186.937585 402.815908 188.538825 402.152652 189.719262 400.972215 
C 190.899699 399.791779 191.562955 398.190538 191.562955 396.521148 
C 191.562955 394.851758 190.899699 393.250518 189.719262 392.070081 
C 188.538825 390.889644 186.937585 390.226388 185.268195 390.226388 
C 183.598805 390.226388 181.997564 390.889644 180.817128 392.070081 
C 179.636691 393.250518 178.973435 394.851758 178.973435 396.521148 
C 178.973435 398.190538 179.636691 399.791779 180.817128 400.972215 
C 181.997564 402.152652 183.598805 402.815908 185.268195 402.815908 
z
" style="fill:#2e6d8e;fill-opacity:0.6;stroke:#2e6d8e;stroke-opacity:0.6;"/>
    <path clip-path="url(#pb613b7a670)" d="M 189.503319 377.138048 
C 191.454698 377.138048 193.326417 376.362756 194.706251 374.982923 
C 196.086084 373.603089 196.861375 371.73137 196.861375 369.779991 
C 196.861375 367.828611 196.086084 365.956893 194.706251 364.577059 
C 193.326417 363.197225 191.454698 362.421934 189.503319 362.421934 
C 187.551939 362.421934 185.68022 363.197225 184.300387 364.577059 
C 182.920553 365.956893 182.145262 367.828611 182.145262 369.779991 
C 182.145262 371.73137 182.920553 373.603089 184.300387 374.982923 
C 185.68022 376.362756 187.551939 377.138048 189.503319 377.138048 
z
" style="fill:#2b748e;fill-opacity:0.6;stroke:#2b748e;stroke-opacity:0.6;"/>
    <path clip-path="url(#pb613b7a670)" d="M 170.950287 381.477361 
C 172.857059 381.477361 174.68599 380.719793 176.034281 379.371501 
C 177.382573 378.02321 178.140141 376.194279 178.140141 374.287507 
C 178.140141 372.380735 177.382573 370.551804 176.034281 369.203512 
C 174.68599 367.855221 172.857059 367.097653 170.950287 367.097653 
C 169.043515 367.097653 167.214584 367.855221 165.866292 369.203512 
C 164.518001 370.551804 163.760433 372.380735 163.760433 374.287507 
C 163.760433 376.194279 164.518001 378.02321 165.866292 379.371501 
C 167.214584 380.719793 169.043515 381.477361 170.950287 381.477361 
z
" style="fill:#a0da39;fill-opacity:0.6;stroke:#a0da39;stroke-opacity:0.6;"/>
    <path clip-path="url(#pb613b7a670)" d="M 63.267688 485.918899 
C 63.990477 485.918899 64.68376 485.631731 65.194849 485.120642 
C 65.705938 484.609553 65.993105 483.91627 65.993105 483.193481 
C 65.993105 482.470692 65.705938 481.777409 65.194849 481.26632 
C 64.68376 480.755231 63.990477 480.468064 63.267688 480.468064 
C 62.544899 480.468064 61.851616 480.755231 61.340527 481.26632 
C 60.829438 481.777409 60.54227 482.470692 60.54227 483.193481 
C 60.54227 483.91627 60.829438 484.609553 61.340527 485.120642 
C 61.851616 485.631731 62.544899 485.918899 63.267688 485.918899 
z
" style="fill:#443b84;fill-opacity:0.6;stroke:#443b84;stroke-opacity:0.6;"/>
    <path clip-path="url(#pb613b7a670)" d="M 538.750407 152.638185 
C 542.301455 152.638185 545.70754 151.227338 548.218511 148.716367 
C 550.729482 146.205397 552.140328 142.799312 552.140328 139.248263 
C 552.140328 135.697214 550.729482 132.291129 548.218511 129.780159 
C 545.70754 127.269188 542.301455 125.858341 538.750407 125.858341 
C 535.199358 125.858341 531.793273 127.269188 529.282302 129.780159 
C 526.771332 132.291129 525.360485 135.697214 525.360485 139.248263 
C 525.360485 142.799312 526.771332 146.205397 529.282302 148.716367 
C 531.793273 151.227338 535.199358 152.638185 538.750407 152.638185 
z
" style="fill:#3aba76;fill-opacity:0.6;stroke:#3aba76;stroke-opacity:0.6;"/>
    <path clip-path="url(#pb613b7a670)" d="M 350.591596 258.448247 
C 353.50328 258.448247 356.2961 257.291423 358.354972 255.232551 
C 360.413843 253.17368 361.570667 250.380859 361.570667 247.469176 
C 361.570667 244.557492 360.413843 241.764671 358.354972 239.7058 
C 356.2961 237.646929 353.50328 236.490105 350.591596 236.490105 
C 347.679913 236.490105 344.887092 237.646929 342.828221 239.7058 
C 340.769349 241.764671 339.612525 244.557492 339.612525 247.469176 
C 339.612525 250.380859 340.769349 253.17368 342.828221 255.232551 
C 344.887092 257.291423 347.679913 258.448247 350.591596 258.448247 
z
" style="fill:#443a83;fill-opacity:0.6;stroke:#443a83;stroke-opacity:0.6;"/>
    <path clip-path="url(#pb613b7a670)" d="M 470.232366 168.425368 
C 473.695678 168.425368 477.017609 167.049379 479.466541 164.600447 
C 481.915473 162.151515 483.291462 158.829584 483.291462 155.366271 
C 483.291462 151.902958 481.915473 148.581028 479.466541 146.132096 
C 477.017609 143.683164 473.695678 142.307175 470.232366 142.307175 
C 466.769053 142.307175 463.447122 143.683164 460.99819 146.132096 
C 458.549258 148.581028 457.173269 151.902958 457.173269 155.366271 
C 457.173269 158.829584 458.549258 162.151515 460.99819 164.600447 
C 463.447122 167.049379 466.769053 168.425368 470.232366 168.425368 
z
" style="fill:#48186a;fill-opacity:0.6;stroke:#48186a;stroke-opacity:0.6;"/>
    <path clip-path="url(#pb613b7a670)" d="M 123.483823 386.512057 
C 125.337439 386.512057 127.115386 385.775607 128.42609 384.464903 
C 129.736794 383.154198 130.473244 381.376252 130.473244 379.522636 
C 130.473244 377.66902 129.736794 375.891074 128.42609 374.580369 
C 127.115386 373.269665 125.337439 372.533215 123.483823 372.533215 
C 121.630207 372.533215 119.852261 373.269665 118.541557 374.580369 
C 117.230852 375.891074 116.494403 377.66902 116.494403 379.522636 
C 116.494403 381.376252 117.230852 383.154198 118.541557 384.464903 
C 119.852261 385.775607 121.630207 386.512057 123.483823 386.512057 
z
" style="fill:#2a778e;fill-opacity:0.6;stroke:#2a778e;stroke-opacity:0.6;"/>
    <path clip-path="url(#pb613b7a670)" d="M 155.288599 371.278407 
C 157.298586 371.278407 159.22652 370.479831 160.647796 369.058555 
C 162.069072 367.637279 162.867649 365.709345 162.867649 363.699357 
C 162.867649 361.68937 162.069072 359.761435 160.647796 358.340159 
C 159.22652 356.918884 157.298586 356.120307 155.288599 356.120307 
C 153.278611 356.120307 151.350677 356.918884 149.929401 358.340159 
C 148.508125 359.761435 147.709548 361.68937 147.709548 363.699357 
C 147.709548 365.709345 148.508125 367.637279 149.929401 369.058555 
C 151.350677 370.479831 153.278611 371.278407 155.288599 371.278407 
z
" style="fill:#3f4889;fill-opacity:0.6;stroke:#3f4889;stroke-opacity:0.6;"/>
    <path clip-path="url(#pb613b7a670)" d="M 212.610437 335.101296 
C 214.948951 335.101296 217.192001 334.172195 218.84558 332.518615 
C 220.499159 330.865036 221.42826 328.621987 221.42826 326.283473 
C 221.42826 323.944959 220.499159 321.70191 218.84558 320.048331 
C 217.192001 318.394752 214.948951 317.46565 212.610437 317.46565 
C 210.271923 317.46565 208.028874 318.394752 206.375295 320.048331 
C 204.721716 321.70191 203.792615 323.944959 203.792615 326.283473 
C 203.792615 328.621987 204.721716 330.865036 206.375295 332.518615 
C 208.028874 334.172195 210.271923 335.101296 212.610437 335.101296 
z
" style="fill:#a0da39;fill-opacity:0.6;stroke:#a0da39;stroke-opacity:0.6;"/>
    <path clip-path="url(#pb613b7a670)" d="M 72.721406 453.961115 
C 73.567275 453.961115 74.378613 453.625048 74.976733 453.026928 
C 75.574852 452.428808 75.91092 451.61747 75.91092 450.771601 
C 75.91092 449.925732 75.574852 449.114394 74.976733 448.516274 
C 74.378613 447.918154 73.567275 447.582087 72.721406 447.582087 
C 71.875537 447.582087 71.064198 447.918154 70.466079 448.516274 
C 69.867959 449.114394 69.531891 449.925732 69.531891 450.771601 
C 69.531891 451.61747 69.867959 452.428808 70.466079 453.026928 
C 71.064198 453.625048 71.875537 453.961115 72.721406 453.961115 
z
" style="fill:#b5de2b;fill-opacity:0.6;stroke:#b5de2b;stroke-opacity:0.6;"/>
    <path clip-path="url(#pb613b7a670)" d="M 511.047854 97.31464 
C 514.89028 97.31464 518.575847 95.788028 521.292853 93.071022 
C 524.009858 90.354017 525.53647 86.66845 525.53647 82.826024 
C 525.53647 78.983598 524.009858 75.29803 521.292853 72.581025 
C 518.575847 69.864019 514.89028 68.337407 511.047854 68.337407 
C 507.205428 68.337407 503.519861 69.864019 500.802855 72.581025 
C 498.08585 75.29803 496.559238 78.983598 496.559238 82.826024 
C 496.559238 86.66845 498.08585 90.354017 500.802855 93.071022 
C 503.519861 95.788028 507.205428 97.31464 511.047854 97.31464 
z
" style="fill:#481b6d;fill-opacity:0.6;stroke:#481b6d;stroke-opacity:0.6;"/>
    <path clip-path="url(#pb613b7a670)" d="M 209.657074 354.636285 
C 211.824596 354.636285 213.903634 353.775119 215.436304 352.24245 
C 216.968973 350.70978 217.830139 348.630742 217.830139 346.46322 
C 217.830139 344.295697 216.968973 342.216659 215.436304 340.683989 
C 213.903634 339.15132 211.824596 338.290154 209.657074 338.290154 
C 207.489551 338.290154 205.410513 339.15132 203.877843 340.683989 
C 202.345174 342.216659 201.484008 344.295697 201.484008 346.46322 
C 201.484008 348.630742 202.345174 350.70978 203.877843 352.24245 
C 205.410513 353.775119 207.489551 354.636285 209.657074 354.636285 
z
" style="fill:#4cc26c;fill-opacity:0.6;stroke:#4cc26c;stroke-opacity:0.6;"/>
    <path clip-path="url(#pb613b7a670)" d="M 126.918585 401.696439 
C 128.601299 401.696439 130.215319 401.02789 131.405177 399.838032 
C 132.595034 398.648174 133.263583 397.034154 133.263583 395.351441 
C 133.263583 393.668728 132.595034 392.054708 131.405177 390.86485 
C 130.215319 389.674992 128.601299 389.006443 126.918585 389.006443 
C 125.235872 389.006443 123.621852 389.674992 122.431994 390.86485 
C 121.242136 392.054708 120.573587 393.668728 120.573587 395.351441 
C 120.573587 397.034154 121.242136 398.648174 122.431994 399.838032 
C 123.621852 401.02789 125.235872 401.696439 126.918585 401.696439 
z
" style="fill:#355f8d;fill-opacity:0.6;stroke:#355f8d;stroke-opacity:0.6;"/>
    <path clip-path="url(#pb613b7a670)" d="M 87.689053 449.537459 
C 88.63728 449.537459 89.546797 449.160725 90.217294 448.490228 
C 90.887791 447.819731 91.264525 446.910214 91.264525 445.961987 
C 91.264525 445.013761 90.887791 444.104244 90.217294 443.433747 
C 89.546797 442.76325 88.63728 442.386515 87.689053 442.386515 
C 86.740827 442.386515 85.83131 442.76325 85.160813 443.433747 
C 84.490316 444.104244 84.113581 445.013761 84.113581 445.961987 
C 84.113581 446.910214 84.490316 447.819731 85.160813 448.490228 
C 85.83131 449.160725 86.740827 449.537459 87.689053 449.537459 
z
" style="fill:#433e85;fill-opacity:0.6;stroke:#433e85;stroke-opacity:0.6;"/>
    <path clip-path="url(#pb613b7a670)" d="M 123.711232 413.74608 
C 125.244166 413.74608 126.714521 413.137039 127.798469 412.053091 
C 128.882416 410.969144 129.491457 409.498789 129.491457 407.965855 
C 129.491457 406.432921 128.882416 404.962567 127.798469 403.878619 
C 126.714521 402.794671 125.244166 402.18563 123.711232 402.18563 
C 122.178299 402.18563 120.707944 402.794671 119.623996 403.878619 
C 118.540048 404.962567 117.931007 406.432921 117.931007 407.965855 
C 117.931007 409.498789 118.540048 410.969144 119.623996 412.053091 
C 120.707944 413.137039 122.178299 413.74608 123.711232 413.74608 
z
" style="fill:#3f4889;fill-opacity:0.6;stroke:#3f4889;stroke-opacity:0.6;"/>
    <path clip-path="url(#pb613b7a670)" d="M 58.766761 524.068457 
C 60.139863 524.068457 61.456911 523.522918 62.42784 522.551988 
C 63.39877 521.581059 63.944309 520.264011 63.944309 518.890909 
C 63.944309 517.517807 63.39877 516.20076 62.42784 515.22983 
C 61.456911 514.2589 60.139863 513.713361 58.766761 513.713361 
C 57.39366 513.713361 56.076612 514.2589 55.105682 515.22983 
C 54.134753 516.20076 53.589214 517.517807 53.589214 518.890909 
C 53.589214 520.264011 54.134753 521.581059 55.105682 522.551988 
C 56.076612 523.522918 57.39366 524.068457 58.766761 524.068457 
z
" style="fill:#48186a;fill-opacity:0.6;stroke:#48186a;stroke-opacity:0.6;"/>
    <path clip-path="url(#pb613b7a670)" d="M 103.687425 465.766728 
C 104.144299 465.766728 104.582521 465.585211 104.90558 465.262152 
C 105.228638 464.939094 105.410156 464.500871 105.410156 464.043998 
C 105.410156 463.587124 105.228638 463.148902 104.90558 462.825844 
C 104.582521 462.502785 104.144299 462.321267 103.687425 462.321267 
C 103.230552 462.321267 102.792329 462.502785 102.469271 462.825844 
C 102.146213 463.148902 101.964695 463.587124 101.964695 464.043998 
C 101.964695 464.500871 102.146213 464.939094 102.469271 465.262152 
C 102.792329 465.585211 103.230552 465.766728 103.687425 465.766728 
z
" style="fill:#20928c;fill-opacity:0.6;stroke:#20928c;stroke-opacity:0.6;"/>
    <path clip-path="url(#pb613b7a670)" d="M 132.946401 404.188687 
C 134.599299 404.188687 136.184722 403.531984 137.353498 402.363208 
C 138.522273 401.194432 139.178977 399.60901 139.178977 397.956111 
C 139.178977 396.303213 138.522273 394.71779 137.353498 393.549015 
C 136.184722 392.380239 134.599299 391.723536 132.946401 391.723536 
C 131.293503 391.723536 129.70808 392.380239 128.539304 393.549015 
C 127.370529 394.71779 126.713825 396.303213 126.713825 397.956111 
C 126.713825 399.60901 127.370529 401.194432 128.539304 402.363208 
C 129.70808 403.531984 131.293503 404.188687 132.946401 404.188687 
z
" style="fill:#481a6c;fill-opacity:0.6;stroke:#481a6c;stroke-opacity:0.6;"/>
    <path clip-path="url(#pb613b7a670)" d="M 59.050284 372.038519 
C 61.05277 372.038519 62.973508 371.242924 64.389479 369.826953 
C 65.80545 368.410982 66.601046 366.490243 66.601046 364.487758 
C 66.601046 362.485273 65.80545 360.564534 64.389479 359.148563 
C 62.973508 357.732592 61.05277 356.936996 59.050284 356.936996 
C 57.047799 356.936996 55.127061 357.732592 53.71109 359.148563 
C 52.295119 360.564534 51.499523 362.485273 51.499523 364.487758 
C 51.499523 366.490243 52.295119 368.410982 53.71109 369.826953 
C 55.127061 371.242924 57.047799 372.038519 59.050284 372.038519 
z
" style="fill:#481c6e;fill-opacity:0.6;stroke:#481c6e;stroke-opacity:0.6;"/>
    <path clip-path="url(#pb613b7a670)" d="M 213.732716 353.341464 
C 215.912001 353.341464 218.002322 352.475625 219.543309 350.934637 
C 221.084297 349.39365 221.950136 347.303329 221.950136 345.124043 
C 221.950136 342.944758 221.084297 340.854437 219.543309 339.31345 
C 218.002322 337.772462 215.912001 336.906623 213.732716 336.906623 
C 211.55343 336.906623 209.463109 337.772462 207.922122 339.31345 
C 206.381134 340.854437 205.515295 342.944758 205.515295 345.124043 
C 205.515295 347.303329 206.381134 349.39365 207.922122 350.934637 
C 209.463109 352.475625 211.55343 353.341464 213.732716 353.341464 
z
" style="fill:#46075a;fill-opacity:0.6;stroke:#46075a;stroke-opacity:0.6;"/>
    <path clip-path="url(#pb613b7a670)" d="M 61.153079 436.144748 
C 62.356061 436.144748 63.509934 435.666798 64.360571 434.816162 
C 65.211207 433.965525 65.689157 432.811652 65.689157 431.608671 
C 65.689157 430.405689 65.211207 429.251816 64.360571 428.401179 
C 63.509934 427.550543 62.356061 427.072593 61.153079 427.072593 
C 59.950098 427.072593 58.796225 427.550543 57.945588 428.401179 
C 57.094952 429.251816 56.617002 430.405689 56.617002 431.608671 
C 56.617002 432.811652 57.094952 433.965525 57.945588 434.816162 
C 58.796225 435.666798 59.950098 436.144748 61.153079 436.144748 
z
" style="fill:#1fa187;fill-opacity:0.6;stroke:#1fa187;stroke-opacity:0.6;"/>
    <path clip-path="url(#pb613b7a670)" d="M 79.508236 462.867454 
C 80.088982 462.867454 80.646021 462.636721 81.05667 462.226071 
C 81.46732 461.815422 81.698053 461.258383 81.698053 460.677637 
C 81.698053 460.09689 81.46732 459.539852 81.05667 459.129202 
C 80.646021 458.718552 80.088982 458.487819 79.508236 458.487819 
C 78.927489 458.487819 78.370451 458.718552 77.959801 459.129202 
C 77.549151 459.539852 77.318418 460.09689 77.318418 460.677637 
C 77.318418 461.258383 77.549151 461.815422 77.959801 462.226071 
C 78.370451 462.636721 78.927489 462.867454 79.508236 462.867454 
z
" style="fill:#472f7d;fill-opacity:0.6;stroke:#472f7d;stroke-opacity:0.6;"/>
    <path clip-path="url(#pb613b7a670)" d="M 63.536444 467.178212 
C 63.915425 467.178212 64.278934 467.027641 64.546914 466.759661 
C 64.814894 466.491681 64.965465 466.128172 64.965465 465.749191 
C 64.965465 465.37021 64.814894 465.006701 64.546914 464.738721 
C 64.278934 464.470741 63.915425 464.32017 63.536444 464.32017 
C 63.157463 464.32017 62.793954 464.470741 62.525974 464.738721 
C 62.257994 465.006701 62.107423 465.37021 62.107423 465.749191 
C 62.107423 466.128172 62.257994 466.491681 62.525974 466.759661 
C 62.793954 467.027641 63.157463 467.178212 63.536444 467.178212 
z
" style="fill:#32648e;fill-opacity:0.6;stroke:#32648e;stroke-opacity:0.6;"/>
    <path clip-path="url(#pb613b7a670)" d="M 98.01106 459.615482 
C 98.701918 459.615482 99.364573 459.341001 99.853083 458.852491 
C 100.341594 458.363981 100.616075 457.701325 100.616075 457.010467 
C 100.616075 456.31961 100.341594 455.656954 99.853083 455.168444 
C 99.364573 454.679934 98.701918 454.405453 98.01106 454.405453 
C 97.320202 454.405453 96.657547 454.679934 96.169037 455.168444 
C 95.680526 455.656954 95.406046 456.31961 95.406046 457.010467 
C 95.406046 457.701325 95.680526 458.363981 96.169037 458.852491 
C 96.657547 459.341001 97.320202 459.615482 98.01106 459.615482 
z
" style="fill:#2c728e;fill-opacity:0.6;stroke:#2c728e;stroke-opacity:0.6;"/>
    <path clip-path="url(#pb613b7a670)" d="M 198.809368 339.240538 
C 201.112745 339.240538 203.322092 338.325397 204.950826 336.696663 
C 206.579559 335.06793 207.494701 332.858583 207.494701 330.555206 
C 207.494701 328.251829 206.579559 326.042482 204.950826 324.413748 
C 203.322092 322.785015 201.112745 321.869873 198.809368 321.869873 
C 196.505991 321.869873 194.296644 322.785015 192.667911 324.413748 
C 191.039177 326.042482 190.124036 328.251829 190.124036 330.555206 
C 190.124036 332.858583 191.039177 335.06793 192.667911 336.696663 
C 194.296644 338.325397 196.505991 339.240538 198.809368 339.240538 
z
" style="fill:#63cb5f;fill-opacity:0.6;stroke:#63cb5f;stroke-opacity:0.6;"/>
    <path clip-path="url(#pb613b7a670)" d="M 102.742349 378.388635 
C 104.680982 378.388635 106.540474 377.618408 107.911295 376.247588 
C 109.282115 374.876767 110.052342 373.017275 110.052342 371.078642 
C 110.052342 369.140009 109.282115 367.280516 107.911295 365.909696 
C 106.540474 364.538876 104.680982 363.768649 102.742349 363.768649 
C 100.803716 363.768649 98.944224 364.538876 97.573403 365.909696 
C 96.202583 367.280516 95.432356 369.140009 95.432356 371.078642 
C 95.432356 373.017275 96.202583 374.876767 97.573403 376.247588 
C 98.944224 377.618408 100.803716 378.388635 102.742349 378.388635 
z
" style="fill:#440154;fill-opacity:0.6;stroke:#440154;stroke-opacity:0.6;"/>
    <path clip-path="url(#pb613b7a670)" d="M 161.84802 397.892644 
C 163.575203 397.892644 165.231877 397.206427 166.45318 395.985124 
C 167.674483 394.763821 168.3607 393.107147 168.3607 391.379964 
C 168.3607 389.652781 167.674483 387.996107 166.45318 386.774804 
C 165.231877 385.553501 163.575203 384.867284 161.84802 384.867284 
C 160.120837 384.867284 158.464162 385.553501 157.242859 386.774804 
C 156.021557 387.996107 155.33534 389.652781 155.33534 391.379964 
C 155.33534 393.107147 156.021557 394.763821 157.242859 395.985124 
C 158.464162 397.206427 160.120837 397.892644 161.84802 397.892644 
z
" style="fill:#355f8d;fill-opacity:0.6;stroke:#355f8d;stroke-opacity:0.6;"/>
    <path clip-path="url(#pb613b7a670)" d="M 181.428822 352.530966 
C 183.615437 352.530966 185.712789 351.662215 187.258959 350.116044 
C 188.80513 348.569874 189.673881 346.472522 189.673881 344.285907 
C 189.673881 342.099292 188.80513 340.00194 187.258959 338.45577 
C 185.712789 336.909599 183.615437 336.040848 181.428822 336.040848 
C 179.242207 336.040848 177.144855 336.909599 175.598685 338.45577 
C 174.052514 340.00194 173.183763 342.099292 173.183763 344.285907 
C 173.183763 346.472522 174.052514 348.569874 175.598685 350.116044 
C 177.144855 351.662215 179.242207 352.530966 181.428822 352.530966 
z
" style="fill:#d5e21a;fill-opacity:0.6;stroke:#d5e21a;stroke-opacity:0.6;"/>
    <path clip-path="url(#pb613b7a670)" d="M 87.565012 455.480486 
C 88.372446 455.480486 89.146917 455.159689 89.717859 454.588747 
C 90.288801 454.017806 90.609598 453.243334 90.609598 452.4359 
C 90.609598 451.628467 90.288801 450.853995 89.717859 450.283053 
C 89.146917 449.712112 88.372446 449.391315 87.565012 449.391315 
C 86.757579 449.391315 85.983107 449.712112 85.412165 450.283053 
C 84.841224 450.853995 84.520427 451.628467 84.520427 452.4359 
C 84.520427 453.243334 84.841224 454.017806 85.412165 454.588747 
C 85.983107 455.159689 86.757579 455.480486 87.565012 455.480486 
z
" style="fill:#6ccd5a;fill-opacity:0.6;stroke:#6ccd5a;stroke-opacity:0.6;"/>
    <path clip-path="url(#pb613b7a670)" d="M 73.341612 467.943812 
C 73.668576 467.943812 73.982193 467.813908 74.213392 467.582709 
C 74.44459 467.351511 74.574495 467.037894 74.574495 466.71093 
C 74.574495 466.383965 74.44459 466.070348 74.213392 465.83915 
C 73.982193 465.607951 73.668576 465.478047 73.341612 465.478047 
C 73.014648 465.478047 72.701031 465.607951 72.469832 465.83915 
C 72.238633 466.070348 72.108729 466.383965 72.108729 466.71093 
C 72.108729 467.037894 72.238633 467.351511 72.469832 467.582709 
C 72.701031 467.813908 73.014648 467.943812 73.341612 467.943812 
z
" style="fill:#32648e;fill-opacity:0.6;stroke:#32648e;stroke-opacity:0.6;"/>
    <path clip-path="url(#pb613b7a670)" d="M 59.726605 422.850716 
C 61.13528 422.850716 62.486449 422.291043 63.482533 421.29496 
C 64.478617 420.298876 65.03829 418.947706 65.03829 417.539031 
C 65.03829 416.130356 64.478617 414.779186 63.482533 413.783102 
C 62.486449 412.787018 61.13528 412.227346 59.726605 412.227346 
C 58.317929 412.227346 56.96676 412.787018 55.970676 413.783102 
C 54.974592 414.779186 54.414919 416.130356 54.414919 417.539031 
C 54.414919 418.947706 54.974592 420.298876 55.970676 421.29496 
C 56.96676 422.291043 58.317929 422.850716 59.726605 422.850716 
z
" style="fill:#287d8e;fill-opacity:0.6;stroke:#287d8e;stroke-opacity:0.6;"/>
    <path clip-path="url(#pb613b7a670)" d="M 78.873262 439.818507 
C 80.012432 439.818507 81.105098 439.36591 81.910613 438.560395 
C 82.716128 437.75488 83.168725 436.662214 83.168725 435.523044 
C 83.168725 434.383874 82.716128 433.291208 81.910613 432.485693 
C 81.105098 431.680178 80.012432 431.227581 78.873262 431.227581 
C 77.734092 431.227581 76.641426 431.680178 75.835912 432.485693 
C 75.030397 433.291208 74.5778 434.383874 74.5778 435.523044 
C 74.5778 436.662214 75.030397 437.75488 75.835912 438.560395 
C 76.641426 439.36591 77.734092 439.818507 78.873262 439.818507 
z
" style="fill:#70cf57;fill-opacity:0.6;stroke:#70cf57;stroke-opacity:0.6;"/>
    <path clip-path="url(#pb613b7a670)" d="M 135.840698 396.932196 
C 137.578921 396.932196 139.246186 396.241592 140.475296 395.012483 
C 141.704406 393.783373 142.395009 392.116108 142.395009 390.377884 
C 142.395009 388.639661 141.704406 386.972396 140.475296 385.743286 
C 139.246186 384.514176 137.578921 383.823573 135.840698 383.823573 
C 134.102474 383.823573 132.435209 384.514176 131.206099 385.743286 
C 129.97699 386.972396 129.286386 388.639661 129.286386 390.377884 
C 129.286386 392.116108 129.97699 393.783373 131.206099 395.012483 
C 132.435209 396.241592 134.102474 396.932196 135.840698 396.932196 
z
" style="fill:#443983;fill-opacity:0.6;stroke:#443983;stroke-opacity:0.6;"/>
    <path clip-path="url(#pb613b7a670)" d="M 83.687245 345.316246 
C 85.938022 345.316246 88.096915 344.422003 89.688454 342.830464 
C 91.279993 341.238925 92.174236 339.080032 92.174236 336.829256 
C 92.174236 334.57848 91.279993 332.419587 89.688454 330.828048 
C 88.096915 329.236508 85.938022 328.342266 83.687245 328.342266 
C 81.436469 328.342266 79.277576 329.236508 77.686037 330.828048 
C 76.094498 332.419587 75.200255 334.57848 75.200255 336.829256 
C 75.200255 339.080032 76.094498 341.238925 77.686037 342.830464 
C 79.277576 344.422003 81.436469 345.316246 83.687245 345.316246 
z
" style="fill:#46337f;fill-opacity:0.6;stroke:#46337f;stroke-opacity:0.6;"/>
    <path clip-path="url(#pb613b7a670)" d="M 66.99188 437.368471 
C 68.174013 437.368471 69.307889 436.898805 70.143784 436.06291 
C 70.979679 435.227015 71.449345 434.093139 71.449345 432.911006 
C 71.449345 431.728872 70.979679 430.594996 70.143784 429.759102 
C 69.307889 428.923207 68.174013 428.45354 66.99188 428.45354 
C 65.809746 428.45354 64.67587 428.923207 63.839975 429.759102 
C 63.004081 430.594996 62.534414 431.728872 62.534414 432.911006 
C 62.534414 434.093139 63.004081 435.227015 63.839975 436.06291 
C 64.67587 436.898805 65.809746 437.368471 66.99188 437.368471 
z
" style="fill:#404588;fill-opacity:0.6;stroke:#404588;stroke-opacity:0.6;"/>
    <path clip-path="url(#pb613b7a670)" d="M 155.238391 468.050595 
C 155.557231 468.050595 155.863055 467.923919 156.088509 467.698465 
C 156.313963 467.473011 156.440639 467.167187 156.440639 466.848347 
C 156.440639 466.529507 156.313963 466.223683 156.088509 465.998229 
C 155.863055 465.772776 155.557231 465.646099 155.238391 465.646099 
C 154.919551 465.646099 154.613728 465.772776 154.388274 465.998229 
C 154.16282 466.223683 154.036143 466.529507 154.036143 466.848347 
C 154.036143 467.167187 154.16282 467.473011 154.388274 467.698465 
C 154.613728 467.923919 154.919551 468.050595 155.238391 468.050595 
z
" style="fill:#3f4889;fill-opacity:0.6;stroke:#3f4889;stroke-opacity:0.6;"/>
    <path clip-path="url(#pb613b7a670)" d="M 305.877668 312.226485 
C 308.401295 312.226485 310.821901 311.223837 312.606375 309.439363 
C 314.390849 307.654889 315.393497 305.234283 315.393497 302.710656 
C 315.393497 300.187028 314.390849 297.766423 312.606375 295.981949 
C 310.821901 294.197475 308.401295 293.194827 305.877668 293.194827 
C 303.35404 293.194827 300.933434 294.197475 299.14896 295.981949 
C 297.364486 297.766423 296.361839 300.187028 296.361839 302.710656 
C 296.361839 305.234283 297.364486 307.654889 299.14896 309.439363 
C 300.933434 311.223837 303.35404 312.226485 305.877668 312.226485 
z
" style="fill:#50c46a;fill-opacity:0.6;stroke:#50c46a;stroke-opacity:0.6;"/>
    <path clip-path="url(#pb613b7a670)" d="M 70.875553 460.628488 
C 71.534331 460.628488 72.166215 460.366752 72.632041 459.900926 
C 73.097867 459.4351 73.359602 458.803216 73.359602 458.144438 
C 73.359602 457.485661 73.097867 456.853777 72.632041 456.38795 
C 72.166215 455.922124 71.534331 455.660389 70.875553 455.660389 
C 70.216776 455.660389 69.584891 455.922124 69.119065 456.38795 
C 68.653239 456.853777 68.391504 457.485661 68.391504 458.144438 
C 68.391504 458.803216 68.653239 459.4351 69.119065 459.900926 
C 69.584891 460.366752 70.216776 460.628488 70.875553 460.628488 
z
" style="fill:#b2dd2d;fill-opacity:0.6;stroke:#b2dd2d;stroke-opacity:0.6;"/>
   </g>
   <g id="matplotlib.axis_1">
    <g id="xtick_1">
     <g id="line2d_1">
      <defs>
       <path d="M 0 0 
L 0 3.5 
" id="m02e5bd2b9c" style="stroke:#000000;stroke-width:0.8;"/>
      </defs>
      <g>
       <use style="stroke:#000000;stroke-width:0.8;" x="57.972306" xlink:href="#m02e5bd2b9c" y="543.6"/>
      </g>
     </g>
     <g id="text_1">
      <!-- 5.0 -->
      <g transform="translate(50.020744 558.198438)scale(0.1 -0.1)">
       <defs>
        <path d="M 10.796875 72.90625 
L 49.515625 72.90625 
L 49.515625 64.59375 
L 19.828125 64.59375 
L 19.828125 46.734375 
Q 21.96875 47.46875 24.109375 47.828125 
Q 26.265625 48.1875 28.421875 48.1875 
Q 40.625 48.1875 47.75 41.5 
Q 54.890625 34.8125 54.890625 23.390625 
Q 54.890625 11.625 47.5625 5.09375 
Q 40.234375 -1.421875 26.90625 -1.421875 
Q 22.3125 -1.421875 17.546875 -0.640625 
Q 12.796875 0.140625 7.71875 1.703125 
L 7.71875 11.625 
Q 12.109375 9.234375 16.796875 8.0625 
Q 21.484375 6.890625 26.703125 6.890625 
Q 35.15625 6.890625 40.078125 11.328125 
Q 45.015625 15.765625 45.015625 23.390625 
Q 45.015625 31 40.078125 35.4375 
Q 35.15625 39.890625 26.703125 39.890625 
Q 22.75 39.890625 18.8125 39.015625 
Q 14.890625 38.140625 10.796875 36.28125 
z
" id="DejaVuSans-53"/>
        <path d="M 10.6875 12.40625 
L 21 12.40625 
L 21 0 
L 10.6875 0 
z
" id="DejaVuSans-46"/>
        <path d="M 31.78125 66.40625 
Q 24.171875 66.40625 20.328125 58.90625 
Q 16.5 51.421875 16.5 36.375 
Q 16.5 21.390625 20.328125 13.890625 
Q 24.171875 6.390625 31.78125 6.390625 
Q 39.453125 6.390625 43.28125 13.890625 
Q 47.125 21.390625 47.125 36.375 
Q 47.125 51.421875 43.28125 58.90625 
Q 39.453125 66.40625 31.78125 66.40625 
z
M 31.78125 74.21875 
Q 44.046875 74.21875 50.515625 64.515625 
Q 56.984375 54.828125 56.984375 36.375 
Q 56.984375 17.96875 50.515625 8.265625 
Q 44.046875 -1.421875 31.78125 -1.421875 
Q 19.53125 -1.421875 13.0625 8.265625 
Q 6.59375 17.96875 6.59375 36.375 
Q 6.59375 54.828125 13.0625 64.515625 
Q 19.53125 74.21875 31.78125 74.21875 
z
" id="DejaVuSans-48"/>
       </defs>
       <use xlink:href="#DejaVuSans-53"/>
       <use x="63.623047" xlink:href="#DejaVuSans-46"/>
       <use x="95.410156" xlink:href="#DejaVuSans-48"/>
      </g>
     </g>
    </g>
    <g id="xtick_2">
     <g id="line2d_2">
      <g>
       <use style="stroke:#000000;stroke-width:0.8;" x="131.806403" xlink:href="#m02e5bd2b9c" y="543.6"/>
      </g>
     </g>
     <g id="text_2">
      <!-- 7.5 -->
      <g transform="translate(123.85484 558.198438)scale(0.1 -0.1)">
       <defs>
        <path d="M 8.203125 72.90625 
L 55.078125 72.90625 
L 55.078125 68.703125 
L 28.609375 0 
L 18.3125 0 
L 43.21875 64.59375 
L 8.203125 64.59375 
z
" id="DejaVuSans-55"/>
       </defs>
       <use xlink:href="#DejaVuSans-55"/>
       <use x="63.623047" xlink:href="#DejaVuSans-46"/>
       <use x="95.410156" xlink:href="#DejaVuSans-53"/>
      </g>
     </g>
    </g>
    <g id="xtick_3">
     <g id="line2d_3">
      <g>
       <use style="stroke:#000000;stroke-width:0.8;" x="205.640499" xlink:href="#m02e5bd2b9c" y="543.6"/>
      </g>
     </g>
     <g id="text_3">
      <!-- 10.0 -->
      <g transform="translate(194.507686 558.198438)scale(0.1 -0.1)">
       <defs>
        <path d="M 12.40625 8.296875 
L 28.515625 8.296875 
L 28.515625 63.921875 
L 10.984375 60.40625 
L 10.984375 69.390625 
L 28.421875 72.90625 
L 38.28125 72.90625 
L 38.28125 8.296875 
L 54.390625 8.296875 
L 54.390625 0 
L 12.40625 0 
z
" id="DejaVuSans-49"/>
       </defs>
       <use xlink:href="#DejaVuSans-49"/>
       <use x="63.623047" xlink:href="#DejaVuSans-48"/>
       <use x="127.246094" xlink:href="#DejaVuSans-46"/>
       <use x="159.033203" xlink:href="#DejaVuSans-48"/>
      </g>
     </g>
    </g>
    <g id="xtick_4">
     <g id="line2d_4">
      <g>
       <use style="stroke:#000000;stroke-width:0.8;" x="279.474595" xlink:href="#m02e5bd2b9c" y="543.6"/>
      </g>
     </g>
     <g id="text_4">
      <!-- 12.5 -->
      <g transform="translate(268.341782 558.198438)scale(0.1 -0.1)">
       <defs>
        <path d="M 19.1875 8.296875 
L 53.609375 8.296875 
L 53.609375 0 
L 7.328125 0 
L 7.328125 8.296875 
Q 12.9375 14.109375 22.625 23.890625 
Q 32.328125 33.6875 34.8125 36.53125 
Q 39.546875 41.84375 41.421875 45.53125 
Q 43.3125 49.21875 43.3125 52.78125 
Q 43.3125 58.59375 39.234375 62.25 
Q 35.15625 65.921875 28.609375 65.921875 
Q 23.96875 65.921875 18.8125 64.3125 
Q 13.671875 62.703125 7.8125 59.421875 
L 7.8125 69.390625 
Q 13.765625 71.78125 18.9375 73 
Q 24.125 74.21875 28.421875 74.21875 
Q 39.75 74.21875 46.484375 68.546875 
Q 53.21875 62.890625 53.21875 53.421875 
Q 53.21875 48.921875 51.53125 44.890625 
Q 49.859375 40.875 45.40625 35.40625 
Q 44.1875 33.984375 37.640625 27.21875 
Q 31.109375 20.453125 19.1875 8.296875 
z
" id="DejaVuSans-50"/>
       </defs>
       <use xlink:href="#DejaVuSans-49"/>
       <use x="63.623047" xlink:href="#DejaVuSans-50"/>
       <use x="127.246094" xlink:href="#DejaVuSans-46"/>
       <use x="159.033203" xlink:href="#DejaVuSans-53"/>
      </g>
     </g>
    </g>
    <g id="xtick_5">
     <g id="line2d_5">
      <g>
       <use style="stroke:#000000;stroke-width:0.8;" x="353.308691" xlink:href="#m02e5bd2b9c" y="543.6"/>
      </g>
     </g>
     <g id="text_5">
      <!-- 15.0 -->
      <g transform="translate(342.175878 558.198438)scale(0.1 -0.1)">
       <use xlink:href="#DejaVuSans-49"/>
       <use x="63.623047" xlink:href="#DejaVuSans-53"/>
       <use x="127.246094" xlink:href="#DejaVuSans-46"/>
       <use x="159.033203" xlink:href="#DejaVuSans-48"/>
      </g>
     </g>
    </g>
    <g id="xtick_6">
     <g id="line2d_6">
      <g>
       <use style="stroke:#000000;stroke-width:0.8;" x="427.142787" xlink:href="#m02e5bd2b9c" y="543.6"/>
      </g>
     </g>
     <g id="text_6">
      <!-- 17.5 -->
      <g transform="translate(416.009975 558.198438)scale(0.1 -0.1)">
       <use xlink:href="#DejaVuSans-49"/>
       <use x="63.623047" xlink:href="#DejaVuSans-55"/>
       <use x="127.246094" xlink:href="#DejaVuSans-46"/>
       <use x="159.033203" xlink:href="#DejaVuSans-53"/>
      </g>
     </g>
    </g>
    <g id="xtick_7">
     <g id="line2d_7">
      <g>
       <use style="stroke:#000000;stroke-width:0.8;" x="500.976883" xlink:href="#m02e5bd2b9c" y="543.6"/>
      </g>
     </g>
     <g id="text_7">
      <!-- 20.0 -->
      <g transform="translate(489.844071 558.198438)scale(0.1 -0.1)">
       <use xlink:href="#DejaVuSans-50"/>
       <use x="63.623047" xlink:href="#DejaVuSans-48"/>
       <use x="127.246094" xlink:href="#DejaVuSans-46"/>
       <use x="159.033203" xlink:href="#DejaVuSans-48"/>
      </g>
     </g>
    </g>
    <g id="xtick_8">
     <g id="line2d_8">
      <g>
       <use style="stroke:#000000;stroke-width:0.8;" x="574.810979" xlink:href="#m02e5bd2b9c" y="543.6"/>
      </g>
     </g>
     <g id="text_8">
      <!-- 22.5 -->
      <g transform="translate(563.678167 558.198438)scale(0.1 -0.1)">
       <use xlink:href="#DejaVuSans-50"/>
       <use x="63.623047" xlink:href="#DejaVuSans-50"/>
       <use x="127.246094" xlink:href="#DejaVuSans-46"/>
       <use x="159.033203" xlink:href="#DejaVuSans-53"/>
      </g>
     </g>
    </g>
    <g id="text_9">
     <!-- Population of city (in 10,000s) -->
     <g transform="translate(237.34375 571.876563)scale(0.1 -0.1)">
      <defs>
       <path d="M 19.671875 64.796875 
L 19.671875 37.40625 
L 32.078125 37.40625 
Q 38.96875 37.40625 42.71875 40.96875 
Q 46.484375 44.53125 46.484375 51.125 
Q 46.484375 57.671875 42.71875 61.234375 
Q 38.96875 64.796875 32.078125 64.796875 
z
M 9.8125 72.90625 
L 32.078125 72.90625 
Q 44.34375 72.90625 50.609375 67.359375 
Q 56.890625 61.8125 56.890625 51.125 
Q 56.890625 40.328125 50.609375 34.8125 
Q 44.34375 29.296875 32.078125 29.296875 
L 19.671875 29.296875 
L 19.671875 0 
L 9.8125 0 
z
" id="DejaVuSans-80"/>
       <path d="M 30.609375 48.390625 
Q 23.390625 48.390625 19.1875 42.75 
Q 14.984375 37.109375 14.984375 27.296875 
Q 14.984375 17.484375 19.15625 11.84375 
Q 23.34375 6.203125 30.609375 6.203125 
Q 37.796875 6.203125 41.984375 11.859375 
Q 46.1875 17.53125 46.1875 27.296875 
Q 46.1875 37.015625 41.984375 42.703125 
Q 37.796875 48.390625 30.609375 48.390625 
z
M 30.609375 56 
Q 42.328125 56 49.015625 48.375 
Q 55.71875 40.765625 55.71875 27.296875 
Q 55.71875 13.875 49.015625 6.21875 
Q 42.328125 -1.421875 30.609375 -1.421875 
Q 18.84375 -1.421875 12.171875 6.21875 
Q 5.515625 13.875 5.515625 27.296875 
Q 5.515625 40.765625 12.171875 48.375 
Q 18.84375 56 30.609375 56 
z
" id="DejaVuSans-111"/>
       <path d="M 18.109375 8.203125 
L 18.109375 -20.796875 
L 9.078125 -20.796875 
L 9.078125 54.6875 
L 18.109375 54.6875 
L 18.109375 46.390625 
Q 20.953125 51.265625 25.265625 53.625 
Q 29.59375 56 35.59375 56 
Q 45.5625 56 51.78125 48.09375 
Q 58.015625 40.1875 58.015625 27.296875 
Q 58.015625 14.40625 51.78125 6.484375 
Q 45.5625 -1.421875 35.59375 -1.421875 
Q 29.59375 -1.421875 25.265625 0.953125 
Q 20.953125 3.328125 18.109375 8.203125 
z
M 48.6875 27.296875 
Q 48.6875 37.203125 44.609375 42.84375 
Q 40.53125 48.484375 33.40625 48.484375 
Q 26.265625 48.484375 22.1875 42.84375 
Q 18.109375 37.203125 18.109375 27.296875 
Q 18.109375 17.390625 22.1875 11.75 
Q 26.265625 6.109375 33.40625 6.109375 
Q 40.53125 6.109375 44.609375 11.75 
Q 48.6875 17.390625 48.6875 27.296875 
z
" id="DejaVuSans-112"/>
       <path d="M 8.5 21.578125 
L 8.5 54.6875 
L 17.484375 54.6875 
L 17.484375 21.921875 
Q 17.484375 14.15625 20.5 10.265625 
Q 23.53125 6.390625 29.59375 6.390625 
Q 36.859375 6.390625 41.078125 11.03125 
Q 45.3125 15.671875 45.3125 23.6875 
L 45.3125 54.6875 
L 54.296875 54.6875 
L 54.296875 0 
L 45.3125 0 
L 45.3125 8.40625 
Q 42.046875 3.421875 37.71875 1 
Q 33.40625 -1.421875 27.6875 -1.421875 
Q 18.265625 -1.421875 13.375 4.4375 
Q 8.5 10.296875 8.5 21.578125 
z
M 31.109375 56 
z
" id="DejaVuSans-117"/>
       <path d="M 9.421875 75.984375 
L 18.40625 75.984375 
L 18.40625 0 
L 9.421875 0 
z
" id="DejaVuSans-108"/>
       <path d="M 34.28125 27.484375 
Q 23.390625 27.484375 19.1875 25 
Q 14.984375 22.515625 14.984375 16.5 
Q 14.984375 11.71875 18.140625 8.90625 
Q 21.296875 6.109375 26.703125 6.109375 
Q 34.1875 6.109375 38.703125 11.40625 
Q 43.21875 16.703125 43.21875 25.484375 
L 43.21875 27.484375 
z
M 52.203125 31.203125 
L 52.203125 0 
L 43.21875 0 
L 43.21875 8.296875 
Q 40.140625 3.328125 35.546875 0.953125 
Q 30.953125 -1.421875 24.3125 -1.421875 
Q 15.921875 -1.421875 10.953125 3.296875 
Q 6 8.015625 6 15.921875 
Q 6 25.140625 12.171875 29.828125 
Q 18.359375 34.515625 30.609375 34.515625 
L 43.21875 34.515625 
L 43.21875 35.40625 
Q 43.21875 41.609375 39.140625 45 
Q 35.0625 48.390625 27.6875 48.390625 
Q 23 48.390625 18.546875 47.265625 
Q 14.109375 46.140625 10.015625 43.890625 
L 10.015625 52.203125 
Q 14.9375 54.109375 19.578125 55.046875 
Q 24.21875 56 28.609375 56 
Q 40.484375 56 46.34375 49.84375 
Q 52.203125 43.703125 52.203125 31.203125 
z
" id="DejaVuSans-97"/>
       <path d="M 18.3125 70.21875 
L 18.3125 54.6875 
L 36.8125 54.6875 
L 36.8125 47.703125 
L 18.3125 47.703125 
L 18.3125 18.015625 
Q 18.3125 11.328125 20.140625 9.421875 
Q 21.96875 7.515625 27.59375 7.515625 
L 36.8125 7.515625 
L 36.8125 0 
L 27.59375 0 
Q 17.1875 0 13.234375 3.875 
Q 9.28125 7.765625 9.28125 18.015625 
L 9.28125 47.703125 
L 2.6875 47.703125 
L 2.6875 54.6875 
L 9.28125 54.6875 
L 9.28125 70.21875 
z
" id="DejaVuSans-116"/>
       <path d="M 9.421875 54.6875 
L 18.40625 54.6875 
L 18.40625 0 
L 9.421875 0 
z
M 9.421875 75.984375 
L 18.40625 75.984375 
L 18.40625 64.59375 
L 9.421875 64.59375 
z
" id="DejaVuSans-105"/>
       <path d="M 54.890625 33.015625 
L 54.890625 0 
L 45.90625 0 
L 45.90625 32.71875 
Q 45.90625 40.484375 42.875 44.328125 
Q 39.84375 48.1875 33.796875 48.1875 
Q 26.515625 48.1875 22.3125 43.546875 
Q 18.109375 38.921875 18.109375 30.90625 
L 18.109375 0 
L 9.078125 0 
L 9.078125 54.6875 
L 18.109375 54.6875 
L 18.109375 46.1875 
Q 21.34375 51.125 25.703125 53.5625 
Q 30.078125 56 35.796875 56 
Q 45.21875 56 50.046875 50.171875 
Q 54.890625 44.34375 54.890625 33.015625 
z
" id="DejaVuSans-110"/>
       <path id="DejaVuSans-32"/>
       <path d="M 37.109375 75.984375 
L 37.109375 68.5 
L 28.515625 68.5 
Q 23.6875 68.5 21.796875 66.546875 
Q 19.921875 64.59375 19.921875 59.515625 
L 19.921875 54.6875 
L 34.71875 54.6875 
L 34.71875 47.703125 
L 19.921875 47.703125 
L 19.921875 0 
L 10.890625 0 
L 10.890625 47.703125 
L 2.296875 47.703125 
L 2.296875 54.6875 
L 10.890625 54.6875 
L 10.890625 58.5 
Q 10.890625 67.625 15.140625 71.796875 
Q 19.390625 75.984375 28.609375 75.984375 
z
" id="DejaVuSans-102"/>
       <path d="M 48.78125 52.59375 
L 48.78125 44.1875 
Q 44.96875 46.296875 41.140625 47.34375 
Q 37.3125 48.390625 33.40625 48.390625 
Q 24.65625 48.390625 19.8125 42.84375 
Q 14.984375 37.3125 14.984375 27.296875 
Q 14.984375 17.28125 19.8125 11.734375 
Q 24.65625 6.203125 33.40625 6.203125 
Q 37.3125 6.203125 41.140625 7.25 
Q 44.96875 8.296875 48.78125 10.40625 
L 48.78125 2.09375 
Q 45.015625 0.34375 40.984375 -0.53125 
Q 36.96875 -1.421875 32.421875 -1.421875 
Q 20.0625 -1.421875 12.78125 6.34375 
Q 5.515625 14.109375 5.515625 27.296875 
Q 5.515625 40.671875 12.859375 48.328125 
Q 20.21875 56 33.015625 56 
Q 37.15625 56 41.109375 55.140625 
Q 45.0625 54.296875 48.78125 52.59375 
z
" id="DejaVuSans-99"/>
       <path d="M 32.171875 -5.078125 
Q 28.375 -14.84375 24.75 -17.8125 
Q 21.140625 -20.796875 15.09375 -20.796875 
L 7.90625 -20.796875 
L 7.90625 -13.28125 
L 13.1875 -13.28125 
Q 16.890625 -13.28125 18.9375 -11.515625 
Q 21 -9.765625 23.484375 -3.21875 
L 25.09375 0.875 
L 2.984375 54.6875 
L 12.5 54.6875 
L 29.59375 11.921875 
L 46.6875 54.6875 
L 56.203125 54.6875 
z
" id="DejaVuSans-121"/>
       <path d="M 31 75.875 
Q 24.46875 64.65625 21.28125 53.65625 
Q 18.109375 42.671875 18.109375 31.390625 
Q 18.109375 20.125 21.3125 9.0625 
Q 24.515625 -2 31 -13.1875 
L 23.1875 -13.1875 
Q 15.875 -1.703125 12.234375 9.375 
Q 8.59375 20.453125 8.59375 31.390625 
Q 8.59375 42.28125 12.203125 53.3125 
Q 15.828125 64.359375 23.1875 75.875 
z
" id="DejaVuSans-40"/>
       <path d="M 11.71875 12.40625 
L 22.015625 12.40625 
L 22.015625 4 
L 14.015625 -11.625 
L 7.71875 -11.625 
L 11.71875 4 
z
" id="DejaVuSans-44"/>
       <path d="M 44.28125 53.078125 
L 44.28125 44.578125 
Q 40.484375 46.53125 36.375 47.5 
Q 32.28125 48.484375 27.875 48.484375 
Q 21.1875 48.484375 17.84375 46.4375 
Q 14.5 44.390625 14.5 40.28125 
Q 14.5 37.15625 16.890625 35.375 
Q 19.28125 33.59375 26.515625 31.984375 
L 29.59375 31.296875 
Q 39.15625 29.25 43.1875 25.515625 
Q 47.21875 21.78125 47.21875 15.09375 
Q 47.21875 7.46875 41.1875 3.015625 
Q 35.15625 -1.421875 24.609375 -1.421875 
Q 20.21875 -1.421875 15.453125 -0.5625 
Q 10.6875 0.296875 5.421875 2 
L 5.421875 11.28125 
Q 10.40625 8.6875 15.234375 7.390625 
Q 20.0625 6.109375 24.8125 6.109375 
Q 31.15625 6.109375 34.5625 8.28125 
Q 37.984375 10.453125 37.984375 14.40625 
Q 37.984375 18.0625 35.515625 20.015625 
Q 33.0625 21.96875 24.703125 23.78125 
L 21.578125 24.515625 
Q 13.234375 26.265625 9.515625 29.90625 
Q 5.8125 33.546875 5.8125 39.890625 
Q 5.8125 47.609375 11.28125 51.796875 
Q 16.75 56 26.8125 56 
Q 31.78125 56 36.171875 55.265625 
Q 40.578125 54.546875 44.28125 53.078125 
z
" id="DejaVuSans-115"/>
       <path d="M 8.015625 75.875 
L 15.828125 75.875 
Q 23.140625 64.359375 26.78125 53.3125 
Q 30.421875 42.28125 30.421875 31.390625 
Q 30.421875 20.453125 26.78125 9.375 
Q 23.140625 -1.703125 15.828125 -13.1875 
L 8.015625 -13.1875 
Q 14.5 -2 17.703125 9.0625 
Q 20.90625 20.125 20.90625 31.390625 
Q 20.90625 42.671875 17.703125 53.65625 
Q 14.5 64.65625 8.015625 75.875 
z
" id="DejaVuSans-41"/>
      </defs>
      <use xlink:href="#DejaVuSans-80"/>
      <use x="56.677734" xlink:href="#DejaVuSans-111"/>
      <use x="117.859375" xlink:href="#DejaVuSans-112"/>
      <use x="181.335938" xlink:href="#DejaVuSans-117"/>
      <use x="244.714844" xlink:href="#DejaVuSans-108"/>
      <use x="272.498047" xlink:href="#DejaVuSans-97"/>
      <use x="333.777344" xlink:href="#DejaVuSans-116"/>
      <use x="372.986328" xlink:href="#DejaVuSans-105"/>
      <use x="400.769531" xlink:href="#DejaVuSans-111"/>
      <use x="461.951172" xlink:href="#DejaVuSans-110"/>
      <use x="525.330078" xlink:href="#DejaVuSans-32"/>
      <use x="557.117188" xlink:href="#DejaVuSans-111"/>
      <use x="618.298828" xlink:href="#DejaVuSans-102"/>
      <use x="653.503906" xlink:href="#DejaVuSans-32"/>
      <use x="685.291016" xlink:href="#DejaVuSans-99"/>
      <use x="740.271484" xlink:href="#DejaVuSans-105"/>
      <use x="768.054688" xlink:href="#DejaVuSans-116"/>
      <use x="807.263672" xlink:href="#DejaVuSans-121"/>
      <use x="866.443359" xlink:href="#DejaVuSans-32"/>
      <use x="898.230469" xlink:href="#DejaVuSans-40"/>
      <use x="937.244141" xlink:href="#DejaVuSans-105"/>
      <use x="965.027344" xlink:href="#DejaVuSans-110"/>
      <use x="1028.40625" xlink:href="#DejaVuSans-32"/>
      <use x="1060.193359" xlink:href="#DejaVuSans-49"/>
      <use x="1123.816406" xlink:href="#DejaVuSans-48"/>
      <use x="1187.439453" xlink:href="#DejaVuSans-44"/>
      <use x="1219.226562" xlink:href="#DejaVuSans-48"/>
      <use x="1282.849609" xlink:href="#DejaVuSans-48"/>
      <use x="1346.472656" xlink:href="#DejaVuSans-48"/>
      <use x="1410.095703" xlink:href="#DejaVuSans-115"/>
      <use x="1462.195312" xlink:href="#DejaVuSans-41"/>
     </g>
    </g>
   </g>
   <g id="matplotlib.axis_2">
    <g id="ytick_1">
     <g id="line2d_9">
      <defs>
       <path d="M 0 0 
L -3.5 0 
" id="m632fe00fc1" style="stroke:#000000;stroke-width:0.8;"/>
      </defs>
      <g>
       <use style="stroke:#000000;stroke-width:0.8;" x="33.403125" xlink:href="#m632fe00fc1" y="469.510858"/>
      </g>
     </g>
     <g id="text_10">
      <!-- 0 -->
      <g transform="translate(20.040625 473.310077)scale(0.1 -0.1)">
       <use xlink:href="#DejaVuSans-48"/>
      </g>
     </g>
    </g>
    <g id="ytick_2">
     <g id="line2d_10">
      <g>
       <use style="stroke:#000000;stroke-width:0.8;" x="33.403125" xlink:href="#m632fe00fc1" y="377.407953"/>
      </g>
     </g>
     <g id="text_11">
      <!-- 5 -->
      <g transform="translate(20.040625 381.207172)scale(0.1 -0.1)">
       <use xlink:href="#DejaVuSans-53"/>
      </g>
     </g>
    </g>
    <g id="ytick_3">
     <g id="line2d_11">
      <g>
       <use style="stroke:#000000;stroke-width:0.8;" x="33.403125" xlink:href="#m632fe00fc1" y="285.305049"/>
      </g>
     </g>
     <g id="text_12">
      <!-- 10 -->
      <g transform="translate(13.678125 289.104268)scale(0.1 -0.1)">
       <use xlink:href="#DejaVuSans-49"/>
       <use x="63.623047" xlink:href="#DejaVuSans-48"/>
      </g>
     </g>
    </g>
    <g id="ytick_4">
     <g id="line2d_12">
      <g>
       <use style="stroke:#000000;stroke-width:0.8;" x="33.403125" xlink:href="#m632fe00fc1" y="193.202144"/>
      </g>
     </g>
     <g id="text_13">
      <!-- 15 -->
      <g transform="translate(13.678125 197.001363)scale(0.1 -0.1)">
       <use xlink:href="#DejaVuSans-49"/>
       <use x="63.623047" xlink:href="#DejaVuSans-53"/>
      </g>
     </g>
    </g>
    <g id="ytick_5">
     <g id="line2d_13">
      <g>
       <use style="stroke:#000000;stroke-width:0.8;" x="33.403125" xlink:href="#m632fe00fc1" y="101.09924"/>
      </g>
     </g>
     <g id="text_14">
      <!-- 20 -->
      <g transform="translate(13.678125 104.898459)scale(0.1 -0.1)">
       <use xlink:href="#DejaVuSans-50"/>
       <use x="63.623047" xlink:href="#DejaVuSans-48"/>
      </g>
     </g>
    </g>
    <g id="ytick_6">
     <g id="line2d_14">
      <g>
       <use style="stroke:#000000;stroke-width:0.8;" x="33.403125" xlink:href="#m632fe00fc1" y="8.996335"/>
      </g>
     </g>
     <g id="text_15">
      <!-- 25 -->
      <g transform="translate(13.678125 12.795554)scale(0.1 -0.1)">
       <use xlink:href="#DejaVuSans-50"/>
       <use x="63.623047" xlink:href="#DejaVuSans-53"/>
      </g>
     </g>
    </g>
    <g id="text_16">
     <!-- Profit (in $10,000s) -->
     <g transform="translate(7.598437 319.757813)rotate(-90)scale(0.1 -0.1)">
      <defs>
       <path d="M 41.109375 46.296875 
Q 39.59375 47.171875 37.8125 47.578125 
Q 36.03125 48 33.890625 48 
Q 26.265625 48 22.1875 43.046875 
Q 18.109375 38.09375 18.109375 28.8125 
L 18.109375 0 
L 9.078125 0 
L 9.078125 54.6875 
L 18.109375 54.6875 
L 18.109375 46.1875 
Q 20.953125 51.171875 25.484375 53.578125 
Q 30.03125 56 36.53125 56 
Q 37.453125 56 38.578125 55.875 
Q 39.703125 55.765625 41.0625 55.515625 
z
" id="DejaVuSans-114"/>
       <path d="M 33.796875 -14.703125 
L 28.90625 -14.703125 
L 28.859375 0 
Q 23.734375 0.09375 18.609375 1.1875 
Q 13.484375 2.296875 8.296875 4.5 
L 8.296875 13.28125 
Q 13.28125 10.15625 18.375 8.5625 
Q 23.484375 6.984375 28.90625 6.9375 
L 28.90625 29.203125 
Q 18.109375 30.953125 13.203125 35.15625 
Q 8.296875 39.359375 8.296875 46.6875 
Q 8.296875 54.640625 13.625 59.21875 
Q 18.953125 63.8125 28.90625 64.5 
L 28.90625 75.984375 
L 33.796875 75.984375 
L 33.796875 64.65625 
Q 38.328125 64.453125 42.578125 63.6875 
Q 46.828125 62.9375 50.875 61.625 
L 50.875 53.078125 
Q 46.828125 55.125 42.546875 56.25 
Q 38.28125 57.375 33.796875 57.5625 
L 33.796875 36.71875 
Q 44.875 35.015625 50.09375 30.609375 
Q 55.328125 26.21875 55.328125 18.609375 
Q 55.328125 10.359375 49.78125 5.59375 
Q 44.234375 0.828125 33.796875 0.09375 
z
M 28.90625 37.59375 
L 28.90625 57.625 
Q 23.25 56.984375 20.265625 54.390625 
Q 17.28125 51.8125 17.28125 47.515625 
Q 17.28125 43.3125 20.03125 40.96875 
Q 22.796875 38.625 28.90625 37.59375 
z
M 33.796875 28.21875 
L 33.796875 7.078125 
Q 39.984375 7.90625 43.140625 10.59375 
Q 46.296875 13.28125 46.296875 17.671875 
Q 46.296875 21.96875 43.28125 24.5 
Q 40.28125 27.046875 33.796875 28.21875 
z
" id="DejaVuSans-36"/>
      </defs>
      <use xlink:href="#DejaVuSans-80"/>
      <use x="58.552734" xlink:href="#DejaVuSans-114"/>
      <use x="97.416016" xlink:href="#DejaVuSans-111"/>
      <use x="158.597656" xlink:href="#DejaVuSans-102"/>
      <use x="193.802734" xlink:href="#DejaVuSans-105"/>
      <use x="221.585938" xlink:href="#DejaVuSans-116"/>
      <use x="260.794922" xlink:href="#DejaVuSans-32"/>
      <use x="292.582031" xlink:href="#DejaVuSans-40"/>
      <use x="331.595703" xlink:href="#DejaVuSans-105"/>
      <use x="359.378906" xlink:href="#DejaVuSans-110"/>
      <use x="422.757812" xlink:href="#DejaVuSans-32"/>
      <use x="454.544922" xlink:href="#DejaVuSans-36"/>
      <use x="518.167969" xlink:href="#DejaVuSans-49"/>
      <use x="581.791016" xlink:href="#DejaVuSans-48"/>
      <use x="645.414062" xlink:href="#DejaVuSans-44"/>
      <use x="677.201172" xlink:href="#DejaVuSans-48"/>
      <use x="740.824219" xlink:href="#DejaVuSans-48"/>
      <use x="804.447266" xlink:href="#DejaVuSans-48"/>
      <use x="868.070312" xlink:href="#DejaVuSans-115"/>
      <use x="920.169922" xlink:href="#DejaVuSans-41"/>
     </g>
    </g>
   </g>
   <g id="patch_3">
    <path d="M 33.403125 543.6 
L 33.403125 0 
" style="fill:none;stroke:#000000;stroke-linecap:square;stroke-linejoin:miter;stroke-width:0.8;"/>
   </g>
   <g id="patch_4">
    <path d="M 591.403125 543.6 
L 591.403125 0 
" style="fill:none;stroke:#000000;stroke-linecap:square;stroke-linejoin:miter;stroke-width:0.8;"/>
   </g>
   <g id="patch_5">
    <path d="M 33.403125 543.6 
L 591.403125 543.6 
" style="fill:none;stroke:#000000;stroke-linecap:square;stroke-linejoin:miter;stroke-width:0.8;"/>
   </g>
   <g id="patch_6">
    <path d="M 33.403125 0 
L 591.403125 0 
" style="fill:none;stroke:#000000;stroke-linecap:square;stroke-linejoin:miter;stroke-width:0.8;"/>
   </g>
  </g>
 </g>
 <defs>
  <clipPath id="pb613b7a670">
   <rect height="543.6" width="558" x="33.403125" y="0"/>
  </clipPath>
 </defs>
</svg>
