<?xml version="1.0" encoding="utf-8" standalone="no"?>
<!DOCTYPE svg PUBLIC "-//W3C//DTD SVG 1.1//EN"
  "http://www.w3.org/Graphics/SVG/1.1/DTD/svg11.dtd">
<!-- Created with matplotlib (https://matplotlib.org/) -->
<svg height="588.35625pt" version="1.1" viewBox="0 0 605.803125 588.35625" width="605.803125pt" xmlns="http://www.w3.org/2000/svg" xmlns:xlink="http://www.w3.org/1999/xlink">
 <metadata>
  <rdf:RDF xmlns:cc="http://creativecommons.org/ns#" xmlns:dc="http://purl.org/dc/elements/1.1/" xmlns:rdf="http://www.w3.org/1999/02/22-rdf-syntax-ns#">
   <cc:Work>
    <dc:type rdf:resource="http://purl.org/dc/dcmitype/StillImage"/>
    <dc:date>2020-12-25T19:03:21.808405</dc:date>
    <dc:format>image/svg+xml</dc:format>
    <dc:creator>
     <cc:Agent>
      <dc:title>Matplotlib v3.3.2, https://matplotlib.org/</dc:title>
     </cc:Agent>
    </dc:creator>
   </cc:Work>
  </rdf:RDF>
 </metadata>
 <defs>
  <style type="text/css">*{stroke-linecap:butt;stroke-linejoin:round;}</style>
 </defs>
 <g id="figure_1">
  <g id="patch_1">
   <path d="M 0 588.35625 
L 605.803125 588.35625 
L 605.803125 0 
L 0 0 
z
" style="fill:none;"/>
  </g>
  <g id="axes_1">
   <g id="patch_2">
    <path d="M 40.603125 550.8 
L 598.603125 550.8 
L 598.603125 7.2 
L 40.603125 7.2 
z
" style="fill:#ffffff;"/>
   </g>
   <g id="PathCollection_1">
    <path clip-path="url(#pe4d097ff73)" d="M 97.957599 165.919482 
C 101.475116 165.919482 104.849038 164.521958 107.336298 162.034698 
C 109.823558 159.547438 111.221082 156.173516 111.221082 152.655999 
C 111.221082 149.138482 109.823558 145.76456 107.336298 143.277299 
C 104.849038 140.790039 101.475116 139.392515 97.957599 139.392515 
C 94.440082 139.392515 91.066159 140.790039 88.578899 143.277299 
C 86.091639 145.76456 84.694115 149.138482 84.694115 152.655999 
C 84.694115 156.173516 86.091639 159.547438 88.578899 162.034698 
C 91.066159 164.521958 94.440082 165.919482 97.957599 165.919482 
z
" style="fill:#3b528b;fill-opacity:0.6;stroke:#3b528b;stroke-opacity:0.6;"/>
    <path clip-path="url(#pe4d097ff73)" d="M 80.757207 318.082478 
C 83.291278 318.082478 85.721901 317.075681 87.51376 315.283823 
C 89.305619 313.491964 90.312416 311.061341 90.312416 308.52727 
C 90.312416 305.993199 89.305619 303.562576 87.51376 301.770718 
C 85.721901 299.978859 83.291278 298.972062 80.757207 298.972062 
C 78.223137 298.972062 75.792514 299.978859 74.000655 301.770718 
C 72.208796 303.562576 71.201999 305.993199 71.201999 308.52727 
C 71.201999 311.061341 72.208796 313.491964 74.000655 315.283823 
C 75.792514 317.075681 78.223137 318.082478 80.757207 318.082478 
z
" style="fill:#20938c;fill-opacity:0.6;stroke:#20938c;stroke-opacity:0.6;"/>
    <path clip-path="url(#pe4d097ff73)" d="M 169.089367 236.737337 
C 172.189181 236.737337 175.162453 235.505768 177.354353 233.313868 
C 179.546253 231.121968 180.777823 228.148696 180.777823 225.048882 
C 180.777823 221.949067 179.546253 218.975795 177.354353 216.783895 
C 175.162453 214.591995 172.189181 213.360426 169.089367 213.360426 
C 165.989552 213.360426 163.01628 214.591995 160.82438 216.783895 
C 158.63248 218.975795 157.400911 221.949067 157.400911 225.048882 
C 157.400911 228.148696 158.63248 231.121968 160.82438 233.313868 
C 163.01628 235.505768 165.989552 236.737337 169.089367 236.737337 
z
" style="fill:#1e9c89;fill-opacity:0.6;stroke:#1e9c89;stroke-opacity:0.6;"/>
    <path clip-path="url(#pe4d097ff73)" d="M 124.334091 269.2409 
C 127.221518 269.2409 129.991073 268.093713 132.032792 266.051993 
C 134.074512 264.010274 135.221699 261.240719 135.221699 258.353292 
C 135.221699 255.465865 134.074512 252.69631 132.032792 250.654591 
C 129.991073 248.612871 127.221518 247.465684 124.334091 247.465684 
C 121.446664 247.465684 118.677109 248.612871 116.63539 250.654591 
C 114.59367 252.69631 113.446483 255.465865 113.446483 258.353292 
C 113.446483 261.240719 114.59367 264.010274 116.63539 266.051993 
C 118.677109 268.093713 121.446664 269.2409 124.334091 269.2409 
z
" style="fill:#70cf57;fill-opacity:0.6;stroke:#70cf57;stroke-opacity:0.6;"/>
    <path clip-path="url(#pe4d097ff73)" d="M 90.565329 359.282035 
C 92.755993 359.282035 94.857228 358.411675 96.406262 356.862641 
C 97.955296 355.313608 98.825656 353.212373 98.825656 351.021708 
C 98.825656 348.831044 97.955296 346.729809 96.406262 345.180775 
C 94.857228 343.631742 92.755993 342.761381 90.565329 342.761381 
C 88.374665 342.761381 86.273429 343.631742 84.724396 345.180775 
C 83.175362 346.729809 82.305002 348.831044 82.305002 351.021708 
C 82.305002 353.212373 83.175362 355.313608 84.724396 356.862641 
C 86.273429 358.411675 88.374665 359.282035 90.565329 359.282035 
z
" style="fill:#287c8e;fill-opacity:0.6;stroke:#287c8e;stroke-opacity:0.6;"/>
    <path clip-path="url(#pe4d097ff73)" d="M 165.081652 268.666127 
C 167.972974 268.666127 170.746264 267.517392 172.790738 265.472919 
C 174.835211 263.428445 175.983945 260.655155 175.983945 257.763833 
C 175.983945 254.872511 174.835211 252.099221 172.790738 250.054748 
C 170.746264 248.010274 167.972974 246.86154 165.081652 246.86154 
C 162.19033 246.86154 159.41704 248.010274 157.372566 250.054748 
C 155.328093 252.099221 154.179359 254.872511 154.179359 257.763833 
C 154.179359 260.655155 155.328093 263.428445 157.372566 265.472919 
C 159.41704 267.517392 162.19033 268.666127 165.081652 268.666127 
z
" style="fill:#482475;fill-opacity:0.6;stroke:#482475;stroke-opacity:0.6;"/>
    <path clip-path="url(#pe4d097ff73)" d="M 138.309409 403.20681 
C 140.058201 403.20681 141.735604 402.512007 142.972187 401.275424 
C 144.20877 400.038841 144.903573 398.361439 144.903573 396.612646 
C 144.903573 394.863853 144.20877 393.186451 142.972187 391.949868 
C 141.735604 390.713285 140.058201 390.018482 138.309409 390.018482 
C 136.560616 390.018482 134.883214 390.713285 133.646631 391.949868 
C 132.410047 393.186451 131.715245 394.863853 131.715245 396.612646 
C 131.715245 398.361439 132.410047 400.038841 133.646631 401.275424 
C 134.883214 402.512007 136.560616 403.20681 138.309409 403.20681 
z
" style="fill:#2d718e;fill-opacity:0.6;stroke:#2d718e;stroke-opacity:0.6;"/>
    <path clip-path="url(#pe4d097ff73)" d="M 170.846618 266.618338 
C 173.751773 266.618338 176.538331 265.464108 178.592585 263.409854 
C 180.646839 261.355599 181.801069 258.569041 181.801069 255.663887 
C 181.801069 252.758733 180.646839 249.972175 178.592585 247.91792 
C 176.538331 245.863666 173.751773 244.709436 170.846618 244.709436 
C 167.941464 244.709436 165.154906 245.863666 163.100652 247.91792 
C 161.046397 249.972175 159.892167 252.758733 159.892167 255.663887 
C 159.892167 258.569041 161.046397 261.355599 163.100652 263.409854 
C 165.154906 265.464108 167.941464 266.618338 170.846618 266.618338 
z
" style="fill:#2cb17e;fill-opacity:0.6;stroke:#2cb17e;stroke-opacity:0.6;"/>
    <path clip-path="url(#pe4d097ff73)" d="M 109.0652 363.282209 
C 111.219508 363.282209 113.285871 362.426293 114.809197 360.902968 
C 116.332523 359.379642 117.188438 357.313279 117.188438 355.158971 
C 117.188438 353.004663 116.332523 350.9383 114.809197 349.414974 
C 113.285871 347.891648 111.219508 347.035732 109.0652 347.035732 
C 106.910892 347.035732 104.844529 347.891648 103.321203 349.414974 
C 101.797877 350.9383 100.941962 353.004663 100.941962 355.158971 
C 100.941962 357.313279 101.797877 359.379642 103.321203 360.902968 
C 104.844529 362.426293 106.910892 363.282209 109.0652 363.282209 
z
" style="fill:#86d549;fill-opacity:0.6;stroke:#86d549;stroke-opacity:0.6;"/>
    <path clip-path="url(#pe4d097ff73)" d="M 66.784843 412.584733 
C 68.423232 412.584733 69.994737 411.933794 71.153252 410.775278 
C 72.311768 409.616762 72.962707 408.045257 72.962707 406.406869 
C 72.962707 404.76848 72.311768 403.196975 71.153252 402.038459 
C 69.994737 400.879944 68.423232 400.229005 66.784843 400.229005 
C 65.146455 400.229005 63.57495 400.879944 62.416434 402.038459 
C 61.257918 403.196975 60.606979 404.76848 60.606979 406.406869 
C 60.606979 408.045257 61.257918 409.616762 62.416434 410.775278 
C 63.57495 411.933794 65.146455 412.584733 66.784843 412.584733 
z
" style="fill:#1f968b;fill-opacity:0.6;stroke:#1f968b;stroke-opacity:0.6;"/>
    <path clip-path="url(#pe4d097ff73)" d="M 86.161863 422.506251 
C 87.674265 422.506251 89.124927 421.905367 90.194356 420.835938 
C 91.263786 419.766508 91.86467 418.315847 91.86467 416.803445 
C 91.86467 415.291043 91.263786 413.840381 90.194356 412.770952 
C 89.124927 411.701522 87.674265 411.100638 86.161863 411.100638 
C 84.649461 411.100638 83.1988 411.701522 82.12937 412.770952 
C 81.059941 413.840381 80.459057 415.291043 80.459057 416.803445 
C 80.459057 418.315847 81.059941 419.766508 82.12937 420.835938 
C 83.1988 421.905367 84.649461 422.506251 86.161863 422.506251 
z
" style="fill:#23a983;fill-opacity:0.6;stroke:#23a983;stroke-opacity:0.6;"/>
    <path clip-path="url(#pe4d097ff73)" d="M 335.818569 203.551659 
C 339.120854 203.551659 342.28833 202.239647 344.623397 199.904579 
C 346.958465 197.569512 348.270477 194.402036 348.270477 191.099751 
C 348.270477 187.797467 346.958465 184.629991 344.623397 182.294923 
C 342.28833 179.959855 339.120854 178.647844 335.818569 178.647844 
C 332.516285 178.647844 329.348809 179.959855 327.013741 182.294923 
C 324.678673 184.629991 323.366662 187.797467 323.366662 191.099751 
C 323.366662 194.402036 324.678673 197.569512 327.013741 199.904579 
C 329.348809 202.239647 332.516285 203.551659 335.818569 203.551659 
z
" style="fill:#d2e21b;fill-opacity:0.6;stroke:#d2e21b;stroke-opacity:0.6;"/>
    <path clip-path="url(#pe4d097ff73)" d="M 86.849997 424.209111 
C 88.33965 424.209111 89.768492 423.617265 90.821835 422.563921 
C 91.875179 421.510578 92.467025 420.081736 92.467025 418.592083 
C 92.467025 417.10243 91.875179 415.673589 90.821835 414.620245 
C 89.768492 413.566901 88.33965 412.975055 86.849997 412.975055 
C 85.360344 412.975055 83.931503 413.566901 82.878159 414.620245 
C 81.824815 415.673589 81.232969 417.10243 81.232969 418.592083 
C 81.232969 420.081736 81.824815 421.510578 82.878159 422.563921 
C 83.931503 423.617265 85.360344 424.209111 86.849997 424.209111 
z
" style="fill:#238a8d;fill-opacity:0.6;stroke:#238a8d;stroke-opacity:0.6;"/>
    <path clip-path="url(#pe4d097ff73)" d="M 165.83476 352.107895 
C 168.089111 352.107895 170.251433 351.212232 171.8455 349.618165 
C 173.439567 348.024098 174.33523 345.861776 174.33523 343.607424 
C 174.33523 341.353073 173.439567 339.190751 171.8455 337.596684 
C 170.251433 336.002617 168.089111 335.106954 165.83476 335.106954 
C 163.580409 335.106954 161.418086 336.002617 159.824019 337.596684 
C 158.229952 339.190751 157.334289 341.353073 157.334289 343.607424 
C 157.334289 345.861776 158.229952 348.024098 159.824019 349.618165 
C 161.418086 351.212232 163.580409 352.107895 165.83476 352.107895 
z
" style="fill:#c8e020;fill-opacity:0.6;stroke:#c8e020;stroke-opacity:0.6;"/>
    <path clip-path="url(#pe4d097ff73)" d="M 84.094509 466.19456 
C 84.804233 466.19456 85.484984 465.912584 85.986835 465.410733 
C 86.488686 464.908882 86.770663 464.228131 86.770663 463.518406 
C 86.770663 462.808682 86.488686 462.127931 85.986835 461.62608 
C 85.484984 461.124229 84.804233 460.842252 84.094509 460.842252 
C 83.384784 460.842252 82.704033 461.124229 82.202182 461.62608 
C 81.700331 462.127931 81.418355 462.808682 81.418355 463.518406 
C 81.418355 464.228131 81.700331 464.908882 82.202182 465.410733 
C 82.704033 465.912584 83.384784 466.19456 84.094509 466.19456 
z
" style="fill:#25858e;fill-opacity:0.6;stroke:#25858e;stroke-opacity:0.6;"/>
    <path clip-path="url(#pe4d097ff73)" d="M 76.377369 417.928171 
C 77.94922 417.928171 79.456904 417.303668 80.568371 416.192202 
C 81.679838 415.080735 82.304341 413.573051 82.304341 412.001199 
C 82.304341 410.429348 81.679838 408.921664 80.568371 407.810197 
C 79.456904 406.69873 77.94922 406.074227 76.377369 406.074227 
C 74.805518 406.074227 73.297833 406.69873 72.186367 407.810197 
C 71.0749 408.921664 70.450397 410.429348 70.450397 412.001199 
C 70.450397 413.573051 71.0749 415.080735 72.186367 416.192202 
C 73.297833 417.303668 74.805518 417.928171 76.377369 417.928171 
z
" style="fill:#f1e51d;fill-opacity:0.6;stroke:#f1e51d;stroke-opacity:0.6;"/>
    <path clip-path="url(#pe4d097ff73)" d="M 105.497536 386.276766 
C 107.429118 386.276766 109.281847 385.509341 110.647682 384.143506 
C 112.013517 382.777671 112.780942 380.924942 112.780942 378.99336 
C 112.780942 377.061779 112.013517 375.209049 110.647682 373.843215 
C 109.281847 372.47738 107.429118 371.709955 105.497536 371.709955 
C 103.565955 371.709955 101.713225 372.47738 100.347391 373.843215 
C 98.981556 375.209049 98.214131 377.061779 98.214131 378.99336 
C 98.214131 380.924942 98.981556 382.777671 100.347391 384.143506 
C 101.713225 385.509341 103.565955 386.276766 105.497536 386.276766 
z
" style="fill:#25ac82;fill-opacity:0.6;stroke:#25ac82;stroke-opacity:0.6;"/>
    <path clip-path="url(#pe4d097ff73)" d="M 69.014633 468.749207 
C 69.642649 468.749207 70.245028 468.499693 70.689103 468.055619 
C 71.133178 467.611544 71.382691 467.009165 71.382691 466.381149 
C 71.382691 465.753132 71.133178 465.150753 70.689103 464.706679 
C 70.245028 464.262604 69.642649 464.01309 69.014633 464.01309 
C 68.386616 464.01309 67.784237 464.262604 67.340163 464.706679 
C 66.896088 465.150753 66.646575 465.753132 66.646575 466.381149 
C 66.646575 467.009165 66.896088 467.611544 67.340163 468.055619 
C 67.784237 468.499693 68.386616 468.749207 69.014633 468.749207 
z
" style="fill:#460b5e;fill-opacity:0.6;stroke:#460b5e;stroke-opacity:0.6;"/>
    <path clip-path="url(#pe4d097ff73)" d="M 107.393596 415.485593 
C 108.996222 415.485593 110.533424 414.848863 111.666651 413.715636 
C 112.799879 412.582408 113.436609 411.045206 113.436609 409.442581 
C 113.436609 407.839955 112.799879 406.302753 111.666651 405.169525 
C 110.533424 404.036298 108.996222 403.399568 107.393596 403.399568 
C 105.79097 403.399568 104.253768 404.036298 103.120541 405.169525 
C 101.987313 406.302753 101.350584 407.839955 101.350584 409.442581 
C 101.350584 411.045206 101.987313 412.582408 103.120541 413.715636 
C 104.253768 414.848863 105.79097 415.485593 107.393596 415.485593 
z
" style="fill:#1fa187;fill-opacity:0.6;stroke:#1fa187;stroke-opacity:0.6;"/>
    <path clip-path="url(#pe4d097ff73)" d="M 126.330565 384.778006 
C 128.27747 384.778006 130.144897 384.004493 131.521567 382.627823 
C 132.898237 381.251153 133.67175 379.383726 133.67175 377.436821 
C 133.67175 375.489916 132.898237 373.622489 131.521567 372.245819 
C 130.144897 370.86915 128.27747 370.095636 126.330565 370.095636 
C 124.38366 370.095636 122.516233 370.86915 121.139563 372.245819 
C 119.762893 373.622489 118.98938 375.489916 118.98938 377.436821 
C 118.98938 379.383726 119.762893 381.251153 121.139563 382.627823 
C 122.516233 384.004493 124.38366 384.778006 126.330565 384.778006 
z
" style="fill:#414487;fill-opacity:0.6;stroke:#414487;stroke-opacity:0.6;"/>
    <path clip-path="url(#pe4d097ff73)" d="M 100.290756 424.498344 
C 101.776509 424.498344 103.201609 423.908048 104.252195 422.857462 
C 105.302781 421.806876 105.893077 420.381776 105.893077 418.896023 
C 105.893077 417.41027 105.302781 415.985169 104.252195 414.934584 
C 103.201609 413.883998 101.776509 413.293702 100.290756 413.293702 
C 98.805003 413.293702 97.379903 413.883998 96.329317 414.934584 
C 95.278731 415.985169 94.688435 417.41027 94.688435 418.896023 
C 94.688435 420.381776 95.278731 421.806876 96.329317 422.857462 
C 97.379903 423.908048 98.805003 424.498344 100.290756 424.498344 
z
" style="fill:#21a585;fill-opacity:0.6;stroke:#21a585;stroke-opacity:0.6;"/>
    <path clip-path="url(#pe4d097ff73)" d="M 516.150966 90.503717 
C 520.063678 90.503717 523.816662 88.94918 526.583367 86.182475 
C 529.350072 83.41577 530.904609 79.662785 530.904609 75.750073 
C 530.904609 71.837361 529.350072 68.084377 526.583367 65.317672 
C 523.816662 62.550967 520.063678 60.99643 516.150966 60.99643 
C 512.238254 60.99643 508.485269 62.550967 505.718564 65.317672 
C 502.951859 68.084377 501.397322 71.837361 501.397322 75.750073 
C 501.397322 79.662785 502.951859 83.41577 505.718564 86.182475 
C 508.485269 88.94918 512.238254 90.503717 516.150966 90.503717 
z
" style="fill:#48186a;fill-opacity:0.6;stroke:#48186a;stroke-opacity:0.6;"/>
    <path clip-path="url(#pe4d097ff73)" d="M 79.646743 404.713087 
C 81.378298 404.713087 83.039166 404.025133 84.26356 402.800739 
C 85.487954 401.576344 86.175908 399.915476 86.175908 398.183922 
C 86.175908 396.452367 85.487954 394.791499 84.26356 393.567104 
C 83.039166 392.34271 81.378298 391.654756 79.646743 391.654756 
C 77.915188 391.654756 76.25432 392.34271 75.029926 393.567104 
C 73.805531 394.791499 73.117577 396.452367 73.117577 398.183922 
C 73.117577 399.915476 73.805531 401.576344 75.029926 402.800739 
C 76.25432 404.025133 77.915188 404.713087 79.646743 404.713087 
z
" style="fill:#414287;fill-opacity:0.6;stroke:#414287;stroke-opacity:0.6;"/>
    <path clip-path="url(#pe4d097ff73)" d="M 104.336864 388.356525 
C 106.246971 388.356525 108.079102 387.597631 109.429752 386.246982 
C 110.780401 384.896332 111.539295 383.064201 111.539295 381.154094 
C 111.539295 379.243988 110.780401 377.411857 109.429752 376.061207 
C 108.079102 374.710558 106.246971 373.951664 104.336864 373.951664 
C 102.426758 373.951664 100.594627 374.710558 99.243977 376.061207 
C 97.893328 377.411857 97.134434 379.243988 97.134434 381.154094 
C 97.134434 383.064201 97.893328 384.896332 99.243977 386.246982 
C 100.594627 387.597631 102.426758 388.356525 104.336864 388.356525 
z
" style="fill:#65cb5e;fill-opacity:0.6;stroke:#65cb5e;stroke-opacity:0.6;"/>
    <path clip-path="url(#pe4d097ff73)" d="M 81.855859 425.481444 
C 83.328274 425.481444 84.74058 424.896447 85.781735 423.855293 
C 86.822889 422.814139 87.407886 421.401832 87.407886 419.929417 
C 87.407886 418.457003 86.822889 417.044696 85.781735 416.003542 
C 84.74058 414.962387 83.328274 414.377391 81.855859 414.377391 
C 80.383444 414.377391 78.971138 414.962387 77.929983 416.003542 
C 76.888829 417.044696 76.303832 418.457003 76.303832 419.929417 
C 76.303832 421.401832 76.888829 422.814139 77.929983 423.855293 
C 78.971138 424.896447 80.383444 425.481444 81.855859 425.481444 
z
" style="fill:#f1e51d;fill-opacity:0.6;stroke:#f1e51d;stroke-opacity:0.6;"/>
    <path clip-path="url(#pe4d097ff73)" d="M 477.018895 74.751677 
C 481.009122 74.751677 484.836457 73.166343 487.657973 70.344826 
C 490.47949 67.52331 492.064824 63.695975 492.064824 59.705747 
C 492.064824 55.71552 490.47949 51.888185 487.657973 49.066669 
C 484.836457 46.245152 481.009122 44.659818 477.018895 44.659818 
C 473.028667 44.659818 469.201332 46.245152 466.379816 49.066669 
C 463.558299 51.888185 461.972965 55.71552 461.972965 59.705747 
C 461.972965 63.695975 463.558299 67.52331 466.379816 70.344826 
C 469.201332 73.166343 473.028667 74.751677 477.018895 74.751677 
z
" style="fill:#26828e;fill-opacity:0.6;stroke:#26828e;stroke-opacity:0.6;"/>
    <path clip-path="url(#pe4d097ff73)" d="M 296.361628 239.633976 
C 299.443124 239.633976 302.398824 238.409684 304.577771 236.230738 
C 306.756717 234.051791 307.981009 231.096091 307.981009 228.014595 
C 307.981009 224.933099 306.756717 221.977399 304.577771 219.798453 
C 302.398824 217.619506 299.443124 216.395215 296.361628 216.395215 
C 293.280133 216.395215 290.324432 217.619506 288.145486 219.798453 
C 285.966539 221.977399 284.742248 224.933099 284.742248 228.014595 
C 284.742248 231.096091 285.966539 234.051791 288.145486 236.230738 
C 290.324432 238.409684 293.280133 239.633976 296.361628 239.633976 
z
" style="fill:#2b758e;fill-opacity:0.6;stroke:#2b758e;stroke-opacity:0.6;"/>
    <path clip-path="url(#pe4d097ff73)" d="M 241.104191 355.301013 
C 243.330428 355.301013 245.465784 354.416519 247.039972 352.842332 
C 248.61416 351.268144 249.498653 349.132788 249.498653 346.90655 
C 249.498653 344.680313 248.61416 342.544957 247.039972 340.970769 
C 245.465784 339.396582 243.330428 338.512088 241.104191 338.512088 
C 238.877953 338.512088 236.742597 339.396582 235.168409 340.970769 
C 233.594222 342.544957 232.709728 344.680313 232.709728 346.90655 
C 232.709728 349.132788 233.594222 351.268144 235.168409 352.842332 
C 236.742597 354.416519 238.877953 355.301013 241.104191 355.301013 
z
" style="fill:#463480;fill-opacity:0.6;stroke:#463480;stroke-opacity:0.6;"/>
    <path clip-path="url(#pe4d097ff73)" d="M 306.639334 218.196739 
C 309.853876 218.196739 312.937191 216.919588 315.210215 214.646564 
C 317.48324 212.37354 318.76039 209.290225 318.76039 206.075683 
C 318.76039 202.861142 317.48324 199.777827 315.210215 197.504802 
C 312.937191 195.231778 309.853876 193.954627 306.639334 193.954627 
C 303.424793 193.954627 300.341478 195.231778 298.068453 197.504802 
C 295.795429 199.777827 294.518278 202.861142 294.518278 206.075683 
C 294.518278 209.290225 295.795429 212.37354 298.068453 214.646564 
C 300.341478 216.919588 303.424793 218.196739 306.639334 218.196739 
z
" style="fill:#e5e419;fill-opacity:0.6;stroke:#e5e419;stroke-opacity:0.6;"/>
    <path clip-path="url(#pe4d097ff73)" d="M 573.239489 47.448396 
C 577.36056 47.448396 581.313399 45.811077 584.227437 42.897039 
C 587.141474 39.983001 588.778794 36.030163 588.778794 31.909091 
C 588.778794 27.788019 587.141474 23.835181 584.227437 20.921143 
C 581.313399 18.007105 577.36056 16.369786 573.239489 16.369786 
C 569.118417 16.369786 565.165579 18.007105 562.251541 20.921143 
C 559.337503 23.835181 557.700184 27.788019 557.700184 31.909091 
C 557.700184 36.030163 559.337503 39.983001 562.251541 42.897039 
C 565.165579 45.811077 569.118417 47.448396 573.239489 47.448396 
z
" style="fill:#1f9e89;fill-opacity:0.6;stroke:#1f9e89;stroke-opacity:0.6;"/>
    <path clip-path="url(#pe4d097ff73)" d="M 72.626597 502.676816 
C 73.552911 502.676816 74.441411 502.308788 75.096415 501.653784 
C 75.751418 500.998781 76.119447 500.110281 76.119447 499.183967 
C 76.119447 498.257652 75.751418 497.369152 75.096415 496.714149 
C 74.441411 496.059145 73.552911 495.691117 72.626597 495.691117 
C 71.700282 495.691117 70.811782 496.059145 70.156779 496.714149 
C 69.501776 497.369152 69.133747 498.257652 69.133747 499.183967 
C 69.133747 500.110281 69.501776 500.998781 70.156779 501.653784 
C 70.811782 502.308788 71.700282 502.676816 72.626597 502.676816 
z
" style="fill:#1fa187;fill-opacity:0.6;stroke:#1fa187;stroke-opacity:0.6;"/>
    <path clip-path="url(#pe4d097ff73)" d="M 112.113071 373.993774 
C 114.166744 373.993774 116.136579 373.177842 117.588745 371.725676 
C 119.04091 370.27351 119.856843 368.303675 119.856843 366.250002 
C 119.856843 364.19633 119.04091 362.226495 117.588745 360.774329 
C 116.136579 359.322163 114.166744 358.506231 112.113071 358.506231 
C 110.059399 358.506231 108.089564 359.322163 106.637398 360.774329 
C 105.185232 362.226495 104.3693 364.19633 104.3693 366.250002 
C 104.3693 368.303675 105.185232 370.27351 106.637398 371.725676 
C 108.089564 373.177842 110.059399 373.993774 112.113071 373.993774 
z
" style="fill:#228b8d;fill-opacity:0.6;stroke:#228b8d;stroke-opacity:0.6;"/>
    <path clip-path="url(#pe4d097ff73)" d="M 190.637109 264.210973 
C 193.558439 264.210973 196.360512 263.050316 198.426204 260.984624 
C 200.491896 258.918932 201.652553 256.116859 201.652553 253.195529 
C 201.652553 250.274199 200.491896 247.472126 198.426204 245.406434 
C 196.360512 243.340742 193.558439 242.180086 190.637109 242.180086 
C 187.71578 242.180086 184.913707 243.340742 182.848014 245.406434 
C 180.782322 247.472126 179.621666 250.274199 179.621666 253.195529 
C 179.621666 256.116859 180.782322 258.918932 182.848014 260.984624 
C 184.913707 263.050316 187.71578 264.210973 190.637109 264.210973 
z
" style="fill:#470e61;fill-opacity:0.6;stroke:#470e61;stroke-opacity:0.6;"/>
    <path clip-path="url(#pe4d097ff73)" d="M 91.510405 446.942575 
C 92.650933 446.942575 93.744901 446.489438 94.551375 445.682964 
C 95.35785 444.876489 95.810987 443.782521 95.810987 442.641994 
C 95.810987 441.501466 95.35785 440.407498 94.551375 439.601023 
C 93.744901 438.794549 92.650933 438.341412 91.510405 438.341412 
C 90.369878 438.341412 89.27591 438.794549 88.469435 439.601023 
C 87.66296 440.407498 87.209824 441.501466 87.209824 442.641994 
C 87.209824 443.782521 87.66296 444.876489 88.469435 445.682964 
C 89.27591 446.489438 90.369878 446.942575 91.510405 446.942575 
z
" style="fill:#34608d;fill-opacity:0.6;stroke:#34608d;stroke-opacity:0.6;"/>
    <path clip-path="url(#pe4d097ff73)" d="M 160.007773 364.280999 
C 162.152904 364.280999 164.210464 363.42873 165.727301 361.911893 
C 167.244137 360.395057 168.096407 358.337496 168.096407 356.192365 
C 168.096407 354.047234 167.244137 351.989674 165.727301 350.472837 
C 164.210464 348.956001 162.152904 348.103731 160.007773 348.103731 
C 157.862642 348.103731 155.805081 348.956001 154.288245 350.472837 
C 152.771408 351.989674 151.919139 354.047234 151.919139 356.192365 
C 151.919139 358.337496 152.771408 360.395057 154.288245 361.911893 
C 155.805081 363.42873 157.862642 364.280999 160.007773 364.280999 
z
" style="fill:#20928c;fill-opacity:0.6;stroke:#20928c;stroke-opacity:0.6;"/>
    <path clip-path="url(#pe4d097ff73)" d="M 151.806282 399.425122 
C 153.597591 399.425122 155.315773 398.713427 156.58242 397.44678 
C 157.849067 396.180133 158.560761 394.461951 158.560761 392.670642 
C 158.560761 390.879333 157.849067 389.16115 156.58242 387.894503 
C 155.315773 386.627856 153.597591 385.916162 151.806282 385.916162 
C 150.014972 385.916162 148.29679 386.627856 147.030143 387.894503 
C 145.763496 389.16115 145.051802 390.879333 145.051802 392.670642 
C 145.051802 394.461951 145.763496 396.180133 147.030143 397.44678 
C 148.29679 398.713427 150.014972 399.425122 151.806282 399.425122 
z
" style="fill:#460a5d;fill-opacity:0.6;stroke:#460a5d;stroke-opacity:0.6;"/>
    <path clip-path="url(#pe4d097ff73)" d="M 156.605498 407.300296 
C 158.307019 407.300296 159.939079 406.624275 161.142237 405.421118 
C 162.345394 404.21796 163.021415 402.5859 163.021415 400.884379 
C 163.021415 399.182857 162.345394 397.550797 161.142237 396.34764 
C 159.939079 395.144483 158.307019 394.468461 156.605498 394.468461 
C 154.903976 394.468461 153.271916 395.144483 152.068759 396.34764 
C 150.865602 397.550797 150.18958 399.182857 150.18958 400.884379 
C 150.18958 402.5859 150.865602 404.21796 152.068759 405.421118 
C 153.271916 406.624275 154.903976 407.300296 156.605498 407.300296 
z
" style="fill:#cae11f;fill-opacity:0.6;stroke:#cae11f;stroke-opacity:0.6;"/>
    <path clip-path="url(#pe4d097ff73)" d="M 83.078551 420.038286 
C 84.6233 420.038286 86.104987 419.424551 87.197289 418.332249 
C 88.289591 417.239947 88.903326 415.758259 88.903326 414.213511 
C 88.903326 412.668763 88.289591 411.187075 87.197289 410.094773 
C 86.104987 409.002471 84.6233 408.388736 83.078551 408.388736 
C 81.533803 408.388736 80.052116 409.002471 78.959814 410.094773 
C 77.867512 411.187075 77.253777 412.668763 77.253777 414.213511 
C 77.253777 415.758259 77.867512 417.239947 78.959814 418.332249 
C 80.052116 419.424551 81.533803 420.038286 83.078551 420.038286 
z
" style="fill:#472a7a;fill-opacity:0.6;stroke:#472a7a;stroke-opacity:0.6;"/>
    <path clip-path="url(#pe4d097ff73)" d="M 296.597897 300.408171 
C 299.265398 300.408171 301.824003 299.348362 303.710211 297.462154 
C 305.596418 295.575947 306.656227 293.017341 306.656227 290.349841 
C 306.656227 287.682341 305.596418 285.123735 303.710211 283.237528 
C 301.824003 281.35132 299.265398 280.291511 296.597897 280.291511 
C 293.930397 280.291511 291.371792 281.35132 289.485584 283.237528 
C 287.599377 285.123735 286.539567 287.682341 286.539567 290.349841 
C 286.539567 293.017341 287.599377 295.575947 289.485584 297.462154 
C 291.371792 299.348362 293.930397 300.408171 296.597897 300.408171 
z
" style="fill:#3e4c8a;fill-opacity:0.6;stroke:#3e4c8a;stroke-opacity:0.6;"/>
    <path clip-path="url(#pe4d097ff73)" d="M 105.143133 382.860002 
C 107.109467 382.860002 108.995529 382.078769 110.385937 380.688361 
C 111.776345 379.297953 112.557578 377.41189 112.557578 375.445556 
C 112.557578 373.479223 111.776345 371.59316 110.385937 370.202752 
C 108.995529 368.812344 107.109467 368.031111 105.143133 368.031111 
C 103.176799 368.031111 101.290736 368.812344 99.900328 370.202752 
C 98.50992 371.59316 97.728687 373.479223 97.728687 375.445556 
C 97.728687 377.41189 98.50992 379.297953 99.900328 380.688361 
C 101.290736 382.078769 103.176799 382.860002 105.143133 382.860002 
z
" style="fill:#93d741;fill-opacity:0.6;stroke:#93d741;stroke-opacity:0.6;"/>
    <path clip-path="url(#pe4d097ff73)" d="M 77.189544 468.817689 
C 77.815204 468.817689 78.415323 468.569111 78.857732 468.126703 
C 79.30014 467.684294 79.548718 467.084175 79.548718 466.458515 
C 79.548718 465.832855 79.30014 465.232736 78.857732 464.790328 
C 78.415323 464.347919 77.815204 464.099342 77.189544 464.099342 
C 76.563884 464.099342 75.963765 464.347919 75.521356 464.790328 
C 75.078948 465.232736 74.83037 465.832855 74.83037 466.458515 
C 74.83037 467.084175 75.078948 467.684294 75.521356 468.126703 
C 75.963765 468.569111 76.563884 468.817689 77.189544 468.817689 
z
" style="fill:#addc30;fill-opacity:0.6;stroke:#addc30;stroke-opacity:0.6;"/>
    <path clip-path="url(#pe4d097ff73)" d="M 120.769381 410.912954 
C 122.428014 410.912954 124.018937 410.253972 125.191767 409.081142 
C 126.364598 407.908311 127.023579 406.317389 127.023579 404.658756 
C 127.023579 403.000123 126.364598 401.4092 125.191767 400.236369 
C 124.018937 399.063539 122.428014 398.404557 120.769381 398.404557 
C 119.110748 398.404557 117.519825 399.063539 116.346995 400.236369 
C 115.174164 401.4092 114.515182 403.000123 114.515182 404.658756 
C 114.515182 406.317389 115.174164 407.908311 116.346995 409.081142 
C 117.519825 410.253972 119.110748 410.912954 120.769381 410.912954 
z
" style="fill:#54c568;fill-opacity:0.6;stroke:#54c568;stroke-opacity:0.6;"/>
    <path clip-path="url(#pe4d097ff73)" d="M 263.283953 384.84719 
C 265.230154 384.84719 267.096905 384.073956 268.473076 382.697785 
C 269.849248 381.321613 270.622482 379.454862 270.622482 377.508662 
C 270.622482 375.562461 269.849248 373.69571 268.473076 372.319538 
C 267.096905 370.943367 265.230154 370.170133 263.283953 370.170133 
C 261.337753 370.170133 259.471001 370.943367 258.09483 372.319538 
C 256.718658 373.69571 255.945425 375.562461 255.945425 377.508662 
C 255.945425 379.454862 256.718658 381.321613 258.09483 382.697785 
C 259.471001 384.073956 261.337753 384.84719 263.283953 384.84719 
z
" style="fill:#38588c;fill-opacity:0.6;stroke:#38588c;stroke-opacity:0.6;"/>
    <path clip-path="url(#pe4d097ff73)" d="M 88.022483 436.693831 
C 89.33265 436.693831 90.589333 436.173296 91.515762 435.246867 
C 92.44219 434.320439 92.962725 433.063756 92.962725 431.753588 
C 92.962725 430.44342 92.44219 429.186737 91.515762 428.260309 
C 90.589333 427.33388 89.33265 426.813345 88.022483 426.813345 
C 86.712315 426.813345 85.455632 427.33388 84.529203 428.260309 
C 83.602775 429.186737 83.08224 430.44342 83.08224 431.753588 
C 83.08224 433.063756 83.602775 434.320439 84.529203 435.246867 
C 85.455632 436.173296 86.712315 436.693831 88.022483 436.693831 
z
" style="fill:#6ccd5a;fill-opacity:0.6;stroke:#6ccd5a;stroke-opacity:0.6;"/>
    <path clip-path="url(#pe4d097ff73)" d="M 148.595975 360.911946 
C 150.771901 360.911946 152.859 360.047441 154.397613 358.508829 
C 155.936225 356.970217 156.80073 354.883118 156.80073 352.707191 
C 156.80073 350.531265 155.936225 348.444166 154.397613 346.905554 
C 152.859 345.366941 150.771901 344.502437 148.595975 344.502437 
C 146.420049 344.502437 144.33295 345.366941 142.794337 346.905554 
C 141.255725 348.444166 140.39122 350.531265 140.39122 352.707191 
C 140.39122 354.883118 141.255725 356.970217 142.794337 358.508829 
C 144.33295 360.047441 146.420049 360.911946 148.595975 360.911946 
z
" style="fill:#2d708e;fill-opacity:0.6;stroke:#2d708e;stroke-opacity:0.6;"/>
    <path clip-path="url(#pe4d097ff73)" d="M 126.989165 460.67206 
C 127.847006 460.67206 128.669827 460.331236 129.276412 459.724651 
C 129.882997 459.118066 130.223821 458.295245 130.223821 457.437404 
C 130.223821 456.579563 129.882997 455.756742 129.276412 455.150157 
C 128.669827 454.543572 127.847006 454.202748 126.989165 454.202748 
C 126.131324 454.202748 125.308503 454.543572 124.701918 455.150157 
C 124.095333 455.756742 123.754509 456.579563 123.754509 457.437404 
C 123.754509 458.295245 124.095333 459.118066 124.701918 459.724651 
C 125.308503 460.331236 126.131324 460.67206 126.989165 460.67206 
z
" style="fill:#1f958b;fill-opacity:0.6;stroke:#1f958b;stroke-opacity:0.6;"/>
    <path clip-path="url(#pe4d097ff73)" d="M 67.245568 389.310106 
C 69.145744 389.310106 70.96835 388.555158 72.311977 387.211531 
C 73.655604 385.867903 74.410552 384.045298 74.410552 382.145122 
C 74.410552 380.244946 73.655604 378.42234 72.311977 377.078713 
C 70.96835 375.735085 69.145744 374.980137 67.245568 374.980137 
C 65.345392 374.980137 63.522786 375.735085 62.179159 377.078713 
C 60.835532 378.42234 60.080584 380.244946 60.080584 382.145122 
C 60.080584 384.045298 60.835532 385.867903 62.179159 387.211531 
C 63.522786 388.555158 65.345392 389.310106 67.245568 389.310106 
z
" style="fill:#5ac864;fill-opacity:0.6;stroke:#5ac864;stroke-opacity:0.6;"/>
    <path clip-path="url(#pe4d097ff73)" d="M 88.840564 447.037489 
C 89.979395 447.037489 91.071735 446.585027 91.87701 445.779752 
C 92.682284 444.974477 93.134746 443.882137 93.134746 442.743307 
C 93.134746 441.604476 92.682284 440.512136 91.87701 439.706861 
C 91.071735 438.901587 89.979395 438.449125 88.840564 438.449125 
C 87.701734 438.449125 86.609394 438.901587 85.804119 439.706861 
C 84.998844 440.512136 84.546382 441.604476 84.546382 442.743307 
C 84.546382 443.882137 84.998844 444.974477 85.804119 445.779752 
C 86.609394 446.585027 87.701734 447.037489 88.840564 447.037489 
z
" style="fill:#20928c;fill-opacity:0.6;stroke:#20928c;stroke-opacity:0.6;"/>
    <path clip-path="url(#pe4d097ff73)" d="M 263.047684 338.213678 
C 265.42037 338.213678 267.696196 337.270999 269.373939 335.593257 
C 271.051681 333.915515 271.994359 331.639688 271.994359 329.267002 
C 271.994359 326.894316 271.051681 324.61849 269.373939 322.940747 
C 267.696196 321.263005 265.42037 320.320327 263.047684 320.320327 
C 260.674998 320.320327 258.399172 321.263005 256.721429 322.940747 
C 255.043687 324.61849 254.101009 326.894316 254.101009 329.267002 
C 254.101009 331.639688 255.043687 333.915515 256.721429 335.593257 
C 258.399172 337.270999 260.674998 338.213678 263.047684 338.213678 
z
" style="fill:#472e7c;fill-opacity:0.6;stroke:#472e7c;stroke-opacity:0.6;"/>
    <path clip-path="url(#pe4d097ff73)" d="M 81.167725 461.151003 
C 82.013843 461.151003 82.825421 460.814837 83.423717 460.216541 
C 84.022013 459.618245 84.35818 458.806667 84.35818 457.960549 
C 84.35818 457.11443 84.022013 456.302853 83.423717 455.704557 
C 82.825421 455.10626 82.013843 454.770094 81.167725 454.770094 
C 80.321607 454.770094 79.510029 455.10626 78.911733 455.704557 
C 78.313437 456.302853 77.977271 457.11443 77.977271 457.960549 
C 77.977271 458.806667 78.313437 459.618245 78.911733 460.216541 
C 79.510029 460.814837 80.321607 461.151003 81.167725 461.151003 
z
" style="fill:#f8e621;fill-opacity:0.6;stroke:#f8e621;stroke-opacity:0.6;"/>
    <path clip-path="url(#pe4d097ff73)" d="M 140.193655 360.58065 
C 142.372585 360.58065 144.462566 359.714952 146.003302 358.174216 
C 147.544038 356.633479 148.409737 354.543499 148.409737 352.364569 
C 148.409737 350.185638 147.544038 348.095658 146.003302 346.554921 
C 144.462566 345.014185 142.372585 344.148487 140.193655 344.148487 
C 138.014725 344.148487 135.924744 345.014185 134.384008 346.554921 
C 132.843271 348.095658 131.977573 350.185638 131.977573 352.364569 
C 131.977573 354.543499 132.843271 356.633479 134.384008 358.174216 
C 135.924744 359.714952 138.014725 360.58065 140.193655 360.58065 
z
" style="fill:#67cc5c;fill-opacity:0.6;stroke:#67cc5c;stroke-opacity:0.6;"/>
    <path clip-path="url(#pe4d097ff73)" d="M 74.259807 447.113413 
C 75.397278 447.113413 76.488314 446.661491 77.292628 445.857178 
C 78.096941 445.052864 78.548863 443.961828 78.548863 442.824357 
C 78.548863 441.686886 78.096941 440.59585 77.292628 439.791537 
C 76.488314 438.987223 75.397278 438.535301 74.259807 438.535301 
C 73.122336 438.535301 72.0313 438.987223 71.226987 439.791537 
C 70.422673 440.59585 69.970751 441.686886 69.970751 442.824357 
C 69.970751 443.961828 70.422673 445.052864 71.226987 445.857178 
C 72.0313 446.661491 73.122336 447.113413 74.259807 447.113413 
z
" style="fill:#3e4a89;fill-opacity:0.6;stroke:#3e4a89;stroke-opacity:0.6;"/>
    <path clip-path="url(#pe4d097ff73)" d="M 136.758893 404.262861 
C 138.495619 404.262861 140.161447 403.572852 141.389497 402.344801 
C 142.617548 401.116751 143.307557 399.450923 143.307557 397.714197 
C 143.307557 395.977471 142.617548 394.311643 141.389497 393.083592 
C 140.161447 391.855541 138.495619 391.165533 136.758893 391.165533 
C 135.022167 391.165533 133.356339 391.855541 132.128288 393.083592 
C 130.900237 394.311643 130.210229 395.977471 130.210229 397.714197 
C 130.210229 399.450923 130.900237 401.116751 132.128288 402.344801 
C 133.356339 403.572852 135.022167 404.262861 136.758893 404.262861 
z
" style="fill:#450559;fill-opacity:0.6;stroke:#450559;stroke-opacity:0.6;"/>
    <path clip-path="url(#pe4d097ff73)" d="M 142.051321 391.712677 
C 143.926233 391.712677 145.724607 390.967766 147.050371 389.642002 
C 148.376134 388.316239 149.121045 386.517865 149.121045 384.642952 
C 149.121045 382.76804 148.376134 380.969666 147.050371 379.643903 
C 145.724607 378.318139 143.926233 377.573228 142.051321 377.573228 
C 140.176408 377.573228 138.378034 378.318139 137.052271 379.643903 
C 135.726507 380.969666 134.981597 382.76804 134.981597 384.642952 
C 134.981597 386.517865 135.726507 388.316239 137.052271 389.642002 
C 138.378034 390.967766 140.176408 391.712677 142.051321 391.712677 
z
" style="fill:#355f8d;fill-opacity:0.6;stroke:#355f8d;stroke-opacity:0.6;"/>
    <path clip-path="url(#pe4d097ff73)" d="M 104.53474 454.26551 
C 105.535262 454.26551 106.494941 453.867998 107.202417 453.160522 
C 107.909893 452.453046 108.307405 451.493367 108.307405 450.492845 
C 108.307405 449.492323 107.909893 448.532644 107.202417 447.825168 
C 106.494941 447.117692 105.535262 446.72018 104.53474 446.72018 
C 103.534217 446.72018 102.574539 447.117692 101.867063 447.825168 
C 101.159587 448.532644 100.762075 449.492323 100.762075 450.492845 
C 100.762075 451.493367 101.159587 452.453046 101.867063 453.160522 
C 102.574539 453.867998 103.534217 454.26551 104.53474 454.26551 
z
" style="fill:#1f9e89;fill-opacity:0.6;stroke:#1f9e89;stroke-opacity:0.6;"/>
    <path clip-path="url(#pe4d097ff73)" d="M 105.305568 506.658093 
C 106.305317 506.658093 107.264253 506.260889 107.971182 505.55396 
C 108.678111 504.847031 109.075316 503.888094 109.075316 502.888345 
C 109.075316 501.888597 108.678111 500.92966 107.971182 500.222731 
C 107.264253 499.515802 106.305317 499.118597 105.305568 499.118597 
C 104.305819 499.118597 103.346883 499.515802 102.639953 500.222731 
C 101.933024 500.92966 101.53582 501.888597 101.53582 502.888345 
C 101.53582 503.888094 101.933024 504.847031 102.639953 505.55396 
C 103.346883 506.260889 104.305819 506.658093 105.305568 506.658093 
z
" style="fill:#38588c;fill-opacity:0.6;stroke:#38588c;stroke-opacity:0.6;"/>
    <path clip-path="url(#pe4d097ff73)" d="M 102.804069 436.084408 
C 104.123597 436.084408 105.389259 435.560154 106.322307 434.627106 
C 107.255354 433.694058 107.779609 432.428396 107.779609 431.108868 
C 107.779609 429.789339 107.255354 428.523677 106.322307 427.59063 
C 105.389259 426.657582 104.123597 426.133328 102.804069 426.133328 
C 101.48454 426.133328 100.218878 426.657582 99.28583 427.59063 
C 98.352783 428.523677 97.828528 429.789339 97.828528 431.108868 
C 97.828528 432.428396 98.352783 433.694058 99.28583 434.627106 
C 100.218878 435.560154 101.48454 436.084408 102.804069 436.084408 
z
" style="fill:#3e4c8a;fill-opacity:0.6;stroke:#3e4c8a;stroke-opacity:0.6;"/>
    <path clip-path="url(#pe4d097ff73)" d="M 84.064975 398.684245 
C 85.864491 398.684245 87.590546 397.96929 88.862995 396.69684 
C 90.135445 395.42439 90.850401 393.698335 90.850401 391.898819 
C 90.850401 390.099303 90.135445 388.373249 88.862995 387.100799 
C 87.590546 385.828349 85.864491 385.113394 84.064975 385.113394 
C 82.265459 385.113394 80.539404 385.828349 79.266955 387.100799 
C 77.994505 388.373249 77.279549 390.099303 77.279549 391.898819 
C 77.279549 393.698335 77.994505 395.42439 79.266955 396.69684 
C 80.539404 397.96929 82.265459 398.684245 84.064975 398.684245 
z
" style="fill:#3aba76;fill-opacity:0.6;stroke:#3aba76;stroke-opacity:0.6;"/>
    <path clip-path="url(#pe4d097ff73)" d="M 192.468195 410.015908 
C 194.137585 410.015908 195.738825 409.352652 196.919262 408.172215 
C 198.099699 406.991779 198.762955 405.390538 198.762955 403.721148 
C 198.762955 402.051758 198.099699 400.450518 196.919262 399.270081 
C 195.738825 398.089644 194.137585 397.426388 192.468195 397.426388 
C 190.798805 397.426388 189.197564 398.089644 188.017128 399.270081 
C 186.836691 400.450518 186.173435 402.051758 186.173435 403.721148 
C 186.173435 405.390538 186.836691 406.991779 188.017128 408.172215 
C 189.197564 409.352652 190.798805 410.015908 192.468195 410.015908 
z
" style="fill:#d5e21a;fill-opacity:0.6;stroke:#d5e21a;stroke-opacity:0.6;"/>
    <path clip-path="url(#pe4d097ff73)" d="M 196.703319 384.338048 
C 198.654698 384.338048 200.526417 383.562756 201.906251 382.182923 
C 203.286084 380.803089 204.061375 378.93137 204.061375 376.979991 
C 204.061375 375.028611 203.286084 373.156893 201.906251 371.777059 
C 200.526417 370.397225 198.654698 369.621934 196.703319 369.621934 
C 194.751939 369.621934 192.88022 370.397225 191.500387 371.777059 
C 190.120553 373.156893 189.345262 375.028611 189.345262 376.979991 
C 189.345262 378.93137 190.120553 380.803089 191.500387 382.182923 
C 192.88022 383.562756 194.751939 384.338048 196.703319 384.338048 
z
" style="fill:#482677;fill-opacity:0.6;stroke:#482677;stroke-opacity:0.6;"/>
    <path clip-path="url(#pe4d097ff73)" d="M 178.150287 388.677361 
C 180.057059 388.677361 181.88599 387.919793 183.234281 386.571501 
C 184.582573 385.22321 185.340141 383.394279 185.340141 381.487507 
C 185.340141 379.580735 184.582573 377.751804 183.234281 376.403512 
C 181.88599 375.055221 180.057059 374.297653 178.150287 374.297653 
C 176.243515 374.297653 174.414584 375.055221 173.066292 376.403512 
C 171.718001 377.751804 170.960433 379.580735 170.960433 381.487507 
C 170.960433 383.394279 171.718001 385.22321 173.066292 386.571501 
C 174.414584 387.919793 176.243515 388.677361 178.150287 388.677361 
z
" style="fill:#440154;fill-opacity:0.6;stroke:#440154;stroke-opacity:0.6;"/>
    <path clip-path="url(#pe4d097ff73)" d="M 70.467688 493.118899 
C 71.190477 493.118899 71.88376 492.831731 72.394849 492.320642 
C 72.905938 491.809553 73.193105 491.11627 73.193105 490.393481 
C 73.193105 489.670692 72.905938 488.977409 72.394849 488.46632 
C 71.88376 487.955231 71.190477 487.668064 70.467688 487.668064 
C 69.744899 487.668064 69.051616 487.955231 68.540527 488.46632 
C 68.029438 488.977409 67.74227 489.670692 67.74227 490.393481 
C 67.74227 491.11627 68.029438 491.809553 68.540527 492.320642 
C 69.051616 492.831731 69.744899 493.118899 70.467688 493.118899 
z
" style="fill:#ece51b;fill-opacity:0.6;stroke:#ece51b;stroke-opacity:0.6;"/>
    <path clip-path="url(#pe4d097ff73)" d="M 545.950407 159.838185 
C 549.501455 159.838185 552.90754 158.427338 555.418511 155.916367 
C 557.929482 153.405397 559.340328 149.999312 559.340328 146.448263 
C 559.340328 142.897214 557.929482 139.491129 555.418511 136.980159 
C 552.90754 134.469188 549.501455 133.058341 545.950407 133.058341 
C 542.399358 133.058341 538.993273 134.469188 536.482302 136.980159 
C 533.971332 139.491129 532.560485 142.897214 532.560485 146.448263 
C 532.560485 149.999312 533.971332 153.405397 536.482302 155.916367 
C 538.993273 158.427338 542.399358 159.838185 545.950407 159.838185 
z
" style="fill:#25858e;fill-opacity:0.6;stroke:#25858e;stroke-opacity:0.6;"/>
    <path clip-path="url(#pe4d097ff73)" d="M 357.791596 265.648247 
C 360.70328 265.648247 363.4961 264.491423 365.554972 262.432551 
C 367.613843 260.37368 368.770667 257.580859 368.770667 254.669176 
C 368.770667 251.757492 367.613843 248.964671 365.554972 246.9058 
C 363.4961 244.846929 360.70328 243.690105 357.791596 243.690105 
C 354.879913 243.690105 352.087092 244.846929 350.028221 246.9058 
C 347.969349 248.964671 346.812525 251.757492 346.812525 254.669176 
C 346.812525 257.580859 347.969349 260.37368 350.028221 262.432551 
C 352.087092 264.491423 354.879913 265.648247 357.791596 265.648247 
z
" style="fill:#24878e;fill-opacity:0.6;stroke:#24878e;stroke-opacity:0.6;"/>
    <path clip-path="url(#pe4d097ff73)" d="M 477.432366 175.625368 
C 480.895678 175.625368 484.217609 174.249379 486.666541 171.800447 
C 489.115473 169.351515 490.491462 166.029584 490.491462 162.566271 
C 490.491462 159.102958 489.115473 155.781028 486.666541 153.332096 
C 484.217609 150.883164 480.895678 149.507175 477.432366 149.507175 
C 473.969053 149.507175 470.647122 150.883164 468.19819 153.332096 
C 465.749258 155.781028 464.373269 159.102958 464.373269 162.566271 
C 464.373269 166.029584 465.749258 169.351515 468.19819 171.800447 
C 470.647122 174.249379 473.969053 175.625368 477.432366 175.625368 
z
" style="fill:#277f8e;fill-opacity:0.6;stroke:#277f8e;stroke-opacity:0.6;"/>
    <path clip-path="url(#pe4d097ff73)" d="M 130.683823 393.712057 
C 132.537439 393.712057 134.315386 392.975607 135.62609 391.664903 
C 136.936794 390.354198 137.673244 388.576252 137.673244 386.722636 
C 137.673244 384.86902 136.936794 383.091074 135.62609 381.780369 
C 134.315386 380.469665 132.537439 379.733215 130.683823 379.733215 
C 128.830207 379.733215 127.052261 380.469665 125.741557 381.780369 
C 124.430852 383.091074 123.694403 384.86902 123.694403 386.722636 
C 123.694403 388.576252 124.430852 390.354198 125.741557 391.664903 
C 127.052261 392.975607 128.830207 393.712057 130.683823 393.712057 
z
" style="fill:#37b878;fill-opacity:0.6;stroke:#37b878;stroke-opacity:0.6;"/>
    <path clip-path="url(#pe4d097ff73)" d="M 162.488599 378.478407 
C 164.498586 378.478407 166.42652 377.679831 167.847796 376.258555 
C 169.269072 374.837279 170.067649 372.909345 170.067649 370.899357 
C 170.067649 368.88937 169.269072 366.961435 167.847796 365.540159 
C 166.42652 364.118884 164.498586 363.320307 162.488599 363.320307 
C 160.478611 363.320307 158.550677 364.118884 157.129401 365.540159 
C 155.708125 366.961435 154.909548 368.88937 154.909548 370.899357 
C 154.909548 372.909345 155.708125 374.837279 157.129401 376.258555 
C 158.550677 377.679831 160.478611 378.478407 162.488599 378.478407 
z
" style="fill:#22a785;fill-opacity:0.6;stroke:#22a785;stroke-opacity:0.6;"/>
    <path clip-path="url(#pe4d097ff73)" d="M 219.810437 342.301296 
C 222.148951 342.301296 224.392001 341.372195 226.04558 339.718615 
C 227.699159 338.065036 228.62826 335.821987 228.62826 333.483473 
C 228.62826 331.144959 227.699159 328.90191 226.04558 327.248331 
C 224.392001 325.594752 222.148951 324.66565 219.810437 324.66565 
C 217.471923 324.66565 215.228874 325.594752 213.575295 327.248331 
C 211.921716 328.90191 210.992615 331.144959 210.992615 333.483473 
C 210.992615 335.821987 211.921716 338.065036 213.575295 339.718615 
C 215.228874 341.372195 217.471923 342.301296 219.810437 342.301296 
z
" style="fill:#1f998a;fill-opacity:0.6;stroke:#1f998a;stroke-opacity:0.6;"/>
    <path clip-path="url(#pe4d097ff73)" d="M 79.921406 461.161115 
C 80.767275 461.161115 81.578613 460.825048 82.176733 460.226928 
C 82.774852 459.628808 83.11092 458.81747 83.11092 457.971601 
C 83.11092 457.125732 82.774852 456.314394 82.176733 455.716274 
C 81.578613 455.118154 80.767275 454.782087 79.921406 454.782087 
C 79.075537 454.782087 78.264198 455.118154 77.666079 455.716274 
C 77.067959 456.314394 76.731891 457.125732 76.731891 457.971601 
C 76.731891 458.81747 77.067959 459.628808 77.666079 460.226928 
C 78.264198 460.825048 79.075537 461.161115 79.921406 461.161115 
z
" style="fill:#6ccd5a;fill-opacity:0.6;stroke:#6ccd5a;stroke-opacity:0.6;"/>
    <path clip-path="url(#pe4d097ff73)" d="M 518.247854 104.51464 
C 522.09028 104.51464 525.775847 102.988028 528.492853 100.271022 
C 531.209858 97.554017 532.73647 93.86845 532.73647 90.026024 
C 532.73647 86.183598 531.209858 82.49803 528.492853 79.781025 
C 525.775847 77.064019 522.09028 75.537407 518.247854 75.537407 
C 514.405428 75.537407 510.719861 77.064019 508.002855 79.781025 
C 505.28585 82.49803 503.759238 86.183598 503.759238 90.026024 
C 503.759238 93.86845 505.28585 97.554017 508.002855 100.271022 
C 510.719861 102.988028 514.405428 104.51464 518.247854 104.51464 
z
" style="fill:#2d718e;fill-opacity:0.6;stroke:#2d718e;stroke-opacity:0.6;"/>
    <path clip-path="url(#pe4d097ff73)" d="M 216.857074 361.836285 
C 219.024596 361.836285 221.103634 360.975119 222.636304 359.44245 
C 224.168973 357.90978 225.030139 355.830742 225.030139 353.66322 
C 225.030139 351.495697 224.168973 349.416659 222.636304 347.883989 
C 221.103634 346.35132 219.024596 345.490154 216.857074 345.490154 
C 214.689551 345.490154 212.610513 346.35132 211.077843 347.883989 
C 209.545174 349.416659 208.684008 351.495697 208.684008 353.66322 
C 208.684008 355.830742 209.545174 357.90978 211.077843 359.44245 
C 212.610513 360.975119 214.689551 361.836285 216.857074 361.836285 
z
" style="fill:#482576;fill-opacity:0.6;stroke:#482576;stroke-opacity:0.6;"/>
    <path clip-path="url(#pe4d097ff73)" d="M 134.118585 408.896439 
C 135.801299 408.896439 137.415319 408.22789 138.605177 407.038032 
C 139.795034 405.848174 140.463583 404.234154 140.463583 402.551441 
C 140.463583 400.868728 139.795034 399.254708 138.605177 398.06485 
C 137.415319 396.874992 135.801299 396.206443 134.118585 396.206443 
C 132.435872 396.206443 130.821852 396.874992 129.631994 398.06485 
C 128.442136 399.254708 127.773587 400.868728 127.773587 402.551441 
C 127.773587 404.234154 128.442136 405.848174 129.631994 407.038032 
C 130.821852 408.22789 132.435872 408.896439 134.118585 408.896439 
z
" style="fill:#52c569;fill-opacity:0.6;stroke:#52c569;stroke-opacity:0.6;"/>
    <path clip-path="url(#pe4d097ff73)" d="M 94.889053 456.737459 
C 95.83728 456.737459 96.746797 456.360725 97.417294 455.690228 
C 98.087791 455.019731 98.464525 454.110214 98.464525 453.161987 
C 98.464525 452.213761 98.087791 451.304244 97.417294 450.633747 
C 96.746797 449.96325 95.83728 449.586515 94.889053 449.586515 
C 93.940827 449.586515 93.03131 449.96325 92.360813 450.633747 
C 91.690316 451.304244 91.313581 452.213761 91.313581 453.161987 
C 91.313581 454.110214 91.690316 455.019731 92.360813 455.690228 
C 93.03131 456.360725 93.940827 456.737459 94.889053 456.737459 
z
" style="fill:#46075a;fill-opacity:0.6;stroke:#46075a;stroke-opacity:0.6;"/>
    <path clip-path="url(#pe4d097ff73)" d="M 130.911232 420.94608 
C 132.444166 420.94608 133.914521 420.337039 134.998469 419.253091 
C 136.082416 418.169144 136.691457 416.698789 136.691457 415.165855 
C 136.691457 413.632921 136.082416 412.162567 134.998469 411.078619 
C 133.914521 409.994671 132.444166 409.38563 130.911232 409.38563 
C 129.378299 409.38563 127.907944 409.994671 126.823996 411.078619 
C 125.740048 412.162567 125.131007 413.632921 125.131007 415.165855 
C 125.131007 416.698789 125.740048 418.169144 126.823996 419.253091 
C 127.907944 420.337039 129.378299 420.94608 130.911232 420.94608 
z
" style="fill:#cae11f;fill-opacity:0.6;stroke:#cae11f;stroke-opacity:0.6;"/>
    <path clip-path="url(#pe4d097ff73)" d="M 65.966761 531.268457 
C 67.339863 531.268457 68.656911 530.722918 69.62784 529.751988 
C 70.59877 528.781059 71.144309 527.464011 71.144309 526.090909 
C 71.144309 524.717807 70.59877 523.40076 69.62784 522.42983 
C 68.656911 521.4589 67.339863 520.913361 65.966761 520.913361 
C 64.59366 520.913361 63.276612 521.4589 62.305682 522.42983 
C 61.334753 523.40076 60.789214 524.717807 60.789214 526.090909 
C 60.789214 527.464011 61.334753 528.781059 62.305682 529.751988 
C 63.276612 530.722918 64.59366 531.268457 65.966761 531.268457 
z
" style="fill:#25848e;fill-opacity:0.6;stroke:#25848e;stroke-opacity:0.6;"/>
    <path clip-path="url(#pe4d097ff73)" d="M 110.887425 472.966728 
C 111.344299 472.966728 111.782521 472.785211 112.10558 472.462152 
C 112.428638 472.139094 112.610156 471.700871 112.610156 471.243998 
C 112.610156 470.787124 112.428638 470.348902 112.10558 470.025844 
C 111.782521 469.702785 111.344299 469.521267 110.887425 469.521267 
C 110.430552 469.521267 109.992329 469.702785 109.669271 470.025844 
C 109.346213 470.348902 109.164695 470.787124 109.164695 471.243998 
C 109.164695 471.700871 109.346213 472.139094 109.669271 472.462152 
C 109.992329 472.785211 110.430552 472.966728 110.887425 472.966728 
z
" style="fill:#70cf57;fill-opacity:0.6;stroke:#70cf57;stroke-opacity:0.6;"/>
    <path clip-path="url(#pe4d097ff73)" d="M 140.146401 411.388687 
C 141.799299 411.388687 143.384722 410.731984 144.553498 409.563208 
C 145.722273 408.394432 146.378977 406.80901 146.378977 405.156111 
C 146.378977 403.503213 145.722273 401.91779 144.553498 400.749015 
C 143.384722 399.580239 141.799299 398.923536 140.146401 398.923536 
C 138.493503 398.923536 136.90808 399.580239 135.739304 400.749015 
C 134.570529 401.91779 133.913825 403.503213 133.913825 405.156111 
C 133.913825 406.80901 134.570529 408.394432 135.739304 409.563208 
C 136.90808 410.731984 138.493503 411.388687 140.146401 411.388687 
z
" style="fill:#2a788e;fill-opacity:0.6;stroke:#2a788e;stroke-opacity:0.6;"/>
    <path clip-path="url(#pe4d097ff73)" d="M 66.250284 379.238519 
C 68.25277 379.238519 70.173508 378.442924 71.589479 377.026953 
C 73.00545 375.610982 73.801046 373.690243 73.801046 371.687758 
C 73.801046 369.685273 73.00545 367.764534 71.589479 366.348563 
C 70.173508 364.932592 68.25277 364.136996 66.250284 364.136996 
C 64.247799 364.136996 62.327061 364.932592 60.91109 366.348563 
C 59.495119 367.764534 58.699523 369.685273 58.699523 371.687758 
C 58.699523 373.690243 59.495119 375.610982 60.91109 377.026953 
C 62.327061 378.442924 64.247799 379.238519 66.250284 379.238519 
z
" style="fill:#63cb5f;fill-opacity:0.6;stroke:#63cb5f;stroke-opacity:0.6;"/>
    <path clip-path="url(#pe4d097ff73)" d="M 220.932716 360.541464 
C 223.112001 360.541464 225.202322 359.675625 226.743309 358.134637 
C 228.284297 356.59365 229.150136 354.503329 229.150136 352.324043 
C 229.150136 350.144758 228.284297 348.054437 226.743309 346.51345 
C 225.202322 344.972462 223.112001 344.106623 220.932716 344.106623 
C 218.75343 344.106623 216.663109 344.972462 215.122122 346.51345 
C 213.581134 348.054437 212.715295 350.144758 212.715295 352.324043 
C 212.715295 354.503329 213.581134 356.59365 215.122122 358.134637 
C 216.663109 359.675625 218.75343 360.541464 220.932716 360.541464 
z
" style="fill:#5cc863;fill-opacity:0.6;stroke:#5cc863;stroke-opacity:0.6;"/>
    <path clip-path="url(#pe4d097ff73)" d="M 68.353079 443.344748 
C 69.556061 443.344748 70.709934 442.866798 71.560571 442.016162 
C 72.411207 441.165525 72.889157 440.011652 72.889157 438.808671 
C 72.889157 437.605689 72.411207 436.451816 71.560571 435.601179 
C 70.709934 434.750543 69.556061 434.272593 68.353079 434.272593 
C 67.150098 434.272593 65.996225 434.750543 65.145588 435.601179 
C 64.294952 436.451816 63.817002 437.605689 63.817002 438.808671 
C 63.817002 440.011652 64.294952 441.165525 65.145588 442.016162 
C 65.996225 442.866798 67.150098 443.344748 68.353079 443.344748 
z
" style="fill:#2e6d8e;fill-opacity:0.6;stroke:#2e6d8e;stroke-opacity:0.6;"/>
    <path clip-path="url(#pe4d097ff73)" d="M 86.708236 470.067454 
C 87.288982 470.067454 87.846021 469.836721 88.25667 469.426071 
C 88.66732 469.015422 88.898053 468.458383 88.898053 467.877637 
C 88.898053 467.29689 88.66732 466.739852 88.25667 466.329202 
C 87.846021 465.918552 87.288982 465.687819 86.708236 465.687819 
C 86.127489 465.687819 85.570451 465.918552 85.159801 466.329202 
C 84.749151 466.739852 84.518418 467.29689 84.518418 467.877637 
C 84.518418 468.458383 84.749151 469.015422 85.159801 469.426071 
C 85.570451 469.836721 86.127489 470.067454 86.708236 470.067454 
z
" style="fill:#75d054;fill-opacity:0.6;stroke:#75d054;stroke-opacity:0.6;"/>
    <path clip-path="url(#pe4d097ff73)" d="M 70.736444 474.378212 
C 71.115425 474.378212 71.478934 474.227641 71.746914 473.959661 
C 72.014894 473.691681 72.165465 473.328172 72.165465 472.949191 
C 72.165465 472.57021 72.014894 472.206701 71.746914 471.938721 
C 71.478934 471.670741 71.115425 471.52017 70.736444 471.52017 
C 70.357463 471.52017 69.993954 471.670741 69.725974 471.938721 
C 69.457994 472.206701 69.307423 472.57021 69.307423 472.949191 
C 69.307423 473.328172 69.457994 473.691681 69.725974 473.959661 
C 69.993954 474.227641 70.357463 474.378212 70.736444 474.378212 
z
" style="fill:#404688;fill-opacity:0.6;stroke:#404688;stroke-opacity:0.6;"/>
    <path clip-path="url(#pe4d097ff73)" d="M 105.21106 466.815482 
C 105.901918 466.815482 106.564573 466.541001 107.053083 466.052491 
C 107.541594 465.563981 107.816075 464.901325 107.816075 464.210467 
C 107.816075 463.51961 107.541594 462.856954 107.053083 462.368444 
C 106.564573 461.879934 105.901918 461.605453 105.21106 461.605453 
C 104.520202 461.605453 103.857547 461.879934 103.369037 462.368444 
C 102.880526 462.856954 102.606046 463.51961 102.606046 464.210467 
C 102.606046 464.901325 102.880526 465.563981 103.369037 466.052491 
C 103.857547 466.541001 104.520202 466.815482 105.21106 466.815482 
z
" style="fill:#e7e419;fill-opacity:0.6;stroke:#e7e419;stroke-opacity:0.6;"/>
    <path clip-path="url(#pe4d097ff73)" d="M 206.009368 346.440538 
C 208.312745 346.440538 210.522092 345.525397 212.150826 343.896663 
C 213.779559 342.26793 214.694701 340.058583 214.694701 337.755206 
C 214.694701 335.451829 213.779559 333.242482 212.150826 331.613748 
C 210.522092 329.985015 208.312745 329.069873 206.009368 329.069873 
C 203.705991 329.069873 201.496644 329.985015 199.867911 331.613748 
C 198.239177 333.242482 197.324036 335.451829 197.324036 337.755206 
C 197.324036 340.058583 198.239177 342.26793 199.867911 343.896663 
C 201.496644 345.525397 203.705991 346.440538 206.009368 346.440538 
z
" style="fill:#228d8d;fill-opacity:0.6;stroke:#228d8d;stroke-opacity:0.6;"/>
    <path clip-path="url(#pe4d097ff73)" d="M 109.942349 385.588635 
C 111.880982 385.588635 113.740474 384.818408 115.111295 383.447588 
C 116.482115 382.076767 117.252342 380.217275 117.252342 378.278642 
C 117.252342 376.340009 116.482115 374.480516 115.111295 373.109696 
C 113.740474 371.738876 111.880982 370.968649 109.942349 370.968649 
C 108.003716 370.968649 106.144224 371.738876 104.773403 373.109696 
C 103.402583 374.480516 102.632356 376.340009 102.632356 378.278642 
C 102.632356 380.217275 103.402583 382.076767 104.773403 383.447588 
C 106.144224 384.818408 108.003716 385.588635 109.942349 385.588635 
z
" style="fill:#46327e;fill-opacity:0.6;stroke:#46327e;stroke-opacity:0.6;"/>
    <path clip-path="url(#pe4d097ff73)" d="M 169.04802 405.092644 
C 170.775203 405.092644 172.431877 404.406427 173.65318 403.185124 
C 174.874483 401.963821 175.5607 400.307147 175.5607 398.579964 
C 175.5607 396.852781 174.874483 395.196107 173.65318 393.974804 
C 172.431877 392.753501 170.775203 392.067284 169.04802 392.067284 
C 167.320837 392.067284 165.664162 392.753501 164.442859 393.974804 
C 163.221557 395.196107 162.53534 396.852781 162.53534 398.579964 
C 162.53534 400.307147 163.221557 401.963821 164.442859 403.185124 
C 165.664162 404.406427 167.320837 405.092644 169.04802 405.092644 
z
" style="fill:#306a8e;fill-opacity:0.6;stroke:#306a8e;stroke-opacity:0.6;"/>
    <path clip-path="url(#pe4d097ff73)" d="M 188.628822 359.730966 
C 190.815437 359.730966 192.912789 358.862215 194.458959 357.316044 
C 196.00513 355.769874 196.873881 353.672522 196.873881 351.485907 
C 196.873881 349.299292 196.00513 347.20194 194.458959 345.65577 
C 192.912789 344.109599 190.815437 343.240848 188.628822 343.240848 
C 186.442207 343.240848 184.344855 344.109599 182.798685 345.65577 
C 181.252514 347.20194 180.383763 349.299292 180.383763 351.485907 
C 180.383763 353.672522 181.252514 355.769874 182.798685 357.316044 
C 184.344855 358.862215 186.442207 359.730966 188.628822 359.730966 
z
" style="fill:#4cc26c;fill-opacity:0.6;stroke:#4cc26c;stroke-opacity:0.6;"/>
    <path clip-path="url(#pe4d097ff73)" d="M 94.765012 462.680486 
C 95.572446 462.680486 96.346917 462.359689 96.917859 461.788747 
C 97.488801 461.217806 97.809598 460.443334 97.809598 459.6359 
C 97.809598 458.828467 97.488801 458.053995 96.917859 457.483053 
C 96.346917 456.912112 95.572446 456.591315 94.765012 456.591315 
C 93.957579 456.591315 93.183107 456.912112 92.612165 457.483053 
C 92.041224 458.053995 91.720427 458.828467 91.720427 459.6359 
C 91.720427 460.443334 92.041224 461.217806 92.612165 461.788747 
C 93.183107 462.359689 93.957579 462.680486 94.765012 462.680486 
z
" style="fill:#cde11d;fill-opacity:0.6;stroke:#cde11d;stroke-opacity:0.6;"/>
    <path clip-path="url(#pe4d097ff73)" d="M 80.541612 475.143812 
C 80.868576 475.143812 81.182193 475.013908 81.413392 474.782709 
C 81.64459 474.551511 81.774495 474.237894 81.774495 473.91093 
C 81.774495 473.583965 81.64459 473.270348 81.413392 473.03915 
C 81.182193 472.807951 80.868576 472.678047 80.541612 472.678047 
C 80.214648 472.678047 79.901031 472.807951 79.669832 473.03915 
C 79.438633 473.270348 79.308729 473.583965 79.308729 473.91093 
C 79.308729 474.237894 79.438633 474.551511 79.669832 474.782709 
C 79.901031 475.013908 80.214648 475.143812 80.541612 475.143812 
z
" style="fill:#443a83;fill-opacity:0.6;stroke:#443a83;stroke-opacity:0.6;"/>
    <path clip-path="url(#pe4d097ff73)" d="M 66.926605 430.050716 
C 68.33528 430.050716 69.686449 429.491043 70.682533 428.49496 
C 71.678617 427.498876 72.23829 426.147706 72.23829 424.739031 
C 72.23829 423.330356 71.678617 421.979186 70.682533 420.983102 
C 69.686449 419.987018 68.33528 419.427346 66.926605 419.427346 
C 65.517929 419.427346 64.16676 419.987018 63.170676 420.983102 
C 62.174592 421.979186 61.614919 423.330356 61.614919 424.739031 
C 61.614919 426.147706 62.174592 427.498876 63.170676 428.49496 
C 64.16676 429.491043 65.517929 430.050716 66.926605 430.050716 
z
" style="fill:#fde725;fill-opacity:0.6;stroke:#fde725;stroke-opacity:0.6;"/>
    <path clip-path="url(#pe4d097ff73)" d="M 86.073262 447.018507 
C 87.212432 447.018507 88.305098 446.56591 89.110613 445.760395 
C 89.916128 444.95488 90.368725 443.862214 90.368725 442.723044 
C 90.368725 441.583874 89.916128 440.491208 89.110613 439.685693 
C 88.305098 438.880178 87.212432 438.427581 86.073262 438.427581 
C 84.934092 438.427581 83.841426 438.880178 83.035912 439.685693 
C 82.230397 440.491208 81.7778 441.583874 81.7778 442.723044 
C 81.7778 443.862214 82.230397 444.95488 83.035912 445.760395 
C 83.841426 446.56591 84.934092 447.018507 86.073262 447.018507 
z
" style="fill:#aadc32;fill-opacity:0.6;stroke:#aadc32;stroke-opacity:0.6;"/>
    <path clip-path="url(#pe4d097ff73)" d="M 143.040698 404.132196 
C 144.778921 404.132196 146.446186 403.441592 147.675296 402.212483 
C 148.904406 400.983373 149.595009 399.316108 149.595009 397.577884 
C 149.595009 395.839661 148.904406 394.172396 147.675296 392.943286 
C 146.446186 391.714176 144.778921 391.023573 143.040698 391.023573 
C 141.302474 391.023573 139.635209 391.714176 138.406099 392.943286 
C 137.17699 394.172396 136.486386 395.839661 136.486386 397.577884 
C 136.486386 399.316108 137.17699 400.983373 138.406099 402.212483 
C 139.635209 403.441592 141.302474 404.132196 143.040698 404.132196 
z
" style="fill:#1f948c;fill-opacity:0.6;stroke:#1f948c;stroke-opacity:0.6;"/>
    <path clip-path="url(#pe4d097ff73)" d="M 90.887245 352.516246 
C 93.138022 352.516246 95.296915 351.622003 96.888454 350.030464 
C 98.479993 348.438925 99.374236 346.280032 99.374236 344.029256 
C 99.374236 341.77848 98.479993 339.619587 96.888454 338.028048 
C 95.296915 336.436508 93.138022 335.542266 90.887245 335.542266 
C 88.636469 335.542266 86.477576 336.436508 84.886037 338.028048 
C 83.294498 339.619587 82.400255 341.77848 82.400255 344.029256 
C 82.400255 346.280032 83.294498 348.438925 84.886037 350.030464 
C 86.477576 351.622003 88.636469 352.516246 90.887245 352.516246 
z
" style="fill:#481467;fill-opacity:0.6;stroke:#481467;stroke-opacity:0.6;"/>
    <path clip-path="url(#pe4d097ff73)" d="M 74.19188 444.568471 
C 75.374013 444.568471 76.507889 444.098805 77.343784 443.26291 
C 78.179679 442.427015 78.649345 441.293139 78.649345 440.111006 
C 78.649345 438.928872 78.179679 437.794996 77.343784 436.959102 
C 76.507889 436.123207 75.374013 435.65354 74.19188 435.65354 
C 73.009746 435.65354 71.87587 436.123207 71.039975 436.959102 
C 70.204081 437.794996 69.734414 438.928872 69.734414 440.111006 
C 69.734414 441.293139 70.204081 442.427015 71.039975 443.26291 
C 71.87587 444.098805 73.009746 444.568471 74.19188 444.568471 
z
" style="fill:#63cb5f;fill-opacity:0.6;stroke:#63cb5f;stroke-opacity:0.6;"/>
    <path clip-path="url(#pe4d097ff73)" d="M 162.438391 475.250595 
C 162.757231 475.250595 163.063055 475.123919 163.288509 474.898465 
C 163.513963 474.673011 163.640639 474.367187 163.640639 474.048347 
C 163.640639 473.729507 163.513963 473.423683 163.288509 473.198229 
C 163.063055 472.972776 162.757231 472.846099 162.438391 472.846099 
C 162.119551 472.846099 161.813728 472.972776 161.588274 473.198229 
C 161.36282 473.423683 161.236143 473.729507 161.236143 474.048347 
C 161.236143 474.367187 161.36282 474.673011 161.588274 474.898465 
C 161.813728 475.123919 162.119551 475.250595 162.438391 475.250595 
z
" style="fill:#3b518b;fill-opacity:0.6;stroke:#3b518b;stroke-opacity:0.6;"/>
    <path clip-path="url(#pe4d097ff73)" d="M 313.077668 319.426485 
C 315.601295 319.426485 318.021901 318.423837 319.806375 316.639363 
C 321.590849 314.854889 322.593497 312.434283 322.593497 309.910656 
C 322.593497 307.387028 321.590849 304.966423 319.806375 303.181949 
C 318.021901 301.397475 315.601295 300.394827 313.077668 300.394827 
C 310.55404 300.394827 308.133434 301.397475 306.34896 303.181949 
C 304.564486 304.966423 303.561839 307.387028 303.561839 309.910656 
C 303.561839 312.434283 304.564486 314.854889 306.34896 316.639363 
C 308.133434 318.423837 310.55404 319.426485 313.077668 319.426485 
z
" style="fill:#481668;fill-opacity:0.6;stroke:#481668;stroke-opacity:0.6;"/>
    <path clip-path="url(#pe4d097ff73)" d="M 78.075553 467.828488 
C 78.734331 467.828488 79.366215 467.566752 79.832041 467.100926 
C 80.297867 466.6351 80.559602 466.003216 80.559602 465.344438 
C 80.559602 464.685661 80.297867 464.053777 79.832041 463.58795 
C 79.366215 463.122124 78.734331 462.860389 78.075553 462.860389 
C 77.416776 462.860389 76.784891 463.122124 76.319065 463.58795 
C 75.853239 464.053777 75.591504 464.685661 75.591504 465.344438 
C 75.591504 466.003216 75.853239 466.6351 76.319065 467.100926 
C 76.784891 467.566752 77.416776 467.828488 78.075553 467.828488 
z
" style="fill:#2fb47c;fill-opacity:0.6;stroke:#2fb47c;stroke-opacity:0.6;"/>
   </g>
   <g id="matplotlib.axis_1">
    <g id="xtick_1">
     <g id="line2d_1">
      <defs>
       <path d="M 0 0 
L 0 3.5 
" id="mc67aa5183c" style="stroke:#000000;stroke-width:0.8;"/>
      </defs>
      <g>
       <use style="stroke:#000000;stroke-width:0.8;" x="65.172306" xlink:href="#mc67aa5183c" y="550.8"/>
      </g>
     </g>
     <g id="text_1">
      <!-- 5.0 -->
      <g transform="translate(57.220744 565.398438)scale(0.1 -0.1)">
       <defs>
        <path d="M 10.796875 72.90625 
L 49.515625 72.90625 
L 49.515625 64.59375 
L 19.828125 64.59375 
L 19.828125 46.734375 
Q 21.96875 47.46875 24.109375 47.828125 
Q 26.265625 48.1875 28.421875 48.1875 
Q 40.625 48.1875 47.75 41.5 
Q 54.890625 34.8125 54.890625 23.390625 
Q 54.890625 11.625 47.5625 5.09375 
Q 40.234375 -1.421875 26.90625 -1.421875 
Q 22.3125 -1.421875 17.546875 -0.640625 
Q 12.796875 0.140625 7.71875 1.703125 
L 7.71875 11.625 
Q 12.109375 9.234375 16.796875 8.0625 
Q 21.484375 6.890625 26.703125 6.890625 
Q 35.15625 6.890625 40.078125 11.328125 
Q 45.015625 15.765625 45.015625 23.390625 
Q 45.015625 31 40.078125 35.4375 
Q 35.15625 39.890625 26.703125 39.890625 
Q 22.75 39.890625 18.8125 39.015625 
Q 14.890625 38.140625 10.796875 36.28125 
z
" id="DejaVuSans-53"/>
        <path d="M 10.6875 12.40625 
L 21 12.40625 
L 21 0 
L 10.6875 0 
z
" id="DejaVuSans-46"/>
        <path d="M 31.78125 66.40625 
Q 24.171875 66.40625 20.328125 58.90625 
Q 16.5 51.421875 16.5 36.375 
Q 16.5 21.390625 20.328125 13.890625 
Q 24.171875 6.390625 31.78125 6.390625 
Q 39.453125 6.390625 43.28125 13.890625 
Q 47.125 21.390625 47.125 36.375 
Q 47.125 51.421875 43.28125 58.90625 
Q 39.453125 66.40625 31.78125 66.40625 
z
M 31.78125 74.21875 
Q 44.046875 74.21875 50.515625 64.515625 
Q 56.984375 54.828125 56.984375 36.375 
Q 56.984375 17.96875 50.515625 8.265625 
Q 44.046875 -1.421875 31.78125 -1.421875 
Q 19.53125 -1.421875 13.0625 8.265625 
Q 6.59375 17.96875 6.59375 36.375 
Q 6.59375 54.828125 13.0625 64.515625 
Q 19.53125 74.21875 31.78125 74.21875 
z
" id="DejaVuSans-48"/>
       </defs>
       <use xlink:href="#DejaVuSans-53"/>
       <use x="63.623047" xlink:href="#DejaVuSans-46"/>
       <use x="95.410156" xlink:href="#DejaVuSans-48"/>
      </g>
     </g>
    </g>
    <g id="xtick_2">
     <g id="line2d_2">
      <g>
       <use style="stroke:#000000;stroke-width:0.8;" x="139.006403" xlink:href="#mc67aa5183c" y="550.8"/>
      </g>
     </g>
     <g id="text_2">
      <!-- 7.5 -->
      <g transform="translate(131.05484 565.398438)scale(0.1 -0.1)">
       <defs>
        <path d="M 8.203125 72.90625 
L 55.078125 72.90625 
L 55.078125 68.703125 
L 28.609375 0 
L 18.3125 0 
L 43.21875 64.59375 
L 8.203125 64.59375 
z
" id="DejaVuSans-55"/>
       </defs>
       <use xlink:href="#DejaVuSans-55"/>
       <use x="63.623047" xlink:href="#DejaVuSans-46"/>
       <use x="95.410156" xlink:href="#DejaVuSans-53"/>
      </g>
     </g>
    </g>
    <g id="xtick_3">
     <g id="line2d_3">
      <g>
       <use style="stroke:#000000;stroke-width:0.8;" x="212.840499" xlink:href="#mc67aa5183c" y="550.8"/>
      </g>
     </g>
     <g id="text_3">
      <!-- 10.0 -->
      <g transform="translate(201.707686 565.398438)scale(0.1 -0.1)">
       <defs>
        <path d="M 12.40625 8.296875 
L 28.515625 8.296875 
L 28.515625 63.921875 
L 10.984375 60.40625 
L 10.984375 69.390625 
L 28.421875 72.90625 
L 38.28125 72.90625 
L 38.28125 8.296875 
L 54.390625 8.296875 
L 54.390625 0 
L 12.40625 0 
z
" id="DejaVuSans-49"/>
       </defs>
       <use xlink:href="#DejaVuSans-49"/>
       <use x="63.623047" xlink:href="#DejaVuSans-48"/>
       <use x="127.246094" xlink:href="#DejaVuSans-46"/>
       <use x="159.033203" xlink:href="#DejaVuSans-48"/>
      </g>
     </g>
    </g>
    <g id="xtick_4">
     <g id="line2d_4">
      <g>
       <use style="stroke:#000000;stroke-width:0.8;" x="286.674595" xlink:href="#mc67aa5183c" y="550.8"/>
      </g>
     </g>
     <g id="text_4">
      <!-- 12.5 -->
      <g transform="translate(275.541782 565.398438)scale(0.1 -0.1)">
       <defs>
        <path d="M 19.1875 8.296875 
L 53.609375 8.296875 
L 53.609375 0 
L 7.328125 0 
L 7.328125 8.296875 
Q 12.9375 14.109375 22.625 23.890625 
Q 32.328125 33.6875 34.8125 36.53125 
Q 39.546875 41.84375 41.421875 45.53125 
Q 43.3125 49.21875 43.3125 52.78125 
Q 43.3125 58.59375 39.234375 62.25 
Q 35.15625 65.921875 28.609375 65.921875 
Q 23.96875 65.921875 18.8125 64.3125 
Q 13.671875 62.703125 7.8125 59.421875 
L 7.8125 69.390625 
Q 13.765625 71.78125 18.9375 73 
Q 24.125 74.21875 28.421875 74.21875 
Q 39.75 74.21875 46.484375 68.546875 
Q 53.21875 62.890625 53.21875 53.421875 
Q 53.21875 48.921875 51.53125 44.890625 
Q 49.859375 40.875 45.40625 35.40625 
Q 44.1875 33.984375 37.640625 27.21875 
Q 31.109375 20.453125 19.1875 8.296875 
z
" id="DejaVuSans-50"/>
       </defs>
       <use xlink:href="#DejaVuSans-49"/>
       <use x="63.623047" xlink:href="#DejaVuSans-50"/>
       <use x="127.246094" xlink:href="#DejaVuSans-46"/>
       <use x="159.033203" xlink:href="#DejaVuSans-53"/>
      </g>
     </g>
    </g>
    <g id="xtick_5">
     <g id="line2d_5">
      <g>
       <use style="stroke:#000000;stroke-width:0.8;" x="360.508691" xlink:href="#mc67aa5183c" y="550.8"/>
      </g>
     </g>
     <g id="text_5">
      <!-- 15.0 -->
      <g transform="translate(349.375878 565.398438)scale(0.1 -0.1)">
       <use xlink:href="#DejaVuSans-49"/>
       <use x="63.623047" xlink:href="#DejaVuSans-53"/>
       <use x="127.246094" xlink:href="#DejaVuSans-46"/>
       <use x="159.033203" xlink:href="#DejaVuSans-48"/>
      </g>
     </g>
    </g>
    <g id="xtick_6">
     <g id="line2d_6">
      <g>
       <use style="stroke:#000000;stroke-width:0.8;" x="434.342787" xlink:href="#mc67aa5183c" y="550.8"/>
      </g>
     </g>
     <g id="text_6">
      <!-- 17.5 -->
      <g transform="translate(423.209975 565.398438)scale(0.1 -0.1)">
       <use xlink:href="#DejaVuSans-49"/>
       <use x="63.623047" xlink:href="#DejaVuSans-55"/>
       <use x="127.246094" xlink:href="#DejaVuSans-46"/>
       <use x="159.033203" xlink:href="#DejaVuSans-53"/>
      </g>
     </g>
    </g>
    <g id="xtick_7">
     <g id="line2d_7">
      <g>
       <use style="stroke:#000000;stroke-width:0.8;" x="508.176883" xlink:href="#mc67aa5183c" y="550.8"/>
      </g>
     </g>
     <g id="text_7">
      <!-- 20.0 -->
      <g transform="translate(497.044071 565.398438)scale(0.1 -0.1)">
       <use xlink:href="#DejaVuSans-50"/>
       <use x="63.623047" xlink:href="#DejaVuSans-48"/>
       <use x="127.246094" xlink:href="#DejaVuSans-46"/>
       <use x="159.033203" xlink:href="#DejaVuSans-48"/>
      </g>
     </g>
    </g>
    <g id="xtick_8">
     <g id="line2d_8">
      <g>
       <use style="stroke:#000000;stroke-width:0.8;" x="582.010979" xlink:href="#mc67aa5183c" y="550.8"/>
      </g>
     </g>
     <g id="text_8">
      <!-- 22.5 -->
      <g transform="translate(570.878167 565.398438)scale(0.1 -0.1)">
       <use xlink:href="#DejaVuSans-50"/>
       <use x="63.623047" xlink:href="#DejaVuSans-50"/>
       <use x="127.246094" xlink:href="#DejaVuSans-46"/>
       <use x="159.033203" xlink:href="#DejaVuSans-53"/>
      </g>
     </g>
    </g>
    <g id="text_9">
     <!-- Population of city (in 10,000s) -->
     <g transform="translate(244.54375 579.076563)scale(0.1 -0.1)">
      <defs>
       <path d="M 19.671875 64.796875 
L 19.671875 37.40625 
L 32.078125 37.40625 
Q 38.96875 37.40625 42.71875 40.96875 
Q 46.484375 44.53125 46.484375 51.125 
Q 46.484375 57.671875 42.71875 61.234375 
Q 38.96875 64.796875 32.078125 64.796875 
z
M 9.8125 72.90625 
L 32.078125 72.90625 
Q 44.34375 72.90625 50.609375 67.359375 
Q 56.890625 61.8125 56.890625 51.125 
Q 56.890625 40.328125 50.609375 34.8125 
Q 44.34375 29.296875 32.078125 29.296875 
L 19.671875 29.296875 
L 19.671875 0 
L 9.8125 0 
z
" id="DejaVuSans-80"/>
       <path d="M 30.609375 48.390625 
Q 23.390625 48.390625 19.1875 42.75 
Q 14.984375 37.109375 14.984375 27.296875 
Q 14.984375 17.484375 19.15625 11.84375 
Q 23.34375 6.203125 30.609375 6.203125 
Q 37.796875 6.203125 41.984375 11.859375 
Q 46.1875 17.53125 46.1875 27.296875 
Q 46.1875 37.015625 41.984375 42.703125 
Q 37.796875 48.390625 30.609375 48.390625 
z
M 30.609375 56 
Q 42.328125 56 49.015625 48.375 
Q 55.71875 40.765625 55.71875 27.296875 
Q 55.71875 13.875 49.015625 6.21875 
Q 42.328125 -1.421875 30.609375 -1.421875 
Q 18.84375 -1.421875 12.171875 6.21875 
Q 5.515625 13.875 5.515625 27.296875 
Q 5.515625 40.765625 12.171875 48.375 
Q 18.84375 56 30.609375 56 
z
" id="DejaVuSans-111"/>
       <path d="M 18.109375 8.203125 
L 18.109375 -20.796875 
L 9.078125 -20.796875 
L 9.078125 54.6875 
L 18.109375 54.6875 
L 18.109375 46.390625 
Q 20.953125 51.265625 25.265625 53.625 
Q 29.59375 56 35.59375 56 
Q 45.5625 56 51.78125 48.09375 
Q 58.015625 40.1875 58.015625 27.296875 
Q 58.015625 14.40625 51.78125 6.484375 
Q 45.5625 -1.421875 35.59375 -1.421875 
Q 29.59375 -1.421875 25.265625 0.953125 
Q 20.953125 3.328125 18.109375 8.203125 
z
M 48.6875 27.296875 
Q 48.6875 37.203125 44.609375 42.84375 
Q 40.53125 48.484375 33.40625 48.484375 
Q 26.265625 48.484375 22.1875 42.84375 
Q 18.109375 37.203125 18.109375 27.296875 
Q 18.109375 17.390625 22.1875 11.75 
Q 26.265625 6.109375 33.40625 6.109375 
Q 40.53125 6.109375 44.609375 11.75 
Q 48.6875 17.390625 48.6875 27.296875 
z
" id="DejaVuSans-112"/>
       <path d="M 8.5 21.578125 
L 8.5 54.6875 
L 17.484375 54.6875 
L 17.484375 21.921875 
Q 17.484375 14.15625 20.5 10.265625 
Q 23.53125 6.390625 29.59375 6.390625 
Q 36.859375 6.390625 41.078125 11.03125 
Q 45.3125 15.671875 45.3125 23.6875 
L 45.3125 54.6875 
L 54.296875 54.6875 
L 54.296875 0 
L 45.3125 0 
L 45.3125 8.40625 
Q 42.046875 3.421875 37.71875 1 
Q 33.40625 -1.421875 27.6875 -1.421875 
Q 18.265625 -1.421875 13.375 4.4375 
Q 8.5 10.296875 8.5 21.578125 
z
M 31.109375 56 
z
" id="DejaVuSans-117"/>
       <path d="M 9.421875 75.984375 
L 18.40625 75.984375 
L 18.40625 0 
L 9.421875 0 
z
" id="DejaVuSans-108"/>
       <path d="M 34.28125 27.484375 
Q 23.390625 27.484375 19.1875 25 
Q 14.984375 22.515625 14.984375 16.5 
Q 14.984375 11.71875 18.140625 8.90625 
Q 21.296875 6.109375 26.703125 6.109375 
Q 34.1875 6.109375 38.703125 11.40625 
Q 43.21875 16.703125 43.21875 25.484375 
L 43.21875 27.484375 
z
M 52.203125 31.203125 
L 52.203125 0 
L 43.21875 0 
L 43.21875 8.296875 
Q 40.140625 3.328125 35.546875 0.953125 
Q 30.953125 -1.421875 24.3125 -1.421875 
Q 15.921875 -1.421875 10.953125 3.296875 
Q 6 8.015625 6 15.921875 
Q 6 25.140625 12.171875 29.828125 
Q 18.359375 34.515625 30.609375 34.515625 
L 43.21875 34.515625 
L 43.21875 35.40625 
Q 43.21875 41.609375 39.140625 45 
Q 35.0625 48.390625 27.6875 48.390625 
Q 23 48.390625 18.546875 47.265625 
Q 14.109375 46.140625 10.015625 43.890625 
L 10.015625 52.203125 
Q 14.9375 54.109375 19.578125 55.046875 
Q 24.21875 56 28.609375 56 
Q 40.484375 56 46.34375 49.84375 
Q 52.203125 43.703125 52.203125 31.203125 
z
" id="DejaVuSans-97"/>
       <path d="M 18.3125 70.21875 
L 18.3125 54.6875 
L 36.8125 54.6875 
L 36.8125 47.703125 
L 18.3125 47.703125 
L 18.3125 18.015625 
Q 18.3125 11.328125 20.140625 9.421875 
Q 21.96875 7.515625 27.59375 7.515625 
L 36.8125 7.515625 
L 36.8125 0 
L 27.59375 0 
Q 17.1875 0 13.234375 3.875 
Q 9.28125 7.765625 9.28125 18.015625 
L 9.28125 47.703125 
L 2.6875 47.703125 
L 2.6875 54.6875 
L 9.28125 54.6875 
L 9.28125 70.21875 
z
" id="DejaVuSans-116"/>
       <path d="M 9.421875 54.6875 
L 18.40625 54.6875 
L 18.40625 0 
L 9.421875 0 
z
M 9.421875 75.984375 
L 18.40625 75.984375 
L 18.40625 64.59375 
L 9.421875 64.59375 
z
" id="DejaVuSans-105"/>
       <path d="M 54.890625 33.015625 
L 54.890625 0 
L 45.90625 0 
L 45.90625 32.71875 
Q 45.90625 40.484375 42.875 44.328125 
Q 39.84375 48.1875 33.796875 48.1875 
Q 26.515625 48.1875 22.3125 43.546875 
Q 18.109375 38.921875 18.109375 30.90625 
L 18.109375 0 
L 9.078125 0 
L 9.078125 54.6875 
L 18.109375 54.6875 
L 18.109375 46.1875 
Q 21.34375 51.125 25.703125 53.5625 
Q 30.078125 56 35.796875 56 
Q 45.21875 56 50.046875 50.171875 
Q 54.890625 44.34375 54.890625 33.015625 
z
" id="DejaVuSans-110"/>
       <path id="DejaVuSans-32"/>
       <path d="M 37.109375 75.984375 
L 37.109375 68.5 
L 28.515625 68.5 
Q 23.6875 68.5 21.796875 66.546875 
Q 19.921875 64.59375 19.921875 59.515625 
L 19.921875 54.6875 
L 34.71875 54.6875 
L 34.71875 47.703125 
L 19.921875 47.703125 
L 19.921875 0 
L 10.890625 0 
L 10.890625 47.703125 
L 2.296875 47.703125 
L 2.296875 54.6875 
L 10.890625 54.6875 
L 10.890625 58.5 
Q 10.890625 67.625 15.140625 71.796875 
Q 19.390625 75.984375 28.609375 75.984375 
z
" id="DejaVuSans-102"/>
       <path d="M 48.78125 52.59375 
L 48.78125 44.1875 
Q 44.96875 46.296875 41.140625 47.34375 
Q 37.3125 48.390625 33.40625 48.390625 
Q 24.65625 48.390625 19.8125 42.84375 
Q 14.984375 37.3125 14.984375 27.296875 
Q 14.984375 17.28125 19.8125 11.734375 
Q 24.65625 6.203125 33.40625 6.203125 
Q 37.3125 6.203125 41.140625 7.25 
Q 44.96875 8.296875 48.78125 10.40625 
L 48.78125 2.09375 
Q 45.015625 0.34375 40.984375 -0.53125 
Q 36.96875 -1.421875 32.421875 -1.421875 
Q 20.0625 -1.421875 12.78125 6.34375 
Q 5.515625 14.109375 5.515625 27.296875 
Q 5.515625 40.671875 12.859375 48.328125 
Q 20.21875 56 33.015625 56 
Q 37.15625 56 41.109375 55.140625 
Q 45.0625 54.296875 48.78125 52.59375 
z
" id="DejaVuSans-99"/>
       <path d="M 32.171875 -5.078125 
Q 28.375 -14.84375 24.75 -17.8125 
Q 21.140625 -20.796875 15.09375 -20.796875 
L 7.90625 -20.796875 
L 7.90625 -13.28125 
L 13.1875 -13.28125 
Q 16.890625 -13.28125 18.9375 -11.515625 
Q 21 -9.765625 23.484375 -3.21875 
L 25.09375 0.875 
L 2.984375 54.6875 
L 12.5 54.6875 
L 29.59375 11.921875 
L 46.6875 54.6875 
L 56.203125 54.6875 
z
" id="DejaVuSans-121"/>
       <path d="M 31 75.875 
Q 24.46875 64.65625 21.28125 53.65625 
Q 18.109375 42.671875 18.109375 31.390625 
Q 18.109375 20.125 21.3125 9.0625 
Q 24.515625 -2 31 -13.1875 
L 23.1875 -13.1875 
Q 15.875 -1.703125 12.234375 9.375 
Q 8.59375 20.453125 8.59375 31.390625 
Q 8.59375 42.28125 12.203125 53.3125 
Q 15.828125 64.359375 23.1875 75.875 
z
" id="DejaVuSans-40"/>
       <path d="M 11.71875 12.40625 
L 22.015625 12.40625 
L 22.015625 4 
L 14.015625 -11.625 
L 7.71875 -11.625 
L 11.71875 4 
z
" id="DejaVuSans-44"/>
       <path d="M 44.28125 53.078125 
L 44.28125 44.578125 
Q 40.484375 46.53125 36.375 47.5 
Q 32.28125 48.484375 27.875 48.484375 
Q 21.1875 48.484375 17.84375 46.4375 
Q 14.5 44.390625 14.5 40.28125 
Q 14.5 37.15625 16.890625 35.375 
Q 19.28125 33.59375 26.515625 31.984375 
L 29.59375 31.296875 
Q 39.15625 29.25 43.1875 25.515625 
Q 47.21875 21.78125 47.21875 15.09375 
Q 47.21875 7.46875 41.1875 3.015625 
Q 35.15625 -1.421875 24.609375 -1.421875 
Q 20.21875 -1.421875 15.453125 -0.5625 
Q 10.6875 0.296875 5.421875 2 
L 5.421875 11.28125 
Q 10.40625 8.6875 15.234375 7.390625 
Q 20.0625 6.109375 24.8125 6.109375 
Q 31.15625 6.109375 34.5625 8.28125 
Q 37.984375 10.453125 37.984375 14.40625 
Q 37.984375 18.0625 35.515625 20.015625 
Q 33.0625 21.96875 24.703125 23.78125 
L 21.578125 24.515625 
Q 13.234375 26.265625 9.515625 29.90625 
Q 5.8125 33.546875 5.8125 39.890625 
Q 5.8125 47.609375 11.28125 51.796875 
Q 16.75 56 26.8125 56 
Q 31.78125 56 36.171875 55.265625 
Q 40.578125 54.546875 44.28125 53.078125 
z
" id="DejaVuSans-115"/>
       <path d="M 8.015625 75.875 
L 15.828125 75.875 
Q 23.140625 64.359375 26.78125 53.3125 
Q 30.421875 42.28125 30.421875 31.390625 
Q 30.421875 20.453125 26.78125 9.375 
Q 23.140625 -1.703125 15.828125 -13.1875 
L 8.015625 -13.1875 
Q 14.5 -2 17.703125 9.0625 
Q 20.90625 20.125 20.90625 31.390625 
Q 20.90625 42.671875 17.703125 53.65625 
Q 14.5 64.65625 8.015625 75.875 
z
" id="DejaVuSans-41"/>
      </defs>
      <use xlink:href="#DejaVuSans-80"/>
      <use x="56.677734" xlink:href="#DejaVuSans-111"/>
      <use x="117.859375" xlink:href="#DejaVuSans-112"/>
      <use x="181.335938" xlink:href="#DejaVuSans-117"/>
      <use x="244.714844" xlink:href="#DejaVuSans-108"/>
      <use x="272.498047" xlink:href="#DejaVuSans-97"/>
      <use x="333.777344" xlink:href="#DejaVuSans-116"/>
      <use x="372.986328" xlink:href="#DejaVuSans-105"/>
      <use x="400.769531" xlink:href="#DejaVuSans-111"/>
      <use x="461.951172" xlink:href="#DejaVuSans-110"/>
      <use x="525.330078" xlink:href="#DejaVuSans-32"/>
      <use x="557.117188" xlink:href="#DejaVuSans-111"/>
      <use x="618.298828" xlink:href="#DejaVuSans-102"/>
      <use x="653.503906" xlink:href="#DejaVuSans-32"/>
      <use x="685.291016" xlink:href="#DejaVuSans-99"/>
      <use x="740.271484" xlink:href="#DejaVuSans-105"/>
      <use x="768.054688" xlink:href="#DejaVuSans-116"/>
      <use x="807.263672" xlink:href="#DejaVuSans-121"/>
      <use x="866.443359" xlink:href="#DejaVuSans-32"/>
      <use x="898.230469" xlink:href="#DejaVuSans-40"/>
      <use x="937.244141" xlink:href="#DejaVuSans-105"/>
      <use x="965.027344" xlink:href="#DejaVuSans-110"/>
      <use x="1028.40625" xlink:href="#DejaVuSans-32"/>
      <use x="1060.193359" xlink:href="#DejaVuSans-49"/>
      <use x="1123.816406" xlink:href="#DejaVuSans-48"/>
      <use x="1187.439453" xlink:href="#DejaVuSans-44"/>
      <use x="1219.226562" xlink:href="#DejaVuSans-48"/>
      <use x="1282.849609" xlink:href="#DejaVuSans-48"/>
      <use x="1346.472656" xlink:href="#DejaVuSans-48"/>
      <use x="1410.095703" xlink:href="#DejaVuSans-115"/>
      <use x="1462.195312" xlink:href="#DejaVuSans-41"/>
     </g>
    </g>
   </g>
   <g id="matplotlib.axis_2">
    <g id="ytick_1">
     <g id="line2d_9">
      <defs>
       <path d="M 0 0 
L -3.5 0 
" id="mdfd697b5f8" style="stroke:#000000;stroke-width:0.8;"/>
      </defs>
      <g>
       <use style="stroke:#000000;stroke-width:0.8;" x="40.603125" xlink:href="#mdfd697b5f8" y="476.710858"/>
      </g>
     </g>
     <g id="text_10">
      <!-- 0 -->
      <g transform="translate(27.240625 480.510077)scale(0.1 -0.1)">
       <use xlink:href="#DejaVuSans-48"/>
      </g>
     </g>
    </g>
    <g id="ytick_2">
     <g id="line2d_10">
      <g>
       <use style="stroke:#000000;stroke-width:0.8;" x="40.603125" xlink:href="#mdfd697b5f8" y="384.607953"/>
      </g>
     </g>
     <g id="text_11">
      <!-- 5 -->
      <g transform="translate(27.240625 388.407172)scale(0.1 -0.1)">
       <use xlink:href="#DejaVuSans-53"/>
      </g>
     </g>
    </g>
    <g id="ytick_3">
     <g id="line2d_11">
      <g>
       <use style="stroke:#000000;stroke-width:0.8;" x="40.603125" xlink:href="#mdfd697b5f8" y="292.505049"/>
      </g>
     </g>
     <g id="text_12">
      <!-- 10 -->
      <g transform="translate(20.878125 296.304268)scale(0.1 -0.1)">
       <use xlink:href="#DejaVuSans-49"/>
       <use x="63.623047" xlink:href="#DejaVuSans-48"/>
      </g>
     </g>
    </g>
    <g id="ytick_4">
     <g id="line2d_12">
      <g>
       <use style="stroke:#000000;stroke-width:0.8;" x="40.603125" xlink:href="#mdfd697b5f8" y="200.402144"/>
      </g>
     </g>
     <g id="text_13">
      <!-- 15 -->
      <g transform="translate(20.878125 204.201363)scale(0.1 -0.1)">
       <use xlink:href="#DejaVuSans-49"/>
       <use x="63.623047" xlink:href="#DejaVuSans-53"/>
      </g>
     </g>
    </g>
    <g id="ytick_5">
     <g id="line2d_13">
      <g>
       <use style="stroke:#000000;stroke-width:0.8;" x="40.603125" xlink:href="#mdfd697b5f8" y="108.29924"/>
      </g>
     </g>
     <g id="text_14">
      <!-- 20 -->
      <g transform="translate(20.878125 112.098459)scale(0.1 -0.1)">
       <use xlink:href="#DejaVuSans-50"/>
       <use x="63.623047" xlink:href="#DejaVuSans-48"/>
      </g>
     </g>
    </g>
    <g id="ytick_6">
     <g id="line2d_14">
      <g>
       <use style="stroke:#000000;stroke-width:0.8;" x="40.603125" xlink:href="#mdfd697b5f8" y="16.196335"/>
      </g>
     </g>
     <g id="text_15">
      <!-- 25 -->
      <g transform="translate(20.878125 19.995554)scale(0.1 -0.1)">
       <use xlink:href="#DejaVuSans-50"/>
       <use x="63.623047" xlink:href="#DejaVuSans-53"/>
      </g>
     </g>
    </g>
    <g id="text_16">
     <!-- Profit (in $10,000s) -->
     <g transform="translate(14.798438 326.957813)rotate(-90)scale(0.1 -0.1)">
      <defs>
       <path d="M 41.109375 46.296875 
Q 39.59375 47.171875 37.8125 47.578125 
Q 36.03125 48 33.890625 48 
Q 26.265625 48 22.1875 43.046875 
Q 18.109375 38.09375 18.109375 28.8125 
L 18.109375 0 
L 9.078125 0 
L 9.078125 54.6875 
L 18.109375 54.6875 
L 18.109375 46.1875 
Q 20.953125 51.171875 25.484375 53.578125 
Q 30.03125 56 36.53125 56 
Q 37.453125 56 38.578125 55.875 
Q 39.703125 55.765625 41.0625 55.515625 
z
" id="DejaVuSans-114"/>
       <path d="M 33.796875 -14.703125 
L 28.90625 -14.703125 
L 28.859375 0 
Q 23.734375 0.09375 18.609375 1.1875 
Q 13.484375 2.296875 8.296875 4.5 
L 8.296875 13.28125 
Q 13.28125 10.15625 18.375 8.5625 
Q 23.484375 6.984375 28.90625 6.9375 
L 28.90625 29.203125 
Q 18.109375 30.953125 13.203125 35.15625 
Q 8.296875 39.359375 8.296875 46.6875 
Q 8.296875 54.640625 13.625 59.21875 
Q 18.953125 63.8125 28.90625 64.5 
L 28.90625 75.984375 
L 33.796875 75.984375 
L 33.796875 64.65625 
Q 38.328125 64.453125 42.578125 63.6875 
Q 46.828125 62.9375 50.875 61.625 
L 50.875 53.078125 
Q 46.828125 55.125 42.546875 56.25 
Q 38.28125 57.375 33.796875 57.5625 
L 33.796875 36.71875 
Q 44.875 35.015625 50.09375 30.609375 
Q 55.328125 26.21875 55.328125 18.609375 
Q 55.328125 10.359375 49.78125 5.59375 
Q 44.234375 0.828125 33.796875 0.09375 
z
M 28.90625 37.59375 
L 28.90625 57.625 
Q 23.25 56.984375 20.265625 54.390625 
Q 17.28125 51.8125 17.28125 47.515625 
Q 17.28125 43.3125 20.03125 40.96875 
Q 22.796875 38.625 28.90625 37.59375 
z
M 33.796875 28.21875 
L 33.796875 7.078125 
Q 39.984375 7.90625 43.140625 10.59375 
Q 46.296875 13.28125 46.296875 17.671875 
Q 46.296875 21.96875 43.28125 24.5 
Q 40.28125 27.046875 33.796875 28.21875 
z
" id="DejaVuSans-36"/>
      </defs>
      <use xlink:href="#DejaVuSans-80"/>
      <use x="58.552734" xlink:href="#DejaVuSans-114"/>
      <use x="97.416016" xlink:href="#DejaVuSans-111"/>
      <use x="158.597656" xlink:href="#DejaVuSans-102"/>
      <use x="193.802734" xlink:href="#DejaVuSans-105"/>
      <use x="221.585938" xlink:href="#DejaVuSans-116"/>
      <use x="260.794922" xlink:href="#DejaVuSans-32"/>
      <use x="292.582031" xlink:href="#DejaVuSans-40"/>
      <use x="331.595703" xlink:href="#DejaVuSans-105"/>
      <use x="359.378906" xlink:href="#DejaVuSans-110"/>
      <use x="422.757812" xlink:href="#DejaVuSans-32"/>
      <use x="454.544922" xlink:href="#DejaVuSans-36"/>
      <use x="518.167969" xlink:href="#DejaVuSans-49"/>
      <use x="581.791016" xlink:href="#DejaVuSans-48"/>
      <use x="645.414062" xlink:href="#DejaVuSans-44"/>
      <use x="677.201172" xlink:href="#DejaVuSans-48"/>
      <use x="740.824219" xlink:href="#DejaVuSans-48"/>
      <use x="804.447266" xlink:href="#DejaVuSans-48"/>
      <use x="868.070312" xlink:href="#DejaVuSans-115"/>
      <use x="920.169922" xlink:href="#DejaVuSans-41"/>
     </g>
    </g>
   </g>
   <g id="line2d_15">
    <path clip-path="url(#pe4d097ff73)" d="M 97.957599 412.306996 
L 80.757207 424.819902 
L 169.089367 360.5602 
L 124.334091 393.118679 
L 90.565329 417.68471 
L 165.081652 363.475725 
L 138.309409 382.951942 
L 170.846618 359.281839 
L 109.0652 404.226461 
L 66.784843 434.98449 
L 86.161863 420.888134 
L 335.818569 239.268375 
L 86.849997 420.387532 
L 165.83476 362.927855 
L 84.094509 422.392089 
L 76.377369 428.006139 
L 105.497536 406.821858 
L 69.014633 433.362367 
L 107.393596 405.442516 
L 126.330565 391.666288 
L 100.290756 410.609676 
L 516.150966 108.080525 
L 79.646743 425.627741 
L 104.336864 407.666221 
L 81.855859 424.020658 
L 477.018895 136.548245 
L 296.361628 267.972431 
L 241.104191 308.171001 
L 306.639334 260.495626 
L 573.239489 66.549881 
L 72.626597 430.734743 
L 112.113071 402.009201 
L 190.637109 344.884692 
L 91.510405 416.997188 
L 160.007773 367.16686 
L 151.806282 373.133265 
L 156.605498 369.64194 
L 83.078551 423.131176 
L 296.597897 267.80055 
L 105.143133 407.079678 
L 77.189544 427.415299 
L 120.769381 395.711927 
L 263.283953 292.035712 
L 88.022483 419.534575 
L 148.595975 375.468692 
L 126.989165 391.187171 
L 67.245568 434.649323 
L 88.840564 418.939438 
L 263.047684 292.207592 
L 81.167725 424.52126 
L 140.193655 381.581195 
L 74.259807 429.546618 
L 136.758893 384.079909 
L 142.051321 380.229784 
L 104.53474 407.522271 
L 105.305568 406.96151 
L 102.804069 408.781296 
L 84.064975 422.413574 
L 192.468195 343.552617 
L 196.703319 340.471658 
L 178.150287 353.96858 
L 70.467688 432.305301 
L 545.950407 86.402087 
L 357.791596 223.283481 
L 477.432366 136.247454 
L 130.683823 388.499388 
L 162.488599 365.362114 
L 219.810437 323.661738 
L 79.921406 425.42793 
L 518.247854 106.555085 
L 216.857074 325.810245 
L 134.118585 386.000674 
L 94.889053 414.539295 
L 130.911232 388.333953 
L 65.966761 435.579626 
L 110.887425 402.900832 
L 140.146401 381.615571 
L 66.250284 435.37337 
L 220.932716 322.845305 
L 68.353079 433.843633 
L 86.708236 420.49066 
L 70.736444 432.109787 
L 105.21106 407.030263 
L 206.009368 333.701712 
L 109.942349 403.588354 
L 169.04802 360.59028 
L 188.628822 346.345677 
L 94.765012 414.629533 
L 80.541612 424.976743 
L 66.926605 434.881362 
L 86.073262 420.952589 
L 143.040698 379.510034 
L 90.887245 417.450523 
L 74.19188 429.596034 
L 162.438391 365.398639 
L 313.077668 255.81188 
L 78.075553 426.770747 
" style="fill:none;stroke:#1f77b4;stroke-linecap:square;stroke-width:1.5;"/>
   </g>
   <g id="patch_3">
    <path d="M 40.603125 550.8 
L 40.603125 7.2 
" style="fill:none;stroke:#000000;stroke-linecap:square;stroke-linejoin:miter;stroke-width:0.8;"/>
   </g>
   <g id="patch_4">
    <path d="M 598.603125 550.8 
L 598.603125 7.2 
" style="fill:none;stroke:#000000;stroke-linecap:square;stroke-linejoin:miter;stroke-width:0.8;"/>
   </g>
   <g id="patch_5">
    <path d="M 40.603125 550.8 
L 598.603125 550.8 
" style="fill:none;stroke:#000000;stroke-linecap:square;stroke-linejoin:miter;stroke-width:0.8;"/>
   </g>
   <g id="patch_6">
    <path d="M 40.603125 7.2 
L 598.603125 7.2 
" style="fill:none;stroke:#000000;stroke-linecap:square;stroke-linejoin:miter;stroke-width:0.8;"/>
   </g>
  </g>
 </g>
 <defs>
  <clipPath id="pe4d097ff73">
   <rect height="543.6" width="558" x="40.603125" y="7.2"/>
  </clipPath>
 </defs>
</svg>
