<?xml version="1.0" encoding="utf-8" standalone="no"?>
<!DOCTYPE svg PUBLIC "-//W3C//DTD SVG 1.1//EN"
  "http://www.w3.org/Graphics/SVG/1.1/DTD/svg11.dtd">
<!-- Created with matplotlib (https://matplotlib.org/) -->
<svg height="720pt" version="1.1" viewBox="0 0 720 720" width="720pt" xmlns="http://www.w3.org/2000/svg" xmlns:xlink="http://www.w3.org/1999/xlink">
 <metadata>
  <rdf:RDF xmlns:cc="http://creativecommons.org/ns#" xmlns:dc="http://purl.org/dc/elements/1.1/" xmlns:rdf="http://www.w3.org/1999/02/22-rdf-syntax-ns#">
   <cc:Work>
    <dc:type rdf:resource="http://purl.org/dc/dcmitype/StillImage"/>
    <dc:date>2020-12-25T18:26:54.253775</dc:date>
    <dc:format>image/svg+xml</dc:format>
    <dc:creator>
     <cc:Agent>
      <dc:title>Matplotlib v3.3.2, https://matplotlib.org/</dc:title>
     </cc:Agent>
    </dc:creator>
   </cc:Work>
  </rdf:RDF>
 </metadata>
 <defs>
  <style type="text/css">*{stroke-linecap:butt;stroke-linejoin:round;}</style>
 </defs>
 <g id="figure_1">
  <g id="patch_1">
   <path d="M 0 720 
L 720 720 
L 720 0 
L 0 0 
z
" style="fill:none;"/>
  </g>
  <g id="axes_1">
   <g id="patch_2">
    <path d="M 0 720 
L 720 720 
L 720 0 
L 0 0 
z
" style="fill:#ffffff;"/>
   </g>
   <g id="PathCollection_1">
    <path clip-path="url(#pf656e39986)" d="M 74.005772 205.920436 
C 77.523289 205.920436 80.897211 204.522911 83.384472 202.035651 
C 85.871732 199.548391 87.269256 196.174469 87.269256 192.656952 
C 87.269256 189.139435 85.871732 185.765513 83.384472 183.278253 
C 80.897211 180.790993 77.523289 179.393468 74.005772 179.393468 
C 70.488255 179.393468 67.114333 180.790993 64.627073 183.278253 
C 62.139813 185.765513 60.742289 189.139435 60.742289 192.656952 
C 60.742289 196.174469 62.139813 199.548391 64.627073 202.035651 
C 67.114333 204.522911 70.488255 205.920436 74.005772 205.920436 
z
" style="fill:#481d6f;fill-opacity:0.6;stroke:#481d6f;stroke-opacity:0.6;"/>
    <path clip-path="url(#pf656e39986)" d="M 51.811719 408.664175 
C 54.34579 408.664175 56.776413 407.657378 58.568272 405.865519 
C 60.36013 404.073661 61.366927 401.643038 61.366927 399.108967 
C 61.366927 396.574896 60.36013 394.144273 58.568272 392.352415 
C 56.776413 390.560556 54.34579 389.553759 51.811719 389.553759 
C 49.277649 389.553759 46.847026 390.560556 45.055167 392.352415 
C 43.263308 394.144273 42.256511 396.574896 42.256511 399.108967 
C 42.256511 401.643038 43.263308 404.073661 45.055167 405.865519 
C 46.847026 407.657378 49.277649 408.664175 51.811719 408.664175 
z
" style="fill:#fde725;fill-opacity:0.6;stroke:#fde725;stroke-opacity:0.6;"/>
    <path clip-path="url(#pf656e39986)" d="M 165.788699 300.230021 
C 168.888514 300.230021 171.861785 298.998451 174.053685 296.806551 
C 176.245585 294.614651 177.477155 291.64138 177.477155 288.541565 
C 177.477155 285.44175 176.245585 282.468479 174.053685 280.276579 
C 171.861785 278.084679 168.888514 276.853109 165.788699 276.853109 
C 162.688884 276.853109 159.715613 278.084679 157.523713 280.276579 
C 155.331813 282.468479 154.100243 285.44175 154.100243 288.541565 
C 154.100243 291.64138 155.331813 294.614651 157.523713 296.806551 
C 159.715613 298.998451 162.688884 300.230021 165.788699 300.230021 
z
" style="fill:#32b67a;fill-opacity:0.6;stroke:#32b67a;stroke-opacity:0.6;"/>
    <path clip-path="url(#pf656e39986)" d="M 108.039956 343.540974 
C 110.927383 343.540974 113.696938 342.393787 115.738657 340.352068 
C 117.780377 338.310349 118.927564 335.540794 118.927564 332.653367 
C 118.927564 329.765939 117.780377 326.996385 115.738657 324.954666 
C 113.696938 322.912946 110.927383 321.765759 108.039956 321.765759 
C 105.152529 321.765759 102.382974 322.912946 100.341255 324.954666 
C 98.299536 326.996385 97.152349 329.765939 97.152349 332.653367 
C 97.152349 335.540794 98.299536 338.310349 100.341255 340.352068 
C 102.382974 342.393787 105.152529 343.540974 108.039956 343.540974 
z
" style="fill:#5ec962;fill-opacity:0.6;stroke:#5ec962;stroke-opacity:0.6;"/>
    <path clip-path="url(#pf656e39986)" d="M 64.46736 463.653318 
C 66.658024 463.653318 68.759259 462.782958 70.308293 461.233924 
C 71.857326 459.684891 72.727687 457.583655 72.727687 455.392991 
C 72.727687 453.202327 71.857326 451.101091 70.308293 449.552058 
C 68.759259 448.003024 66.658024 447.132664 64.46736 447.132664 
C 62.276695 447.132664 60.17546 448.003024 58.626427 449.552058 
C 57.077393 451.101091 56.207033 453.202327 56.207033 455.392991 
C 56.207033 457.583655 57.077393 459.684891 58.626427 461.233924 
C 60.17546 462.782958 62.276695 463.653318 64.46736 463.653318 
z
" style="fill:#86d549;fill-opacity:0.6;stroke:#86d549;stroke-opacity:0.6;"/>
    <path clip-path="url(#pf656e39986)" d="M 160.617454 342.77492 
C 163.508776 342.77492 166.282066 341.626186 168.32654 339.581712 
C 170.371013 337.537239 171.519748 334.763949 171.519748 331.872627 
C 171.519748 328.981305 170.371013 326.208015 168.32654 324.163541 
C 166.282066 322.119068 163.508776 320.970334 160.617454 320.970334 
C 157.726132 320.970334 154.952842 322.119068 152.908369 324.163541 
C 150.863895 326.208015 149.715161 328.981305 149.715161 331.872627 
C 149.715161 334.763949 150.863895 337.537239 152.908369 339.581712 
C 154.952842 341.626186 157.726132 342.77492 160.617454 342.77492 
z
" style="fill:#2b758e;fill-opacity:0.6;stroke:#2b758e;stroke-opacity:0.6;"/>
    <path clip-path="url(#pf656e39986)" d="M 126.072624 522.372503 
C 127.821417 522.372503 129.498819 521.6777 130.735402 520.441117 
C 131.971986 519.204534 132.666788 517.527132 132.666788 515.778339 
C 132.666788 514.029546 131.971986 512.352144 130.735402 511.115561 
C 129.498819 509.878978 127.821417 509.184175 126.072624 509.184175 
C 124.323831 509.184175 122.646429 509.878978 121.409846 511.115561 
C 120.173263 512.352144 119.47846 514.029546 119.47846 515.778339 
C 119.47846 517.527132 120.173263 519.204534 121.409846 520.441117 
C 122.646429 521.6777 124.323831 522.372503 126.072624 522.372503 
z
" style="fill:#b2dd2d;fill-opacity:0.6;stroke:#b2dd2d;stroke-opacity:0.6;"/>
    <path clip-path="url(#pf656e39986)" d="M 168.05612 340.045692 
C 170.961275 340.045692 173.747833 338.891462 175.802087 336.837208 
C 177.856341 334.782953 179.010571 331.996396 179.010571 329.091241 
C 179.010571 326.186087 177.856341 323.399529 175.802087 321.345274 
C 173.747833 319.29102 170.961275 318.13679 168.05612 318.13679 
C 165.150966 318.13679 162.364408 319.29102 160.310154 321.345274 
C 158.255899 323.399529 157.101669 326.186087 157.101669 329.091241 
C 157.101669 331.996396 158.255899 334.782953 160.310154 336.837208 
C 162.364408 338.891462 165.150966 340.045692 168.05612 340.045692 
z
" style="fill:#460b5e;fill-opacity:0.6;stroke:#460b5e;stroke-opacity:0.6;"/>
    <path clip-path="url(#pf656e39986)" d="M 88.338161 468.996047 
C 90.492469 468.996047 92.558832 468.140132 94.082158 466.616806 
C 95.605484 465.09348 96.461399 463.027117 96.461399 460.872809 
C 96.461399 458.718501 95.605484 456.652138 94.082158 455.128812 
C 92.558832 453.605486 90.492469 452.749571 88.338161 452.749571 
C 86.183853 452.749571 84.11749 453.605486 82.594164 455.128812 
C 81.070839 456.652138 80.214923 458.718501 80.214923 460.872809 
C 80.214923 463.027117 81.070839 465.09348 82.594164 466.616806 
C 84.11749 468.140132 86.183853 468.996047 88.338161 468.996047 
z
" style="fill:#34608d;fill-opacity:0.6;stroke:#34608d;stroke-opacity:0.6;"/>
    <path clip-path="url(#pf656e39986)" d="M 33.782862 534.928683 
C 35.421251 534.928683 36.992756 534.277745 38.151271 533.119229 
C 39.309787 531.960713 39.960726 530.389208 39.960726 528.75082 
C 39.960726 527.112431 39.309787 525.540926 38.151271 524.38241 
C 36.992756 523.223895 35.421251 522.572956 33.782862 522.572956 
C 32.144474 522.572956 30.572968 523.223895 29.414453 524.38241 
C 28.255937 525.540926 27.604998 527.112431 27.604998 528.75082 
C 27.604998 530.389208 28.255937 531.960713 29.414453 533.119229 
C 30.572968 534.277745 32.144474 534.928683 33.782862 534.928683 
z
" style="fill:#d5e21a;fill-opacity:0.6;stroke:#d5e21a;stroke-opacity:0.6;"/>
    <path clip-path="url(#pf656e39986)" d="M 58.785469 548.223925 
C 60.297871 548.223925 61.748532 547.623041 62.817962 546.553612 
C 63.887391 545.484182 64.488275 544.033521 64.488275 542.521119 
C 64.488275 541.008717 63.887391 539.558055 62.817962 538.488626 
C 61.748532 537.419196 60.297871 536.818312 58.785469 536.818312 
C 57.273067 536.818312 55.822405 537.419196 54.752976 538.488626 
C 53.683546 539.558055 53.082662 541.008717 53.082662 542.521119 
C 53.082662 544.033521 53.683546 545.484182 54.752976 546.553612 
C 55.822405 547.623041 57.273067 548.223925 58.785469 548.223925 
z
" style="fill:#c5e021;fill-opacity:0.6;stroke:#c5e021;stroke-opacity:0.6;"/>
    <path clip-path="url(#pf656e39986)" d="M 380.923154 256.027737 
C 384.225438 256.027737 387.392914 254.715725 389.727982 252.380657 
C 392.06305 250.04559 393.375061 246.878114 393.375061 243.575829 
C 393.375061 240.273545 392.06305 237.106069 389.727982 234.771001 
C 387.392914 232.435933 384.225438 231.123922 380.923154 231.123922 
C 377.620869 231.123922 374.453393 232.435933 372.118326 234.771001 
C 369.783258 237.106069 368.471246 240.273545 368.471246 243.575829 
C 368.471246 246.878114 369.783258 250.04559 372.118326 252.380657 
C 374.453393 254.715725 377.620869 256.027737 380.923154 256.027737 
z
" style="fill:#297b8e;fill-opacity:0.6;stroke:#297b8e;stroke-opacity:0.6;"/>
    <path clip-path="url(#pf656e39986)" d="M 59.673383 550.507204 
C 61.163037 550.507204 62.591878 549.915358 63.645222 548.862015 
C 64.698566 547.808671 65.290411 546.379829 65.290411 544.890176 
C 65.290411 543.400523 64.698566 541.971682 63.645222 540.918338 
C 62.591878 539.864994 61.163037 539.273149 59.673383 539.273149 
C 58.18373 539.273149 56.754889 539.864994 55.701545 540.918338 
C 54.648201 541.971682 54.056356 543.400523 54.056356 544.890176 
C 54.056356 546.379829 54.648201 547.808671 55.701545 548.862015 
C 56.754889 549.915358 58.18373 550.507204 59.673383 550.507204 
z
" style="fill:#33628d;fill-opacity:0.6;stroke:#33628d;stroke-opacity:0.6;"/>
    <path clip-path="url(#pf656e39986)" d="M 161.589206 454.073218 
C 163.843557 454.073218 166.00588 453.177555 167.599947 451.583488 
C 169.194014 449.989421 170.089677 447.827099 170.089677 445.572748 
C 170.089677 443.318396 169.194014 441.156074 167.599947 439.562007 
C 166.00588 437.96794 163.843557 437.072277 161.589206 437.072277 
C 159.334855 437.072277 157.172533 437.96794 155.578466 439.562007 
C 153.984399 441.156074 153.088736 443.318396 153.088736 445.572748 
C 153.088736 447.827099 153.984399 449.989421 155.578466 451.583488 
C 157.172533 453.177555 159.334855 454.073218 161.589206 454.073218 
z
" style="fill:#1f998a;fill-opacity:0.6;stroke:#1f998a;stroke-opacity:0.6;"/>
    <path clip-path="url(#pf656e39986)" d="M 56.117914 607.071394 
C 56.827639 607.071394 57.50839 606.789418 58.010241 606.287567 
C 58.512092 605.785716 58.794068 605.104964 58.794068 604.39524 
C 58.794068 603.685516 58.512092 603.004764 58.010241 602.502913 
C 57.50839 602.001063 56.827639 601.719086 56.117914 601.719086 
C 55.40819 601.719086 54.727439 602.001063 54.225588 602.502913 
C 53.723737 603.004764 53.44176 603.685516 53.44176 604.39524 
C 53.44176 605.104964 53.723737 605.785716 54.225588 606.287567 
C 54.727439 606.789418 55.40819 607.071394 56.117914 607.071394 
z
" style="fill:#6ece58;fill-opacity:0.6;stroke:#6ece58;stroke-opacity:0.6;"/>
    <path clip-path="url(#pf656e39986)" d="M 46.160315 542.087501 
C 47.732166 542.087501 49.23985 541.462998 50.351317 540.351531 
C 51.462784 539.240064 52.087287 537.73238 52.087287 536.160529 
C 52.087287 534.588677 51.462784 533.080993 50.351317 531.969527 
C 49.23985 530.85806 47.732166 530.233557 46.160315 530.233557 
C 44.588463 530.233557 43.080779 530.85806 41.969312 531.969527 
C 40.857846 533.080993 40.233342 534.588677 40.233342 536.160529 
C 40.233342 537.73238 40.857846 539.240064 41.969312 540.351531 
C 43.080779 541.462998 44.588463 542.087501 46.160315 542.087501 
z
" style="fill:#46085c;fill-opacity:0.6;stroke:#46085c;stroke-opacity:0.6;"/>
    <path clip-path="url(#pf656e39986)" d="M 83.734724 499.724943 
C 85.666306 499.724943 87.519035 498.957517 88.88487 497.591682 
C 90.250705 496.225848 91.01813 494.373119 91.01813 492.441537 
C 91.01813 490.509955 90.250705 488.657226 88.88487 487.291391 
C 87.519035 485.925557 85.666306 485.158131 83.734724 485.158131 
C 81.803143 485.158131 79.950413 485.925557 78.584579 487.291391 
C 77.218744 488.657226 76.451319 490.509955 76.451319 492.441537 
C 76.451319 494.373119 77.218744 496.225848 78.584579 497.591682 
C 79.950413 498.957517 81.803143 499.724943 83.734724 499.724943 
z
" style="fill:#4ac16d;fill-opacity:0.6;stroke:#4ac16d;stroke-opacity:0.6;"/>
    <path clip-path="url(#pf656e39986)" d="M 36.66001 610.55501 
C 37.288027 610.55501 37.890406 610.305497 38.33448 609.861422 
C 38.778555 609.417347 39.028068 608.814968 39.028068 608.186952 
C 39.028068 607.558936 38.778555 606.956557 38.33448 606.512482 
C 37.890406 606.068407 37.288027 605.818894 36.66001 605.818894 
C 36.031994 605.818894 35.429615 606.068407 34.98554 606.512482 
C 34.541465 606.956557 34.291952 607.558936 34.291952 608.186952 
C 34.291952 608.814968 34.541465 609.417347 34.98554 609.861422 
C 35.429615 610.305497 36.031994 610.55501 36.66001 610.55501 
z
" style="fill:#8ed645;fill-opacity:0.6;stroke:#8ed645;stroke-opacity:0.6;"/>
    <path clip-path="url(#pf656e39986)" d="M 86.181253 538.814642 
C 87.783879 538.814642 89.321081 538.177912 90.454308 537.044685 
C 91.587535 535.911458 92.224265 534.374256 92.224265 532.77163 
C 92.224265 531.169004 91.587535 529.631802 90.454308 528.498575 
C 89.321081 527.365347 87.783879 526.728617 86.181253 526.728617 
C 84.578627 526.728617 83.041425 527.365347 81.908198 528.498575 
C 80.77497 529.631802 80.13824 531.169004 80.13824 532.77163 
C 80.13824 534.374256 80.77497 535.911458 81.908198 537.044685 
C 83.041425 538.177912 84.578627 538.814642 86.181253 538.814642 
z
" style="fill:#414287;fill-opacity:0.6;stroke:#414287;stroke-opacity:0.6;"/>
    <path clip-path="url(#pf656e39986)" d="M 110.616052 497.721081 
C 112.562957 497.721081 114.430384 496.947567 115.807053 495.570898 
C 117.183723 494.194228 117.957237 492.326801 117.957237 490.379896 
C 117.957237 488.432991 117.183723 486.565564 115.807053 485.188894 
C 114.430384 483.812224 112.562957 483.03871 110.616052 483.03871 
C 108.669147 483.03871 106.80172 483.812224 105.42505 485.188894 
C 104.04838 486.565564 103.274866 488.432991 103.274866 490.379896 
C 103.274866 492.326801 104.04838 494.194228 105.42505 495.570898 
C 106.80172 496.947567 108.669147 497.721081 110.616052 497.721081 
z
" style="fill:#31668e;fill-opacity:0.6;stroke:#31668e;stroke-opacity:0.6;"/>
    <path clip-path="url(#pf656e39986)" d="M 77.016298 550.895066 
C 78.502051 550.895066 79.927151 550.30477 80.977737 549.254184 
C 82.028323 548.203598 82.618619 546.778498 82.618619 545.292745 
C 82.618619 543.806992 82.028323 542.381892 80.977737 541.331306 
C 79.927151 540.28072 78.502051 539.690424 77.016298 539.690424 
C 75.530545 539.690424 74.105445 540.28072 73.054859 541.331306 
C 72.004273 542.381892 71.413977 543.806992 71.413977 545.292745 
C 71.413977 546.778498 72.004273 548.203598 73.054859 549.254184 
C 74.105445 550.30477 75.530545 550.895066 77.016298 550.895066 
z
" style="fill:#1e9d89;fill-opacity:0.6;stroke:#1e9d89;stroke-opacity:0.6;"/>
    <path clip-path="url(#pf656e39986)" d="M 613.610117 105.548443 
C 617.522829 105.548443 621.275813 103.993906 624.042518 101.227201 
C 626.809223 98.460496 628.36376 94.707511 628.36376 90.794799 
C 628.36376 86.882087 626.809223 83.129103 624.042518 80.362398 
C 621.275813 77.595693 617.522829 76.041156 613.610117 76.041156 
C 609.697405 76.041156 605.944421 77.595693 603.177715 80.362398 
C 600.41101 83.129103 598.856473 86.882087 598.856473 90.794799 
C 598.856473 94.707511 600.41101 98.460496 603.177715 101.227201 
C 605.944421 103.993906 609.697405 105.548443 613.610117 105.548443 
z
" style="fill:#2f6b8e;fill-opacity:0.6;stroke:#2f6b8e;stroke-opacity:0.6;"/>
    <path clip-path="url(#pf656e39986)" d="M 50.378862 524.388664 
C 52.110416 524.388664 53.771284 523.70071 54.995679 522.476316 
C 56.220073 521.251922 56.908027 519.591054 56.908027 517.859499 
C 56.908027 516.127944 56.220073 514.467076 54.995679 513.242682 
C 53.771284 512.018287 52.110416 511.330333 50.378862 511.330333 
C 48.647307 511.330333 46.986439 512.018287 45.762044 513.242682 
C 44.53765 514.467076 43.849696 516.127944 43.849696 517.859499 
C 43.849696 519.591054 44.53765 521.251922 45.762044 522.476316 
C 46.986439 523.70071 48.647307 524.388664 50.378862 524.388664 
z
" style="fill:#f6e620;fill-opacity:0.6;stroke:#f6e620;stroke-opacity:0.6;"/>
    <path clip-path="url(#pf656e39986)" d="M 82.237083 502.505867 
C 84.14719 502.505867 85.979321 501.746973 87.32997 500.396324 
C 88.68062 499.045674 89.439513 497.213543 89.439513 495.303436 
C 89.439513 493.39333 88.68062 491.561199 87.32997 490.210549 
C 85.979321 488.8599 84.14719 488.101006 82.237083 488.101006 
C 80.326976 488.101006 78.494845 488.8599 77.144196 490.210549 
C 75.793546 491.561199 75.034653 493.39333 75.034653 495.303436 
C 75.034653 497.213543 75.793546 499.045674 77.144196 500.396324 
C 78.494845 501.746973 80.326976 502.505867 82.237083 502.505867 
z
" style="fill:#1f978b;fill-opacity:0.6;stroke:#1f978b;stroke-opacity:0.6;"/>
    <path clip-path="url(#pf656e39986)" d="M 53.229334 552.213506 
C 54.701749 552.213506 56.114055 551.62851 57.15521 550.587356 
C 58.196364 549.546201 58.781361 548.133894 58.781361 546.66148 
C 58.781361 545.189065 58.196364 543.776759 57.15521 542.735604 
C 56.114055 541.69445 54.701749 541.109453 53.229334 541.109453 
C 51.756919 541.109453 50.344613 541.69445 49.303458 542.735604 
C 48.262304 543.776759 47.677307 545.189065 47.677307 546.66148 
C 47.677307 548.133894 48.262304 549.546201 49.303458 550.587356 
C 50.344613 551.62851 51.756919 552.213506 53.229334 552.213506 
z
" style="fill:#38598c;fill-opacity:0.6;stroke:#38598c;stroke-opacity:0.6;"/>
    <path clip-path="url(#pf656e39986)" d="M 563.117122 84.589966 
C 567.107349 84.589966 570.934684 83.004632 573.756201 80.183115 
C 576.577718 77.361599 578.163052 73.534264 578.163052 69.544036 
C 578.163052 65.553809 576.577718 61.726474 573.756201 58.904957 
C 570.934684 56.083441 567.107349 54.498107 563.117122 54.498107 
C 559.126895 54.498107 555.29956 56.083441 552.478043 58.904957 
C 549.656526 61.726474 548.071192 65.553809 548.071192 69.544036 
C 548.071192 73.534264 549.656526 77.361599 552.478043 80.183115 
C 555.29956 83.004632 559.126895 84.589966 563.117122 84.589966 
z
" style="fill:#c8e020;fill-opacity:0.6;stroke:#c8e020;stroke-opacity:0.6;"/>
    <path clip-path="url(#pf656e39986)" d="M 330.010972 304.089043 
C 333.092468 304.089043 336.048168 302.864752 338.227115 300.685805 
C 340.406061 298.506859 341.630352 295.551158 341.630352 292.469662 
C 341.630352 289.388167 340.406061 286.432466 338.227115 284.25352 
C 336.048168 282.074573 333.092468 280.850282 330.010972 280.850282 
C 326.929476 280.850282 323.973776 282.074573 321.794829 284.25352 
C 319.615883 286.432466 318.391592 289.388167 318.391592 292.469662 
C 318.391592 295.551158 319.615883 298.506859 321.794829 300.685805 
C 323.973776 302.864752 326.929476 304.089043 330.010972 304.089043 
z
" style="fill:#f1e51d;fill-opacity:0.6;stroke:#f1e51d;stroke-opacity:0.6;"/>
    <path clip-path="url(#pf656e39986)" d="M 258.711053 458.336913 
C 260.93729 458.336913 263.072646 457.45242 264.646834 455.878232 
C 266.221021 454.304045 267.105515 452.168688 267.105515 449.942451 
C 267.105515 447.716213 266.221021 445.580857 264.646834 444.00667 
C 263.072646 442.432482 260.93729 441.547988 258.711053 441.547988 
C 256.484815 441.547988 254.349459 442.432482 252.775271 444.00667 
C 251.201084 445.580857 250.31659 447.716213 250.31659 449.942451 
C 250.31659 452.168688 251.201084 454.304045 252.775271 455.878232 
C 254.349459 457.45242 256.484815 458.336913 258.711053 458.336913 
z
" style="fill:#2fb47c;fill-opacity:0.6;stroke:#2fb47c;stroke-opacity:0.6;"/>
    <path clip-path="url(#pf656e39986)" d="M 343.272528 275.532557 
C 346.48707 275.532557 349.570385 274.255406 351.843409 271.982382 
C 354.116433 269.709358 355.393584 266.626043 355.393584 263.411501 
C 355.393584 260.196959 354.116433 257.113644 351.843409 254.84062 
C 349.570385 252.567596 346.48707 251.290445 343.272528 251.290445 
C 340.057987 251.290445 336.974672 252.567596 334.701647 254.84062 
C 332.428623 257.113644 331.151472 260.196959 331.151472 263.411501 
C 331.151472 266.626043 332.428623 269.709358 334.701647 271.982382 
C 336.974672 274.255406 340.057987 275.532557 343.272528 275.532557 
z
" style="fill:#472e7c;fill-opacity:0.6;stroke:#472e7c;stroke-opacity:0.6;"/>
    <path clip-path="url(#pf656e39986)" d="M 687.272727 48.266578 
C 691.393799 48.266578 695.346637 46.629259 698.260675 43.715221 
C 701.174713 40.801183 702.812032 36.848345 702.812032 32.727273 
C 702.812032 28.606201 701.174713 24.653363 698.260675 21.739325 
C 695.346637 18.825287 691.393799 17.187968 687.272727 17.187968 
C 683.151655 17.187968 679.198817 18.825287 676.284779 21.739325 
C 673.370741 24.653363 671.733422 28.606201 671.733422 32.727273 
C 671.733422 36.848345 673.370741 40.801183 676.284779 43.715221 
C 679.198817 46.629259 683.151655 48.266578 687.272727 48.266578 
z
" style="fill:#460a5d;fill-opacity:0.6;stroke:#460a5d;stroke-opacity:0.6;"/>
    <path clip-path="url(#pf656e39986)" d="M 41.320609 655.127243 
C 42.246923 655.127243 43.135423 654.759214 43.790427 654.104211 
C 44.44543 653.449207 44.813459 652.560707 44.813459 651.634393 
C 44.813459 650.708078 44.44543 649.819578 43.790427 649.164575 
C 43.135423 648.509572 42.246923 648.141543 41.320609 648.141543 
C 40.394294 648.141543 39.505794 648.509572 38.850791 649.164575 
C 38.195788 649.819578 37.827759 650.708078 37.827759 651.634393 
C 37.827759 652.560707 38.195788 653.449207 38.850791 654.104211 
C 39.505794 654.759214 40.394294 655.127243 41.320609 655.127243 
z
" style="fill:#d5e21a;fill-opacity:0.6;stroke:#d5e21a;stroke-opacity:0.6;"/>
    <path clip-path="url(#pf656e39986)" d="M 92.270899 483.306689 
C 94.324571 483.306689 96.294407 482.490756 97.746572 481.038591 
C 99.198738 479.586425 100.01467 477.616589 100.01467 475.562917 
C 100.01467 473.509245 99.198738 471.539409 97.746572 470.087244 
C 96.294407 468.635078 94.324571 467.819145 92.270899 467.819145 
C 90.217226 467.819145 88.247391 468.635078 86.795225 470.087244 
C 85.34306 471.539409 84.527127 473.509245 84.527127 475.562917 
C 84.527127 477.616589 85.34306 479.586425 86.795225 481.038591 
C 88.247391 482.490756 90.217226 483.306689 92.270899 483.306689 
z
" style="fill:#d5e21a;fill-opacity:0.6;stroke:#d5e21a;stroke-opacity:0.6;"/>
    <path clip-path="url(#pf656e39986)" d="M 193.592238 336.837337 
C 196.513568 336.837337 199.315641 335.67668 201.381333 333.610988 
C 203.447025 331.545296 204.607682 328.743223 204.607682 325.821893 
C 204.607682 322.900563 203.447025 320.09849 201.381333 318.032798 
C 199.315641 315.967106 196.513568 314.806449 193.592238 314.806449 
C 190.670908 314.806449 187.868835 315.967106 185.803143 318.032798 
C 183.737451 320.09849 182.576794 322.900563 182.576794 325.821893 
C 182.576794 328.743223 183.737451 331.545296 185.803143 333.610988 
C 187.868835 335.67668 190.670908 336.837337 193.592238 336.837337 
z
" style="fill:#3a548c;fill-opacity:0.6;stroke:#3a548c;stroke-opacity:0.6;"/>
    <path clip-path="url(#pf656e39986)" d="M 65.686813 581.044944 
C 66.827341 581.044944 67.921309 580.591807 68.727783 579.785332 
C 69.534258 578.978858 69.987395 577.88489 69.987395 576.744362 
C 69.987395 575.603835 69.534258 574.509867 68.727783 573.703392 
C 67.921309 572.896917 66.827341 572.443781 65.686813 572.443781 
C 64.546286 572.443781 63.452318 572.896917 62.645843 573.703392 
C 61.839368 574.509867 61.386232 575.603835 61.386232 576.744362 
C 61.386232 577.88489 61.839368 578.978858 62.645843 579.785332 
C 63.452318 580.591807 64.546286 581.044944 65.686813 581.044944 
z
" style="fill:#30698e;fill-opacity:0.6;stroke:#30698e;stroke-opacity:0.6;"/>
    <path clip-path="url(#pf656e39986)" d="M 154.070513 470.330177 
C 156.215644 470.330177 158.273205 469.477908 159.790041 467.961071 
C 161.306878 466.444235 162.159147 464.386674 162.159147 462.241543 
C 162.159147 460.096413 161.306878 458.038852 159.790041 456.522015 
C 158.273205 455.005179 156.215644 454.152909 154.070513 454.152909 
C 151.925383 454.152909 149.867822 455.005179 148.350985 456.522015 
C 146.834149 458.038852 145.981879 460.096413 145.981879 462.241543 
C 145.981879 464.386674 146.834149 466.444235 148.350985 467.961071 
C 149.867822 469.477908 151.925383 470.330177 154.070513 470.330177 
z
" style="fill:#2e6e8e;fill-opacity:0.6;stroke:#2e6e8e;stroke-opacity:0.6;"/>
    <path clip-path="url(#pf656e39986)" d="M 143.487944 517.311621 
C 145.279253 517.311621 146.997436 516.599927 148.264082 515.33328 
C 149.530729 514.066633 150.242424 512.34845 150.242424 510.557141 
C 150.242424 508.765832 149.530729 507.047649 148.264082 505.781003 
C 146.997436 504.514356 145.279253 503.802661 143.487944 503.802661 
C 141.696635 503.802661 139.978452 504.514356 138.711805 505.781003 
C 137.445158 507.047649 136.733464 508.765832 136.733464 510.557141 
C 136.733464 512.34845 137.445158 514.066633 138.711805 515.33328 
C 139.978452 516.599927 141.696635 517.311621 143.487944 517.311621 
z
" style="fill:#365d8d;fill-opacity:0.6;stroke:#365d8d;stroke-opacity:0.6;"/>
    <path clip-path="url(#pf656e39986)" d="M 149.680481 527.852181 
C 151.382002 527.852181 153.014063 527.176159 154.21722 525.973002 
C 155.420377 524.769845 156.096399 523.137784 156.096399 521.436263 
C 156.096399 519.734742 155.420377 518.102681 154.21722 516.899524 
C 153.014063 515.696367 151.382002 515.020345 149.680481 515.020345 
C 147.97896 515.020345 146.346899 515.696367 145.143742 516.899524 
C 143.940585 518.102681 143.264563 519.734742 143.264563 521.436263 
C 143.264563 523.137784 143.940585 524.769845 145.143742 525.973002 
C 146.346899 527.176159 147.97896 527.852181 149.680481 527.852181 
z
" style="fill:#27808e;fill-opacity:0.6;stroke:#27808e;stroke-opacity:0.6;"/>
    <path clip-path="url(#pf656e39986)" d="M 54.807002 544.915518 
C 56.35175 544.915518 57.833438 544.301783 58.92574 543.209481 
C 60.018042 542.117179 60.631777 540.635491 60.631777 539.090743 
C 60.631777 537.545995 60.018042 536.064307 58.92574 534.972005 
C 57.833438 533.879703 56.35175 533.265968 54.807002 533.265968 
C 53.262254 533.265968 51.780566 533.879703 50.688264 534.972005 
C 49.595962 536.064307 48.982227 537.545995 48.982227 539.090743 
C 48.982227 540.635491 49.595962 542.117179 50.688264 543.209481 
C 51.780566 544.301783 53.262254 544.915518 54.807002 544.915518 
z
" style="fill:#67cc5c;fill-opacity:0.6;stroke:#67cc5c;stroke-opacity:0.6;"/>
    <path clip-path="url(#pf656e39986)" d="M 330.315835 385.091232 
C 332.983336 385.091232 335.541941 384.031423 337.428149 382.145215 
C 339.314356 380.259008 340.374165 377.700402 340.374165 375.032902 
C 340.374165 372.365402 339.314356 369.806796 337.428149 367.920589 
C 335.541941 366.034381 332.983336 364.974572 330.315835 364.974572 
C 327.648335 364.974572 325.08973 366.034381 323.203522 367.920589 
C 321.317314 369.806796 320.257505 372.365402 320.257505 375.032902 
C 320.257505 377.700402 321.317314 380.259008 323.203522 382.145215 
C 325.08973 384.031423 327.648335 385.091232 330.315835 385.091232 
z
" style="fill:#3f4788;fill-opacity:0.6;stroke:#3f4788;stroke-opacity:0.6;"/>
    <path clip-path="url(#pf656e39986)" d="M 83.277429 495.156904 
C 85.243763 495.156904 87.129826 494.375671 88.520234 492.985263 
C 89.910642 491.594855 90.691875 489.708793 90.691875 487.742459 
C 90.691875 485.776125 89.910642 483.890062 88.520234 482.499654 
C 87.129826 481.109246 85.243763 480.328014 83.277429 480.328014 
C 81.311095 480.328014 79.425033 481.109246 78.034625 482.499654 
C 76.644217 483.890062 75.862984 485.776125 75.862984 487.742459 
C 75.862984 489.708793 76.644217 491.594855 78.034625 492.985263 
C 79.425033 494.375671 81.311095 495.156904 83.277429 495.156904 
z
" style="fill:#9dd93b;fill-opacity:0.6;stroke:#9dd93b;stroke-opacity:0.6;"/>
    <path clip-path="url(#pf656e39986)" d="M 47.208283 610.648598 
C 47.833943 610.648598 48.434062 610.40002 48.87647 609.957612 
C 49.318879 609.515203 49.567456 608.915084 49.567456 608.289424 
C 49.567456 607.663764 49.318879 607.063645 48.87647 606.621236 
C 48.434062 606.178828 47.833943 605.93025 47.208283 605.93025 
C 46.582622 605.93025 45.982503 606.178828 45.540095 606.621236 
C 45.097686 607.063645 44.849109 607.663764 44.849109 608.289424 
C 44.849109 608.915084 45.097686 609.515203 45.540095 609.957612 
C 45.982503 610.40002 46.582622 610.648598 47.208283 610.648598 
z
" style="fill:#7cd250;fill-opacity:0.6;stroke:#7cd250;stroke-opacity:0.6;"/>
    <path clip-path="url(#pf656e39986)" d="M 103.44033 532.689637 
C 105.098963 532.689637 106.689886 532.030655 107.862716 530.857824 
C 109.035547 529.684994 109.694529 528.094071 109.694529 526.435438 
C 109.694529 524.776805 109.035547 523.185882 107.862716 522.013052 
C 106.689886 520.840221 105.098963 520.181239 103.44033 520.181239 
C 101.781697 520.181239 100.190774 520.840221 99.017944 522.013052 
C 97.845113 523.185882 97.186132 524.776805 97.186132 526.435438 
C 97.186132 528.094071 97.845113 529.684994 99.017944 530.857824 
C 100.190774 532.030655 101.781697 532.689637 103.44033 532.689637 
z
" style="fill:#1f978b;fill-opacity:0.6;stroke:#1f978b;stroke-opacity:0.6;"/>
    <path clip-path="url(#pf656e39986)" d="M 287.330101 497.813577 
C 289.276301 497.813577 291.143053 497.040343 292.519224 495.664172 
C 293.895396 494.288 294.668629 492.421249 294.668629 490.475048 
C 294.668629 488.528848 293.895396 486.662097 292.519224 485.285925 
C 291.143053 483.909754 289.276301 483.13652 287.330101 483.13652 
C 285.3839 483.13652 283.517149 483.909754 282.140978 485.285925 
C 280.764806 486.662097 279.991572 488.528848 279.991572 490.475048 
C 279.991572 492.421249 280.764806 494.288 282.140978 495.664172 
C 283.517149 497.040343 285.3839 497.813577 287.330101 497.813577 
z
" style="fill:#218e8d;fill-opacity:0.6;stroke:#218e8d;stroke-opacity:0.6;"/>
    <path clip-path="url(#pf656e39986)" d="M 61.186268 567.262876 
C 62.496436 567.262876 63.753119 566.742341 64.679547 565.815913 
C 65.605976 564.889484 66.126511 563.632801 66.126511 562.322633 
C 66.126511 561.012466 65.605976 559.755783 64.679547 558.829354 
C 63.753119 557.902926 62.496436 557.38239 61.186268 557.38239 
C 59.8761 557.38239 58.619417 557.902926 57.692989 558.829354 
C 56.76656 559.755783 56.246025 561.012466 56.246025 562.322633 
C 56.246025 563.632801 56.76656 564.889484 57.692989 565.815913 
C 58.619417 566.742341 59.8761 567.262876 61.186268 567.262876 
z
" style="fill:#450457;fill-opacity:0.6;stroke:#450457;stroke-opacity:0.6;"/>
    <path clip-path="url(#pf656e39986)" d="M 139.345613 465.830174 
C 141.521539 465.830174 143.608638 464.965669 145.147251 463.427057 
C 146.685863 461.888444 147.550368 459.801345 147.550368 457.625419 
C 147.550368 455.449493 146.685863 453.362394 145.147251 451.823781 
C 143.608638 450.285169 141.521539 449.420664 139.345613 449.420664 
C 137.169687 449.420664 135.082588 450.285169 133.543975 451.823781 
C 132.005363 453.362394 131.140858 455.449493 131.140858 457.625419 
C 131.140858 459.801345 132.005363 461.888444 133.543975 463.427057 
C 135.082588 464.965669 137.169687 465.830174 139.345613 465.830174 
z
" style="fill:#433d84;fill-opacity:0.6;stroke:#433d84;stroke-opacity:0.6;"/>
    <path clip-path="url(#pf656e39986)" d="M 111.465858 599.575589 
C 112.323699 599.575589 113.14652 599.234765 113.753105 598.62818 
C 114.359691 598.021595 114.700514 597.198773 114.700514 596.340933 
C 114.700514 595.483092 114.359691 594.66027 113.753105 594.053685 
C 113.14652 593.4471 112.323699 593.106276 111.465858 593.106276 
C 110.608017 593.106276 109.785196 593.4471 109.178611 594.053685 
C 108.572026 594.66027 108.231202 595.483092 108.231202 596.340933 
C 108.231202 597.198773 108.572026 598.021595 109.178611 598.62818 
C 109.785196 599.234765 110.608017 599.575589 111.465858 599.575589 
z
" style="fill:#27808e;fill-opacity:0.6;stroke:#27808e;stroke-opacity:0.6;"/>
    <path clip-path="url(#pf656e39986)" d="M 34.377346 503.78104 
C 36.277522 503.78104 38.100127 503.026092 39.443755 501.682464 
C 40.787382 500.338837 41.54233 498.516231 41.54233 496.616055 
C 41.54233 494.715879 40.787382 492.893274 39.443755 491.549646 
C 38.100127 490.206019 36.277522 489.451071 34.377346 489.451071 
C 32.47717 489.451071 30.654564 490.206019 29.310937 491.549646 
C 27.967309 492.893274 27.212361 494.715879 27.212361 496.616055 
C 27.212361 498.516231 27.967309 500.338837 29.310937 501.682464 
C 30.654564 503.026092 32.47717 503.78104 34.377346 503.78104 
z
" style="fill:#46c06f;fill-opacity:0.6;stroke:#46c06f;stroke-opacity:0.6;"/>
    <path clip-path="url(#pf656e39986)" d="M 62.241857 581.172734 
C 63.380688 581.172734 64.473028 580.720272 65.278303 579.914997 
C 66.083577 579.109723 66.536039 578.017382 66.536039 576.878552 
C 66.536039 575.739722 66.083577 574.647381 65.278303 573.842107 
C 64.473028 573.036832 63.380688 572.58437 62.241857 572.58437 
C 61.103027 572.58437 60.010687 573.036832 59.205412 573.842107 
C 58.400137 574.647381 57.947675 575.739722 57.947675 576.878552 
C 57.947675 578.017382 58.400137 579.109723 59.205412 579.914997 
C 60.010687 580.720272 61.103027 581.172734 62.241857 581.172734 
z
" style="fill:#2e6e8e;fill-opacity:0.6;stroke:#2e6e8e;stroke-opacity:0.6;"/>
    <path clip-path="url(#pf656e39986)" d="M 287.025237 435.525486 
C 289.397924 435.525486 291.67375 434.582808 293.351492 432.905066 
C 295.029235 431.227323 295.971913 428.951497 295.971913 426.578811 
C 295.971913 424.206125 295.029235 421.930298 293.351492 420.252556 
C 291.67375 418.574814 289.397924 417.632135 287.025237 417.632135 
C 284.652551 417.632135 282.376725 418.574814 280.698983 420.252556 
C 279.02124 421.930298 278.078562 424.206125 278.078562 426.578811 
C 278.078562 428.951497 279.02124 431.227323 280.698983 432.905066 
C 282.376725 434.582808 284.652551 435.525486 287.025237 435.525486 
z
" style="fill:#2b758e;fill-opacity:0.6;stroke:#2b758e;stroke-opacity:0.6;"/>
    <path clip-path="url(#pf656e39986)" d="M 52.341419 600.224294 
C 53.187538 600.224294 53.999115 599.888127 54.597411 599.289831 
C 55.195708 598.691535 55.531874 597.879958 55.531874 597.033839 
C 55.531874 596.187721 55.195708 595.376143 54.597411 594.777847 
C 53.999115 594.179551 53.187538 593.843385 52.341419 593.843385 
C 51.495301 593.843385 50.683724 594.179551 50.085427 594.777847 
C 49.487131 595.376143 49.150965 596.187721 49.150965 597.033839 
C 49.150965 597.879958 49.487131 598.691535 50.085427 599.289831 
C 50.683724 599.888127 51.495301 600.224294 52.341419 600.224294 
z
" style="fill:#eae51a;fill-opacity:0.6;stroke:#eae51a;stroke-opacity:0.6;"/>
    <path clip-path="url(#pf656e39986)" d="M 128.50391 465.387696 
C 130.68284 465.387696 132.77282 464.521998 134.313557 462.981261 
C 135.854293 461.440525 136.719991 459.350544 136.719991 457.171614 
C 136.719991 454.992684 135.854293 452.902703 134.313557 451.361967 
C 132.77282 449.82123 130.68284 448.955532 128.50391 448.955532 
C 126.324979 448.955532 124.234999 449.82123 122.694262 451.361967 
C 121.153526 452.902703 120.287828 454.992684 120.287828 457.171614 
C 120.287828 459.350544 121.153526 461.440525 122.694262 462.981261 
C 124.234999 464.521998 126.324979 465.387696 128.50391 465.387696 
z
" style="fill:#20928c;fill-opacity:0.6;stroke:#20928c;stroke-opacity:0.6;"/>
    <path clip-path="url(#pf656e39986)" d="M 43.427977 581.274959 
C 44.565448 581.274959 45.656484 580.823038 46.460797 580.018724 
C 47.265111 579.214411 47.717033 578.123375 47.717033 576.985904 
C 47.717033 575.848433 47.265111 574.757397 46.460797 573.953083 
C 45.656484 573.14877 44.565448 572.696848 43.427977 572.696848 
C 42.290506 572.696848 41.19947 573.14877 40.395156 573.953083 
C 39.590843 574.757397 39.138921 575.848433 39.138921 576.985904 
C 39.138921 578.123375 39.590843 579.214411 40.395156 580.018724 
C 41.19947 580.823038 42.290506 581.274959 43.427977 581.274959 
z
" style="fill:#44bf70;fill-opacity:0.6;stroke:#44bf70;stroke-opacity:0.6;"/>
    <path clip-path="url(#pf656e39986)" d="M 124.071958 523.786011 
C 125.808684 523.786011 127.474512 523.096002 128.702563 521.867951 
C 129.930614 520.639901 130.620622 518.974073 130.620622 517.237347 
C 130.620622 515.500621 129.930614 513.834793 128.702563 512.606742 
C 127.474512 511.378691 125.808684 510.688683 124.071958 510.688683 
C 122.335232 510.688683 120.669404 511.378691 119.441354 512.606742 
C 118.213303 513.834793 117.523294 515.500621 117.523294 517.237347 
C 117.523294 518.974073 118.213303 520.639901 119.441354 521.867951 
C 120.669404 523.096002 122.335232 523.786011 124.071958 523.786011 
z
" style="fill:#460a5d;fill-opacity:0.6;stroke:#460a5d;stroke-opacity:0.6;"/>
    <path clip-path="url(#pf656e39986)" d="M 130.900898 506.994165 
C 132.77581 506.994165 134.574184 506.249254 135.899948 504.92349 
C 137.225711 503.597727 137.970622 501.799353 137.970622 499.92444 
C 137.970622 498.049528 137.225711 496.251154 135.899948 494.92539 
C 134.574184 493.599627 132.77581 492.854716 130.900898 492.854716 
C 129.025985 492.854716 127.227611 493.599627 125.901848 494.92539 
C 124.576084 496.251154 123.831174 498.049528 123.831174 499.92444 
C 123.831174 501.799353 124.576084 503.597727 125.901848 504.92349 
C 127.227611 506.249254 129.025985 506.994165 130.900898 506.994165 
z
" style="fill:#7fd34e;fill-opacity:0.6;stroke:#7fd34e;stroke-opacity:0.6;"/>
    <path clip-path="url(#pf656e39986)" d="M 82.492406 590.915506 
C 83.492929 590.915506 84.452607 590.517994 85.160083 589.810518 
C 85.867559 589.103042 86.265071 588.143364 86.265071 587.142841 
C 86.265071 586.142319 85.867559 585.18264 85.160083 584.475164 
C 84.452607 583.767688 83.492929 583.370176 82.492406 583.370176 
C 81.491884 583.370176 80.532205 583.767688 79.824729 584.475164 
C 79.117253 585.18264 78.719741 586.142319 78.719741 587.142841 
C 78.719741 588.143364 79.117253 589.103042 79.824729 589.810518 
C 80.532205 590.517994 81.491884 590.915506 82.492406 590.915506 
z
" style="fill:#433d84;fill-opacity:0.6;stroke:#433d84;stroke-opacity:0.6;"/>
    <path clip-path="url(#pf656e39986)" d="M 83.487023 660.310603 
C 84.486772 660.310603 85.445708 659.913398 86.152637 659.206469 
C 86.859567 658.49954 87.256771 657.540604 87.256771 656.540855 
C 87.256771 655.541106 86.859567 654.58217 86.152637 653.87524 
C 85.445708 653.168311 84.486772 652.771107 83.487023 652.771107 
C 82.487274 652.771107 81.528338 653.168311 80.821409 653.87524 
C 80.114479 654.58217 79.717275 655.541106 79.717275 656.540855 
C 79.717275 657.540604 80.114479 658.49954 80.821409 659.206469 
C 81.528338 659.913398 82.487274 660.310603 83.487023 660.310603 
z
" style="fill:#218e8d;fill-opacity:0.6;stroke:#218e8d;stroke-opacity:0.6;"/>
    <path clip-path="url(#pf656e39986)" d="M 80.259282 566.444239 
C 81.578811 566.444239 82.844473 565.919985 83.77752 564.986937 
C 84.710568 564.05389 85.234822 562.788228 85.234822 561.468699 
C 85.234822 560.14917 84.710568 558.883509 83.77752 557.950461 
C 82.844473 557.017413 81.578811 556.493159 80.259282 556.493159 
C 78.939753 556.493159 77.674092 557.017413 76.741044 557.950461 
C 75.807996 558.883509 75.283742 560.14917 75.283742 561.468699 
C 75.283742 562.788228 75.807996 564.05389 76.741044 564.986937 
C 77.674092 565.919985 78.939753 566.444239 80.259282 566.444239 
z
" style="fill:#5ac864;fill-opacity:0.6;stroke:#5ac864;stroke-opacity:0.6;"/>
    <path clip-path="url(#pf656e39986)" d="M 56.079806 516.320286 
C 57.879322 516.320286 59.605377 515.60533 60.877827 514.33288 
C 62.150277 513.060431 62.865232 511.334376 62.865232 509.53486 
C 62.865232 507.735344 62.150277 506.009289 60.877827 504.73684 
C 59.605377 503.46439 57.879322 502.749434 56.079806 502.749434 
C 54.280291 502.749434 52.554236 503.46439 51.281786 504.73684 
C 50.009336 506.009289 49.294381 507.735344 49.294381 509.53486 
C 49.294381 511.334376 50.009336 513.060431 51.281786 514.33288 
C 52.554236 515.60533 54.280291 516.320286 56.079806 516.320286 
z
" style="fill:#b8de29;fill-opacity:0.6;stroke:#b8de29;stroke-opacity:0.6;"/>
    <path clip-path="url(#pf656e39986)" d="M 195.954929 531.488333 
C 197.624319 531.488333 199.225559 530.825078 200.405996 529.644641 
C 201.586433 528.464204 202.249689 526.862963 202.249689 525.193574 
C 202.249689 523.524184 201.586433 521.922943 200.405996 520.742506 
C 199.225559 519.56207 197.624319 518.898814 195.954929 518.898814 
C 194.285539 518.898814 192.684298 519.56207 191.503862 520.742506 
C 190.323425 521.922943 189.660169 523.524184 189.660169 525.193574 
C 189.660169 526.862963 190.323425 528.464204 191.503862 529.644641 
C 192.684298 530.825078 194.285539 531.488333 195.954929 531.488333 
z
" style="fill:#1e9d89;fill-opacity:0.6;stroke:#1e9d89;stroke-opacity:0.6;"/>
    <path clip-path="url(#pf656e39986)" d="M 201.419605 497.132879 
C 203.370984 497.132879 205.242703 496.357588 206.622537 494.977754 
C 208.00237 493.59792 208.777662 491.726202 208.777662 489.774822 
C 208.777662 487.823443 208.00237 485.951724 206.622537 484.57189 
C 205.242703 483.192057 203.370984 482.416765 201.419605 482.416765 
C 199.468225 482.416765 197.596507 483.192057 196.216673 484.57189 
C 194.836839 485.951724 194.061548 487.823443 194.061548 489.774822 
C 194.061548 491.726202 194.836839 493.59792 196.216673 494.977754 
C 197.596507 496.357588 199.468225 497.132879 201.419605 497.132879 
z
" style="fill:#6ece58;fill-opacity:0.6;stroke:#6ece58;stroke-opacity:0.6;"/>
    <path clip-path="url(#pf656e39986)" d="M 177.480209 502.934896 
C 179.386981 502.934896 181.215912 502.177328 182.564204 500.829037 
C 183.912495 499.480746 184.670063 497.651814 184.670063 495.745042 
C 184.670063 493.838271 183.912495 492.009339 182.564204 490.661048 
C 181.215912 489.312757 179.386981 488.555188 177.480209 488.555188 
C 175.573437 488.555188 173.744506 489.312757 172.396215 490.661048 
C 171.047923 492.009339 170.290355 493.838271 170.290355 495.745042 
C 170.290355 497.651814 171.047923 499.480746 172.396215 500.829037 
C 173.744506 502.177328 175.573437 502.934896 177.480209 502.934896 
z
" style="fill:#3e4c8a;fill-opacity:0.6;stroke:#3e4c8a;stroke-opacity:0.6;"/>
    <path clip-path="url(#pf656e39986)" d="M 38.53492 642.716783 
C 39.257709 642.716783 39.950992 642.429616 40.462081 641.918527 
C 40.97317 641.407438 41.260337 640.714155 41.260337 639.991366 
C 41.260337 639.268577 40.97317 638.575294 40.462081 638.064205 
C 39.950992 637.553116 39.257709 637.265948 38.53492 637.265948 
C 37.812131 637.265948 37.118848 637.553116 36.607759 638.064205 
C 36.09667 638.575294 35.809502 639.268577 35.809502 639.991366 
C 35.809502 640.714155 36.09667 641.407438 36.607759 641.918527 
C 37.118848 642.429616 37.812131 642.716783 38.53492 642.716783 
z
" style="fill:#28ae80;fill-opacity:0.6;stroke:#28ae80;stroke-opacity:0.6;"/>
    <path clip-path="url(#pf656e39986)" d="M 652.061009 197.824707 
C 655.612057 197.824707 659.018142 196.41386 661.529113 193.90289 
C 664.040084 191.391919 665.45093 187.985834 665.45093 184.434785 
C 665.45093 180.883737 664.040084 177.477652 661.529113 174.966681 
C 659.018142 172.45571 655.612057 171.044864 652.061009 171.044864 
C 648.50996 171.044864 645.103875 172.45571 642.592904 174.966681 
C 640.081934 177.477652 638.671087 180.883737 638.671087 184.434785 
C 638.671087 187.985834 640.081934 191.391919 642.592904 193.90289 
C 645.103875 196.41386 648.50996 197.824707 652.061009 197.824707 
z
" style="fill:#e7e419;fill-opacity:0.6;stroke:#e7e419;stroke-opacity:0.6;"/>
    <path clip-path="url(#pf656e39986)" d="M 409.275447 338.752814 
C 412.18713 338.752814 414.979951 337.595989 417.038822 335.537118 
C 419.097694 333.478247 420.254518 330.685426 420.254518 327.773743 
C 420.254518 324.862059 419.097694 322.069238 417.038822 320.010367 
C 414.979951 317.951496 412.18713 316.794672 409.275447 316.794672 
C 406.363763 316.794672 403.570942 317.951496 401.512071 320.010367 
C 399.4532 322.069238 398.296376 324.862059 398.296376 327.773743 
C 398.296376 330.685426 399.4532 333.478247 401.512071 335.537118 
C 403.570942 337.595989 406.363763 338.752814 409.275447 338.752814 
z
" style="fill:#70cf57;fill-opacity:0.6;stroke:#70cf57;stroke-opacity:0.6;"/>
    <path clip-path="url(#pf656e39986)" d="M 563.650633 218.842237 
C 567.113946 218.842237 570.435877 217.466248 572.884809 215.017316 
C 575.333741 212.568384 576.709729 209.246454 576.709729 205.783141 
C 576.709729 202.319828 575.333741 198.997897 572.884809 196.548965 
C 570.435877 194.100033 567.113946 192.724044 563.650633 192.724044 
C 560.18732 192.724044 556.865389 194.100033 554.416457 196.548965 
C 551.967525 198.997897 550.591536 202.319828 550.591536 205.783141 
C 550.591536 209.246454 551.967525 212.568384 554.416457 215.017316 
C 556.865389 217.466248 560.18732 218.842237 563.650633 218.842237 
z
" style="fill:#440154;fill-opacity:0.6;stroke:#440154;stroke-opacity:0.6;"/>
    <path clip-path="url(#pf656e39986)" d="M 116.233159 509.668409 
C 118.086775 509.668409 119.864721 508.931959 121.175426 507.621255 
C 122.48613 506.31055 123.22258 504.532604 123.22258 502.678988 
C 123.22258 500.825372 122.48613 499.047426 121.175426 497.736721 
C 119.864721 496.426017 118.086775 495.689568 116.233159 495.689568 
C 114.379543 495.689568 112.601597 496.426017 111.290892 497.736721 
C 109.980188 499.047426 109.243739 500.825372 109.243739 502.678988 
C 109.243739 504.532604 109.980188 506.31055 111.290892 507.621255 
C 112.601597 508.931959 114.379543 509.668409 116.233159 509.668409 
z
" style="fill:#b0dd2f;fill-opacity:0.6;stroke:#b0dd2f;stroke-opacity:0.6;"/>
    <path clip-path="url(#pf656e39986)" d="M 157.271579 489.300053 
C 159.281566 489.300053 161.209501 488.501476 162.630776 487.0802 
C 164.052052 485.658925 164.850629 483.73099 164.850629 481.721003 
C 164.850629 479.711015 164.052052 477.783081 162.630776 476.361805 
C 161.209501 474.940529 159.281566 474.141953 157.271579 474.141953 
C 155.261591 474.141953 153.333657 474.940529 151.912381 476.361805 
C 150.491105 477.783081 149.692529 479.711015 149.692529 481.721003 
C 149.692529 483.73099 150.491105 485.658925 151.912381 487.0802 
C 153.333657 488.501476 155.261591 489.300053 157.271579 489.300053 
z
" style="fill:#25848e;fill-opacity:0.6;stroke:#25848e;stroke-opacity:0.6;"/>
    <path clip-path="url(#pf656e39986)" d="M 231.235242 440.981363 
C 233.573756 440.981363 235.816805 440.052262 237.470384 438.398683 
C 239.123963 436.745104 240.053065 434.502055 240.053065 432.163541 
C 240.053065 429.825027 239.123963 427.581977 237.470384 425.928398 
C 235.816805 424.274819 233.573756 423.345718 231.235242 423.345718 
C 228.896728 423.345718 226.653679 424.274819 225.000099 425.928398 
C 223.34652 427.581977 222.417419 429.825027 222.417419 432.163541 
C 222.417419 434.502055 223.34652 436.745104 225.000099 438.398683 
C 226.653679 440.052262 228.896728 440.981363 231.235242 440.981363 
z
" style="fill:#34608d;fill-opacity:0.6;stroke:#34608d;stroke-opacity:0.6;"/>
    <path clip-path="url(#pf656e39986)" d="M 50.733265 600.237992 
C 51.579134 600.237992 52.390473 599.901925 52.988592 599.303805 
C 53.586712 598.705685 53.922779 597.894347 53.922779 597.048478 
C 53.922779 596.202609 53.586712 595.391271 52.988592 594.793151 
C 52.390473 594.195031 51.579134 593.858964 50.733265 593.858964 
C 49.887396 593.858964 49.076058 594.195031 48.477938 594.793151 
C 47.879818 595.391271 47.543751 596.202609 47.543751 597.048478 
C 47.543751 597.894347 47.879818 598.705685 48.477938 599.303805 
C 49.076058 599.901925 49.887396 600.237992 50.733265 600.237992 
z
" style="fill:#471365;fill-opacity:0.6;stroke:#471365;stroke-opacity:0.6;"/>
    <path clip-path="url(#pf656e39986)" d="M 616.315779 124.191959 
C 620.158205 124.191959 623.843773 122.665347 626.560778 119.948341 
C 629.277783 117.231336 630.804395 113.545769 630.804395 109.703343 
C 630.804395 105.860917 629.277783 102.175349 626.560778 99.458344 
C 623.843773 96.741338 620.158205 95.214726 616.315779 95.214726 
C 612.473353 95.214726 608.787786 96.741338 606.07078 99.458344 
C 603.353775 102.175349 601.827163 105.860917 601.827163 109.703343 
C 601.827163 113.545769 603.353775 117.231336 606.07078 119.948341 
C 608.787786 122.665347 612.473353 124.191959 616.315779 124.191959 
z
" style="fill:#31b57b;fill-opacity:0.6;stroke:#31b57b;stroke-opacity:0.6;"/>
    <path clip-path="url(#pf656e39986)" d="M 227.42445 467.064747 
C 229.591972 467.064747 231.67101 466.203581 233.20368 464.670912 
C 234.73635 463.138242 235.597515 461.059204 235.597515 458.891681 
C 235.597515 456.724159 234.73635 454.645121 233.20368 453.112451 
C 231.67101 451.579782 229.591972 450.718616 227.42445 450.718616 
C 225.256927 450.718616 223.177889 451.579782 221.64522 453.112451 
C 220.11255 454.645121 219.251384 456.724159 219.251384 458.891681 
C 219.251384 461.059204 220.11255 463.138242 221.64522 464.670912 
C 223.177889 466.203581 225.256927 467.064747 227.42445 467.064747 
z
" style="fill:#440256;fill-opacity:0.6;stroke:#440256;stroke-opacity:0.6;"/>
    <path clip-path="url(#pf656e39986)" d="M 120.66511 529.989291 
C 122.347823 529.989291 123.961843 529.320742 125.151701 528.130884 
C 126.341559 526.941026 127.010108 525.327006 127.010108 523.644293 
C 127.010108 521.96158 126.341559 520.34756 125.151701 519.157702 
C 123.961843 517.967844 122.347823 517.299295 120.66511 517.299295 
C 118.982397 517.299295 117.368377 517.967844 116.178519 519.157702 
C 114.988661 520.34756 114.320112 521.96158 114.320112 523.644293 
C 114.320112 525.327006 114.988661 526.941026 116.178519 528.130884 
C 117.368377 529.320742 118.982397 529.989291 120.66511 529.989291 
z
" style="fill:#46337f;fill-opacity:0.6;stroke:#46337f;stroke-opacity:0.6;"/>
    <path clip-path="url(#pf656e39986)" d="M 70.046359 594.253601 
C 70.994586 594.253601 71.904103 593.876867 72.5746 593.206369 
C 73.245097 592.535872 73.621831 591.626355 73.621831 590.678129 
C 73.621831 589.729903 73.245097 588.820386 72.5746 588.149888 
C 71.904103 587.479391 70.994586 587.102657 70.046359 587.102657 
C 69.098133 587.102657 68.188616 587.479391 67.518119 588.149888 
C 66.847622 588.820386 66.470887 589.729903 66.470887 590.678129 
C 66.470887 591.626355 66.847622 592.535872 67.518119 593.206369 
C 68.188616 593.876867 69.098133 594.253601 70.046359 594.253601 
z
" style="fill:#3a548c;fill-opacity:0.6;stroke:#3a548c;stroke-opacity:0.6;"/>
    <path clip-path="url(#pf656e39986)" d="M 116.52659 546.132351 
C 118.059524 546.132351 119.529879 545.52331 120.613826 544.439362 
C 121.697774 543.355414 122.306815 541.885059 122.306815 540.352126 
C 122.306815 538.819192 121.697774 537.348837 120.613826 536.26489 
C 119.529879 535.180942 118.059524 534.571901 116.52659 534.571901 
C 114.993657 534.571901 113.523302 535.180942 112.439354 536.26489 
C 111.355406 537.348837 110.746365 538.819192 110.746365 540.352126 
C 110.746365 541.885059 111.355406 543.355414 112.439354 544.439362 
C 113.523302 545.52331 114.993657 546.132351 116.52659 546.132351 
z
" style="fill:#29798e;fill-opacity:0.6;stroke:#29798e;stroke-opacity:0.6;"/>
    <path clip-path="url(#pf656e39986)" d="M 32.727273 692.450275 
C 34.100374 692.450275 35.417422 691.904736 36.388352 690.933806 
C 37.359281 689.962877 37.90482 688.645829 37.90482 687.272727 
C 37.90482 685.899626 37.359281 684.582578 36.388352 683.611648 
C 35.417422 682.640719 34.100374 682.09518 32.727273 682.09518 
C 31.354171 682.09518 30.037123 682.640719 29.066194 683.611648 
C 28.095264 684.582578 27.549725 685.899626 27.549725 687.272727 
C 27.549725 688.645829 28.095264 689.962877 29.066194 690.933806 
C 30.037123 691.904736 31.354171 692.450275 32.727273 692.450275 
z
" style="fill:#32648e;fill-opacity:0.6;stroke:#32648e;stroke-opacity:0.6;"/>
    <path clip-path="url(#pf656e39986)" d="M 90.68942 616.350542 
C 91.146293 616.350542 91.584516 616.169024 91.907574 615.845966 
C 92.230633 615.522908 92.41215 615.084685 92.41215 614.627812 
C 92.41215 614.170938 92.230633 613.732716 91.907574 613.409657 
C 91.584516 613.086599 91.146293 612.905081 90.68942 612.905081 
C 90.232546 612.905081 89.794324 613.086599 89.471266 613.409657 
C 89.148207 613.732716 88.96669 614.170938 88.96669 614.627812 
C 88.96669 615.084685 89.148207 615.522908 89.471266 615.845966 
C 89.794324 616.169024 90.232546 616.350542 90.68942 616.350542 
z
" style="fill:#7cd250;fill-opacity:0.6;stroke:#7cd250;stroke-opacity:0.6;"/>
    <path clip-path="url(#pf656e39986)" d="M 128.442937 533.326763 
C 130.095835 533.326763 131.681258 532.670059 132.850033 531.501284 
C 134.018809 530.332508 134.675513 528.747086 134.675513 527.094187 
C 134.675513 525.441289 134.018809 523.855866 132.850033 522.687091 
C 131.681258 521.518315 130.095835 520.861612 128.442937 520.861612 
C 126.790038 520.861612 125.204616 521.518315 124.03584 522.687091 
C 122.867065 523.855866 122.210361 525.441289 122.210361 527.094187 
C 122.210361 528.747086 122.867065 530.332508 124.03584 531.501284 
C 125.204616 532.670059 126.790038 533.326763 128.442937 533.326763 
z
" style="fill:#31668e;fill-opacity:0.6;stroke:#31668e;stroke-opacity:0.6;"/>
    <path clip-path="url(#pf656e39986)" d="M 33.093109 490.316004 
C 35.095594 490.316004 37.016332 489.520408 38.432303 488.104437 
C 39.848274 486.688466 40.64387 484.767728 40.64387 482.765242 
C 40.64387 480.762757 39.848274 478.842019 38.432303 477.426048 
C 37.016332 476.010077 35.095594 475.214481 33.093109 475.214481 
C 31.090623 475.214481 29.169885 476.010077 27.753914 477.426048 
C 26.337943 478.842019 25.542347 480.762757 25.542347 482.765242 
C 25.542347 484.767728 26.337943 486.688466 27.753914 488.104437 
C 29.169885 489.520408 31.090623 490.316004 33.093109 490.316004 
z
" style="fill:#3b518b;fill-opacity:0.6;stroke:#3b518b;stroke-opacity:0.6;"/>
    <path clip-path="url(#pf656e39986)" d="M 232.683343 465.335359 
C 234.862628 465.335359 236.952949 464.469519 238.493937 462.928532 
C 240.034924 461.387544 240.900763 459.297224 240.900763 457.117938 
C 240.900763 454.938653 240.034924 452.848332 238.493937 451.307344 
C 236.952949 449.766357 234.862628 448.900518 232.683343 448.900518 
C 230.504057 448.900518 228.413736 449.766357 226.872749 451.307344 
C 225.331762 452.848332 224.465922 454.938653 224.465922 457.117938 
C 224.465922 459.297224 225.331762 461.387544 226.872749 462.928532 
C 228.413736 464.469519 230.504057 465.335359 232.683343 465.335359 
z
" style="fill:#471063;fill-opacity:0.6;stroke:#471063;stroke-opacity:0.6;"/>
    <path clip-path="url(#pf656e39986)" d="M 35.806393 576.203191 
C 37.009375 576.203191 38.163247 575.725241 39.013884 574.874605 
C 39.864521 574.023968 40.34247 572.870095 40.34247 571.667113 
C 40.34247 570.464132 39.864521 569.310259 39.013884 568.459622 
C 38.163247 567.608986 37.009375 567.131036 35.806393 567.131036 
C 34.603411 567.131036 33.449538 567.608986 32.598901 568.459622 
C 31.748265 569.310259 31.270315 570.464132 31.270315 571.667113 
C 31.270315 572.870095 31.748265 574.023968 32.598901 574.874605 
C 33.449538 575.725241 34.603411 576.203191 35.806393 576.203191 
z
" style="fill:#471063;fill-opacity:0.6;stroke:#471063;stroke-opacity:0.6;"/>
    <path clip-path="url(#pf656e39986)" d="M 59.490465 612.358873 
C 60.071212 612.358873 60.62825 612.12814 61.0389 611.71749 
C 61.44955 611.30684 61.680283 610.749802 61.680283 610.169055 
C 61.680283 609.588309 61.44955 609.03127 61.0389 608.620621 
C 60.62825 608.209971 60.071212 607.979238 59.490465 607.979238 
C 58.909719 607.979238 58.35268 608.209971 57.942031 608.620621 
C 57.531381 609.03127 57.300648 609.588309 57.300648 610.169055 
C 57.300648 610.749802 57.531381 611.30684 57.942031 611.71749 
C 58.35268 612.12814 58.909719 612.358873 59.490465 612.358873 
z
" style="fill:#98d83e;fill-opacity:0.6;stroke:#98d83e;stroke-opacity:0.6;"/>
    <path clip-path="url(#pf656e39986)" d="M 38.881702 618.315366 
C 39.260683 618.315366 39.624192 618.164796 39.892172 617.896816 
C 40.160152 617.628836 40.310723 617.265326 40.310723 616.886346 
C 40.310723 616.507365 40.160152 616.143855 39.892172 615.875876 
C 39.624192 615.607896 39.260683 615.457325 38.881702 615.457325 
C 38.502721 615.457325 38.139212 615.607896 37.871232 615.875876 
C 37.603252 616.143855 37.452681 616.507365 37.452681 616.886346 
C 37.452681 617.265326 37.603252 617.628836 37.871232 617.896816 
C 38.139212 618.164796 38.502721 618.315366 38.881702 618.315366 
z
" style="fill:#39568c;fill-opacity:0.6;stroke:#39568c;stroke-opacity:0.6;"/>
    <path clip-path="url(#pf656e39986)" d="M 83.365078 607.916892 
C 84.055935 607.916892 84.718591 607.642411 85.207101 607.153901 
C 85.695611 606.66539 85.970092 606.002735 85.970092 605.311877 
C 85.970092 604.62102 85.695611 603.958364 85.207101 603.469854 
C 84.718591 602.981344 84.055935 602.706863 83.365078 602.706863 
C 82.67422 602.706863 82.011565 602.981344 81.523054 603.469854 
C 81.034544 603.958364 80.760063 604.62102 80.760063 605.311877 
C 80.760063 606.002735 81.034544 606.66539 81.523054 607.153901 
C 82.011565 607.642411 82.67422 607.916892 83.365078 607.916892 
z
" style="fill:#b5de2b;fill-opacity:0.6;stroke:#b5de2b;stroke-opacity:0.6;"/>
    <path clip-path="url(#pf656e39986)" d="M 213.42741 446.506797 
C 215.730788 446.506797 217.940134 445.591656 219.568868 443.962922 
C 221.197602 442.334189 222.112743 440.124842 222.112743 437.821465 
C 222.112743 435.518088 221.197602 433.308741 219.568868 431.680007 
C 217.940134 430.051274 215.730788 429.136132 213.42741 429.136132 
C 211.124033 429.136132 208.914687 430.051274 207.285953 431.680007 
C 205.657219 433.308741 204.742078 435.518088 204.742078 437.821465 
C 204.742078 440.124842 205.657219 442.334189 207.285953 443.962922 
C 208.914687 445.591656 211.124033 446.506797 213.42741 446.506797 
z
" style="fill:#1f988b;fill-opacity:0.6;stroke:#1f988b;stroke-opacity:0.6;"/>
    <path clip-path="url(#pf656e39986)" d="M 89.469966 498.804883 
C 91.408599 498.804883 93.268092 498.034656 94.638912 496.663836 
C 96.009733 495.293015 96.77996 493.433523 96.77996 491.49489 
C 96.77996 489.556257 96.009733 487.696764 94.638912 486.325944 
C 93.268092 484.955124 91.408599 484.184897 89.469966 484.184897 
C 87.531334 484.184897 85.671841 484.955124 84.301021 486.325944 
C 82.9302 487.696764 82.159973 489.556257 82.159973 491.49489 
C 82.159973 493.433523 82.9302 495.293015 84.301021 496.663836 
C 85.671841 498.034656 87.531334 498.804883 89.469966 498.804883 
z
" style="fill:#355e8d;fill-opacity:0.6;stroke:#355e8d;stroke-opacity:0.6;"/>
    <path clip-path="url(#pf656e39986)" d="M 165.735348 524.896738 
C 167.462531 524.896738 169.119205 524.210521 170.340508 522.989218 
C 171.561811 521.767916 172.248028 520.111241 172.248028 518.384058 
C 172.248028 516.656875 171.561811 515.000201 170.340508 513.778898 
C 169.119205 512.557595 167.462531 511.871378 165.735348 511.871378 
C 164.008165 511.871378 162.35149 512.557595 161.130188 513.778898 
C 159.908885 515.000201 159.222668 516.656875 159.222668 518.384058 
C 159.222668 520.111241 159.908885 521.767916 161.130188 522.989218 
C 162.35149 524.210521 164.008165 524.896738 165.735348 524.896738 
z
" style="fill:#25ab82;fill-opacity:0.6;stroke:#25ab82;stroke-opacity:0.6;"/>
    <path clip-path="url(#pf656e39986)" d="M 191.000899 464.252883 
C 193.187514 464.252883 195.284866 463.384131 196.831036 461.837961 
C 198.377207 460.29179 199.245958 458.194439 199.245958 456.007824 
C 199.245958 453.821208 198.377207 451.723857 196.831036 450.177686 
C 195.284866 448.631516 193.187514 447.762765 191.000899 447.762765 
C 188.814284 447.762765 186.716932 448.631516 185.170762 450.177686 
C 183.624592 451.723857 182.75584 453.821208 182.75584 456.007824 
C 182.75584 458.194439 183.624592 460.29179 185.170762 461.837961 
C 186.716932 463.384131 188.814284 464.252883 191.000899 464.252883 
z
" style="fill:#21908d;fill-opacity:0.6;stroke:#21908d;stroke-opacity:0.6;"/>
    <path clip-path="url(#pf656e39986)" d="M 69.886306 602.297434 
C 70.69374 602.297434 71.468211 601.976637 72.039153 601.405695 
C 72.610095 600.834753 72.930891 600.060282 72.930891 599.252848 
C 72.930891 598.445415 72.610095 597.670943 72.039153 597.100001 
C 71.468211 596.52906 70.69374 596.208263 69.886306 596.208263 
C 69.078873 596.208263 68.304401 596.52906 67.733459 597.100001 
C 67.162517 597.670943 66.841721 598.445415 66.841721 599.252848 
C 66.841721 600.060282 67.162517 600.834753 67.733459 601.405695 
C 68.304401 601.976637 69.078873 602.297434 69.886306 602.297434 
z
" style="fill:#2ab07f;fill-opacity:0.6;stroke:#2ab07f;stroke-opacity:0.6;"/>
    <path clip-path="url(#pf656e39986)" d="M 51.533532 619.393054 
C 51.860496 619.393054 52.174113 619.26315 52.405311 619.031951 
C 52.63651 618.800753 52.766414 618.487136 52.766414 618.160172 
C 52.766414 617.833207 52.63651 617.519591 52.405311 617.288392 
C 52.174113 617.057193 51.860496 616.927289 51.533532 616.927289 
C 51.206567 616.927289 50.89295 617.057193 50.661752 617.288392 
C 50.430553 617.519591 50.300649 617.833207 50.300649 618.160172 
C 50.300649 618.487136 50.430553 618.800753 50.661752 619.031951 
C 50.89295 619.26315 51.206567 619.393054 51.533532 619.393054 
z
" style="fill:#24878e;fill-opacity:0.6;stroke:#24878e;stroke-opacity:0.6;"/>
    <path clip-path="url(#pf656e39986)" d="M 33.96578 558.343514 
C 35.374456 558.343514 36.725625 557.783842 37.721709 556.787758 
C 38.717793 555.791674 39.277465 554.440504 39.277465 553.031829 
C 39.277465 551.623154 38.717793 550.271984 37.721709 549.2759 
C 36.725625 548.279816 35.374456 547.720144 33.96578 547.720144 
C 32.557105 547.720144 31.205935 548.279816 30.209851 549.2759 
C 29.213768 550.271984 28.654095 551.623154 28.654095 553.031829 
C 28.654095 554.440504 29.213768 555.791674 30.209851 556.787758 
C 31.205935 557.783842 32.557105 558.343514 33.96578 558.343514 
z
" style="fill:#471365;fill-opacity:0.6;stroke:#471365;stroke-opacity:0.6;"/>
    <path clip-path="url(#pf656e39986)" d="M 58.671145 581.147177 
C 59.810315 581.147177 60.902981 580.69458 61.708496 579.889065 
C 62.514011 579.08355 62.966608 577.990884 62.966608 576.851714 
C 62.966608 575.712544 62.514011 574.619878 61.708496 573.814363 
C 60.902981 573.008848 59.810315 572.556251 58.671145 572.556251 
C 57.531975 572.556251 56.439309 573.008848 55.633794 573.814363 
C 54.828279 574.619878 54.375682 575.712544 54.375682 576.851714 
C 54.375682 577.990884 54.828279 579.08355 55.633794 579.889065 
C 56.439309 580.69458 57.531975 581.147177 58.671145 581.147177 
z
" style="fill:#21918c;fill-opacity:0.6;stroke:#21918c;stroke-opacity:0.6;"/>
    <path clip-path="url(#pf656e39986)" d="M 132.177513 523.611112 
C 133.915737 523.611112 135.583001 522.920508 136.812111 521.691399 
C 138.041221 520.462289 138.731825 518.795024 138.731825 517.056801 
C 138.731825 515.318577 138.041221 513.651312 136.812111 512.422202 
C 135.583001 511.193093 133.915737 510.502489 132.177513 510.502489 
C 130.439289 510.502489 128.772025 511.193093 127.542915 512.422202 
C 126.313805 513.651312 125.623201 515.318577 125.623201 517.056801 
C 125.623201 518.795024 126.313805 520.462289 127.542915 521.691399 
C 128.772025 522.920508 130.439289 523.611112 132.177513 523.611112 
z
" style="fill:#38b977;fill-opacity:0.6;stroke:#38b977;stroke-opacity:0.6;"/>
    <path clip-path="url(#pf656e39986)" d="M 64.882736 454.618455 
C 67.133512 454.618455 69.292405 453.724212 70.883944 452.132673 
C 72.475483 450.541134 73.369726 448.382241 73.369726 446.131465 
C 73.369726 443.880688 72.475483 441.721795 70.883944 440.130256 
C 69.292405 438.538717 67.133512 437.644474 64.882736 437.644474 
C 62.63196 437.644474 60.473067 438.538717 58.881528 440.130256 
C 57.289989 441.721795 56.395746 443.880688 56.395746 446.131465 
C 56.395746 448.382241 57.289989 450.541134 58.881528 452.132673 
C 60.473067 453.724212 62.63196 454.618455 64.882736 454.618455 
z
" style="fill:#306a8e;fill-opacity:0.6;stroke:#306a8e;stroke-opacity:0.6;"/>
    <path clip-path="url(#pf656e39986)" d="M 43.340329 577.849526 
C 44.522462 577.849526 45.656338 577.379859 46.492233 576.543965 
C 47.328128 575.70807 47.797794 574.574194 47.797794 573.392061 
C 47.797794 572.209927 47.328128 571.076051 46.492233 570.240156 
C 45.656338 569.404262 44.522462 568.934595 43.340329 568.934595 
C 42.158195 568.934595 41.024319 569.404262 40.188424 570.240156 
C 39.35253 571.076051 38.882863 572.209927 38.882863 573.392061 
C 38.882863 574.574194 39.35253 575.70807 40.188424 576.543965 
C 41.024319 577.379859 42.158195 577.849526 43.340329 577.849526 
z
" style="fill:#46075a;fill-opacity:0.6;stroke:#46075a;stroke-opacity:0.6;"/>
    <path clip-path="url(#pf656e39986)" d="M 157.206795 619.544429 
C 157.525635 619.544429 157.831459 619.417753 158.056913 619.192299 
C 158.282367 618.966845 158.409043 618.661021 158.409043 618.342182 
C 158.409043 618.023342 158.282367 617.717518 158.056913 617.492064 
C 157.831459 617.26661 157.525635 617.139934 157.206795 617.139934 
C 156.887955 617.139934 156.582131 617.26661 156.356678 617.492064 
C 156.131224 617.717518 156.004547 618.023342 156.004547 618.342182 
C 156.004547 618.661021 156.131224 618.966845 156.356678 619.192299 
C 156.582131 619.417753 156.887955 619.544429 157.206795 619.544429 
z
" style="fill:#1f998a;fill-opacity:0.6;stroke:#1f998a;stroke-opacity:0.6;"/>
    <path clip-path="url(#pf656e39986)" d="M 351.580055 410.457095 
C 354.103682 410.457095 356.524288 409.454447 358.308762 407.669973 
C 360.093236 405.885499 361.095884 403.464893 361.095884 400.941266 
C 361.095884 398.417639 360.093236 395.997033 358.308762 394.212559 
C 356.524288 392.428085 354.103682 391.425437 351.580055 391.425437 
C 349.056428 391.425437 346.635822 392.428085 344.851348 394.212559 
C 343.066874 395.997033 342.064226 398.417639 342.064226 400.941266 
C 342.064226 403.464893 343.066874 405.885499 344.851348 407.669973 
C 346.635822 409.454447 349.056428 410.457095 351.580055 410.457095 
z
" style="fill:#37b878;fill-opacity:0.6;stroke:#37b878;stroke-opacity:0.6;"/>
    <path clip-path="url(#pf656e39986)" d="M 48.35152 609.297875 
C 49.010298 609.297875 49.642182 609.03614 50.108008 608.570314 
C 50.573834 608.104488 50.835569 607.472603 50.835569 606.813826 
C 50.835569 606.155048 50.573834 605.523164 50.108008 605.057338 
C 49.642182 604.591512 49.010298 604.329777 48.35152 604.329777 
C 47.692743 604.329777 47.060858 604.591512 46.595032 605.057338 
C 46.129206 605.523164 45.867471 606.155048 45.867471 606.813826 
C 45.867471 607.472603 46.129206 608.104488 46.595032 608.570314 
C 47.060858 609.03614 47.692743 609.297875 48.35152 609.297875 
z
" style="fill:#86d549;fill-opacity:0.6;stroke:#86d549;stroke-opacity:0.6;"/>
   </g>
   <g id="matplotlib.axis_1">
    <g id="xtick_1">
     <g id="line2d_1">
      <defs>
       <path d="M 0 0 
L 0 3.5 
" id="m9f7b5df6cd" style="stroke:#000000;stroke-width:0.8;"/>
      </defs>
      <g>
       <use style="stroke:#000000;stroke-width:0.8;" x="31.70217" xlink:href="#m9f7b5df6cd" y="720"/>
      </g>
     </g>
     <g id="text_1">
      <!-- 5.0 -->
      <g transform="translate(23.750607 734.598438)scale(0.1 -0.1)">
       <defs>
        <path d="M 10.796875 72.90625 
L 49.515625 72.90625 
L 49.515625 64.59375 
L 19.828125 64.59375 
L 19.828125 46.734375 
Q 21.96875 47.46875 24.109375 47.828125 
Q 26.265625 48.1875 28.421875 48.1875 
Q 40.625 48.1875 47.75 41.5 
Q 54.890625 34.8125 54.890625 23.390625 
Q 54.890625 11.625 47.5625 5.09375 
Q 40.234375 -1.421875 26.90625 -1.421875 
Q 22.3125 -1.421875 17.546875 -0.640625 
Q 12.796875 0.140625 7.71875 1.703125 
L 7.71875 11.625 
Q 12.109375 9.234375 16.796875 8.0625 
Q 21.484375 6.890625 26.703125 6.890625 
Q 35.15625 6.890625 40.078125 11.328125 
Q 45.015625 15.765625 45.015625 23.390625 
Q 45.015625 31 40.078125 35.4375 
Q 35.15625 39.890625 26.703125 39.890625 
Q 22.75 39.890625 18.8125 39.015625 
Q 14.890625 38.140625 10.796875 36.28125 
z
" id="DejaVuSans-53"/>
        <path d="M 10.6875 12.40625 
L 21 12.40625 
L 21 0 
L 10.6875 0 
z
" id="DejaVuSans-46"/>
        <path d="M 31.78125 66.40625 
Q 24.171875 66.40625 20.328125 58.90625 
Q 16.5 51.421875 16.5 36.375 
Q 16.5 21.390625 20.328125 13.890625 
Q 24.171875 6.390625 31.78125 6.390625 
Q 39.453125 6.390625 43.28125 13.890625 
Q 47.125 21.390625 47.125 36.375 
Q 47.125 51.421875 43.28125 58.90625 
Q 39.453125 66.40625 31.78125 66.40625 
z
M 31.78125 74.21875 
Q 44.046875 74.21875 50.515625 64.515625 
Q 56.984375 54.828125 56.984375 36.375 
Q 56.984375 17.96875 50.515625 8.265625 
Q 44.046875 -1.421875 31.78125 -1.421875 
Q 19.53125 -1.421875 13.0625 8.265625 
Q 6.59375 17.96875 6.59375 36.375 
Q 6.59375 54.828125 13.0625 64.515625 
Q 19.53125 74.21875 31.78125 74.21875 
z
" id="DejaVuSans-48"/>
       </defs>
       <use xlink:href="#DejaVuSans-53"/>
       <use x="63.623047" xlink:href="#DejaVuSans-46"/>
       <use x="95.410156" xlink:href="#DejaVuSans-48"/>
      </g>
     </g>
    </g>
    <g id="xtick_2">
     <g id="line2d_2">
      <g>
       <use style="stroke:#000000;stroke-width:0.8;" x="126.971971" xlink:href="#m9f7b5df6cd" y="720"/>
      </g>
     </g>
     <g id="text_2">
      <!-- 7.5 -->
      <g transform="translate(119.020409 734.598438)scale(0.1 -0.1)">
       <defs>
        <path d="M 8.203125 72.90625 
L 55.078125 72.90625 
L 55.078125 68.703125 
L 28.609375 0 
L 18.3125 0 
L 43.21875 64.59375 
L 8.203125 64.59375 
z
" id="DejaVuSans-55"/>
       </defs>
       <use xlink:href="#DejaVuSans-55"/>
       <use x="63.623047" xlink:href="#DejaVuSans-46"/>
       <use x="95.410156" xlink:href="#DejaVuSans-53"/>
      </g>
     </g>
    </g>
    <g id="xtick_3">
     <g id="line2d_3">
      <g>
       <use style="stroke:#000000;stroke-width:0.8;" x="222.241773" xlink:href="#m9f7b5df6cd" y="720"/>
      </g>
     </g>
     <g id="text_3">
      <!-- 10.0 -->
      <g transform="translate(211.10896 734.598438)scale(0.1 -0.1)">
       <defs>
        <path d="M 12.40625 8.296875 
L 28.515625 8.296875 
L 28.515625 63.921875 
L 10.984375 60.40625 
L 10.984375 69.390625 
L 28.421875 72.90625 
L 38.28125 72.90625 
L 38.28125 8.296875 
L 54.390625 8.296875 
L 54.390625 0 
L 12.40625 0 
z
" id="DejaVuSans-49"/>
       </defs>
       <use xlink:href="#DejaVuSans-49"/>
       <use x="63.623047" xlink:href="#DejaVuSans-48"/>
       <use x="127.246094" xlink:href="#DejaVuSans-46"/>
       <use x="159.033203" xlink:href="#DejaVuSans-48"/>
      </g>
     </g>
    </g>
    <g id="xtick_4">
     <g id="line2d_4">
      <g>
       <use style="stroke:#000000;stroke-width:0.8;" x="317.511574" xlink:href="#m9f7b5df6cd" y="720"/>
      </g>
     </g>
     <g id="text_4">
      <!-- 12.5 -->
      <g transform="translate(306.378761 734.598438)scale(0.1 -0.1)">
       <defs>
        <path d="M 19.1875 8.296875 
L 53.609375 8.296875 
L 53.609375 0 
L 7.328125 0 
L 7.328125 8.296875 
Q 12.9375 14.109375 22.625 23.890625 
Q 32.328125 33.6875 34.8125 36.53125 
Q 39.546875 41.84375 41.421875 45.53125 
Q 43.3125 49.21875 43.3125 52.78125 
Q 43.3125 58.59375 39.234375 62.25 
Q 35.15625 65.921875 28.609375 65.921875 
Q 23.96875 65.921875 18.8125 64.3125 
Q 13.671875 62.703125 7.8125 59.421875 
L 7.8125 69.390625 
Q 13.765625 71.78125 18.9375 73 
Q 24.125 74.21875 28.421875 74.21875 
Q 39.75 74.21875 46.484375 68.546875 
Q 53.21875 62.890625 53.21875 53.421875 
Q 53.21875 48.921875 51.53125 44.890625 
Q 49.859375 40.875 45.40625 35.40625 
Q 44.1875 33.984375 37.640625 27.21875 
Q 31.109375 20.453125 19.1875 8.296875 
z
" id="DejaVuSans-50"/>
       </defs>
       <use xlink:href="#DejaVuSans-49"/>
       <use x="63.623047" xlink:href="#DejaVuSans-50"/>
       <use x="127.246094" xlink:href="#DejaVuSans-46"/>
       <use x="159.033203" xlink:href="#DejaVuSans-53"/>
      </g>
     </g>
    </g>
    <g id="xtick_5">
     <g id="line2d_5">
      <g>
       <use style="stroke:#000000;stroke-width:0.8;" x="412.781375" xlink:href="#m9f7b5df6cd" y="720"/>
      </g>
     </g>
     <g id="text_5">
      <!-- 15.0 -->
      <g transform="translate(401.648563 734.598438)scale(0.1 -0.1)">
       <use xlink:href="#DejaVuSans-49"/>
       <use x="63.623047" xlink:href="#DejaVuSans-53"/>
       <use x="127.246094" xlink:href="#DejaVuSans-46"/>
       <use x="159.033203" xlink:href="#DejaVuSans-48"/>
      </g>
     </g>
    </g>
    <g id="xtick_6">
     <g id="line2d_6">
      <g>
       <use style="stroke:#000000;stroke-width:0.8;" x="508.051177" xlink:href="#m9f7b5df6cd" y="720"/>
      </g>
     </g>
     <g id="text_6">
      <!-- 17.5 -->
      <g transform="translate(496.918364 734.598438)scale(0.1 -0.1)">
       <use xlink:href="#DejaVuSans-49"/>
       <use x="63.623047" xlink:href="#DejaVuSans-55"/>
       <use x="127.246094" xlink:href="#DejaVuSans-46"/>
       <use x="159.033203" xlink:href="#DejaVuSans-53"/>
      </g>
     </g>
    </g>
    <g id="xtick_7">
     <g id="line2d_7">
      <g>
       <use style="stroke:#000000;stroke-width:0.8;" x="603.320978" xlink:href="#m9f7b5df6cd" y="720"/>
      </g>
     </g>
     <g id="text_7">
      <!-- 20.0 -->
      <g transform="translate(592.188166 734.598438)scale(0.1 -0.1)">
       <use xlink:href="#DejaVuSans-50"/>
       <use x="63.623047" xlink:href="#DejaVuSans-48"/>
       <use x="127.246094" xlink:href="#DejaVuSans-46"/>
       <use x="159.033203" xlink:href="#DejaVuSans-48"/>
      </g>
     </g>
    </g>
    <g id="xtick_8">
     <g id="line2d_8">
      <g>
       <use style="stroke:#000000;stroke-width:0.8;" x="698.59078" xlink:href="#m9f7b5df6cd" y="720"/>
      </g>
     </g>
     <g id="text_8">
      <!-- 22.5 -->
      <g transform="translate(687.457967 734.598438)scale(0.1 -0.1)">
       <use xlink:href="#DejaVuSans-50"/>
       <use x="63.623047" xlink:href="#DejaVuSans-50"/>
       <use x="127.246094" xlink:href="#DejaVuSans-46"/>
       <use x="159.033203" xlink:href="#DejaVuSans-53"/>
      </g>
     </g>
    </g>
    <g id="text_9">
     <!-- Population of city (in 10,000s) -->
     <g transform="translate(284.940625 748.276562)scale(0.1 -0.1)">
      <defs>
       <path d="M 19.671875 64.796875 
L 19.671875 37.40625 
L 32.078125 37.40625 
Q 38.96875 37.40625 42.71875 40.96875 
Q 46.484375 44.53125 46.484375 51.125 
Q 46.484375 57.671875 42.71875 61.234375 
Q 38.96875 64.796875 32.078125 64.796875 
z
M 9.8125 72.90625 
L 32.078125 72.90625 
Q 44.34375 72.90625 50.609375 67.359375 
Q 56.890625 61.8125 56.890625 51.125 
Q 56.890625 40.328125 50.609375 34.8125 
Q 44.34375 29.296875 32.078125 29.296875 
L 19.671875 29.296875 
L 19.671875 0 
L 9.8125 0 
z
" id="DejaVuSans-80"/>
       <path d="M 30.609375 48.390625 
Q 23.390625 48.390625 19.1875 42.75 
Q 14.984375 37.109375 14.984375 27.296875 
Q 14.984375 17.484375 19.15625 11.84375 
Q 23.34375 6.203125 30.609375 6.203125 
Q 37.796875 6.203125 41.984375 11.859375 
Q 46.1875 17.53125 46.1875 27.296875 
Q 46.1875 37.015625 41.984375 42.703125 
Q 37.796875 48.390625 30.609375 48.390625 
z
M 30.609375 56 
Q 42.328125 56 49.015625 48.375 
Q 55.71875 40.765625 55.71875 27.296875 
Q 55.71875 13.875 49.015625 6.21875 
Q 42.328125 -1.421875 30.609375 -1.421875 
Q 18.84375 -1.421875 12.171875 6.21875 
Q 5.515625 13.875 5.515625 27.296875 
Q 5.515625 40.765625 12.171875 48.375 
Q 18.84375 56 30.609375 56 
z
" id="DejaVuSans-111"/>
       <path d="M 18.109375 8.203125 
L 18.109375 -20.796875 
L 9.078125 -20.796875 
L 9.078125 54.6875 
L 18.109375 54.6875 
L 18.109375 46.390625 
Q 20.953125 51.265625 25.265625 53.625 
Q 29.59375 56 35.59375 56 
Q 45.5625 56 51.78125 48.09375 
Q 58.015625 40.1875 58.015625 27.296875 
Q 58.015625 14.40625 51.78125 6.484375 
Q 45.5625 -1.421875 35.59375 -1.421875 
Q 29.59375 -1.421875 25.265625 0.953125 
Q 20.953125 3.328125 18.109375 8.203125 
z
M 48.6875 27.296875 
Q 48.6875 37.203125 44.609375 42.84375 
Q 40.53125 48.484375 33.40625 48.484375 
Q 26.265625 48.484375 22.1875 42.84375 
Q 18.109375 37.203125 18.109375 27.296875 
Q 18.109375 17.390625 22.1875 11.75 
Q 26.265625 6.109375 33.40625 6.109375 
Q 40.53125 6.109375 44.609375 11.75 
Q 48.6875 17.390625 48.6875 27.296875 
z
" id="DejaVuSans-112"/>
       <path d="M 8.5 21.578125 
L 8.5 54.6875 
L 17.484375 54.6875 
L 17.484375 21.921875 
Q 17.484375 14.15625 20.5 10.265625 
Q 23.53125 6.390625 29.59375 6.390625 
Q 36.859375 6.390625 41.078125 11.03125 
Q 45.3125 15.671875 45.3125 23.6875 
L 45.3125 54.6875 
L 54.296875 54.6875 
L 54.296875 0 
L 45.3125 0 
L 45.3125 8.40625 
Q 42.046875 3.421875 37.71875 1 
Q 33.40625 -1.421875 27.6875 -1.421875 
Q 18.265625 -1.421875 13.375 4.4375 
Q 8.5 10.296875 8.5 21.578125 
z
M 31.109375 56 
z
" id="DejaVuSans-117"/>
       <path d="M 9.421875 75.984375 
L 18.40625 75.984375 
L 18.40625 0 
L 9.421875 0 
z
" id="DejaVuSans-108"/>
       <path d="M 34.28125 27.484375 
Q 23.390625 27.484375 19.1875 25 
Q 14.984375 22.515625 14.984375 16.5 
Q 14.984375 11.71875 18.140625 8.90625 
Q 21.296875 6.109375 26.703125 6.109375 
Q 34.1875 6.109375 38.703125 11.40625 
Q 43.21875 16.703125 43.21875 25.484375 
L 43.21875 27.484375 
z
M 52.203125 31.203125 
L 52.203125 0 
L 43.21875 0 
L 43.21875 8.296875 
Q 40.140625 3.328125 35.546875 0.953125 
Q 30.953125 -1.421875 24.3125 -1.421875 
Q 15.921875 -1.421875 10.953125 3.296875 
Q 6 8.015625 6 15.921875 
Q 6 25.140625 12.171875 29.828125 
Q 18.359375 34.515625 30.609375 34.515625 
L 43.21875 34.515625 
L 43.21875 35.40625 
Q 43.21875 41.609375 39.140625 45 
Q 35.0625 48.390625 27.6875 48.390625 
Q 23 48.390625 18.546875 47.265625 
Q 14.109375 46.140625 10.015625 43.890625 
L 10.015625 52.203125 
Q 14.9375 54.109375 19.578125 55.046875 
Q 24.21875 56 28.609375 56 
Q 40.484375 56 46.34375 49.84375 
Q 52.203125 43.703125 52.203125 31.203125 
z
" id="DejaVuSans-97"/>
       <path d="M 18.3125 70.21875 
L 18.3125 54.6875 
L 36.8125 54.6875 
L 36.8125 47.703125 
L 18.3125 47.703125 
L 18.3125 18.015625 
Q 18.3125 11.328125 20.140625 9.421875 
Q 21.96875 7.515625 27.59375 7.515625 
L 36.8125 7.515625 
L 36.8125 0 
L 27.59375 0 
Q 17.1875 0 13.234375 3.875 
Q 9.28125 7.765625 9.28125 18.015625 
L 9.28125 47.703125 
L 2.6875 47.703125 
L 2.6875 54.6875 
L 9.28125 54.6875 
L 9.28125 70.21875 
z
" id="DejaVuSans-116"/>
       <path d="M 9.421875 54.6875 
L 18.40625 54.6875 
L 18.40625 0 
L 9.421875 0 
z
M 9.421875 75.984375 
L 18.40625 75.984375 
L 18.40625 64.59375 
L 9.421875 64.59375 
z
" id="DejaVuSans-105"/>
       <path d="M 54.890625 33.015625 
L 54.890625 0 
L 45.90625 0 
L 45.90625 32.71875 
Q 45.90625 40.484375 42.875 44.328125 
Q 39.84375 48.1875 33.796875 48.1875 
Q 26.515625 48.1875 22.3125 43.546875 
Q 18.109375 38.921875 18.109375 30.90625 
L 18.109375 0 
L 9.078125 0 
L 9.078125 54.6875 
L 18.109375 54.6875 
L 18.109375 46.1875 
Q 21.34375 51.125 25.703125 53.5625 
Q 30.078125 56 35.796875 56 
Q 45.21875 56 50.046875 50.171875 
Q 54.890625 44.34375 54.890625 33.015625 
z
" id="DejaVuSans-110"/>
       <path id="DejaVuSans-32"/>
       <path d="M 37.109375 75.984375 
L 37.109375 68.5 
L 28.515625 68.5 
Q 23.6875 68.5 21.796875 66.546875 
Q 19.921875 64.59375 19.921875 59.515625 
L 19.921875 54.6875 
L 34.71875 54.6875 
L 34.71875 47.703125 
L 19.921875 47.703125 
L 19.921875 0 
L 10.890625 0 
L 10.890625 47.703125 
L 2.296875 47.703125 
L 2.296875 54.6875 
L 10.890625 54.6875 
L 10.890625 58.5 
Q 10.890625 67.625 15.140625 71.796875 
Q 19.390625 75.984375 28.609375 75.984375 
z
" id="DejaVuSans-102"/>
       <path d="M 48.78125 52.59375 
L 48.78125 44.1875 
Q 44.96875 46.296875 41.140625 47.34375 
Q 37.3125 48.390625 33.40625 48.390625 
Q 24.65625 48.390625 19.8125 42.84375 
Q 14.984375 37.3125 14.984375 27.296875 
Q 14.984375 17.28125 19.8125 11.734375 
Q 24.65625 6.203125 33.40625 6.203125 
Q 37.3125 6.203125 41.140625 7.25 
Q 44.96875 8.296875 48.78125 10.40625 
L 48.78125 2.09375 
Q 45.015625 0.34375 40.984375 -0.53125 
Q 36.96875 -1.421875 32.421875 -1.421875 
Q 20.0625 -1.421875 12.78125 6.34375 
Q 5.515625 14.109375 5.515625 27.296875 
Q 5.515625 40.671875 12.859375 48.328125 
Q 20.21875 56 33.015625 56 
Q 37.15625 56 41.109375 55.140625 
Q 45.0625 54.296875 48.78125 52.59375 
z
" id="DejaVuSans-99"/>
       <path d="M 32.171875 -5.078125 
Q 28.375 -14.84375 24.75 -17.8125 
Q 21.140625 -20.796875 15.09375 -20.796875 
L 7.90625 -20.796875 
L 7.90625 -13.28125 
L 13.1875 -13.28125 
Q 16.890625 -13.28125 18.9375 -11.515625 
Q 21 -9.765625 23.484375 -3.21875 
L 25.09375 0.875 
L 2.984375 54.6875 
L 12.5 54.6875 
L 29.59375 11.921875 
L 46.6875 54.6875 
L 56.203125 54.6875 
z
" id="DejaVuSans-121"/>
       <path d="M 31 75.875 
Q 24.46875 64.65625 21.28125 53.65625 
Q 18.109375 42.671875 18.109375 31.390625 
Q 18.109375 20.125 21.3125 9.0625 
Q 24.515625 -2 31 -13.1875 
L 23.1875 -13.1875 
Q 15.875 -1.703125 12.234375 9.375 
Q 8.59375 20.453125 8.59375 31.390625 
Q 8.59375 42.28125 12.203125 53.3125 
Q 15.828125 64.359375 23.1875 75.875 
z
" id="DejaVuSans-40"/>
       <path d="M 11.71875 12.40625 
L 22.015625 12.40625 
L 22.015625 4 
L 14.015625 -11.625 
L 7.71875 -11.625 
L 11.71875 4 
z
" id="DejaVuSans-44"/>
       <path d="M 44.28125 53.078125 
L 44.28125 44.578125 
Q 40.484375 46.53125 36.375 47.5 
Q 32.28125 48.484375 27.875 48.484375 
Q 21.1875 48.484375 17.84375 46.4375 
Q 14.5 44.390625 14.5 40.28125 
Q 14.5 37.15625 16.890625 35.375 
Q 19.28125 33.59375 26.515625 31.984375 
L 29.59375 31.296875 
Q 39.15625 29.25 43.1875 25.515625 
Q 47.21875 21.78125 47.21875 15.09375 
Q 47.21875 7.46875 41.1875 3.015625 
Q 35.15625 -1.421875 24.609375 -1.421875 
Q 20.21875 -1.421875 15.453125 -0.5625 
Q 10.6875 0.296875 5.421875 2 
L 5.421875 11.28125 
Q 10.40625 8.6875 15.234375 7.390625 
Q 20.0625 6.109375 24.8125 6.109375 
Q 31.15625 6.109375 34.5625 8.28125 
Q 37.984375 10.453125 37.984375 14.40625 
Q 37.984375 18.0625 35.515625 20.015625 
Q 33.0625 21.96875 24.703125 23.78125 
L 21.578125 24.515625 
Q 13.234375 26.265625 9.515625 29.90625 
Q 5.8125 33.546875 5.8125 39.890625 
Q 5.8125 47.609375 11.28125 51.796875 
Q 16.75 56 26.8125 56 
Q 31.78125 56 36.171875 55.265625 
Q 40.578125 54.546875 44.28125 53.078125 
z
" id="DejaVuSans-115"/>
       <path d="M 8.015625 75.875 
L 15.828125 75.875 
Q 23.140625 64.359375 26.78125 53.3125 
Q 30.421875 42.28125 30.421875 31.390625 
Q 30.421875 20.453125 26.78125 9.375 
Q 23.140625 -1.703125 15.828125 -13.1875 
L 8.015625 -13.1875 
Q 14.5 -2 17.703125 9.0625 
Q 20.90625 20.125 20.90625 31.390625 
Q 20.90625 42.671875 17.703125 53.65625 
Q 14.5 64.65625 8.015625 75.875 
z
" id="DejaVuSans-41"/>
      </defs>
      <use xlink:href="#DejaVuSans-80"/>
      <use x="56.677734" xlink:href="#DejaVuSans-111"/>
      <use x="117.859375" xlink:href="#DejaVuSans-112"/>
      <use x="181.335938" xlink:href="#DejaVuSans-117"/>
      <use x="244.714844" xlink:href="#DejaVuSans-108"/>
      <use x="272.498047" xlink:href="#DejaVuSans-97"/>
      <use x="333.777344" xlink:href="#DejaVuSans-116"/>
      <use x="372.986328" xlink:href="#DejaVuSans-105"/>
      <use x="400.769531" xlink:href="#DejaVuSans-111"/>
      <use x="461.951172" xlink:href="#DejaVuSans-110"/>
      <use x="525.330078" xlink:href="#DejaVuSans-32"/>
      <use x="557.117188" xlink:href="#DejaVuSans-111"/>
      <use x="618.298828" xlink:href="#DejaVuSans-102"/>
      <use x="653.503906" xlink:href="#DejaVuSans-32"/>
      <use x="685.291016" xlink:href="#DejaVuSans-99"/>
      <use x="740.271484" xlink:href="#DejaVuSans-105"/>
      <use x="768.054688" xlink:href="#DejaVuSans-116"/>
      <use x="807.263672" xlink:href="#DejaVuSans-121"/>
      <use x="866.443359" xlink:href="#DejaVuSans-32"/>
      <use x="898.230469" xlink:href="#DejaVuSans-40"/>
      <use x="937.244141" xlink:href="#DejaVuSans-105"/>
      <use x="965.027344" xlink:href="#DejaVuSans-110"/>
      <use x="1028.40625" xlink:href="#DejaVuSans-32"/>
      <use x="1060.193359" xlink:href="#DejaVuSans-49"/>
      <use x="1123.816406" xlink:href="#DejaVuSans-48"/>
      <use x="1187.439453" xlink:href="#DejaVuSans-44"/>
      <use x="1219.226562" xlink:href="#DejaVuSans-48"/>
      <use x="1282.849609" xlink:href="#DejaVuSans-48"/>
      <use x="1346.472656" xlink:href="#DejaVuSans-48"/>
      <use x="1410.095703" xlink:href="#DejaVuSans-115"/>
      <use x="1462.195312" xlink:href="#DejaVuSans-41"/>
     </g>
    </g>
   </g>
   <g id="matplotlib.axis_2">
    <g id="ytick_1">
     <g id="line2d_9">
      <defs>
       <path d="M 0 0 
L -3.5 0 
" id="m00afbdb950" style="stroke:#000000;stroke-width:0.8;"/>
      </defs>
      <g>
       <use style="stroke:#000000;stroke-width:0.8;" x="0" xlink:href="#m00afbdb950" y="621.868686"/>
      </g>
     </g>
     <g id="text_10">
      <!-- 0 -->
      <g transform="translate(-13.3625 625.667905)scale(0.1 -0.1)">
       <use xlink:href="#DejaVuSans-48"/>
      </g>
     </g>
    </g>
    <g id="ytick_2">
     <g id="line2d_10">
      <g>
       <use style="stroke:#000000;stroke-width:0.8;" x="0" xlink:href="#m00afbdb950" y="499.878084"/>
      </g>
     </g>
     <g id="text_11">
      <!-- 5 -->
      <g transform="translate(-13.3625 503.677303)scale(0.1 -0.1)">
       <use xlink:href="#DejaVuSans-53"/>
      </g>
     </g>
    </g>
    <g id="ytick_3">
     <g id="line2d_11">
      <g>
       <use style="stroke:#000000;stroke-width:0.8;" x="0" xlink:href="#m00afbdb950" y="377.887482"/>
      </g>
     </g>
     <g id="text_12">
      <!-- 10 -->
      <g transform="translate(-19.725 381.686701)scale(0.1 -0.1)">
       <use xlink:href="#DejaVuSans-49"/>
       <use x="63.623047" xlink:href="#DejaVuSans-48"/>
      </g>
     </g>
    </g>
    <g id="ytick_4">
     <g id="line2d_12">
      <g>
       <use style="stroke:#000000;stroke-width:0.8;" x="0" xlink:href="#m00afbdb950" y="255.89688"/>
      </g>
     </g>
     <g id="text_13">
      <!-- 15 -->
      <g transform="translate(-19.725 259.696099)scale(0.1 -0.1)">
       <use xlink:href="#DejaVuSans-49"/>
       <use x="63.623047" xlink:href="#DejaVuSans-53"/>
      </g>
     </g>
    </g>
    <g id="ytick_5">
     <g id="line2d_13">
      <g>
       <use style="stroke:#000000;stroke-width:0.8;" x="0" xlink:href="#m00afbdb950" y="133.906278"/>
      </g>
     </g>
     <g id="text_14">
      <!-- 20 -->
      <g transform="translate(-19.725 137.705497)scale(0.1 -0.1)">
       <use xlink:href="#DejaVuSans-50"/>
       <use x="63.623047" xlink:href="#DejaVuSans-48"/>
      </g>
     </g>
    </g>
    <g id="ytick_6">
     <g id="line2d_14">
      <g>
       <use style="stroke:#000000;stroke-width:0.8;" x="0" xlink:href="#m00afbdb950" y="11.915676"/>
      </g>
     </g>
     <g id="text_15">
      <!-- 25 -->
      <g transform="translate(-19.725 15.714895)scale(0.1 -0.1)">
       <use xlink:href="#DejaVuSans-50"/>
       <use x="63.623047" xlink:href="#DejaVuSans-53"/>
      </g>
     </g>
    </g>
    <g id="text_16">
     <!-- Profit (in $10,000s) -->
     <g transform="translate(-25.804688 407.957812)rotate(-90)scale(0.1 -0.1)">
      <defs>
       <path d="M 41.109375 46.296875 
Q 39.59375 47.171875 37.8125 47.578125 
Q 36.03125 48 33.890625 48 
Q 26.265625 48 22.1875 43.046875 
Q 18.109375 38.09375 18.109375 28.8125 
L 18.109375 0 
L 9.078125 0 
L 9.078125 54.6875 
L 18.109375 54.6875 
L 18.109375 46.1875 
Q 20.953125 51.171875 25.484375 53.578125 
Q 30.03125 56 36.53125 56 
Q 37.453125 56 38.578125 55.875 
Q 39.703125 55.765625 41.0625 55.515625 
z
" id="DejaVuSans-114"/>
       <path d="M 33.796875 -14.703125 
L 28.90625 -14.703125 
L 28.859375 0 
Q 23.734375 0.09375 18.609375 1.1875 
Q 13.484375 2.296875 8.296875 4.5 
L 8.296875 13.28125 
Q 13.28125 10.15625 18.375 8.5625 
Q 23.484375 6.984375 28.90625 6.9375 
L 28.90625 29.203125 
Q 18.109375 30.953125 13.203125 35.15625 
Q 8.296875 39.359375 8.296875 46.6875 
Q 8.296875 54.640625 13.625 59.21875 
Q 18.953125 63.8125 28.90625 64.5 
L 28.90625 75.984375 
L 33.796875 75.984375 
L 33.796875 64.65625 
Q 38.328125 64.453125 42.578125 63.6875 
Q 46.828125 62.9375 50.875 61.625 
L 50.875 53.078125 
Q 46.828125 55.125 42.546875 56.25 
Q 38.28125 57.375 33.796875 57.5625 
L 33.796875 36.71875 
Q 44.875 35.015625 50.09375 30.609375 
Q 55.328125 26.21875 55.328125 18.609375 
Q 55.328125 10.359375 49.78125 5.59375 
Q 44.234375 0.828125 33.796875 0.09375 
z
M 28.90625 37.59375 
L 28.90625 57.625 
Q 23.25 56.984375 20.265625 54.390625 
Q 17.28125 51.8125 17.28125 47.515625 
Q 17.28125 43.3125 20.03125 40.96875 
Q 22.796875 38.625 28.90625 37.59375 
z
M 33.796875 28.21875 
L 33.796875 7.078125 
Q 39.984375 7.90625 43.140625 10.59375 
Q 46.296875 13.28125 46.296875 17.671875 
Q 46.296875 21.96875 43.28125 24.5 
Q 40.28125 27.046875 33.796875 28.21875 
z
" id="DejaVuSans-36"/>
      </defs>
      <use xlink:href="#DejaVuSans-80"/>
      <use x="58.552734" xlink:href="#DejaVuSans-114"/>
      <use x="97.416016" xlink:href="#DejaVuSans-111"/>
      <use x="158.597656" xlink:href="#DejaVuSans-102"/>
      <use x="193.802734" xlink:href="#DejaVuSans-105"/>
      <use x="221.585938" xlink:href="#DejaVuSans-116"/>
      <use x="260.794922" xlink:href="#DejaVuSans-32"/>
      <use x="292.582031" xlink:href="#DejaVuSans-40"/>
      <use x="331.595703" xlink:href="#DejaVuSans-105"/>
      <use x="359.378906" xlink:href="#DejaVuSans-110"/>
      <use x="422.757812" xlink:href="#DejaVuSans-32"/>
      <use x="454.544922" xlink:href="#DejaVuSans-36"/>
      <use x="518.167969" xlink:href="#DejaVuSans-49"/>
      <use x="581.791016" xlink:href="#DejaVuSans-48"/>
      <use x="645.414062" xlink:href="#DejaVuSans-44"/>
      <use x="677.201172" xlink:href="#DejaVuSans-48"/>
      <use x="740.824219" xlink:href="#DejaVuSans-48"/>
      <use x="804.447266" xlink:href="#DejaVuSans-48"/>
      <use x="868.070312" xlink:href="#DejaVuSans-115"/>
      <use x="920.169922" xlink:href="#DejaVuSans-41"/>
     </g>
    </g>
   </g>
   <g id="patch_3">
    <path d="M 0 720 
L 0 0 
" style="fill:none;stroke:#000000;stroke-linecap:square;stroke-linejoin:miter;stroke-width:0.8;"/>
   </g>
   <g id="patch_4">
    <path d="M 720 720 
L 720 0 
" style="fill:none;stroke:#000000;stroke-linecap:square;stroke-linejoin:miter;stroke-width:0.8;"/>
   </g>
   <g id="patch_5">
    <path d="M 0 720 
L 720 720 
" style="fill:none;stroke:#000000;stroke-linecap:square;stroke-linejoin:miter;stroke-width:0.8;"/>
   </g>
   <g id="patch_6">
    <path d="M 0 0 
L 720 0 
" style="fill:none;stroke:#000000;stroke-linecap:square;stroke-linejoin:miter;stroke-width:0.8;"/>
   </g>
  </g>
 </g>
 <defs>
  <clipPath id="pf656e39986">
   <rect height="720" width="720" x="0" y="0"/>
  </clipPath>
 </defs>
</svg>
