<?xml version="1.0" encoding="utf-8" standalone="no"?>
<!DOCTYPE svg PUBLIC "-//W3C//DTD SVG 1.1//EN"
  "http://www.w3.org/Graphics/SVG/1.1/DTD/svg11.dtd">
<!-- Created with matplotlib (https://matplotlib.org/) -->
<svg height="720pt" version="1.1" viewBox="0 0 720 720" width="720pt" xmlns="http://www.w3.org/2000/svg" xmlns:xlink="http://www.w3.org/1999/xlink">
 <metadata>
  <rdf:RDF xmlns:cc="http://creativecommons.org/ns#" xmlns:dc="http://purl.org/dc/elements/1.1/" xmlns:rdf="http://www.w3.org/1999/02/22-rdf-syntax-ns#">
   <cc:Work>
    <dc:type rdf:resource="http://purl.org/dc/dcmitype/StillImage"/>
    <dc:date>2020-12-25T18:29:02.344277</dc:date>
    <dc:format>image/svg+xml</dc:format>
    <dc:creator>
     <cc:Agent>
      <dc:title>Matplotlib v3.3.2, https://matplotlib.org/</dc:title>
     </cc:Agent>
    </dc:creator>
   </cc:Work>
  </rdf:RDF>
 </metadata>
 <defs>
  <style type="text/css">*{stroke-linecap:butt;stroke-linejoin:round;}</style>
 </defs>
 <g id="figure_1">
  <g id="patch_1">
   <path d="M 0 720 
L 720 720 
L 720 0 
L 0 0 
z
" style="fill:none;"/>
  </g>
  <g id="axes_1">
   <g id="patch_2">
    <path d="M 90 630 
L 648 630 
L 648 86.4 
L 90 86.4 
z
" style="fill:#ffffff;"/>
   </g>
   <g id="PathCollection_1">
    <path clip-path="url(#p0089ee016c)" d="M 147.354474 245.119482 
C 150.871991 245.119482 154.245913 243.721958 156.733173 241.234698 
C 159.220433 238.747438 160.617957 235.373516 160.617957 231.855999 
C 160.617957 228.338482 159.220433 224.96456 156.733173 222.477299 
C 154.245913 219.990039 150.871991 218.592515 147.354474 218.592515 
C 143.836957 218.592515 140.463034 219.990039 137.975774 222.477299 
C 135.488514 224.96456 134.09099 228.338482 134.09099 231.855999 
C 134.09099 235.373516 135.488514 238.747438 137.975774 241.234698 
C 140.463034 243.721958 143.836957 245.119482 147.354474 245.119482 
z
" style="fill:#33638d;fill-opacity:0.6;stroke:#33638d;stroke-opacity:0.6;"/>
    <path clip-path="url(#p0089ee016c)" d="M 130.154082 397.282478 
C 132.688153 397.282478 135.118776 396.275681 136.910635 394.483823 
C 138.702494 392.691964 139.709291 390.261341 139.709291 387.72727 
C 139.709291 385.193199 138.702494 382.762576 136.910635 380.970718 
C 135.118776 379.178859 132.688153 378.172062 130.154082 378.172062 
C 127.620012 378.172062 125.189389 379.178859 123.39753 380.970718 
C 121.605671 382.762576 120.598874 385.193199 120.598874 387.72727 
C 120.598874 390.261341 121.605671 392.691964 123.39753 394.483823 
C 125.189389 396.275681 127.620012 397.282478 130.154082 397.282478 
z
" style="fill:#20a486;fill-opacity:0.6;stroke:#20a486;stroke-opacity:0.6;"/>
    <path clip-path="url(#p0089ee016c)" d="M 218.486242 315.937337 
C 221.586056 315.937337 224.559328 314.705768 226.751228 312.513868 
C 228.943128 310.321968 230.174698 307.348696 230.174698 304.248882 
C 230.174698 301.149067 228.943128 298.175795 226.751228 295.983895 
C 224.559328 293.791995 221.586056 292.560426 218.486242 292.560426 
C 215.386427 292.560426 212.413155 293.791995 210.221255 295.983895 
C 208.029355 298.175795 206.797786 301.149067 206.797786 304.248882 
C 206.797786 307.348696 208.029355 310.321968 210.221255 312.513868 
C 212.413155 314.705768 215.386427 315.937337 218.486242 315.937337 
z
" style="fill:#95d840;fill-opacity:0.6;stroke:#95d840;stroke-opacity:0.6;"/>
    <path clip-path="url(#p0089ee016c)" d="M 173.730966 348.4409 
C 176.618393 348.4409 179.387948 347.293713 181.429667 345.251993 
C 183.471387 343.210274 184.618574 340.440719 184.618574 337.553292 
C 184.618574 334.665865 183.471387 331.89631 181.429667 329.854591 
C 179.387948 327.812871 176.618393 326.665684 173.730966 326.665684 
C 170.843539 326.665684 168.073984 327.812871 166.032265 329.854591 
C 163.990545 331.89631 162.843358 334.665865 162.843358 337.553292 
C 162.843358 340.440719 163.990545 343.210274 166.032265 345.251993 
C 168.073984 347.293713 170.843539 348.4409 173.730966 348.4409 
z
" style="fill:#58c765;fill-opacity:0.6;stroke:#58c765;stroke-opacity:0.6;"/>
    <path clip-path="url(#p0089ee016c)" d="M 139.962204 438.482035 
C 142.152868 438.482035 144.254103 437.611675 145.803137 436.062641 
C 147.352171 434.513608 148.222531 432.412373 148.222531 430.221708 
C 148.222531 428.031044 147.352171 425.929809 145.803137 424.380775 
C 144.254103 422.831742 142.152868 421.961381 139.962204 421.961381 
C 137.77154 421.961381 135.670304 422.831742 134.121271 424.380775 
C 132.572237 425.929809 131.701877 428.031044 131.701877 430.221708 
C 131.701877 432.412373 132.572237 434.513608 134.121271 436.062641 
C 135.670304 437.611675 137.77154 438.482035 139.962204 438.482035 
z
" style="fill:#453781;fill-opacity:0.6;stroke:#453781;stroke-opacity:0.6;"/>
    <path clip-path="url(#p0089ee016c)" d="M 214.478527 347.866127 
C 217.369849 347.866127 220.143139 346.717392 222.187613 344.672919 
C 224.232086 342.628445 225.38082 339.855155 225.38082 336.963833 
C 225.38082 334.072511 224.232086 331.299221 222.187613 329.254748 
C 220.143139 327.210274 217.369849 326.06154 214.478527 326.06154 
C 211.587205 326.06154 208.813915 327.210274 206.769441 329.254748 
C 204.724968 331.299221 203.576234 334.072511 203.576234 336.963833 
C 203.576234 339.855155 204.724968 342.628445 206.769441 344.672919 
C 208.813915 346.717392 211.587205 347.866127 214.478527 347.866127 
z
" style="fill:#375a8c;fill-opacity:0.6;stroke:#375a8c;stroke-opacity:0.6;"/>
    <path clip-path="url(#p0089ee016c)" d="M 187.706284 482.40681 
C 189.455076 482.40681 191.132479 481.712007 192.369062 480.475424 
C 193.605645 479.238841 194.300448 477.561439 194.300448 475.812646 
C 194.300448 474.063853 193.605645 472.386451 192.369062 471.149868 
C 191.132479 469.913285 189.455076 469.218482 187.706284 469.218482 
C 185.957491 469.218482 184.280089 469.913285 183.043506 471.149868 
C 181.806922 472.386451 181.11212 474.063853 181.11212 475.812646 
C 181.11212 477.561439 181.806922 479.238841 183.043506 480.475424 
C 184.280089 481.712007 185.957491 482.40681 187.706284 482.40681 
z
" style="fill:#3d4e8a;fill-opacity:0.6;stroke:#3d4e8a;stroke-opacity:0.6;"/>
    <path clip-path="url(#p0089ee016c)" d="M 220.243493 345.818338 
C 223.148648 345.818338 225.935206 344.664108 227.98946 342.609854 
C 230.043714 340.555599 231.197944 337.769041 231.197944 334.863887 
C 231.197944 331.958733 230.043714 329.172175 227.98946 327.11792 
C 225.935206 325.063666 223.148648 323.909436 220.243493 323.909436 
C 217.338339 323.909436 214.551781 325.063666 212.497527 327.11792 
C 210.443272 329.172175 209.289042 331.958733 209.289042 334.863887 
C 209.289042 337.769041 210.443272 340.555599 212.497527 342.609854 
C 214.551781 344.664108 217.338339 345.818338 220.243493 345.818338 
z
" style="fill:#2c728e;fill-opacity:0.6;stroke:#2c728e;stroke-opacity:0.6;"/>
    <path clip-path="url(#p0089ee016c)" d="M 158.462075 442.482209 
C 160.616383 442.482209 162.682746 441.626293 164.206072 440.102968 
C 165.729398 438.579642 166.585313 436.513279 166.585313 434.358971 
C 166.585313 432.204663 165.729398 430.1383 164.206072 428.614974 
C 162.682746 427.091648 160.616383 426.235732 158.462075 426.235732 
C 156.307767 426.235732 154.241404 427.091648 152.718078 428.614974 
C 151.194752 430.1383 150.338837 432.204663 150.338837 434.358971 
C 150.338837 436.513279 151.194752 438.579642 152.718078 440.102968 
C 154.241404 441.626293 156.307767 442.482209 158.462075 442.482209 
z
" style="fill:#1fa088;fill-opacity:0.6;stroke:#1fa088;stroke-opacity:0.6;"/>
    <path clip-path="url(#p0089ee016c)" d="M 116.181718 491.784733 
C 117.820107 491.784733 119.391612 491.133794 120.550127 489.975278 
C 121.708643 488.816762 122.359582 487.245257 122.359582 485.606869 
C 122.359582 483.96848 121.708643 482.396975 120.550127 481.238459 
C 119.391612 480.079944 117.820107 479.429005 116.181718 479.429005 
C 114.54333 479.429005 112.971825 480.079944 111.813309 481.238459 
C 110.654793 482.396975 110.003854 483.96848 110.003854 485.606869 
C 110.003854 487.245257 110.654793 488.816762 111.813309 489.975278 
C 112.971825 491.133794 114.54333 491.784733 116.181718 491.784733 
z
" style="fill:#7fd34e;fill-opacity:0.6;stroke:#7fd34e;stroke-opacity:0.6;"/>
    <path clip-path="url(#p0089ee016c)" d="M 135.558738 501.706251 
C 137.07114 501.706251 138.521802 501.105367 139.591231 500.035938 
C 140.660661 498.966508 141.261545 497.515847 141.261545 496.003445 
C 141.261545 494.491043 140.660661 493.040381 139.591231 491.970952 
C 138.521802 490.901522 137.07114 490.300638 135.558738 490.300638 
C 134.046336 490.300638 132.595675 490.901522 131.526245 491.970952 
C 130.456816 493.040381 129.855932 494.491043 129.855932 496.003445 
C 129.855932 497.515847 130.456816 498.966508 131.526245 500.035938 
C 132.595675 501.105367 134.046336 501.706251 135.558738 501.706251 
z
" style="fill:#6ece58;fill-opacity:0.6;stroke:#6ece58;stroke-opacity:0.6;"/>
    <path clip-path="url(#p0089ee016c)" d="M 385.215444 282.751659 
C 388.517729 282.751659 391.685205 281.439647 394.020272 279.104579 
C 396.35534 276.769512 397.667352 273.602036 397.667352 270.299751 
C 397.667352 266.997467 396.35534 263.829991 394.020272 261.494923 
C 391.685205 259.159855 388.517729 257.847844 385.215444 257.847844 
C 381.91316 257.847844 378.745684 259.159855 376.410616 261.494923 
C 374.075548 263.829991 372.763537 266.997467 372.763537 270.299751 
C 372.763537 273.602036 374.075548 276.769512 376.410616 279.104579 
C 378.745684 281.439647 381.91316 282.751659 385.215444 282.751659 
z
" style="fill:#1f988b;fill-opacity:0.6;stroke:#1f988b;stroke-opacity:0.6;"/>
    <path clip-path="url(#p0089ee016c)" d="M 136.246872 503.409111 
C 137.736525 503.409111 139.165367 502.817265 140.21871 501.763921 
C 141.272054 500.710578 141.8639 499.281736 141.8639 497.792083 
C 141.8639 496.30243 141.272054 494.873589 140.21871 493.820245 
C 139.165367 492.766901 137.736525 492.175055 136.246872 492.175055 
C 134.757219 492.175055 133.328378 492.766901 132.275034 493.820245 
C 131.22169 494.873589 130.629844 496.30243 130.629844 497.792083 
C 130.629844 499.281736 131.22169 500.710578 132.275034 501.763921 
C 133.328378 502.817265 134.757219 503.409111 136.246872 503.409111 
z
" style="fill:#fde725;fill-opacity:0.6;stroke:#fde725;stroke-opacity:0.6;"/>
    <path clip-path="url(#p0089ee016c)" d="M 215.231635 431.307895 
C 217.485986 431.307895 219.648308 430.412232 221.242375 428.818165 
C 222.836442 427.224098 223.732105 425.061776 223.732105 422.807424 
C 223.732105 420.553073 222.836442 418.390751 221.242375 416.796684 
C 219.648308 415.202617 217.485986 414.306954 215.231635 414.306954 
C 212.977284 414.306954 210.814961 415.202617 209.220894 416.796684 
C 207.626827 418.390751 206.731164 420.553073 206.731164 422.807424 
C 206.731164 425.061776 207.626827 427.224098 209.220894 428.818165 
C 210.814961 430.412232 212.977284 431.307895 215.231635 431.307895 
z
" style="fill:#482374;fill-opacity:0.6;stroke:#482374;stroke-opacity:0.6;"/>
    <path clip-path="url(#p0089ee016c)" d="M 133.491384 545.39456 
C 134.201108 545.39456 134.881859 545.112584 135.38371 544.610733 
C 135.885561 544.108882 136.167538 543.428131 136.167538 542.718406 
C 136.167538 542.008682 135.885561 541.327931 135.38371 540.82608 
C 134.881859 540.324229 134.201108 540.042252 133.491384 540.042252 
C 132.781659 540.042252 132.100908 540.324229 131.599057 540.82608 
C 131.097206 541.327931 130.81523 542.008682 130.81523 542.718406 
C 130.81523 543.428131 131.097206 544.108882 131.599057 544.610733 
C 132.100908 545.112584 132.781659 545.39456 133.491384 545.39456 
z
" style="fill:#77d153;fill-opacity:0.6;stroke:#77d153;stroke-opacity:0.6;"/>
    <path clip-path="url(#p0089ee016c)" d="M 125.774244 497.128171 
C 127.346095 497.128171 128.853779 496.503668 129.965246 495.392202 
C 131.076713 494.280735 131.701216 492.773051 131.701216 491.201199 
C 131.701216 489.629348 131.076713 488.121664 129.965246 487.010197 
C 128.853779 485.89873 127.346095 485.274227 125.774244 485.274227 
C 124.202393 485.274227 122.694708 485.89873 121.583242 487.010197 
C 120.471775 488.121664 119.847272 489.629348 119.847272 491.201199 
C 119.847272 492.773051 120.471775 494.280735 121.583242 495.392202 
C 122.694708 496.503668 124.202393 497.128171 125.774244 497.128171 
z
" style="fill:#481b6d;fill-opacity:0.6;stroke:#481b6d;stroke-opacity:0.6;"/>
    <path clip-path="url(#p0089ee016c)" d="M 154.894411 465.476766 
C 156.825993 465.476766 158.678722 464.709341 160.044557 463.343506 
C 161.410392 461.977671 162.177817 460.124942 162.177817 458.19336 
C 162.177817 456.261779 161.410392 454.409049 160.044557 453.043215 
C 158.678722 451.67738 156.825993 450.909955 154.894411 450.909955 
C 152.96283 450.909955 151.1101 451.67738 149.744266 453.043215 
C 148.378431 454.409049 147.611006 456.261779 147.611006 458.19336 
C 147.611006 460.124942 148.378431 461.977671 149.744266 463.343506 
C 151.1101 464.709341 152.96283 465.476766 154.894411 465.476766 
z
" style="fill:#277e8e;fill-opacity:0.6;stroke:#277e8e;stroke-opacity:0.6;"/>
    <path clip-path="url(#p0089ee016c)" d="M 118.411508 547.949207 
C 119.039524 547.949207 119.641903 547.699693 120.085978 547.255619 
C 120.530053 546.811544 120.779566 546.209165 120.779566 545.581149 
C 120.779566 544.953132 120.530053 544.350753 120.085978 543.906679 
C 119.641903 543.462604 119.039524 543.21309 118.411508 543.21309 
C 117.783491 543.21309 117.181112 543.462604 116.737038 543.906679 
C 116.292963 544.350753 116.04345 544.953132 116.04345 545.581149 
C 116.04345 546.209165 116.292963 546.811544 116.737038 547.255619 
C 117.181112 547.699693 117.783491 547.949207 118.411508 547.949207 
z
" style="fill:#eae51a;fill-opacity:0.6;stroke:#eae51a;stroke-opacity:0.6;"/>
    <path clip-path="url(#p0089ee016c)" d="M 156.790471 494.685593 
C 158.393097 494.685593 159.930299 494.048863 161.063526 492.915636 
C 162.196754 491.782408 162.833484 490.245206 162.833484 488.642581 
C 162.833484 487.039955 162.196754 485.502753 161.063526 484.369525 
C 159.930299 483.236298 158.393097 482.599568 156.790471 482.599568 
C 155.187845 482.599568 153.650643 483.236298 152.517416 484.369525 
C 151.384188 485.502753 150.747459 487.039955 150.747459 488.642581 
C 150.747459 490.245206 151.384188 491.782408 152.517416 492.915636 
C 153.650643 494.048863 155.187845 494.685593 156.790471 494.685593 
z
" style="fill:#29af7f;fill-opacity:0.6;stroke:#29af7f;stroke-opacity:0.6;"/>
    <path clip-path="url(#p0089ee016c)" d="M 175.72744 463.978006 
C 177.674345 463.978006 179.541772 463.204493 180.918442 461.827823 
C 182.295112 460.451153 183.068625 458.583726 183.068625 456.636821 
C 183.068625 454.689916 182.295112 452.822489 180.918442 451.445819 
C 179.541772 450.06915 177.674345 449.295636 175.72744 449.295636 
C 173.780535 449.295636 171.913108 450.06915 170.536438 451.445819 
C 169.159768 452.822489 168.386255 454.689916 168.386255 456.636821 
C 168.386255 458.583726 169.159768 460.451153 170.536438 461.827823 
C 171.913108 463.204493 173.780535 463.978006 175.72744 463.978006 
z
" style="fill:#287c8e;fill-opacity:0.6;stroke:#287c8e;stroke-opacity:0.6;"/>
    <path clip-path="url(#p0089ee016c)" d="M 149.687631 503.698344 
C 151.173384 503.698344 152.598484 503.108048 153.64907 502.057462 
C 154.699656 501.006876 155.289952 499.581776 155.289952 498.096023 
C 155.289952 496.61027 154.699656 495.185169 153.64907 494.134584 
C 152.598484 493.083998 151.173384 492.493702 149.687631 492.493702 
C 148.201878 492.493702 146.776778 493.083998 145.726192 494.134584 
C 144.675606 495.185169 144.08531 496.61027 144.08531 498.096023 
C 144.08531 499.581776 144.675606 501.006876 145.726192 502.057462 
C 146.776778 503.108048 148.201878 503.698344 149.687631 503.698344 
z
" style="fill:#481467;fill-opacity:0.6;stroke:#481467;stroke-opacity:0.6;"/>
    <path clip-path="url(#p0089ee016c)" d="M 565.547841 169.703717 
C 569.460553 169.703717 573.213537 168.14918 575.980242 165.382475 
C 578.746947 162.61577 580.301484 158.862785 580.301484 154.950073 
C 580.301484 151.037361 578.746947 147.284377 575.980242 144.517672 
C 573.213537 141.750967 569.460553 140.19643 565.547841 140.19643 
C 561.635129 140.19643 557.882144 141.750967 555.115439 144.517672 
C 552.348734 147.284377 550.794197 151.037361 550.794197 154.950073 
C 550.794197 158.862785 552.348734 162.61577 555.115439 165.382475 
C 557.882144 168.14918 561.635129 169.703717 565.547841 169.703717 
z
" style="fill:#8bd646;fill-opacity:0.6;stroke:#8bd646;stroke-opacity:0.6;"/>
    <path clip-path="url(#p0089ee016c)" d="M 129.043618 483.913087 
C 130.775173 483.913087 132.436041 483.225133 133.660435 482.000739 
C 134.884829 480.776344 135.572783 479.115476 135.572783 477.383922 
C 135.572783 475.652367 134.884829 473.991499 133.660435 472.767104 
C 132.436041 471.54271 130.775173 470.854756 129.043618 470.854756 
C 127.312063 470.854756 125.651195 471.54271 124.426801 472.767104 
C 123.202406 473.991499 122.514452 475.652367 122.514452 477.383922 
C 122.514452 479.115476 123.202406 480.776344 124.426801 482.000739 
C 125.651195 483.225133 127.312063 483.913087 129.043618 483.913087 
z
" style="fill:#5ac864;fill-opacity:0.6;stroke:#5ac864;stroke-opacity:0.6;"/>
    <path clip-path="url(#p0089ee016c)" d="M 153.733739 467.556525 
C 155.643846 467.556525 157.475977 466.797631 158.826627 465.446982 
C 160.177276 464.096332 160.93617 462.264201 160.93617 460.354094 
C 160.93617 458.443988 160.177276 456.611857 158.826627 455.261207 
C 157.475977 453.910558 155.643846 453.151664 153.733739 453.151664 
C 151.823633 453.151664 149.991502 453.910558 148.640852 455.261207 
C 147.290203 456.611857 146.531309 458.443988 146.531309 460.354094 
C 146.531309 462.264201 147.290203 464.096332 148.640852 465.446982 
C 149.991502 466.797631 151.823633 467.556525 153.733739 467.556525 
z
" style="fill:#5ec962;fill-opacity:0.6;stroke:#5ec962;stroke-opacity:0.6;"/>
    <path clip-path="url(#p0089ee016c)" d="M 131.252734 504.681444 
C 132.725149 504.681444 134.137455 504.096447 135.17861 503.055293 
C 136.219764 502.014139 136.804761 500.601832 136.804761 499.129417 
C 136.804761 497.657003 136.219764 496.244696 135.17861 495.203542 
C 134.137455 494.162387 132.725149 493.577391 131.252734 493.577391 
C 129.780319 493.577391 128.368013 494.162387 127.326858 495.203542 
C 126.285704 496.244696 125.700707 497.657003 125.700707 499.129417 
C 125.700707 500.601832 126.285704 502.014139 127.326858 503.055293 
C 128.368013 504.096447 129.780319 504.681444 131.252734 504.681444 
z
" style="fill:#20928c;fill-opacity:0.6;stroke:#20928c;stroke-opacity:0.6;"/>
    <path clip-path="url(#p0089ee016c)" d="M 526.41577 153.951677 
C 530.405997 153.951677 534.233332 152.366343 537.054848 149.544826 
C 539.876365 146.72331 541.461699 142.895975 541.461699 138.905747 
C 541.461699 134.91552 539.876365 131.088185 537.054848 128.266669 
C 534.233332 125.445152 530.405997 123.859818 526.41577 123.859818 
C 522.425542 123.859818 518.598207 125.445152 515.776691 128.266669 
C 512.955174 131.088185 511.36984 134.91552 511.36984 138.905747 
C 511.36984 142.895975 512.955174 146.72331 515.776691 149.544826 
C 518.598207 152.366343 522.425542 153.951677 526.41577 153.951677 
z
" style="fill:#48186a;fill-opacity:0.6;stroke:#48186a;stroke-opacity:0.6;"/>
    <path clip-path="url(#p0089ee016c)" d="M 345.758503 318.833976 
C 348.839999 318.833976 351.795699 317.609684 353.974646 315.430738 
C 356.153592 313.251791 357.377884 310.296091 357.377884 307.214595 
C 357.377884 304.133099 356.153592 301.177399 353.974646 298.998453 
C 351.795699 296.819506 348.839999 295.595215 345.758503 295.595215 
C 342.677008 295.595215 339.721307 296.819506 337.542361 298.998453 
C 335.363414 301.177399 334.139123 304.133099 334.139123 307.214595 
C 334.139123 310.296091 335.363414 313.251791 337.542361 315.430738 
C 339.721307 317.609684 342.677008 318.833976 345.758503 318.833976 
z
" style="fill:#482475;fill-opacity:0.6;stroke:#482475;stroke-opacity:0.6;"/>
    <path clip-path="url(#p0089ee016c)" d="M 290.501066 434.501013 
C 292.727303 434.501013 294.862659 433.616519 296.436847 432.042332 
C 298.011035 430.468144 298.895528 428.332788 298.895528 426.10655 
C 298.895528 423.880313 298.011035 421.744957 296.436847 420.170769 
C 294.862659 418.596582 292.727303 417.712088 290.501066 417.712088 
C 288.274828 417.712088 286.139472 418.596582 284.565284 420.170769 
C 282.991097 421.744957 282.106603 423.880313 282.106603 426.10655 
C 282.106603 428.332788 282.991097 430.468144 284.565284 432.042332 
C 286.139472 433.616519 288.274828 434.501013 290.501066 434.501013 
z
" style="fill:#6ccd5a;fill-opacity:0.6;stroke:#6ccd5a;stroke-opacity:0.6;"/>
    <path clip-path="url(#p0089ee016c)" d="M 356.036209 297.396739 
C 359.250751 297.396739 362.334066 296.119588 364.60709 293.846564 
C 366.880115 291.57354 368.157265 288.490225 368.157265 285.275683 
C 368.157265 282.061142 366.880115 278.977827 364.60709 276.704802 
C 362.334066 274.431778 359.250751 273.154627 356.036209 273.154627 
C 352.821668 273.154627 349.738353 274.431778 347.465328 276.704802 
C 345.192304 278.977827 343.915153 282.061142 343.915153 285.275683 
C 343.915153 288.490225 345.192304 291.57354 347.465328 293.846564 
C 349.738353 296.119588 352.821668 297.396739 356.036209 297.396739 
z
" style="fill:#481f70;fill-opacity:0.6;stroke:#481f70;stroke-opacity:0.6;"/>
    <path clip-path="url(#p0089ee016c)" d="M 622.636364 126.648396 
C 626.757435 126.648396 630.710274 125.011077 633.624312 122.097039 
C 636.538349 119.183001 638.175669 115.230163 638.175669 111.109091 
C 638.175669 106.988019 636.538349 103.035181 633.624312 100.121143 
C 630.710274 97.207105 626.757435 95.569786 622.636364 95.569786 
C 618.515292 95.569786 614.562454 97.207105 611.648416 100.121143 
C 608.734378 103.035181 607.097059 106.988019 607.097059 111.109091 
C 607.097059 115.230163 608.734378 119.183001 611.648416 122.097039 
C 614.562454 125.011077 618.515292 126.648396 622.636364 126.648396 
z
" style="fill:#460b5e;fill-opacity:0.6;stroke:#460b5e;stroke-opacity:0.6;"/>
    <path clip-path="url(#p0089ee016c)" d="M 122.023472 581.876816 
C 122.949786 581.876816 123.838286 581.508788 124.49329 580.853784 
C 125.148293 580.198781 125.516322 579.310281 125.516322 578.383967 
C 125.516322 577.457652 125.148293 576.569152 124.49329 575.914149 
C 123.838286 575.259145 122.949786 574.891117 122.023472 574.891117 
C 121.097157 574.891117 120.208657 575.259145 119.553654 575.914149 
C 118.898651 576.569152 118.530622 577.457652 118.530622 578.383967 
C 118.530622 579.310281 118.898651 580.198781 119.553654 580.853784 
C 120.208657 581.508788 121.097157 581.876816 122.023472 581.876816 
z
" style="fill:#cde11d;fill-opacity:0.6;stroke:#cde11d;stroke-opacity:0.6;"/>
    <path clip-path="url(#p0089ee016c)" d="M 161.509946 453.193774 
C 163.563619 453.193774 165.533454 452.377842 166.98562 450.925676 
C 168.437785 449.47351 169.253718 447.503675 169.253718 445.450002 
C 169.253718 443.39633 168.437785 441.426495 166.98562 439.974329 
C 165.533454 438.522163 163.563619 437.706231 161.509946 437.706231 
C 159.456274 437.706231 157.486439 438.522163 156.034273 439.974329 
C 154.582107 441.426495 153.766175 443.39633 153.766175 445.450002 
C 153.766175 447.503675 154.582107 449.47351 156.034273 450.925676 
C 157.486439 452.377842 159.456274 453.193774 161.509946 453.193774 
z
" style="fill:#306a8e;fill-opacity:0.6;stroke:#306a8e;stroke-opacity:0.6;"/>
    <path clip-path="url(#p0089ee016c)" d="M 240.033984 343.410973 
C 242.955314 343.410973 245.757387 342.250316 247.823079 340.184624 
C 249.888771 338.118932 251.049428 335.316859 251.049428 332.395529 
C 251.049428 329.474199 249.888771 326.672126 247.823079 324.606434 
C 245.757387 322.540742 242.955314 321.380086 240.033984 321.380086 
C 237.112655 321.380086 234.310582 322.540742 232.244889 324.606434 
C 230.179197 326.672126 229.018541 329.474199 229.018541 332.395529 
C 229.018541 335.316859 230.179197 338.118932 232.244889 340.184624 
C 234.310582 342.250316 237.112655 343.410973 240.033984 343.410973 
z
" style="fill:#3c4f8a;fill-opacity:0.6;stroke:#3c4f8a;stroke-opacity:0.6;"/>
    <path clip-path="url(#p0089ee016c)" d="M 140.90728 526.142575 
C 142.047808 526.142575 143.141776 525.689438 143.94825 524.882964 
C 144.754725 524.076489 145.207862 522.982521 145.207862 521.841994 
C 145.207862 520.701466 144.754725 519.607498 143.94825 518.801023 
C 143.141776 517.994549 142.047808 517.541412 140.90728 517.541412 
C 139.766753 517.541412 138.672785 517.994549 137.86631 518.801023 
C 137.059835 519.607498 136.606699 520.701466 136.606699 521.841994 
C 136.606699 522.982521 137.059835 524.076489 137.86631 524.882964 
C 138.672785 525.689438 139.766753 526.142575 140.90728 526.142575 
z
" style="fill:#b2dd2d;fill-opacity:0.6;stroke:#b2dd2d;stroke-opacity:0.6;"/>
    <path clip-path="url(#p0089ee016c)" d="M 209.404648 443.480999 
C 211.549779 443.480999 213.607339 442.62873 215.124176 441.111893 
C 216.641012 439.595057 217.493282 437.537496 217.493282 435.392365 
C 217.493282 433.247234 216.641012 431.189674 215.124176 429.672837 
C 213.607339 428.156001 211.549779 427.303731 209.404648 427.303731 
C 207.259517 427.303731 205.201956 428.156001 203.68512 429.672837 
C 202.168283 431.189674 201.316014 433.247234 201.316014 435.392365 
C 201.316014 437.537496 202.168283 439.595057 203.68512 441.111893 
C 205.201956 442.62873 207.259517 443.480999 209.404648 443.480999 
z
" style="fill:#f6e620;fill-opacity:0.6;stroke:#f6e620;stroke-opacity:0.6;"/>
    <path clip-path="url(#p0089ee016c)" d="M 201.203157 478.625122 
C 202.994466 478.625122 204.712648 477.913427 205.979295 476.64678 
C 207.245942 475.380133 207.957636 473.661951 207.957636 471.870642 
C 207.957636 470.079333 207.245942 468.36115 205.979295 467.094503 
C 204.712648 465.827856 202.994466 465.116162 201.203157 465.116162 
C 199.411847 465.116162 197.693665 465.827856 196.427018 467.094503 
C 195.160371 468.36115 194.448677 470.079333 194.448677 471.870642 
C 194.448677 473.661951 195.160371 475.380133 196.427018 476.64678 
C 197.693665 477.913427 199.411847 478.625122 201.203157 478.625122 
z
" style="fill:#2cb17e;fill-opacity:0.6;stroke:#2cb17e;stroke-opacity:0.6;"/>
    <path clip-path="url(#p0089ee016c)" d="M 206.002373 486.500296 
C 207.703894 486.500296 209.335954 485.824275 210.539112 484.621118 
C 211.742269 483.41796 212.41829 481.7859 212.41829 480.084379 
C 212.41829 478.382857 211.742269 476.750797 210.539112 475.54764 
C 209.335954 474.344483 207.703894 473.668461 206.002373 473.668461 
C 204.300851 473.668461 202.668791 474.344483 201.465634 475.54764 
C 200.262477 476.750797 199.586455 478.382857 199.586455 480.084379 
C 199.586455 481.7859 200.262477 483.41796 201.465634 484.621118 
C 202.668791 485.824275 204.300851 486.500296 206.002373 486.500296 
z
" style="fill:#1f9f88;fill-opacity:0.6;stroke:#1f9f88;stroke-opacity:0.6;"/>
    <path clip-path="url(#p0089ee016c)" d="M 132.475426 499.238286 
C 134.020175 499.238286 135.501862 498.624551 136.594164 497.532249 
C 137.686466 496.439947 138.300201 494.958259 138.300201 493.413511 
C 138.300201 491.868763 137.686466 490.387075 136.594164 489.294773 
C 135.501862 488.202471 134.020175 487.588736 132.475426 487.588736 
C 130.930678 487.588736 129.448991 488.202471 128.356689 489.294773 
C 127.264387 490.387075 126.650652 491.868763 126.650652 493.413511 
C 126.650652 494.958259 127.264387 496.439947 128.356689 497.532249 
C 129.448991 498.624551 130.930678 499.238286 132.475426 499.238286 
z
" style="fill:#58c765;fill-opacity:0.6;stroke:#58c765;stroke-opacity:0.6;"/>
    <path clip-path="url(#p0089ee016c)" d="M 345.994772 379.608171 
C 348.662273 379.608171 351.220878 378.548362 353.107086 376.662154 
C 354.993293 374.775947 356.053102 372.217341 356.053102 369.549841 
C 356.053102 366.882341 354.993293 364.323735 353.107086 362.437528 
C 351.220878 360.55132 348.662273 359.491511 345.994772 359.491511 
C 343.327272 359.491511 340.768667 360.55132 338.882459 362.437528 
C 336.996252 364.323735 335.936442 366.882341 335.936442 369.549841 
C 335.936442 372.217341 336.996252 374.775947 338.882459 376.662154 
C 340.768667 378.548362 343.327272 379.608171 345.994772 379.608171 
z
" style="fill:#433d84;fill-opacity:0.6;stroke:#433d84;stroke-opacity:0.6;"/>
    <path clip-path="url(#p0089ee016c)" d="M 154.540008 462.060002 
C 156.506342 462.060002 158.392404 461.278769 159.782812 459.888361 
C 161.17322 458.497953 161.954453 456.61189 161.954453 454.645556 
C 161.954453 452.679223 161.17322 450.79316 159.782812 449.402752 
C 158.392404 448.012344 156.506342 447.231111 154.540008 447.231111 
C 152.573674 447.231111 150.687611 448.012344 149.297203 449.402752 
C 147.906795 450.79316 147.125562 452.679223 147.125562 454.645556 
C 147.125562 456.61189 147.906795 458.497953 149.297203 459.888361 
C 150.687611 461.278769 152.573674 462.060002 154.540008 462.060002 
z
" style="fill:#1f958b;fill-opacity:0.6;stroke:#1f958b;stroke-opacity:0.6;"/>
    <path clip-path="url(#p0089ee016c)" d="M 126.586419 548.017689 
C 127.212079 548.017689 127.812198 547.769111 128.254607 547.326703 
C 128.697015 546.884294 128.945593 546.284175 128.945593 545.658515 
C 128.945593 545.032855 128.697015 544.432736 128.254607 543.990328 
C 127.812198 543.547919 127.212079 543.299342 126.586419 543.299342 
C 125.960759 543.299342 125.36064 543.547919 124.918231 543.990328 
C 124.475823 544.432736 124.227245 545.032855 124.227245 545.658515 
C 124.227245 546.284175 124.475823 546.884294 124.918231 547.326703 
C 125.36064 547.769111 125.960759 548.017689 126.586419 548.017689 
z
" style="fill:#46075a;fill-opacity:0.6;stroke:#46075a;stroke-opacity:0.6;"/>
    <path clip-path="url(#p0089ee016c)" d="M 170.166256 490.112954 
C 171.824889 490.112954 173.415812 489.453972 174.588642 488.281142 
C 175.761473 487.108311 176.420454 485.517389 176.420454 483.858756 
C 176.420454 482.200123 175.761473 480.6092 174.588642 479.436369 
C 173.415812 478.263539 171.824889 477.604557 170.166256 477.604557 
C 168.507623 477.604557 166.9167 478.263539 165.74387 479.436369 
C 164.571039 480.6092 163.912057 482.200123 163.912057 483.858756 
C 163.912057 485.517389 164.571039 487.108311 165.74387 488.281142 
C 166.9167 489.453972 168.507623 490.112954 170.166256 490.112954 
z
" style="fill:#472a7a;fill-opacity:0.6;stroke:#472a7a;stroke-opacity:0.6;"/>
    <path clip-path="url(#p0089ee016c)" d="M 312.680828 464.04719 
C 314.627029 464.04719 316.49378 463.273956 317.869951 461.897785 
C 319.246123 460.521613 320.019357 458.654862 320.019357 456.708662 
C 320.019357 454.762461 319.246123 452.89571 317.869951 451.519538 
C 316.49378 450.143367 314.627029 449.370133 312.680828 449.370133 
C 310.734628 449.370133 308.867876 450.143367 307.491705 451.519538 
C 306.115533 452.89571 305.3423 454.762461 305.3423 456.708662 
C 305.3423 458.654862 306.115533 460.521613 307.491705 461.897785 
C 308.867876 463.273956 310.734628 464.04719 312.680828 464.04719 
z
" style="fill:#23a983;fill-opacity:0.6;stroke:#23a983;stroke-opacity:0.6;"/>
    <path clip-path="url(#p0089ee016c)" d="M 137.419358 515.893831 
C 138.729525 515.893831 139.986208 515.373296 140.912637 514.446867 
C 141.839065 513.520439 142.3596 512.263756 142.3596 510.953588 
C 142.3596 509.64342 141.839065 508.386737 140.912637 507.460309 
C 139.986208 506.53388 138.729525 506.013345 137.419358 506.013345 
C 136.10919 506.013345 134.852507 506.53388 133.926078 507.460309 
C 132.99965 508.386737 132.479115 509.64342 132.479115 510.953588 
C 132.479115 512.263756 132.99965 513.520439 133.926078 514.446867 
C 134.852507 515.373296 136.10919 515.893831 137.419358 515.893831 
z
" style="fill:#38598c;fill-opacity:0.6;stroke:#38598c;stroke-opacity:0.6;"/>
    <path clip-path="url(#p0089ee016c)" d="M 197.99285 440.111946 
C 200.168776 440.111946 202.255875 439.247441 203.794488 437.708829 
C 205.3331 436.170217 206.197605 434.083118 206.197605 431.907191 
C 206.197605 429.731265 205.3331 427.644166 203.794488 426.105554 
C 202.255875 424.566941 200.168776 423.702437 197.99285 423.702437 
C 195.816924 423.702437 193.729825 424.566941 192.191212 426.105554 
C 190.6526 427.644166 189.788095 429.731265 189.788095 431.907191 
C 189.788095 434.083118 190.6526 436.170217 192.191212 437.708829 
C 193.729825 439.247441 195.816924 440.111946 197.99285 440.111946 
z
" style="fill:#b2dd2d;fill-opacity:0.6;stroke:#b2dd2d;stroke-opacity:0.6;"/>
    <path clip-path="url(#p0089ee016c)" d="M 176.38604 539.87206 
C 177.243881 539.87206 178.066702 539.531236 178.673287 538.924651 
C 179.279872 538.318066 179.620696 537.495245 179.620696 536.637404 
C 179.620696 535.779563 179.279872 534.956742 178.673287 534.350157 
C 178.066702 533.743572 177.243881 533.402748 176.38604 533.402748 
C 175.528199 533.402748 174.705378 533.743572 174.098793 534.350157 
C 173.492208 534.956742 173.151384 535.779563 173.151384 536.637404 
C 173.151384 537.495245 173.492208 538.318066 174.098793 538.924651 
C 174.705378 539.531236 175.528199 539.87206 176.38604 539.87206 
z
" style="fill:#9bd93c;fill-opacity:0.6;stroke:#9bd93c;stroke-opacity:0.6;"/>
    <path clip-path="url(#p0089ee016c)" d="M 116.642443 468.510106 
C 118.542619 468.510106 120.365225 467.755158 121.708852 466.411531 
C 123.052479 465.067903 123.807427 463.245298 123.807427 461.345122 
C 123.807427 459.444946 123.052479 457.62234 121.708852 456.278713 
C 120.365225 454.935085 118.542619 454.180137 116.642443 454.180137 
C 114.742267 454.180137 112.919661 454.935085 111.576034 456.278713 
C 110.232407 457.62234 109.477459 459.444946 109.477459 461.345122 
C 109.477459 463.245298 110.232407 465.067903 111.576034 466.411531 
C 112.919661 467.755158 114.742267 468.510106 116.642443 468.510106 
z
" style="fill:#b2dd2d;fill-opacity:0.6;stroke:#b2dd2d;stroke-opacity:0.6;"/>
    <path clip-path="url(#p0089ee016c)" d="M 138.237439 526.237489 
C 139.37627 526.237489 140.46861 525.785027 141.273885 524.979752 
C 142.079159 524.174477 142.531621 523.082137 142.531621 521.943307 
C 142.531621 520.804476 142.079159 519.712136 141.273885 518.906861 
C 140.46861 518.101587 139.37627 517.649125 138.237439 517.649125 
C 137.098609 517.649125 136.006269 518.101587 135.200994 518.906861 
C 134.395719 519.712136 133.943257 520.804476 133.943257 521.943307 
C 133.943257 523.082137 134.395719 524.174477 135.200994 524.979752 
C 136.006269 525.785027 137.098609 526.237489 138.237439 526.237489 
z
" style="fill:#9dd93b;fill-opacity:0.6;stroke:#9dd93b;stroke-opacity:0.6;"/>
    <path clip-path="url(#p0089ee016c)" d="M 312.444559 417.413678 
C 314.817245 417.413678 317.093071 416.470999 318.770814 414.793257 
C 320.448556 413.115515 321.391234 410.839688 321.391234 408.467002 
C 321.391234 406.094316 320.448556 403.81849 318.770814 402.140747 
C 317.093071 400.463005 314.817245 399.520327 312.444559 399.520327 
C 310.071873 399.520327 307.796047 400.463005 306.118304 402.140747 
C 304.440562 403.81849 303.497884 406.094316 303.497884 408.467002 
C 303.497884 410.839688 304.440562 413.115515 306.118304 414.793257 
C 307.796047 416.470999 310.071873 417.413678 312.444559 417.413678 
z
" style="fill:#1f998a;fill-opacity:0.6;stroke:#1f998a;stroke-opacity:0.6;"/>
    <path clip-path="url(#p0089ee016c)" d="M 130.5646 540.351003 
C 131.410718 540.351003 132.222296 540.014837 132.820592 539.416541 
C 133.418888 538.818245 133.755055 538.006667 133.755055 537.160549 
C 133.755055 536.31443 133.418888 535.502853 132.820592 534.904557 
C 132.222296 534.30626 131.410718 533.970094 130.5646 533.970094 
C 129.718482 533.970094 128.906904 534.30626 128.308608 534.904557 
C 127.710312 535.502853 127.374146 536.31443 127.374146 537.160549 
C 127.374146 538.006667 127.710312 538.818245 128.308608 539.416541 
C 128.906904 540.014837 129.718482 540.351003 130.5646 540.351003 
z
" style="fill:#9dd93b;fill-opacity:0.6;stroke:#9dd93b;stroke-opacity:0.6;"/>
    <path clip-path="url(#p0089ee016c)" d="M 189.59053 439.78065 
C 191.76946 439.78065 193.859441 438.914952 195.400177 437.374216 
C 196.940913 435.833479 197.806612 433.743499 197.806612 431.564569 
C 197.806612 429.385638 196.940913 427.295658 195.400177 425.754921 
C 193.859441 424.214185 191.76946 423.348487 189.59053 423.348487 
C 187.4116 423.348487 185.321619 424.214185 183.780883 425.754921 
C 182.240146 427.295658 181.374448 429.385638 181.374448 431.564569 
C 181.374448 433.743499 182.240146 435.833479 183.780883 437.374216 
C 185.321619 438.914952 187.4116 439.78065 189.59053 439.78065 
z
" style="fill:#481769;fill-opacity:0.6;stroke:#481769;stroke-opacity:0.6;"/>
    <path clip-path="url(#p0089ee016c)" d="M 123.656682 526.313413 
C 124.794153 526.313413 125.885189 525.861491 126.689503 525.057178 
C 127.493816 524.252864 127.945738 523.161828 127.945738 522.024357 
C 127.945738 520.886886 127.493816 519.79585 126.689503 518.991537 
C 125.885189 518.187223 124.794153 517.735301 123.656682 517.735301 
C 122.519211 517.735301 121.428175 518.187223 120.623862 518.991537 
C 119.819548 519.79585 119.367626 520.886886 119.367626 522.024357 
C 119.367626 523.161828 119.819548 524.252864 120.623862 525.057178 
C 121.428175 525.861491 122.519211 526.313413 123.656682 526.313413 
z
" style="fill:#dae319;fill-opacity:0.6;stroke:#dae319;stroke-opacity:0.6;"/>
    <path clip-path="url(#p0089ee016c)" d="M 186.155768 483.462861 
C 187.892494 483.462861 189.558322 482.772852 190.786372 481.544801 
C 192.014423 480.316751 192.704432 478.650923 192.704432 476.914197 
C 192.704432 475.177471 192.014423 473.511643 190.786372 472.283592 
C 189.558322 471.055541 187.892494 470.365533 186.155768 470.365533 
C 184.419042 470.365533 182.753214 471.055541 181.525163 472.283592 
C 180.297112 473.511643 179.607104 475.177471 179.607104 476.914197 
C 179.607104 478.650923 180.297112 480.316751 181.525163 481.544801 
C 182.753214 482.772852 184.419042 483.462861 186.155768 483.462861 
z
" style="fill:#3bbb75;fill-opacity:0.6;stroke:#3bbb75;stroke-opacity:0.6;"/>
    <path clip-path="url(#p0089ee016c)" d="M 191.448196 470.912677 
C 193.323108 470.912677 195.121482 470.167766 196.447246 468.842002 
C 197.773009 467.516239 198.51792 465.717865 198.51792 463.842952 
C 198.51792 461.96804 197.773009 460.169666 196.447246 458.843903 
C 195.121482 457.518139 193.323108 456.773228 191.448196 456.773228 
C 189.573283 456.773228 187.774909 457.518139 186.449146 458.843903 
C 185.123382 460.169666 184.378472 461.96804 184.378472 463.842952 
C 184.378472 465.717865 185.123382 467.516239 186.449146 468.842002 
C 187.774909 470.167766 189.573283 470.912677 191.448196 470.912677 
z
" style="fill:#21918c;fill-opacity:0.6;stroke:#21918c;stroke-opacity:0.6;"/>
    <path clip-path="url(#p0089ee016c)" d="M 153.931615 533.46551 
C 154.932137 533.46551 155.891816 533.067998 156.599292 532.360522 
C 157.306768 531.653046 157.70428 530.693367 157.70428 529.692845 
C 157.70428 528.692323 157.306768 527.732644 156.599292 527.025168 
C 155.891816 526.317692 154.932137 525.92018 153.931615 525.92018 
C 152.931092 525.92018 151.971414 526.317692 151.263938 527.025168 
C 150.556462 527.732644 150.15895 528.692323 150.15895 529.692845 
C 150.15895 530.693367 150.556462 531.653046 151.263938 532.360522 
C 151.971414 533.067998 152.931092 533.46551 153.931615 533.46551 
z
" style="fill:#dae319;fill-opacity:0.6;stroke:#dae319;stroke-opacity:0.6;"/>
    <path clip-path="url(#p0089ee016c)" d="M 154.702443 585.858093 
C 155.702192 585.858093 156.661128 585.460889 157.368057 584.75396 
C 158.074986 584.047031 158.472191 583.088094 158.472191 582.088345 
C 158.472191 581.088597 158.074986 580.12966 157.368057 579.422731 
C 156.661128 578.715802 155.702192 578.318597 154.702443 578.318597 
C 153.702694 578.318597 152.743758 578.715802 152.036828 579.422731 
C 151.329899 580.12966 150.932695 581.088597 150.932695 582.088345 
C 150.932695 583.088094 151.329899 584.047031 152.036828 584.75396 
C 152.743758 585.460889 153.702694 585.858093 154.702443 585.858093 
z
" style="fill:#63cb5f;fill-opacity:0.6;stroke:#63cb5f;stroke-opacity:0.6;"/>
    <path clip-path="url(#p0089ee016c)" d="M 152.200944 515.284408 
C 153.520472 515.284408 154.786134 514.760154 155.719182 513.827106 
C 156.652229 512.894058 157.176484 511.628396 157.176484 510.308868 
C 157.176484 508.989339 156.652229 507.723677 155.719182 506.79063 
C 154.786134 505.857582 153.520472 505.333328 152.200944 505.333328 
C 150.881415 505.333328 149.615753 505.857582 148.682705 506.79063 
C 147.749658 507.723677 147.225403 508.989339 147.225403 510.308868 
C 147.225403 511.628396 147.749658 512.894058 148.682705 513.827106 
C 149.615753 514.760154 150.881415 515.284408 152.200944 515.284408 
z
" style="fill:#472a7a;fill-opacity:0.6;stroke:#472a7a;stroke-opacity:0.6;"/>
    <path clip-path="url(#p0089ee016c)" d="M 133.46185 477.884245 
C 135.261366 477.884245 136.987421 477.16929 138.25987 475.89684 
C 139.53232 474.62439 140.247276 472.898335 140.247276 471.098819 
C 140.247276 469.299303 139.53232 467.573249 138.25987 466.300799 
C 136.987421 465.028349 135.261366 464.313394 133.46185 464.313394 
C 131.662334 464.313394 129.936279 465.028349 128.66383 466.300799 
C 127.39138 467.573249 126.676424 469.299303 126.676424 471.098819 
C 126.676424 472.898335 127.39138 474.62439 128.66383 475.89684 
C 129.936279 477.16929 131.662334 477.884245 133.46185 477.884245 
z
" style="fill:#1f968b;fill-opacity:0.6;stroke:#1f968b;stroke-opacity:0.6;"/>
    <path clip-path="url(#p0089ee016c)" d="M 241.86507 489.215908 
C 243.53446 489.215908 245.1357 488.552652 246.316137 487.372215 
C 247.496574 486.191779 248.15983 484.590538 248.15983 482.921148 
C 248.15983 481.251758 247.496574 479.650518 246.316137 478.470081 
C 245.1357 477.289644 243.53446 476.626388 241.86507 476.626388 
C 240.19568 476.626388 238.594439 477.289644 237.414003 478.470081 
C 236.233566 479.650518 235.57031 481.251758 235.57031 482.921148 
C 235.57031 484.590538 236.233566 486.191779 237.414003 487.372215 
C 238.594439 488.552652 240.19568 489.215908 241.86507 489.215908 
z
" style="fill:#c5e021;fill-opacity:0.6;stroke:#c5e021;stroke-opacity:0.6;"/>
    <path clip-path="url(#p0089ee016c)" d="M 246.100194 463.538048 
C 248.051573 463.538048 249.923292 462.762756 251.303126 461.382923 
C 252.682959 460.003089 253.45825 458.13137 253.45825 456.179991 
C 253.45825 454.228611 252.682959 452.356893 251.303126 450.977059 
C 249.923292 449.597225 248.051573 448.821934 246.100194 448.821934 
C 244.148814 448.821934 242.277095 449.597225 240.897262 450.977059 
C 239.517428 452.356893 238.742137 454.228611 238.742137 456.179991 
C 238.742137 458.13137 239.517428 460.003089 240.897262 461.382923 
C 242.277095 462.762756 244.148814 463.538048 246.100194 463.538048 
z
" style="fill:#481b6d;fill-opacity:0.6;stroke:#481b6d;stroke-opacity:0.6;"/>
    <path clip-path="url(#p0089ee016c)" d="M 227.547162 467.877361 
C 229.453934 467.877361 231.282865 467.119793 232.631156 465.771501 
C 233.979448 464.42321 234.737016 462.594279 234.737016 460.687507 
C 234.737016 458.780735 233.979448 456.951804 232.631156 455.603512 
C 231.282865 454.255221 229.453934 453.497653 227.547162 453.497653 
C 225.64039 453.497653 223.811459 454.255221 222.463167 455.603512 
C 221.114876 456.951804 220.357308 458.780735 220.357308 460.687507 
C 220.357308 462.594279 221.114876 464.42321 222.463167 465.771501 
C 223.811459 467.119793 225.64039 467.877361 227.547162 467.877361 
z
" style="fill:#60ca60;fill-opacity:0.6;stroke:#60ca60;stroke-opacity:0.6;"/>
    <path clip-path="url(#p0089ee016c)" d="M 119.864563 572.318899 
C 120.587352 572.318899 121.280635 572.031731 121.791724 571.520642 
C 122.302813 571.009553 122.58998 570.31627 122.58998 569.593481 
C 122.58998 568.870692 122.302813 568.177409 121.791724 567.66632 
C 121.280635 567.155231 120.587352 566.868064 119.864563 566.868064 
C 119.141774 566.868064 118.448491 567.155231 117.937402 567.66632 
C 117.426313 568.177409 117.139145 568.870692 117.139145 569.593481 
C 117.139145 570.31627 117.426313 571.009553 117.937402 571.520642 
C 118.448491 572.031731 119.141774 572.318899 119.864563 572.318899 
z
" style="fill:#355e8d;fill-opacity:0.6;stroke:#355e8d;stroke-opacity:0.6;"/>
    <path clip-path="url(#p0089ee016c)" d="M 595.347282 239.038185 
C 598.89833 239.038185 602.304415 237.627338 604.815386 235.116367 
C 607.326357 232.605397 608.737203 229.199312 608.737203 225.648263 
C 608.737203 222.097214 607.326357 218.691129 604.815386 216.180159 
C 602.304415 213.669188 598.89833 212.258341 595.347282 212.258341 
C 591.796233 212.258341 588.390148 213.669188 585.879177 216.180159 
C 583.368207 218.691129 581.95736 222.097214 581.95736 225.648263 
C 581.95736 229.199312 583.368207 232.605397 585.879177 235.116367 
C 588.390148 237.627338 591.796233 239.038185 595.347282 239.038185 
z
" style="fill:#2c728e;fill-opacity:0.6;stroke:#2c728e;stroke-opacity:0.6;"/>
    <path clip-path="url(#p0089ee016c)" d="M 407.188471 344.848247 
C 410.100155 344.848247 412.892975 343.691423 414.951847 341.632551 
C 417.010718 339.57368 418.167542 336.780859 418.167542 333.869176 
C 418.167542 330.957492 417.010718 328.164671 414.951847 326.1058 
C 412.892975 324.046929 410.100155 322.890105 407.188471 322.890105 
C 404.276788 322.890105 401.483967 324.046929 399.425096 326.1058 
C 397.366224 328.164671 396.2094 330.957492 396.2094 333.869176 
C 396.2094 336.780859 397.366224 339.57368 399.425096 341.632551 
C 401.483967 343.691423 404.276788 344.848247 407.188471 344.848247 
z
" style="fill:#39558c;fill-opacity:0.6;stroke:#39558c;stroke-opacity:0.6;"/>
    <path clip-path="url(#p0089ee016c)" d="M 526.829241 254.825368 
C 530.292553 254.825368 533.614484 253.449379 536.063416 251.000447 
C 538.512348 248.551515 539.888337 245.229584 539.888337 241.766271 
C 539.888337 238.302958 538.512348 234.981028 536.063416 232.532096 
C 533.614484 230.083164 530.292553 228.707175 526.829241 228.707175 
C 523.365928 228.707175 520.043997 230.083164 517.595065 232.532096 
C 515.146133 234.981028 513.770144 238.302958 513.770144 241.766271 
C 513.770144 245.229584 515.146133 248.551515 517.595065 251.000447 
C 520.043997 253.449379 523.365928 254.825368 526.829241 254.825368 
z
" style="fill:#1f968b;fill-opacity:0.6;stroke:#1f968b;stroke-opacity:0.6;"/>
    <path clip-path="url(#p0089ee016c)" d="M 180.080698 472.912057 
C 181.934314 472.912057 183.712261 472.175607 185.022965 470.864903 
C 186.333669 469.554198 187.070119 467.776252 187.070119 465.922636 
C 187.070119 464.06902 186.333669 462.291074 185.022965 460.980369 
C 183.712261 459.669665 181.934314 458.933215 180.080698 458.933215 
C 178.227082 458.933215 176.449136 459.669665 175.138432 460.980369 
C 173.827727 462.291074 173.091278 464.06902 173.091278 465.922636 
C 173.091278 467.776252 173.827727 469.554198 175.138432 470.864903 
C 176.449136 472.175607 178.227082 472.912057 180.080698 472.912057 
z
" style="fill:#69cd5b;fill-opacity:0.6;stroke:#69cd5b;stroke-opacity:0.6;"/>
    <path clip-path="url(#p0089ee016c)" d="M 211.885474 457.678407 
C 213.895461 457.678407 215.823395 456.879831 217.244671 455.458555 
C 218.665947 454.037279 219.464524 452.109345 219.464524 450.099357 
C 219.464524 448.08937 218.665947 446.161435 217.244671 444.740159 
C 215.823395 443.318884 213.895461 442.520307 211.885474 442.520307 
C 209.875486 442.520307 207.947552 443.318884 206.526276 444.740159 
C 205.105 446.161435 204.306423 448.08937 204.306423 450.099357 
C 204.306423 452.109345 205.105 454.037279 206.526276 455.458555 
C 207.947552 456.879831 209.875486 457.678407 211.885474 457.678407 
z
" style="fill:#3b528b;fill-opacity:0.6;stroke:#3b528b;stroke-opacity:0.6;"/>
    <path clip-path="url(#p0089ee016c)" d="M 269.207312 421.501296 
C 271.545826 421.501296 273.788876 420.572195 275.442455 418.918615 
C 277.096034 417.265036 278.025135 415.021987 278.025135 412.683473 
C 278.025135 410.344959 277.096034 408.10191 275.442455 406.448331 
C 273.788876 404.794752 271.545826 403.86565 269.207312 403.86565 
C 266.868798 403.86565 264.625749 404.794752 262.97217 406.448331 
C 261.318591 408.10191 260.38949 410.344959 260.38949 412.683473 
C 260.38949 415.021987 261.318591 417.265036 262.97217 418.918615 
C 264.625749 420.572195 266.868798 421.501296 269.207312 421.501296 
z
" style="fill:#1fa188;fill-opacity:0.6;stroke:#1fa188;stroke-opacity:0.6;"/>
    <path clip-path="url(#p0089ee016c)" d="M 129.318281 540.361115 
C 130.16415 540.361115 130.975488 540.025048 131.573608 539.426928 
C 132.171727 538.828808 132.507795 538.01747 132.507795 537.171601 
C 132.507795 536.325732 132.171727 535.514394 131.573608 534.916274 
C 130.975488 534.318154 130.16415 533.982087 129.318281 533.982087 
C 128.472412 533.982087 127.661073 534.318154 127.062954 534.916274 
C 126.464834 535.514394 126.128766 536.325732 126.128766 537.171601 
C 126.128766 538.01747 126.464834 538.828808 127.062954 539.426928 
C 127.661073 540.025048 128.472412 540.361115 129.318281 540.361115 
z
" style="fill:#433d84;fill-opacity:0.6;stroke:#433d84;stroke-opacity:0.6;"/>
    <path clip-path="url(#p0089ee016c)" d="M 567.644729 183.71464 
C 571.487155 183.71464 575.172722 182.188028 577.889728 179.471022 
C 580.606733 176.754017 582.133345 173.06845 582.133345 169.226024 
C 582.133345 165.383598 580.606733 161.69803 577.889728 158.981025 
C 575.172722 156.264019 571.487155 154.737407 567.644729 154.737407 
C 563.802303 154.737407 560.116736 156.264019 557.39973 158.981025 
C 554.682725 161.69803 553.156113 165.383598 553.156113 169.226024 
C 553.156113 173.06845 554.682725 176.754017 557.39973 179.471022 
C 560.116736 182.188028 563.802303 183.71464 567.644729 183.71464 
z
" style="fill:#40bd72;fill-opacity:0.6;stroke:#40bd72;stroke-opacity:0.6;"/>
    <path clip-path="url(#p0089ee016c)" d="M 266.253949 441.036285 
C 268.421471 441.036285 270.500509 440.175119 272.033179 438.64245 
C 273.565848 437.10978 274.427014 435.030742 274.427014 432.86322 
C 274.427014 430.695697 273.565848 428.616659 272.033179 427.083989 
C 270.500509 425.55132 268.421471 424.690154 266.253949 424.690154 
C 264.086426 424.690154 262.007388 425.55132 260.474718 427.083989 
C 258.942049 428.616659 258.080883 430.695697 258.080883 432.86322 
C 258.080883 435.030742 258.942049 437.10978 260.474718 438.64245 
C 262.007388 440.175119 264.086426 441.036285 266.253949 441.036285 
z
" style="fill:#3e4989;fill-opacity:0.6;stroke:#3e4989;stroke-opacity:0.6;"/>
    <path clip-path="url(#p0089ee016c)" d="M 183.51546 488.096439 
C 185.198174 488.096439 186.812194 487.42789 188.002052 486.238032 
C 189.191909 485.048174 189.860458 483.434154 189.860458 481.751441 
C 189.860458 480.068728 189.191909 478.454708 188.002052 477.26485 
C 186.812194 476.074992 185.198174 475.406443 183.51546 475.406443 
C 181.832747 475.406443 180.218727 476.074992 179.028869 477.26485 
C 177.839011 478.454708 177.170462 480.068728 177.170462 481.751441 
C 177.170462 483.434154 177.839011 485.048174 179.028869 486.238032 
C 180.218727 487.42789 181.832747 488.096439 183.51546 488.096439 
z
" style="fill:#2c728e;fill-opacity:0.6;stroke:#2c728e;stroke-opacity:0.6;"/>
    <path clip-path="url(#p0089ee016c)" d="M 144.285928 535.937459 
C 145.234155 535.937459 146.143672 535.560725 146.814169 534.890228 
C 147.484666 534.219731 147.8614 533.310214 147.8614 532.361987 
C 147.8614 531.413761 147.484666 530.504244 146.814169 529.833747 
C 146.143672 529.16325 145.234155 528.786515 144.285928 528.786515 
C 143.337702 528.786515 142.428185 529.16325 141.757688 529.833747 
C 141.087191 530.504244 140.710456 531.413761 140.710456 532.361987 
C 140.710456 533.310214 141.087191 534.219731 141.757688 534.890228 
C 142.428185 535.560725 143.337702 535.937459 144.285928 535.937459 
z
" style="fill:#37b878;fill-opacity:0.6;stroke:#37b878;stroke-opacity:0.6;"/>
    <path clip-path="url(#p0089ee016c)" d="M 180.308107 500.14608 
C 181.841041 500.14608 183.311396 499.537039 184.395344 498.453091 
C 185.479291 497.369144 186.088332 495.898789 186.088332 494.365855 
C 186.088332 492.832921 185.479291 491.362567 184.395344 490.278619 
C 183.311396 489.194671 181.841041 488.58563 180.308107 488.58563 
C 178.775174 488.58563 177.304819 489.194671 176.220871 490.278619 
C 175.136923 491.362567 174.527882 492.832921 174.527882 494.365855 
C 174.527882 495.898789 175.136923 497.369144 176.220871 498.453091 
C 177.304819 499.537039 178.775174 500.14608 180.308107 500.14608 
z
" style="fill:#3c508b;fill-opacity:0.6;stroke:#3c508b;stroke-opacity:0.6;"/>
    <path clip-path="url(#p0089ee016c)" d="M 115.363636 610.468457 
C 116.736738 610.468457 118.053786 609.922918 119.024715 608.951988 
C 119.995645 607.981059 120.541184 606.664011 120.541184 605.290909 
C 120.541184 603.917807 119.995645 602.60076 119.024715 601.62983 
C 118.053786 600.6589 116.736738 600.113361 115.363636 600.113361 
C 113.990535 600.113361 112.673487 600.6589 111.702557 601.62983 
C 110.731628 602.60076 110.186089 603.917807 110.186089 605.290909 
C 110.186089 606.664011 110.731628 607.981059 111.702557 608.951988 
C 112.673487 609.922918 113.990535 610.468457 115.363636 610.468457 
z
" style="fill:#2db27d;fill-opacity:0.6;stroke:#2db27d;stroke-opacity:0.6;"/>
    <path clip-path="url(#p0089ee016c)" d="M 160.2843 552.166728 
C 160.741174 552.166728 161.179396 551.985211 161.502455 551.662152 
C 161.825513 551.339094 162.007031 550.900871 162.007031 550.443998 
C 162.007031 549.987124 161.825513 549.548902 161.502455 549.225844 
C 161.179396 548.902785 160.741174 548.721267 160.2843 548.721267 
C 159.827427 548.721267 159.389204 548.902785 159.066146 549.225844 
C 158.743088 549.548902 158.56157 549.987124 158.56157 550.443998 
C 158.56157 550.900871 158.743088 551.339094 159.066146 551.662152 
C 159.389204 551.985211 159.827427 552.166728 160.2843 552.166728 
z
" style="fill:#c2df23;fill-opacity:0.6;stroke:#c2df23;stroke-opacity:0.6;"/>
    <path clip-path="url(#p0089ee016c)" d="M 189.543276 490.588687 
C 191.196174 490.588687 192.781597 489.931984 193.950373 488.763208 
C 195.119148 487.594432 195.775852 486.00901 195.775852 484.356111 
C 195.775852 482.703213 195.119148 481.11779 193.950373 479.949015 
C 192.781597 478.780239 191.196174 478.123536 189.543276 478.123536 
C 187.890378 478.123536 186.304955 478.780239 185.136179 479.949015 
C 183.967404 481.11779 183.3107 482.703213 183.3107 484.356111 
C 183.3107 486.00901 183.967404 487.594432 185.136179 488.763208 
C 186.304955 489.931984 187.890378 490.588687 189.543276 490.588687 
z
" style="fill:#440154;fill-opacity:0.6;stroke:#440154;stroke-opacity:0.6;"/>
    <path clip-path="url(#p0089ee016c)" d="M 115.647159 458.438519 
C 117.649645 458.438519 119.570383 457.642924 120.986354 456.226953 
C 122.402325 454.810982 123.197921 452.890243 123.197921 450.887758 
C 123.197921 448.885273 122.402325 446.964534 120.986354 445.548563 
C 119.570383 444.132592 117.649645 443.336996 115.647159 443.336996 
C 113.644674 443.336996 111.723936 444.132592 110.307965 445.548563 
C 108.891994 446.964534 108.096398 448.885273 108.096398 450.887758 
C 108.096398 452.890243 108.891994 454.810982 110.307965 456.226953 
C 111.723936 457.642924 113.644674 458.438519 115.647159 458.438519 
z
" style="fill:#24aa83;fill-opacity:0.6;stroke:#24aa83;stroke-opacity:0.6;"/>
    <path clip-path="url(#p0089ee016c)" d="M 270.329591 439.741464 
C 272.508876 439.741464 274.599197 438.875625 276.140184 437.334637 
C 277.681172 435.79365 278.547011 433.703329 278.547011 431.524043 
C 278.547011 429.344758 277.681172 427.254437 276.140184 425.71345 
C 274.599197 424.172462 272.508876 423.306623 270.329591 423.306623 
C 268.150305 423.306623 266.059984 424.172462 264.518997 425.71345 
C 262.978009 427.254437 262.11217 429.344758 262.11217 431.524043 
C 262.11217 433.703329 262.978009 435.79365 264.518997 437.334637 
C 266.059984 438.875625 268.150305 439.741464 270.329591 439.741464 
z
" style="fill:#365d8d;fill-opacity:0.6;stroke:#365d8d;stroke-opacity:0.6;"/>
    <path clip-path="url(#p0089ee016c)" d="M 117.749954 522.544748 
C 118.952936 522.544748 120.106809 522.066798 120.957446 521.216162 
C 121.808082 520.365525 122.286032 519.211652 122.286032 518.008671 
C 122.286032 516.805689 121.808082 515.651816 120.957446 514.801179 
C 120.106809 513.950543 118.952936 513.472593 117.749954 513.472593 
C 116.546973 513.472593 115.3931 513.950543 114.542463 514.801179 
C 113.691827 515.651816 113.213877 516.805689 113.213877 518.008671 
C 113.213877 519.211652 113.691827 520.365525 114.542463 521.216162 
C 115.3931 522.066798 116.546973 522.544748 117.749954 522.544748 
z
" style="fill:#c8e020;fill-opacity:0.6;stroke:#c8e020;stroke-opacity:0.6;"/>
    <path clip-path="url(#p0089ee016c)" d="M 136.105111 549.267454 
C 136.685857 549.267454 137.242896 549.036721 137.653545 548.626071 
C 138.064195 548.215422 138.294928 547.658383 138.294928 547.077637 
C 138.294928 546.49689 138.064195 545.939852 137.653545 545.529202 
C 137.242896 545.118552 136.685857 544.887819 136.105111 544.887819 
C 135.524364 544.887819 134.967326 545.118552 134.556676 545.529202 
C 134.146026 545.939852 133.915293 546.49689 133.915293 547.077637 
C 133.915293 547.658383 134.146026 548.215422 134.556676 548.626071 
C 134.967326 549.036721 135.524364 549.267454 136.105111 549.267454 
z
" style="fill:#287c8e;fill-opacity:0.6;stroke:#287c8e;stroke-opacity:0.6;"/>
    <path clip-path="url(#p0089ee016c)" d="M 120.133319 553.578212 
C 120.5123 553.578212 120.875809 553.427641 121.143789 553.159661 
C 121.411769 552.891681 121.56234 552.528172 121.56234 552.149191 
C 121.56234 551.77021 121.411769 551.406701 121.143789 551.138721 
C 120.875809 550.870741 120.5123 550.72017 120.133319 550.72017 
C 119.754338 550.72017 119.390829 550.870741 119.122849 551.138721 
C 118.854869 551.406701 118.704298 551.77021 118.704298 552.149191 
C 118.704298 552.528172 118.854869 552.891681 119.122849 553.159661 
C 119.390829 553.427641 119.754338 553.578212 120.133319 553.578212 
z
" style="fill:#46337f;fill-opacity:0.6;stroke:#46337f;stroke-opacity:0.6;"/>
    <path clip-path="url(#p0089ee016c)" d="M 154.607935 546.015482 
C 155.298793 546.015482 155.961448 545.741001 156.449958 545.252491 
C 156.938469 544.763981 157.21295 544.101325 157.21295 543.410467 
C 157.21295 542.71961 156.938469 542.056954 156.449958 541.568444 
C 155.961448 541.079934 155.298793 540.805453 154.607935 540.805453 
C 153.917077 540.805453 153.254422 541.079934 152.765912 541.568444 
C 152.277401 542.056954 152.002921 542.71961 152.002921 543.410467 
C 152.002921 544.101325 152.277401 544.763981 152.765912 545.252491 
C 153.254422 545.741001 153.917077 546.015482 154.607935 546.015482 
z
" style="fill:#2a768e;fill-opacity:0.6;stroke:#2a768e;stroke-opacity:0.6;"/>
    <path clip-path="url(#p0089ee016c)" d="M 255.406243 425.640538 
C 257.70962 425.640538 259.918967 424.725397 261.547701 423.096663 
C 263.176434 421.46793 264.091576 419.258583 264.091576 416.955206 
C 264.091576 414.651829 263.176434 412.442482 261.547701 410.813748 
C 259.918967 409.185015 257.70962 408.269873 255.406243 408.269873 
C 253.102866 408.269873 250.893519 409.185015 249.264786 410.813748 
C 247.636052 412.442482 246.720911 414.651829 246.720911 416.955206 
C 246.720911 419.258583 247.636052 421.46793 249.264786 423.096663 
C 250.893519 424.725397 253.102866 425.640538 255.406243 425.640538 
z
" style="fill:#48c16e;fill-opacity:0.6;stroke:#48c16e;stroke-opacity:0.6;"/>
    <path clip-path="url(#p0089ee016c)" d="M 159.339224 464.788635 
C 161.277857 464.788635 163.137349 464.018408 164.50817 462.647588 
C 165.87899 461.276767 166.649217 459.417275 166.649217 457.478642 
C 166.649217 455.540009 165.87899 453.680516 164.50817 452.309696 
C 163.137349 450.938876 161.277857 450.168649 159.339224 450.168649 
C 157.400591 450.168649 155.541099 450.938876 154.170278 452.309696 
C 152.799458 453.680516 152.029231 455.540009 152.029231 457.478642 
C 152.029231 459.417275 152.799458 461.276767 154.170278 462.647588 
C 155.541099 464.018408 157.400591 464.788635 159.339224 464.788635 
z
" style="fill:#75d054;fill-opacity:0.6;stroke:#75d054;stroke-opacity:0.6;"/>
    <path clip-path="url(#p0089ee016c)" d="M 218.444895 484.292644 
C 220.172078 484.292644 221.828752 483.606427 223.050055 482.385124 
C 224.271358 481.163821 224.957575 479.507147 224.957575 477.779964 
C 224.957575 476.052781 224.271358 474.396107 223.050055 473.174804 
C 221.828752 471.953501 220.172078 471.267284 218.444895 471.267284 
C 216.717712 471.267284 215.061037 471.953501 213.839734 473.174804 
C 212.618432 474.396107 211.932215 476.052781 211.932215 477.779964 
C 211.932215 479.507147 212.618432 481.163821 213.839734 482.385124 
C 215.061037 483.606427 216.717712 484.292644 218.444895 484.292644 
z
" style="fill:#1f968b;fill-opacity:0.6;stroke:#1f968b;stroke-opacity:0.6;"/>
    <path clip-path="url(#p0089ee016c)" d="M 238.025697 438.930966 
C 240.212312 438.930966 242.309664 438.062215 243.855834 436.516044 
C 245.402005 434.969874 246.270756 432.872522 246.270756 430.685907 
C 246.270756 428.499292 245.402005 426.40194 243.855834 424.85577 
C 242.309664 423.309599 240.212312 422.440848 238.025697 422.440848 
C 235.839082 422.440848 233.74173 423.309599 232.19556 424.85577 
C 230.649389 426.40194 229.780638 428.499292 229.780638 430.685907 
C 229.780638 432.872522 230.649389 434.969874 232.19556 436.516044 
C 233.74173 438.062215 235.839082 438.930966 238.025697 438.930966 
z
" style="fill:#24868e;fill-opacity:0.6;stroke:#24868e;stroke-opacity:0.6;"/>
    <path clip-path="url(#p0089ee016c)" d="M 144.161887 541.880486 
C 144.969321 541.880486 145.743792 541.559689 146.314734 540.988747 
C 146.885676 540.417806 147.206473 539.643334 147.206473 538.8359 
C 147.206473 538.028467 146.885676 537.253995 146.314734 536.683053 
C 145.743792 536.112112 144.969321 535.791315 144.161887 535.791315 
C 143.354454 535.791315 142.579982 536.112112 142.00904 536.683053 
C 141.438099 537.253995 141.117302 538.028467 141.117302 538.8359 
C 141.117302 539.643334 141.438099 540.417806 142.00904 540.988747 
C 142.579982 541.559689 143.354454 541.880486 144.161887 541.880486 
z
" style="fill:#addc30;fill-opacity:0.6;stroke:#addc30;stroke-opacity:0.6;"/>
    <path clip-path="url(#p0089ee016c)" d="M 129.938487 554.343812 
C 130.265451 554.343812 130.579068 554.213908 130.810267 553.982709 
C 131.041465 553.751511 131.17137 553.437894 131.17137 553.11093 
C 131.17137 552.783965 131.041465 552.470348 130.810267 552.23915 
C 130.579068 552.007951 130.265451 551.878047 129.938487 551.878047 
C 129.611523 551.878047 129.297906 552.007951 129.066707 552.23915 
C 128.835508 552.470348 128.705604 552.783965 128.705604 553.11093 
C 128.705604 553.437894 128.835508 553.751511 129.066707 553.982709 
C 129.297906 554.213908 129.611523 554.343812 129.938487 554.343812 
z
" style="fill:#6ccd5a;fill-opacity:0.6;stroke:#6ccd5a;stroke-opacity:0.6;"/>
    <path clip-path="url(#p0089ee016c)" d="M 116.32348 509.250716 
C 117.732155 509.250716 119.083324 508.691043 120.079408 507.69496 
C 121.075492 506.698876 121.635165 505.347706 121.635165 503.939031 
C 121.635165 502.530356 121.075492 501.179186 120.079408 500.183102 
C 119.083324 499.187018 117.732155 498.627346 116.32348 498.627346 
C 114.914804 498.627346 113.563635 499.187018 112.567551 500.183102 
C 111.571467 501.179186 111.011794 502.530356 111.011794 503.939031 
C 111.011794 505.347706 111.571467 506.698876 112.567551 507.69496 
C 113.563635 508.691043 114.914804 509.250716 116.32348 509.250716 
z
" style="fill:#f4e61e;fill-opacity:0.6;stroke:#f4e61e;stroke-opacity:0.6;"/>
    <path clip-path="url(#p0089ee016c)" d="M 135.470137 526.218507 
C 136.609307 526.218507 137.701973 525.76591 138.507488 524.960395 
C 139.313003 524.15488 139.7656 523.062214 139.7656 521.923044 
C 139.7656 520.783874 139.313003 519.691208 138.507488 518.885693 
C 137.701973 518.080178 136.609307 517.627581 135.470137 517.627581 
C 134.330967 517.627581 133.238301 518.080178 132.432787 518.885693 
C 131.627272 519.691208 131.174675 520.783874 131.174675 521.923044 
C 131.174675 523.062214 131.627272 524.15488 132.432787 524.960395 
C 133.238301 525.76591 134.330967 526.218507 135.470137 526.218507 
z
" style="fill:#481d6f;fill-opacity:0.6;stroke:#481d6f;stroke-opacity:0.6;"/>
    <path clip-path="url(#p0089ee016c)" d="M 192.437573 483.332196 
C 194.175796 483.332196 195.843061 482.641592 197.072171 481.412483 
C 198.301281 480.183373 198.991884 478.516108 198.991884 476.777884 
C 198.991884 475.039661 198.301281 473.372396 197.072171 472.143286 
C 195.843061 470.914176 194.175796 470.223573 192.437573 470.223573 
C 190.699349 470.223573 189.032084 470.914176 187.802974 472.143286 
C 186.573865 473.372396 185.883261 475.039661 185.883261 476.777884 
C 185.883261 478.516108 186.573865 480.183373 187.802974 481.412483 
C 189.032084 482.641592 190.699349 483.332196 192.437573 483.332196 
z
" style="fill:#35b779;fill-opacity:0.6;stroke:#35b779;stroke-opacity:0.6;"/>
    <path clip-path="url(#p0089ee016c)" d="M 140.28412 431.716246 
C 142.534897 431.716246 144.69379 430.822003 146.285329 429.230464 
C 147.876868 427.638925 148.771111 425.480032 148.771111 423.229256 
C 148.771111 420.97848 147.876868 418.819587 146.285329 417.228048 
C 144.69379 415.636508 142.534897 414.742266 140.28412 414.742266 
C 138.033344 414.742266 135.874451 415.636508 134.282912 417.228048 
C 132.691373 418.819587 131.79713 420.97848 131.79713 423.229256 
C 131.79713 425.480032 132.691373 427.638925 134.282912 429.230464 
C 135.874451 430.822003 138.033344 431.716246 140.28412 431.716246 
z
" style="fill:#1f9a8a;fill-opacity:0.6;stroke:#1f9a8a;stroke-opacity:0.6;"/>
    <path clip-path="url(#p0089ee016c)" d="M 123.588755 523.768471 
C 124.770888 523.768471 125.904764 523.298805 126.740659 522.46291 
C 127.576554 521.627015 128.04622 520.493139 128.04622 519.311006 
C 128.04622 518.128872 127.576554 516.994996 126.740659 516.159102 
C 125.904764 515.323207 124.770888 514.85354 123.588755 514.85354 
C 122.406621 514.85354 121.272745 515.323207 120.43685 516.159102 
C 119.600956 516.994996 119.131289 518.128872 119.131289 519.311006 
C 119.131289 520.493139 119.600956 521.627015 120.43685 522.46291 
C 121.272745 523.298805 122.406621 523.768471 123.588755 523.768471 
z
" style="fill:#414287;fill-opacity:0.6;stroke:#414287;stroke-opacity:0.6;"/>
    <path clip-path="url(#p0089ee016c)" d="M 211.835266 554.450595 
C 212.154106 554.450595 212.45993 554.323919 212.685384 554.098465 
C 212.910838 553.873011 213.037514 553.567187 213.037514 553.248347 
C 213.037514 552.929507 212.910838 552.623683 212.685384 552.398229 
C 212.45993 552.172776 212.154106 552.046099 211.835266 552.046099 
C 211.516426 552.046099 211.210603 552.172776 210.985149 552.398229 
C 210.759695 552.623683 210.633018 552.929507 210.633018 553.248347 
C 210.633018 553.567187 210.759695 553.873011 210.985149 554.098465 
C 211.210603 554.323919 211.516426 554.450595 211.835266 554.450595 
z
" style="fill:#453781;fill-opacity:0.6;stroke:#453781;stroke-opacity:0.6;"/>
    <path clip-path="url(#p0089ee016c)" d="M 362.474543 398.626485 
C 364.99817 398.626485 367.418776 397.623837 369.20325 395.839363 
C 370.987724 394.054889 371.990372 391.634283 371.990372 389.110656 
C 371.990372 386.587028 370.987724 384.166423 369.20325 382.381949 
C 367.418776 380.597475 364.99817 379.594827 362.474543 379.594827 
C 359.950915 379.594827 357.530309 380.597475 355.745835 382.381949 
C 353.961361 384.166423 352.958714 386.587028 352.958714 389.110656 
C 352.958714 391.634283 353.961361 394.054889 355.745835 395.839363 
C 357.530309 397.623837 359.950915 398.626485 362.474543 398.626485 
z
" style="fill:#21a585;fill-opacity:0.6;stroke:#21a585;stroke-opacity:0.6;"/>
    <path clip-path="url(#p0089ee016c)" d="M 127.472428 547.028488 
C 128.131206 547.028488 128.76309 546.766752 129.228916 546.300926 
C 129.694742 545.8351 129.956477 545.203216 129.956477 544.544438 
C 129.956477 543.885661 129.694742 543.253777 129.228916 542.78795 
C 128.76309 542.322124 128.131206 542.060389 127.472428 542.060389 
C 126.813651 542.060389 126.181766 542.322124 125.71594 542.78795 
C 125.250114 543.253777 124.988379 543.885661 124.988379 544.544438 
C 124.988379 545.203216 125.250114 545.8351 125.71594 546.300926 
C 126.181766 546.766752 126.813651 547.028488 127.472428 547.028488 
z
" style="fill:#b2dd2d;fill-opacity:0.6;stroke:#b2dd2d;stroke-opacity:0.6;"/>
   </g>
   <g id="matplotlib.axis_1">
    <g id="xtick_1">
     <g id="line2d_1">
      <defs>
       <path d="M 0 0 
L 0 3.5 
" id="md154276079" style="stroke:#000000;stroke-width:0.8;"/>
      </defs>
      <g>
       <use style="stroke:#000000;stroke-width:0.8;" x="114.569181" xlink:href="#md154276079" y="630"/>
      </g>
     </g>
     <g id="text_1">
      <!-- 5.0 -->
      <g transform="translate(106.617619 644.598438)scale(0.1 -0.1)">
       <defs>
        <path d="M 10.796875 72.90625 
L 49.515625 72.90625 
L 49.515625 64.59375 
L 19.828125 64.59375 
L 19.828125 46.734375 
Q 21.96875 47.46875 24.109375 47.828125 
Q 26.265625 48.1875 28.421875 48.1875 
Q 40.625 48.1875 47.75 41.5 
Q 54.890625 34.8125 54.890625 23.390625 
Q 54.890625 11.625 47.5625 5.09375 
Q 40.234375 -1.421875 26.90625 -1.421875 
Q 22.3125 -1.421875 17.546875 -0.640625 
Q 12.796875 0.140625 7.71875 1.703125 
L 7.71875 11.625 
Q 12.109375 9.234375 16.796875 8.0625 
Q 21.484375 6.890625 26.703125 6.890625 
Q 35.15625 6.890625 40.078125 11.328125 
Q 45.015625 15.765625 45.015625 23.390625 
Q 45.015625 31 40.078125 35.4375 
Q 35.15625 39.890625 26.703125 39.890625 
Q 22.75 39.890625 18.8125 39.015625 
Q 14.890625 38.140625 10.796875 36.28125 
z
" id="DejaVuSans-53"/>
        <path d="M 10.6875 12.40625 
L 21 12.40625 
L 21 0 
L 10.6875 0 
z
" id="DejaVuSans-46"/>
        <path d="M 31.78125 66.40625 
Q 24.171875 66.40625 20.328125 58.90625 
Q 16.5 51.421875 16.5 36.375 
Q 16.5 21.390625 20.328125 13.890625 
Q 24.171875 6.390625 31.78125 6.390625 
Q 39.453125 6.390625 43.28125 13.890625 
Q 47.125 21.390625 47.125 36.375 
Q 47.125 51.421875 43.28125 58.90625 
Q 39.453125 66.40625 31.78125 66.40625 
z
M 31.78125 74.21875 
Q 44.046875 74.21875 50.515625 64.515625 
Q 56.984375 54.828125 56.984375 36.375 
Q 56.984375 17.96875 50.515625 8.265625 
Q 44.046875 -1.421875 31.78125 -1.421875 
Q 19.53125 -1.421875 13.0625 8.265625 
Q 6.59375 17.96875 6.59375 36.375 
Q 6.59375 54.828125 13.0625 64.515625 
Q 19.53125 74.21875 31.78125 74.21875 
z
" id="DejaVuSans-48"/>
       </defs>
       <use xlink:href="#DejaVuSans-53"/>
       <use x="63.623047" xlink:href="#DejaVuSans-46"/>
       <use x="95.410156" xlink:href="#DejaVuSans-48"/>
      </g>
     </g>
    </g>
    <g id="xtick_2">
     <g id="line2d_2">
      <g>
       <use style="stroke:#000000;stroke-width:0.8;" x="188.403278" xlink:href="#md154276079" y="630"/>
      </g>
     </g>
     <g id="text_2">
      <!-- 7.5 -->
      <g transform="translate(180.451715 644.598438)scale(0.1 -0.1)">
       <defs>
        <path d="M 8.203125 72.90625 
L 55.078125 72.90625 
L 55.078125 68.703125 
L 28.609375 0 
L 18.3125 0 
L 43.21875 64.59375 
L 8.203125 64.59375 
z
" id="DejaVuSans-55"/>
       </defs>
       <use xlink:href="#DejaVuSans-55"/>
       <use x="63.623047" xlink:href="#DejaVuSans-46"/>
       <use x="95.410156" xlink:href="#DejaVuSans-53"/>
      </g>
     </g>
    </g>
    <g id="xtick_3">
     <g id="line2d_3">
      <g>
       <use style="stroke:#000000;stroke-width:0.8;" x="262.237374" xlink:href="#md154276079" y="630"/>
      </g>
     </g>
     <g id="text_3">
      <!-- 10.0 -->
      <g transform="translate(251.104561 644.598438)scale(0.1 -0.1)">
       <defs>
        <path d="M 12.40625 8.296875 
L 28.515625 8.296875 
L 28.515625 63.921875 
L 10.984375 60.40625 
L 10.984375 69.390625 
L 28.421875 72.90625 
L 38.28125 72.90625 
L 38.28125 8.296875 
L 54.390625 8.296875 
L 54.390625 0 
L 12.40625 0 
z
" id="DejaVuSans-49"/>
       </defs>
       <use xlink:href="#DejaVuSans-49"/>
       <use x="63.623047" xlink:href="#DejaVuSans-48"/>
       <use x="127.246094" xlink:href="#DejaVuSans-46"/>
       <use x="159.033203" xlink:href="#DejaVuSans-48"/>
      </g>
     </g>
    </g>
    <g id="xtick_4">
     <g id="line2d_4">
      <g>
       <use style="stroke:#000000;stroke-width:0.8;" x="336.07147" xlink:href="#md154276079" y="630"/>
      </g>
     </g>
     <g id="text_4">
      <!-- 12.5 -->
      <g transform="translate(324.938657 644.598438)scale(0.1 -0.1)">
       <defs>
        <path d="M 19.1875 8.296875 
L 53.609375 8.296875 
L 53.609375 0 
L 7.328125 0 
L 7.328125 8.296875 
Q 12.9375 14.109375 22.625 23.890625 
Q 32.328125 33.6875 34.8125 36.53125 
Q 39.546875 41.84375 41.421875 45.53125 
Q 43.3125 49.21875 43.3125 52.78125 
Q 43.3125 58.59375 39.234375 62.25 
Q 35.15625 65.921875 28.609375 65.921875 
Q 23.96875 65.921875 18.8125 64.3125 
Q 13.671875 62.703125 7.8125 59.421875 
L 7.8125 69.390625 
Q 13.765625 71.78125 18.9375 73 
Q 24.125 74.21875 28.421875 74.21875 
Q 39.75 74.21875 46.484375 68.546875 
Q 53.21875 62.890625 53.21875 53.421875 
Q 53.21875 48.921875 51.53125 44.890625 
Q 49.859375 40.875 45.40625 35.40625 
Q 44.1875 33.984375 37.640625 27.21875 
Q 31.109375 20.453125 19.1875 8.296875 
z
" id="DejaVuSans-50"/>
       </defs>
       <use xlink:href="#DejaVuSans-49"/>
       <use x="63.623047" xlink:href="#DejaVuSans-50"/>
       <use x="127.246094" xlink:href="#DejaVuSans-46"/>
       <use x="159.033203" xlink:href="#DejaVuSans-53"/>
      </g>
     </g>
    </g>
    <g id="xtick_5">
     <g id="line2d_5">
      <g>
       <use style="stroke:#000000;stroke-width:0.8;" x="409.905566" xlink:href="#md154276079" y="630"/>
      </g>
     </g>
     <g id="text_5">
      <!-- 15.0 -->
      <g transform="translate(398.772753 644.598438)scale(0.1 -0.1)">
       <use xlink:href="#DejaVuSans-49"/>
       <use x="63.623047" xlink:href="#DejaVuSans-53"/>
       <use x="127.246094" xlink:href="#DejaVuSans-46"/>
       <use x="159.033203" xlink:href="#DejaVuSans-48"/>
      </g>
     </g>
    </g>
    <g id="xtick_6">
     <g id="line2d_6">
      <g>
       <use style="stroke:#000000;stroke-width:0.8;" x="483.739662" xlink:href="#md154276079" y="630"/>
      </g>
     </g>
     <g id="text_6">
      <!-- 17.5 -->
      <g transform="translate(472.60685 644.598438)scale(0.1 -0.1)">
       <use xlink:href="#DejaVuSans-49"/>
       <use x="63.623047" xlink:href="#DejaVuSans-55"/>
       <use x="127.246094" xlink:href="#DejaVuSans-46"/>
       <use x="159.033203" xlink:href="#DejaVuSans-53"/>
      </g>
     </g>
    </g>
    <g id="xtick_7">
     <g id="line2d_7">
      <g>
       <use style="stroke:#000000;stroke-width:0.8;" x="557.573758" xlink:href="#md154276079" y="630"/>
      </g>
     </g>
     <g id="text_7">
      <!-- 20.0 -->
      <g transform="translate(546.440946 644.598438)scale(0.1 -0.1)">
       <use xlink:href="#DejaVuSans-50"/>
       <use x="63.623047" xlink:href="#DejaVuSans-48"/>
       <use x="127.246094" xlink:href="#DejaVuSans-46"/>
       <use x="159.033203" xlink:href="#DejaVuSans-48"/>
      </g>
     </g>
    </g>
    <g id="xtick_8">
     <g id="line2d_8">
      <g>
       <use style="stroke:#000000;stroke-width:0.8;" x="631.407854" xlink:href="#md154276079" y="630"/>
      </g>
     </g>
     <g id="text_8">
      <!-- 22.5 -->
      <g transform="translate(620.275042 644.598438)scale(0.1 -0.1)">
       <use xlink:href="#DejaVuSans-50"/>
       <use x="63.623047" xlink:href="#DejaVuSans-50"/>
       <use x="127.246094" xlink:href="#DejaVuSans-46"/>
       <use x="159.033203" xlink:href="#DejaVuSans-53"/>
      </g>
     </g>
    </g>
    <g id="text_9">
     <!-- Population of city (in 10,000s) -->
     <g transform="translate(293.940625 658.276562)scale(0.1 -0.1)">
      <defs>
       <path d="M 19.671875 64.796875 
L 19.671875 37.40625 
L 32.078125 37.40625 
Q 38.96875 37.40625 42.71875 40.96875 
Q 46.484375 44.53125 46.484375 51.125 
Q 46.484375 57.671875 42.71875 61.234375 
Q 38.96875 64.796875 32.078125 64.796875 
z
M 9.8125 72.90625 
L 32.078125 72.90625 
Q 44.34375 72.90625 50.609375 67.359375 
Q 56.890625 61.8125 56.890625 51.125 
Q 56.890625 40.328125 50.609375 34.8125 
Q 44.34375 29.296875 32.078125 29.296875 
L 19.671875 29.296875 
L 19.671875 0 
L 9.8125 0 
z
" id="DejaVuSans-80"/>
       <path d="M 30.609375 48.390625 
Q 23.390625 48.390625 19.1875 42.75 
Q 14.984375 37.109375 14.984375 27.296875 
Q 14.984375 17.484375 19.15625 11.84375 
Q 23.34375 6.203125 30.609375 6.203125 
Q 37.796875 6.203125 41.984375 11.859375 
Q 46.1875 17.53125 46.1875 27.296875 
Q 46.1875 37.015625 41.984375 42.703125 
Q 37.796875 48.390625 30.609375 48.390625 
z
M 30.609375 56 
Q 42.328125 56 49.015625 48.375 
Q 55.71875 40.765625 55.71875 27.296875 
Q 55.71875 13.875 49.015625 6.21875 
Q 42.328125 -1.421875 30.609375 -1.421875 
Q 18.84375 -1.421875 12.171875 6.21875 
Q 5.515625 13.875 5.515625 27.296875 
Q 5.515625 40.765625 12.171875 48.375 
Q 18.84375 56 30.609375 56 
z
" id="DejaVuSans-111"/>
       <path d="M 18.109375 8.203125 
L 18.109375 -20.796875 
L 9.078125 -20.796875 
L 9.078125 54.6875 
L 18.109375 54.6875 
L 18.109375 46.390625 
Q 20.953125 51.265625 25.265625 53.625 
Q 29.59375 56 35.59375 56 
Q 45.5625 56 51.78125 48.09375 
Q 58.015625 40.1875 58.015625 27.296875 
Q 58.015625 14.40625 51.78125 6.484375 
Q 45.5625 -1.421875 35.59375 -1.421875 
Q 29.59375 -1.421875 25.265625 0.953125 
Q 20.953125 3.328125 18.109375 8.203125 
z
M 48.6875 27.296875 
Q 48.6875 37.203125 44.609375 42.84375 
Q 40.53125 48.484375 33.40625 48.484375 
Q 26.265625 48.484375 22.1875 42.84375 
Q 18.109375 37.203125 18.109375 27.296875 
Q 18.109375 17.390625 22.1875 11.75 
Q 26.265625 6.109375 33.40625 6.109375 
Q 40.53125 6.109375 44.609375 11.75 
Q 48.6875 17.390625 48.6875 27.296875 
z
" id="DejaVuSans-112"/>
       <path d="M 8.5 21.578125 
L 8.5 54.6875 
L 17.484375 54.6875 
L 17.484375 21.921875 
Q 17.484375 14.15625 20.5 10.265625 
Q 23.53125 6.390625 29.59375 6.390625 
Q 36.859375 6.390625 41.078125 11.03125 
Q 45.3125 15.671875 45.3125 23.6875 
L 45.3125 54.6875 
L 54.296875 54.6875 
L 54.296875 0 
L 45.3125 0 
L 45.3125 8.40625 
Q 42.046875 3.421875 37.71875 1 
Q 33.40625 -1.421875 27.6875 -1.421875 
Q 18.265625 -1.421875 13.375 4.4375 
Q 8.5 10.296875 8.5 21.578125 
z
M 31.109375 56 
z
" id="DejaVuSans-117"/>
       <path d="M 9.421875 75.984375 
L 18.40625 75.984375 
L 18.40625 0 
L 9.421875 0 
z
" id="DejaVuSans-108"/>
       <path d="M 34.28125 27.484375 
Q 23.390625 27.484375 19.1875 25 
Q 14.984375 22.515625 14.984375 16.5 
Q 14.984375 11.71875 18.140625 8.90625 
Q 21.296875 6.109375 26.703125 6.109375 
Q 34.1875 6.109375 38.703125 11.40625 
Q 43.21875 16.703125 43.21875 25.484375 
L 43.21875 27.484375 
z
M 52.203125 31.203125 
L 52.203125 0 
L 43.21875 0 
L 43.21875 8.296875 
Q 40.140625 3.328125 35.546875 0.953125 
Q 30.953125 -1.421875 24.3125 -1.421875 
Q 15.921875 -1.421875 10.953125 3.296875 
Q 6 8.015625 6 15.921875 
Q 6 25.140625 12.171875 29.828125 
Q 18.359375 34.515625 30.609375 34.515625 
L 43.21875 34.515625 
L 43.21875 35.40625 
Q 43.21875 41.609375 39.140625 45 
Q 35.0625 48.390625 27.6875 48.390625 
Q 23 48.390625 18.546875 47.265625 
Q 14.109375 46.140625 10.015625 43.890625 
L 10.015625 52.203125 
Q 14.9375 54.109375 19.578125 55.046875 
Q 24.21875 56 28.609375 56 
Q 40.484375 56 46.34375 49.84375 
Q 52.203125 43.703125 52.203125 31.203125 
z
" id="DejaVuSans-97"/>
       <path d="M 18.3125 70.21875 
L 18.3125 54.6875 
L 36.8125 54.6875 
L 36.8125 47.703125 
L 18.3125 47.703125 
L 18.3125 18.015625 
Q 18.3125 11.328125 20.140625 9.421875 
Q 21.96875 7.515625 27.59375 7.515625 
L 36.8125 7.515625 
L 36.8125 0 
L 27.59375 0 
Q 17.1875 0 13.234375 3.875 
Q 9.28125 7.765625 9.28125 18.015625 
L 9.28125 47.703125 
L 2.6875 47.703125 
L 2.6875 54.6875 
L 9.28125 54.6875 
L 9.28125 70.21875 
z
" id="DejaVuSans-116"/>
       <path d="M 9.421875 54.6875 
L 18.40625 54.6875 
L 18.40625 0 
L 9.421875 0 
z
M 9.421875 75.984375 
L 18.40625 75.984375 
L 18.40625 64.59375 
L 9.421875 64.59375 
z
" id="DejaVuSans-105"/>
       <path d="M 54.890625 33.015625 
L 54.890625 0 
L 45.90625 0 
L 45.90625 32.71875 
Q 45.90625 40.484375 42.875 44.328125 
Q 39.84375 48.1875 33.796875 48.1875 
Q 26.515625 48.1875 22.3125 43.546875 
Q 18.109375 38.921875 18.109375 30.90625 
L 18.109375 0 
L 9.078125 0 
L 9.078125 54.6875 
L 18.109375 54.6875 
L 18.109375 46.1875 
Q 21.34375 51.125 25.703125 53.5625 
Q 30.078125 56 35.796875 56 
Q 45.21875 56 50.046875 50.171875 
Q 54.890625 44.34375 54.890625 33.015625 
z
" id="DejaVuSans-110"/>
       <path id="DejaVuSans-32"/>
       <path d="M 37.109375 75.984375 
L 37.109375 68.5 
L 28.515625 68.5 
Q 23.6875 68.5 21.796875 66.546875 
Q 19.921875 64.59375 19.921875 59.515625 
L 19.921875 54.6875 
L 34.71875 54.6875 
L 34.71875 47.703125 
L 19.921875 47.703125 
L 19.921875 0 
L 10.890625 0 
L 10.890625 47.703125 
L 2.296875 47.703125 
L 2.296875 54.6875 
L 10.890625 54.6875 
L 10.890625 58.5 
Q 10.890625 67.625 15.140625 71.796875 
Q 19.390625 75.984375 28.609375 75.984375 
z
" id="DejaVuSans-102"/>
       <path d="M 48.78125 52.59375 
L 48.78125 44.1875 
Q 44.96875 46.296875 41.140625 47.34375 
Q 37.3125 48.390625 33.40625 48.390625 
Q 24.65625 48.390625 19.8125 42.84375 
Q 14.984375 37.3125 14.984375 27.296875 
Q 14.984375 17.28125 19.8125 11.734375 
Q 24.65625 6.203125 33.40625 6.203125 
Q 37.3125 6.203125 41.140625 7.25 
Q 44.96875 8.296875 48.78125 10.40625 
L 48.78125 2.09375 
Q 45.015625 0.34375 40.984375 -0.53125 
Q 36.96875 -1.421875 32.421875 -1.421875 
Q 20.0625 -1.421875 12.78125 6.34375 
Q 5.515625 14.109375 5.515625 27.296875 
Q 5.515625 40.671875 12.859375 48.328125 
Q 20.21875 56 33.015625 56 
Q 37.15625 56 41.109375 55.140625 
Q 45.0625 54.296875 48.78125 52.59375 
z
" id="DejaVuSans-99"/>
       <path d="M 32.171875 -5.078125 
Q 28.375 -14.84375 24.75 -17.8125 
Q 21.140625 -20.796875 15.09375 -20.796875 
L 7.90625 -20.796875 
L 7.90625 -13.28125 
L 13.1875 -13.28125 
Q 16.890625 -13.28125 18.9375 -11.515625 
Q 21 -9.765625 23.484375 -3.21875 
L 25.09375 0.875 
L 2.984375 54.6875 
L 12.5 54.6875 
L 29.59375 11.921875 
L 46.6875 54.6875 
L 56.203125 54.6875 
z
" id="DejaVuSans-121"/>
       <path d="M 31 75.875 
Q 24.46875 64.65625 21.28125 53.65625 
Q 18.109375 42.671875 18.109375 31.390625 
Q 18.109375 20.125 21.3125 9.0625 
Q 24.515625 -2 31 -13.1875 
L 23.1875 -13.1875 
Q 15.875 -1.703125 12.234375 9.375 
Q 8.59375 20.453125 8.59375 31.390625 
Q 8.59375 42.28125 12.203125 53.3125 
Q 15.828125 64.359375 23.1875 75.875 
z
" id="DejaVuSans-40"/>
       <path d="M 11.71875 12.40625 
L 22.015625 12.40625 
L 22.015625 4 
L 14.015625 -11.625 
L 7.71875 -11.625 
L 11.71875 4 
z
" id="DejaVuSans-44"/>
       <path d="M 44.28125 53.078125 
L 44.28125 44.578125 
Q 40.484375 46.53125 36.375 47.5 
Q 32.28125 48.484375 27.875 48.484375 
Q 21.1875 48.484375 17.84375 46.4375 
Q 14.5 44.390625 14.5 40.28125 
Q 14.5 37.15625 16.890625 35.375 
Q 19.28125 33.59375 26.515625 31.984375 
L 29.59375 31.296875 
Q 39.15625 29.25 43.1875 25.515625 
Q 47.21875 21.78125 47.21875 15.09375 
Q 47.21875 7.46875 41.1875 3.015625 
Q 35.15625 -1.421875 24.609375 -1.421875 
Q 20.21875 -1.421875 15.453125 -0.5625 
Q 10.6875 0.296875 5.421875 2 
L 5.421875 11.28125 
Q 10.40625 8.6875 15.234375 7.390625 
Q 20.0625 6.109375 24.8125 6.109375 
Q 31.15625 6.109375 34.5625 8.28125 
Q 37.984375 10.453125 37.984375 14.40625 
Q 37.984375 18.0625 35.515625 20.015625 
Q 33.0625 21.96875 24.703125 23.78125 
L 21.578125 24.515625 
Q 13.234375 26.265625 9.515625 29.90625 
Q 5.8125 33.546875 5.8125 39.890625 
Q 5.8125 47.609375 11.28125 51.796875 
Q 16.75 56 26.8125 56 
Q 31.78125 56 36.171875 55.265625 
Q 40.578125 54.546875 44.28125 53.078125 
z
" id="DejaVuSans-115"/>
       <path d="M 8.015625 75.875 
L 15.828125 75.875 
Q 23.140625 64.359375 26.78125 53.3125 
Q 30.421875 42.28125 30.421875 31.390625 
Q 30.421875 20.453125 26.78125 9.375 
Q 23.140625 -1.703125 15.828125 -13.1875 
L 8.015625 -13.1875 
Q 14.5 -2 17.703125 9.0625 
Q 20.90625 20.125 20.90625 31.390625 
Q 20.90625 42.671875 17.703125 53.65625 
Q 14.5 64.65625 8.015625 75.875 
z
" id="DejaVuSans-41"/>
      </defs>
      <use xlink:href="#DejaVuSans-80"/>
      <use x="56.677734" xlink:href="#DejaVuSans-111"/>
      <use x="117.859375" xlink:href="#DejaVuSans-112"/>
      <use x="181.335938" xlink:href="#DejaVuSans-117"/>
      <use x="244.714844" xlink:href="#DejaVuSans-108"/>
      <use x="272.498047" xlink:href="#DejaVuSans-97"/>
      <use x="333.777344" xlink:href="#DejaVuSans-116"/>
      <use x="372.986328" xlink:href="#DejaVuSans-105"/>
      <use x="400.769531" xlink:href="#DejaVuSans-111"/>
      <use x="461.951172" xlink:href="#DejaVuSans-110"/>
      <use x="525.330078" xlink:href="#DejaVuSans-32"/>
      <use x="557.117188" xlink:href="#DejaVuSans-111"/>
      <use x="618.298828" xlink:href="#DejaVuSans-102"/>
      <use x="653.503906" xlink:href="#DejaVuSans-32"/>
      <use x="685.291016" xlink:href="#DejaVuSans-99"/>
      <use x="740.271484" xlink:href="#DejaVuSans-105"/>
      <use x="768.054688" xlink:href="#DejaVuSans-116"/>
      <use x="807.263672" xlink:href="#DejaVuSans-121"/>
      <use x="866.443359" xlink:href="#DejaVuSans-32"/>
      <use x="898.230469" xlink:href="#DejaVuSans-40"/>
      <use x="937.244141" xlink:href="#DejaVuSans-105"/>
      <use x="965.027344" xlink:href="#DejaVuSans-110"/>
      <use x="1028.40625" xlink:href="#DejaVuSans-32"/>
      <use x="1060.193359" xlink:href="#DejaVuSans-49"/>
      <use x="1123.816406" xlink:href="#DejaVuSans-48"/>
      <use x="1187.439453" xlink:href="#DejaVuSans-44"/>
      <use x="1219.226562" xlink:href="#DejaVuSans-48"/>
      <use x="1282.849609" xlink:href="#DejaVuSans-48"/>
      <use x="1346.472656" xlink:href="#DejaVuSans-48"/>
      <use x="1410.095703" xlink:href="#DejaVuSans-115"/>
      <use x="1462.195312" xlink:href="#DejaVuSans-41"/>
     </g>
    </g>
   </g>
   <g id="matplotlib.axis_2">
    <g id="ytick_1">
     <g id="line2d_9">
      <defs>
       <path d="M 0 0 
L -3.5 0 
" id="mca301f6a7e" style="stroke:#000000;stroke-width:0.8;"/>
      </defs>
      <g>
       <use style="stroke:#000000;stroke-width:0.8;" x="90" xlink:href="#mca301f6a7e" y="555.910858"/>
      </g>
     </g>
     <g id="text_10">
      <!-- 0 -->
      <g transform="translate(76.6375 559.710077)scale(0.1 -0.1)">
       <use xlink:href="#DejaVuSans-48"/>
      </g>
     </g>
    </g>
    <g id="ytick_2">
     <g id="line2d_10">
      <g>
       <use style="stroke:#000000;stroke-width:0.8;" x="90" xlink:href="#mca301f6a7e" y="463.807953"/>
      </g>
     </g>
     <g id="text_11">
      <!-- 5 -->
      <g transform="translate(76.6375 467.607172)scale(0.1 -0.1)">
       <use xlink:href="#DejaVuSans-53"/>
      </g>
     </g>
    </g>
    <g id="ytick_3">
     <g id="line2d_11">
      <g>
       <use style="stroke:#000000;stroke-width:0.8;" x="90" xlink:href="#mca301f6a7e" y="371.705049"/>
      </g>
     </g>
     <g id="text_12">
      <!-- 10 -->
      <g transform="translate(70.275 375.504268)scale(0.1 -0.1)">
       <use xlink:href="#DejaVuSans-49"/>
       <use x="63.623047" xlink:href="#DejaVuSans-48"/>
      </g>
     </g>
    </g>
    <g id="ytick_4">
     <g id="line2d_12">
      <g>
       <use style="stroke:#000000;stroke-width:0.8;" x="90" xlink:href="#mca301f6a7e" y="279.602144"/>
      </g>
     </g>
     <g id="text_13">
      <!-- 15 -->
      <g transform="translate(70.275 283.401363)scale(0.1 -0.1)">
       <use xlink:href="#DejaVuSans-49"/>
       <use x="63.623047" xlink:href="#DejaVuSans-53"/>
      </g>
     </g>
    </g>
    <g id="ytick_5">
     <g id="line2d_13">
      <g>
       <use style="stroke:#000000;stroke-width:0.8;" x="90" xlink:href="#mca301f6a7e" y="187.49924"/>
      </g>
     </g>
     <g id="text_14">
      <!-- 20 -->
      <g transform="translate(70.275 191.298459)scale(0.1 -0.1)">
       <use xlink:href="#DejaVuSans-50"/>
       <use x="63.623047" xlink:href="#DejaVuSans-48"/>
      </g>
     </g>
    </g>
    <g id="ytick_6">
     <g id="line2d_14">
      <g>
       <use style="stroke:#000000;stroke-width:0.8;" x="90" xlink:href="#mca301f6a7e" y="95.396335"/>
      </g>
     </g>
     <g id="text_15">
      <!-- 25 -->
      <g transform="translate(70.275 99.195554)scale(0.1 -0.1)">
       <use xlink:href="#DejaVuSans-50"/>
       <use x="63.623047" xlink:href="#DejaVuSans-53"/>
      </g>
     </g>
    </g>
    <g id="text_16">
     <!-- Profit (in $10,000s) -->
     <g transform="translate(64.195312 406.157812)rotate(-90)scale(0.1 -0.1)">
      <defs>
       <path d="M 41.109375 46.296875 
Q 39.59375 47.171875 37.8125 47.578125 
Q 36.03125 48 33.890625 48 
Q 26.265625 48 22.1875 43.046875 
Q 18.109375 38.09375 18.109375 28.8125 
L 18.109375 0 
L 9.078125 0 
L 9.078125 54.6875 
L 18.109375 54.6875 
L 18.109375 46.1875 
Q 20.953125 51.171875 25.484375 53.578125 
Q 30.03125 56 36.53125 56 
Q 37.453125 56 38.578125 55.875 
Q 39.703125 55.765625 41.0625 55.515625 
z
" id="DejaVuSans-114"/>
       <path d="M 33.796875 -14.703125 
L 28.90625 -14.703125 
L 28.859375 0 
Q 23.734375 0.09375 18.609375 1.1875 
Q 13.484375 2.296875 8.296875 4.5 
L 8.296875 13.28125 
Q 13.28125 10.15625 18.375 8.5625 
Q 23.484375 6.984375 28.90625 6.9375 
L 28.90625 29.203125 
Q 18.109375 30.953125 13.203125 35.15625 
Q 8.296875 39.359375 8.296875 46.6875 
Q 8.296875 54.640625 13.625 59.21875 
Q 18.953125 63.8125 28.90625 64.5 
L 28.90625 75.984375 
L 33.796875 75.984375 
L 33.796875 64.65625 
Q 38.328125 64.453125 42.578125 63.6875 
Q 46.828125 62.9375 50.875 61.625 
L 50.875 53.078125 
Q 46.828125 55.125 42.546875 56.25 
Q 38.28125 57.375 33.796875 57.5625 
L 33.796875 36.71875 
Q 44.875 35.015625 50.09375 30.609375 
Q 55.328125 26.21875 55.328125 18.609375 
Q 55.328125 10.359375 49.78125 5.59375 
Q 44.234375 0.828125 33.796875 0.09375 
z
M 28.90625 37.59375 
L 28.90625 57.625 
Q 23.25 56.984375 20.265625 54.390625 
Q 17.28125 51.8125 17.28125 47.515625 
Q 17.28125 43.3125 20.03125 40.96875 
Q 22.796875 38.625 28.90625 37.59375 
z
M 33.796875 28.21875 
L 33.796875 7.078125 
Q 39.984375 7.90625 43.140625 10.59375 
Q 46.296875 13.28125 46.296875 17.671875 
Q 46.296875 21.96875 43.28125 24.5 
Q 40.28125 27.046875 33.796875 28.21875 
z
" id="DejaVuSans-36"/>
      </defs>
      <use xlink:href="#DejaVuSans-80"/>
      <use x="58.552734" xlink:href="#DejaVuSans-114"/>
      <use x="97.416016" xlink:href="#DejaVuSans-111"/>
      <use x="158.597656" xlink:href="#DejaVuSans-102"/>
      <use x="193.802734" xlink:href="#DejaVuSans-105"/>
      <use x="221.585938" xlink:href="#DejaVuSans-116"/>
      <use x="260.794922" xlink:href="#DejaVuSans-32"/>
      <use x="292.582031" xlink:href="#DejaVuSans-40"/>
      <use x="331.595703" xlink:href="#DejaVuSans-105"/>
      <use x="359.378906" xlink:href="#DejaVuSans-110"/>
      <use x="422.757812" xlink:href="#DejaVuSans-32"/>
      <use x="454.544922" xlink:href="#DejaVuSans-36"/>
      <use x="518.167969" xlink:href="#DejaVuSans-49"/>
      <use x="581.791016" xlink:href="#DejaVuSans-48"/>
      <use x="645.414062" xlink:href="#DejaVuSans-44"/>
      <use x="677.201172" xlink:href="#DejaVuSans-48"/>
      <use x="740.824219" xlink:href="#DejaVuSans-48"/>
      <use x="804.447266" xlink:href="#DejaVuSans-48"/>
      <use x="868.070312" xlink:href="#DejaVuSans-115"/>
      <use x="920.169922" xlink:href="#DejaVuSans-41"/>
     </g>
    </g>
   </g>
   <g id="patch_3">
    <path d="M 90 630 
L 90 86.4 
" style="fill:none;stroke:#000000;stroke-linecap:square;stroke-linejoin:miter;stroke-width:0.8;"/>
   </g>
   <g id="patch_4">
    <path d="M 648 630 
L 648 86.4 
" style="fill:none;stroke:#000000;stroke-linecap:square;stroke-linejoin:miter;stroke-width:0.8;"/>
   </g>
   <g id="patch_5">
    <path d="M 90 630 
L 648 630 
" style="fill:none;stroke:#000000;stroke-linecap:square;stroke-linejoin:miter;stroke-width:0.8;"/>
   </g>
   <g id="patch_6">
    <path d="M 90 86.4 
L 648 86.4 
" style="fill:none;stroke:#000000;stroke-linecap:square;stroke-linejoin:miter;stroke-width:0.8;"/>
   </g>
  </g>
 </g>
 <defs>
  <clipPath id="p0089ee016c">
   <rect height="543.6" width="558" x="90" y="86.4"/>
  </clipPath>
 </defs>
</svg>
