<?xml version="1.0" encoding="utf-8" standalone="no"?>
<!DOCTYPE svg PUBLIC "-//W3C//DTD SVG 1.1//EN"
  "http://www.w3.org/Graphics/SVG/1.1/DTD/svg11.dtd">
<!-- Created with matplotlib (https://matplotlib.org/) -->
<svg height="666.72pt" version="1.1" viewBox="0 0 678.09023 666.72" width="678.09023pt" xmlns="http://www.w3.org/2000/svg" xmlns:xlink="http://www.w3.org/1999/xlink">
 <metadata>
  <rdf:RDF xmlns:cc="http://creativecommons.org/ns#" xmlns:dc="http://purl.org/dc/elements/1.1/" xmlns:rdf="http://www.w3.org/1999/02/22-rdf-syntax-ns#">
   <cc:Work>
    <dc:type rdf:resource="http://purl.org/dc/dcmitype/StillImage"/>
    <dc:date>2020-12-25T19:03:36.033031</dc:date>
    <dc:format>image/svg+xml</dc:format>
    <dc:creator>
     <cc:Agent>
      <dc:title>Matplotlib v3.3.2, https://matplotlib.org/</dc:title>
     </cc:Agent>
    </dc:creator>
   </cc:Work>
  </rdf:RDF>
 </metadata>
 <defs>
  <style type="text/css">*{stroke-linecap:butt;stroke-linejoin:round;}</style>
 </defs>
 <g id="figure_1">
  <g id="patch_1">
   <path d="M 0 666.72 
L 678.09023 666.72 
L 678.09023 0 
L 0 0 
z
" style="fill:none;"/>
  </g>
  <g id="patch_2">
   <path d="M 7.2 659.52 
L 659.52 659.52 
L 659.52 7.2 
L 7.2 7.2 
z
" style="fill:#ffffff;"/>
  </g>
  <g id="pane3d_1">
   <g id="patch_3">
    <path d="M 56.454659 498.678793 
L 271.872026 318.111684 
L 268.877519 57.701634 
L 43.151319 222.426333 
" style="fill:#f2f2f2;opacity:0.5;stroke:#f2f2f2;stroke-linejoin:miter;"/>
   </g>
  </g>
  <g id="pane3d_2">
   <g id="patch_4">
    <path d="M 271.872026 318.111684 
L 617.54004 418.583729 
L 629.875713 149.204153 
L 268.877519 57.701634 
" style="fill:#e6e6e6;opacity:0.5;stroke:#e6e6e6;stroke-linejoin:miter;"/>
   </g>
  </g>
  <g id="pane3d_3">
   <g id="patch_5">
    <path d="M 56.454659 498.678793 
L 422.879637 618.35319 
L 617.54004 418.583729 
L 271.872026 318.111684 
" style="fill:#ececec;opacity:0.5;stroke:#ececec;stroke-linejoin:miter;"/>
   </g>
  </g>
  <g id="axis3d_1">
   <g id="line2d_1">
    <path d="M 56.454659 498.678793 
L 422.879637 618.35319 
" style="fill:none;stroke:#000000;stroke-linecap:square;stroke-width:0.8;"/>
   </g>
   <g id="text_1">
    <!-- size of house (in square feet) -->
    <g transform="translate(148.469485 572.027859)rotate(-341.912962)scale(0.1 -0.1)">
     <defs>
      <path d="M 44.28125 53.078125 
L 44.28125 44.578125 
Q 40.484375 46.53125 36.375 47.5 
Q 32.28125 48.484375 27.875 48.484375 
Q 21.1875 48.484375 17.84375 46.4375 
Q 14.5 44.390625 14.5 40.28125 
Q 14.5 37.15625 16.890625 35.375 
Q 19.28125 33.59375 26.515625 31.984375 
L 29.59375 31.296875 
Q 39.15625 29.25 43.1875 25.515625 
Q 47.21875 21.78125 47.21875 15.09375 
Q 47.21875 7.46875 41.1875 3.015625 
Q 35.15625 -1.421875 24.609375 -1.421875 
Q 20.21875 -1.421875 15.453125 -0.5625 
Q 10.6875 0.296875 5.421875 2 
L 5.421875 11.28125 
Q 10.40625 8.6875 15.234375 7.390625 
Q 20.0625 6.109375 24.8125 6.109375 
Q 31.15625 6.109375 34.5625 8.28125 
Q 37.984375 10.453125 37.984375 14.40625 
Q 37.984375 18.0625 35.515625 20.015625 
Q 33.0625 21.96875 24.703125 23.78125 
L 21.578125 24.515625 
Q 13.234375 26.265625 9.515625 29.90625 
Q 5.8125 33.546875 5.8125 39.890625 
Q 5.8125 47.609375 11.28125 51.796875 
Q 16.75 56 26.8125 56 
Q 31.78125 56 36.171875 55.265625 
Q 40.578125 54.546875 44.28125 53.078125 
z
" id="DejaVuSans-115"/>
      <path d="M 9.421875 54.6875 
L 18.40625 54.6875 
L 18.40625 0 
L 9.421875 0 
z
M 9.421875 75.984375 
L 18.40625 75.984375 
L 18.40625 64.59375 
L 9.421875 64.59375 
z
" id="DejaVuSans-105"/>
      <path d="M 5.515625 54.6875 
L 48.1875 54.6875 
L 48.1875 46.484375 
L 14.40625 7.171875 
L 48.1875 7.171875 
L 48.1875 0 
L 4.296875 0 
L 4.296875 8.203125 
L 38.09375 47.515625 
L 5.515625 47.515625 
z
" id="DejaVuSans-122"/>
      <path d="M 56.203125 29.59375 
L 56.203125 25.203125 
L 14.890625 25.203125 
Q 15.484375 15.921875 20.484375 11.0625 
Q 25.484375 6.203125 34.421875 6.203125 
Q 39.59375 6.203125 44.453125 7.46875 
Q 49.3125 8.734375 54.109375 11.28125 
L 54.109375 2.78125 
Q 49.265625 0.734375 44.1875 -0.34375 
Q 39.109375 -1.421875 33.890625 -1.421875 
Q 20.796875 -1.421875 13.15625 6.1875 
Q 5.515625 13.8125 5.515625 26.8125 
Q 5.515625 40.234375 12.765625 48.109375 
Q 20.015625 56 32.328125 56 
Q 43.359375 56 49.78125 48.890625 
Q 56.203125 41.796875 56.203125 29.59375 
z
M 47.21875 32.234375 
Q 47.125 39.59375 43.09375 43.984375 
Q 39.0625 48.390625 32.421875 48.390625 
Q 24.90625 48.390625 20.390625 44.140625 
Q 15.875 39.890625 15.1875 32.171875 
z
" id="DejaVuSans-101"/>
      <path id="DejaVuSans-32"/>
      <path d="M 30.609375 48.390625 
Q 23.390625 48.390625 19.1875 42.75 
Q 14.984375 37.109375 14.984375 27.296875 
Q 14.984375 17.484375 19.15625 11.84375 
Q 23.34375 6.203125 30.609375 6.203125 
Q 37.796875 6.203125 41.984375 11.859375 
Q 46.1875 17.53125 46.1875 27.296875 
Q 46.1875 37.015625 41.984375 42.703125 
Q 37.796875 48.390625 30.609375 48.390625 
z
M 30.609375 56 
Q 42.328125 56 49.015625 48.375 
Q 55.71875 40.765625 55.71875 27.296875 
Q 55.71875 13.875 49.015625 6.21875 
Q 42.328125 -1.421875 30.609375 -1.421875 
Q 18.84375 -1.421875 12.171875 6.21875 
Q 5.515625 13.875 5.515625 27.296875 
Q 5.515625 40.765625 12.171875 48.375 
Q 18.84375 56 30.609375 56 
z
" id="DejaVuSans-111"/>
      <path d="M 37.109375 75.984375 
L 37.109375 68.5 
L 28.515625 68.5 
Q 23.6875 68.5 21.796875 66.546875 
Q 19.921875 64.59375 19.921875 59.515625 
L 19.921875 54.6875 
L 34.71875 54.6875 
L 34.71875 47.703125 
L 19.921875 47.703125 
L 19.921875 0 
L 10.890625 0 
L 10.890625 47.703125 
L 2.296875 47.703125 
L 2.296875 54.6875 
L 10.890625 54.6875 
L 10.890625 58.5 
Q 10.890625 67.625 15.140625 71.796875 
Q 19.390625 75.984375 28.609375 75.984375 
z
" id="DejaVuSans-102"/>
      <path d="M 54.890625 33.015625 
L 54.890625 0 
L 45.90625 0 
L 45.90625 32.71875 
Q 45.90625 40.484375 42.875 44.328125 
Q 39.84375 48.1875 33.796875 48.1875 
Q 26.515625 48.1875 22.3125 43.546875 
Q 18.109375 38.921875 18.109375 30.90625 
L 18.109375 0 
L 9.078125 0 
L 9.078125 75.984375 
L 18.109375 75.984375 
L 18.109375 46.1875 
Q 21.34375 51.125 25.703125 53.5625 
Q 30.078125 56 35.796875 56 
Q 45.21875 56 50.046875 50.171875 
Q 54.890625 44.34375 54.890625 33.015625 
z
" id="DejaVuSans-104"/>
      <path d="M 8.5 21.578125 
L 8.5 54.6875 
L 17.484375 54.6875 
L 17.484375 21.921875 
Q 17.484375 14.15625 20.5 10.265625 
Q 23.53125 6.390625 29.59375 6.390625 
Q 36.859375 6.390625 41.078125 11.03125 
Q 45.3125 15.671875 45.3125 23.6875 
L 45.3125 54.6875 
L 54.296875 54.6875 
L 54.296875 0 
L 45.3125 0 
L 45.3125 8.40625 
Q 42.046875 3.421875 37.71875 1 
Q 33.40625 -1.421875 27.6875 -1.421875 
Q 18.265625 -1.421875 13.375 4.4375 
Q 8.5 10.296875 8.5 21.578125 
z
M 31.109375 56 
z
" id="DejaVuSans-117"/>
      <path d="M 31 75.875 
Q 24.46875 64.65625 21.28125 53.65625 
Q 18.109375 42.671875 18.109375 31.390625 
Q 18.109375 20.125 21.3125 9.0625 
Q 24.515625 -2 31 -13.1875 
L 23.1875 -13.1875 
Q 15.875 -1.703125 12.234375 9.375 
Q 8.59375 20.453125 8.59375 31.390625 
Q 8.59375 42.28125 12.203125 53.3125 
Q 15.828125 64.359375 23.1875 75.875 
z
" id="DejaVuSans-40"/>
      <path d="M 54.890625 33.015625 
L 54.890625 0 
L 45.90625 0 
L 45.90625 32.71875 
Q 45.90625 40.484375 42.875 44.328125 
Q 39.84375 48.1875 33.796875 48.1875 
Q 26.515625 48.1875 22.3125 43.546875 
Q 18.109375 38.921875 18.109375 30.90625 
L 18.109375 0 
L 9.078125 0 
L 9.078125 54.6875 
L 18.109375 54.6875 
L 18.109375 46.1875 
Q 21.34375 51.125 25.703125 53.5625 
Q 30.078125 56 35.796875 56 
Q 45.21875 56 50.046875 50.171875 
Q 54.890625 44.34375 54.890625 33.015625 
z
" id="DejaVuSans-110"/>
      <path d="M 14.796875 27.296875 
Q 14.796875 17.390625 18.875 11.75 
Q 22.953125 6.109375 30.078125 6.109375 
Q 37.203125 6.109375 41.296875 11.75 
Q 45.40625 17.390625 45.40625 27.296875 
Q 45.40625 37.203125 41.296875 42.84375 
Q 37.203125 48.484375 30.078125 48.484375 
Q 22.953125 48.484375 18.875 42.84375 
Q 14.796875 37.203125 14.796875 27.296875 
z
M 45.40625 8.203125 
Q 42.578125 3.328125 38.25 0.953125 
Q 33.9375 -1.421875 27.875 -1.421875 
Q 17.96875 -1.421875 11.734375 6.484375 
Q 5.515625 14.40625 5.515625 27.296875 
Q 5.515625 40.1875 11.734375 48.09375 
Q 17.96875 56 27.875 56 
Q 33.9375 56 38.25 53.625 
Q 42.578125 51.265625 45.40625 46.390625 
L 45.40625 54.6875 
L 54.390625 54.6875 
L 54.390625 -20.796875 
L 45.40625 -20.796875 
z
" id="DejaVuSans-113"/>
      <path d="M 34.28125 27.484375 
Q 23.390625 27.484375 19.1875 25 
Q 14.984375 22.515625 14.984375 16.5 
Q 14.984375 11.71875 18.140625 8.90625 
Q 21.296875 6.109375 26.703125 6.109375 
Q 34.1875 6.109375 38.703125 11.40625 
Q 43.21875 16.703125 43.21875 25.484375 
L 43.21875 27.484375 
z
M 52.203125 31.203125 
L 52.203125 0 
L 43.21875 0 
L 43.21875 8.296875 
Q 40.140625 3.328125 35.546875 0.953125 
Q 30.953125 -1.421875 24.3125 -1.421875 
Q 15.921875 -1.421875 10.953125 3.296875 
Q 6 8.015625 6 15.921875 
Q 6 25.140625 12.171875 29.828125 
Q 18.359375 34.515625 30.609375 34.515625 
L 43.21875 34.515625 
L 43.21875 35.40625 
Q 43.21875 41.609375 39.140625 45 
Q 35.0625 48.390625 27.6875 48.390625 
Q 23 48.390625 18.546875 47.265625 
Q 14.109375 46.140625 10.015625 43.890625 
L 10.015625 52.203125 
Q 14.9375 54.109375 19.578125 55.046875 
Q 24.21875 56 28.609375 56 
Q 40.484375 56 46.34375 49.84375 
Q 52.203125 43.703125 52.203125 31.203125 
z
" id="DejaVuSans-97"/>
      <path d="M 41.109375 46.296875 
Q 39.59375 47.171875 37.8125 47.578125 
Q 36.03125 48 33.890625 48 
Q 26.265625 48 22.1875 43.046875 
Q 18.109375 38.09375 18.109375 28.8125 
L 18.109375 0 
L 9.078125 0 
L 9.078125 54.6875 
L 18.109375 54.6875 
L 18.109375 46.1875 
Q 20.953125 51.171875 25.484375 53.578125 
Q 30.03125 56 36.53125 56 
Q 37.453125 56 38.578125 55.875 
Q 39.703125 55.765625 41.0625 55.515625 
z
" id="DejaVuSans-114"/>
      <path d="M 18.3125 70.21875 
L 18.3125 54.6875 
L 36.8125 54.6875 
L 36.8125 47.703125 
L 18.3125 47.703125 
L 18.3125 18.015625 
Q 18.3125 11.328125 20.140625 9.421875 
Q 21.96875 7.515625 27.59375 7.515625 
L 36.8125 7.515625 
L 36.8125 0 
L 27.59375 0 
Q 17.1875 0 13.234375 3.875 
Q 9.28125 7.765625 9.28125 18.015625 
L 9.28125 47.703125 
L 2.6875 47.703125 
L 2.6875 54.6875 
L 9.28125 54.6875 
L 9.28125 70.21875 
z
" id="DejaVuSans-116"/>
      <path d="M 8.015625 75.875 
L 15.828125 75.875 
Q 23.140625 64.359375 26.78125 53.3125 
Q 30.421875 42.28125 30.421875 31.390625 
Q 30.421875 20.453125 26.78125 9.375 
Q 23.140625 -1.703125 15.828125 -13.1875 
L 8.015625 -13.1875 
Q 14.5 -2 17.703125 9.0625 
Q 20.90625 20.125 20.90625 31.390625 
Q 20.90625 42.671875 17.703125 53.65625 
Q 14.5 64.65625 8.015625 75.875 
z
" id="DejaVuSans-41"/>
     </defs>
     <use xlink:href="#DejaVuSans-115"/>
     <use x="52.099609" xlink:href="#DejaVuSans-105"/>
     <use x="79.882812" xlink:href="#DejaVuSans-122"/>
     <use x="132.373047" xlink:href="#DejaVuSans-101"/>
     <use x="193.896484" xlink:href="#DejaVuSans-32"/>
     <use x="225.683594" xlink:href="#DejaVuSans-111"/>
     <use x="286.865234" xlink:href="#DejaVuSans-102"/>
     <use x="322.070312" xlink:href="#DejaVuSans-32"/>
     <use x="353.857422" xlink:href="#DejaVuSans-104"/>
     <use x="417.236328" xlink:href="#DejaVuSans-111"/>
     <use x="478.417969" xlink:href="#DejaVuSans-117"/>
     <use x="541.796875" xlink:href="#DejaVuSans-115"/>
     <use x="593.896484" xlink:href="#DejaVuSans-101"/>
     <use x="655.419922" xlink:href="#DejaVuSans-32"/>
     <use x="687.207031" xlink:href="#DejaVuSans-40"/>
     <use x="726.220703" xlink:href="#DejaVuSans-105"/>
     <use x="754.003906" xlink:href="#DejaVuSans-110"/>
     <use x="817.382812" xlink:href="#DejaVuSans-32"/>
     <use x="849.169922" xlink:href="#DejaVuSans-115"/>
     <use x="901.269531" xlink:href="#DejaVuSans-113"/>
     <use x="964.746094" xlink:href="#DejaVuSans-117"/>
     <use x="1028.125" xlink:href="#DejaVuSans-97"/>
     <use x="1089.404297" xlink:href="#DejaVuSans-114"/>
     <use x="1128.267578" xlink:href="#DejaVuSans-101"/>
     <use x="1189.791016" xlink:href="#DejaVuSans-32"/>
     <use x="1221.578125" xlink:href="#DejaVuSans-102"/>
     <use x="1256.783203" xlink:href="#DejaVuSans-101"/>
     <use x="1318.306641" xlink:href="#DejaVuSans-101"/>
     <use x="1379.830078" xlink:href="#DejaVuSans-116"/>
     <use x="1419.039062" xlink:href="#DejaVuSans-41"/>
    </g>
   </g>
   <g id="Line3DCollection_1">
    <path d="M 91.133637 510.004948 
L 304.717537 327.658577 
L 303.114232 66.379642 
" style="fill:none;stroke:#b0b0b0;stroke-width:0.8;"/>
    <path d="M 133.659123 523.893771 
L 344.957197 339.354658 
L 345.076991 77.015978 
" style="fill:none;stroke:#b0b0b0;stroke-width:0.8;"/>
    <path d="M 176.719758 537.957374 
L 385.661191 351.185702 
L 387.544943 87.780366 
" style="fill:none;stroke:#b0b0b0;stroke-width:0.8;"/>
    <path d="M 220.325709 552.199078 
L 426.837604 363.154059 
L 430.527267 98.675133 
" style="fill:none;stroke:#b0b0b0;stroke-width:0.8;"/>
    <path d="M 264.487401 566.622286 
L 468.494708 375.262135 
L 474.033364 109.70266 
" style="fill:none;stroke:#b0b0b0;stroke-width:0.8;"/>
    <path d="M 309.215525 581.230492 
L 510.640969 387.512389 
L 518.072869 120.865391 
" style="fill:none;stroke:#b0b0b0;stroke-width:0.8;"/>
    <path d="M 354.52105 596.027276 
L 553.285054 399.907341 
L 562.655649 132.165826 
" style="fill:none;stroke:#b0b0b0;stroke-width:0.8;"/>
    <path d="M 400.415229 611.016315 
L 596.435837 412.44957 
L 607.791822 143.60653 
" style="fill:none;stroke:#b0b0b0;stroke-width:0.8;"/>
   </g>
   <g id="xtick_1">
    <g id="line2d_2">
     <path d="M 92.993792 508.416848 
L 87.405332 513.187973 
" style="fill:none;stroke:#000000;stroke-linecap:square;stroke-width:0.8;"/>
    </g>
    <g id="text_2">
     <!-- 1000 -->
     <g transform="translate(70.901211 533.314655)scale(0.1 -0.1)">
      <defs>
       <path d="M 12.40625 8.296875 
L 28.515625 8.296875 
L 28.515625 63.921875 
L 10.984375 60.40625 
L 10.984375 69.390625 
L 28.421875 72.90625 
L 38.28125 72.90625 
L 38.28125 8.296875 
L 54.390625 8.296875 
L 54.390625 0 
L 12.40625 0 
z
" id="DejaVuSans-49"/>
       <path d="M 31.78125 66.40625 
Q 24.171875 66.40625 20.328125 58.90625 
Q 16.5 51.421875 16.5 36.375 
Q 16.5 21.390625 20.328125 13.890625 
Q 24.171875 6.390625 31.78125 6.390625 
Q 39.453125 6.390625 43.28125 13.890625 
Q 47.125 21.390625 47.125 36.375 
Q 47.125 51.421875 43.28125 58.90625 
Q 39.453125 66.40625 31.78125 66.40625 
z
M 31.78125 74.21875 
Q 44.046875 74.21875 50.515625 64.515625 
Q 56.984375 54.828125 56.984375 36.375 
Q 56.984375 17.96875 50.515625 8.265625 
Q 44.046875 -1.421875 31.78125 -1.421875 
Q 19.53125 -1.421875 13.0625 8.265625 
Q 6.59375 17.96875 6.59375 36.375 
Q 6.59375 54.828125 13.0625 64.515625 
Q 19.53125 74.21875 31.78125 74.21875 
z
" id="DejaVuSans-48"/>
      </defs>
      <use xlink:href="#DejaVuSans-49"/>
      <use x="63.623047" xlink:href="#DejaVuSans-48"/>
      <use x="127.246094" xlink:href="#DejaVuSans-48"/>
      <use x="190.869141" xlink:href="#DejaVuSans-48"/>
     </g>
    </g>
   </g>
   <g id="xtick_2">
    <g id="line2d_3">
     <path d="M 135.500306 522.285757 
L 129.968792 527.116755 
" style="fill:none;stroke:#000000;stroke-linecap:square;stroke-width:0.8;"/>
    </g>
    <g id="text_3">
     <!-- 1500 -->
     <g transform="translate(113.444551 547.323054)scale(0.1 -0.1)">
      <defs>
       <path d="M 10.796875 72.90625 
L 49.515625 72.90625 
L 49.515625 64.59375 
L 19.828125 64.59375 
L 19.828125 46.734375 
Q 21.96875 47.46875 24.109375 47.828125 
Q 26.265625 48.1875 28.421875 48.1875 
Q 40.625 48.1875 47.75 41.5 
Q 54.890625 34.8125 54.890625 23.390625 
Q 54.890625 11.625 47.5625 5.09375 
Q 40.234375 -1.421875 26.90625 -1.421875 
Q 22.3125 -1.421875 17.546875 -0.640625 
Q 12.796875 0.140625 7.71875 1.703125 
L 7.71875 11.625 
Q 12.109375 9.234375 16.796875 8.0625 
Q 21.484375 6.890625 26.703125 6.890625 
Q 35.15625 6.890625 40.078125 11.328125 
Q 45.015625 15.765625 45.015625 23.390625 
Q 45.015625 31 40.078125 35.4375 
Q 35.15625 39.890625 26.703125 39.890625 
Q 22.75 39.890625 18.8125 39.015625 
Q 14.890625 38.140625 10.796875 36.28125 
z
" id="DejaVuSans-53"/>
      </defs>
      <use xlink:href="#DejaVuSans-49"/>
      <use x="63.623047" xlink:href="#DejaVuSans-53"/>
      <use x="127.246094" xlink:href="#DejaVuSans-48"/>
      <use x="190.869141" xlink:href="#DejaVuSans-48"/>
     </g>
    </g>
   </g>
   <g id="xtick_3">
    <g id="line2d_4">
     <path d="M 178.541344 536.329069 
L 173.068657 541.221075 
" style="fill:none;stroke:#000000;stroke-linecap:square;stroke-width:0.8;"/>
    </g>
    <g id="text_4">
     <!-- 2000 -->
     <g transform="translate(156.524087 561.508007)scale(0.1 -0.1)">
      <defs>
       <path d="M 19.1875 8.296875 
L 53.609375 8.296875 
L 53.609375 0 
L 7.328125 0 
L 7.328125 8.296875 
Q 12.9375 14.109375 22.625 23.890625 
Q 32.328125 33.6875 34.8125 36.53125 
Q 39.546875 41.84375 41.421875 45.53125 
Q 43.3125 49.21875 43.3125 52.78125 
Q 43.3125 58.59375 39.234375 62.25 
Q 35.15625 65.921875 28.609375 65.921875 
Q 23.96875 65.921875 18.8125 64.3125 
Q 13.671875 62.703125 7.8125 59.421875 
L 7.8125 69.390625 
Q 13.765625 71.78125 18.9375 73 
Q 24.125 74.21875 28.421875 74.21875 
Q 39.75 74.21875 46.484375 68.546875 
Q 53.21875 62.890625 53.21875 53.421875 
Q 53.21875 48.921875 51.53125 44.890625 
Q 49.859375 40.875 45.40625 35.40625 
Q 44.1875 33.984375 37.640625 27.21875 
Q 31.109375 20.453125 19.1875 8.296875 
z
" id="DejaVuSans-50"/>
      </defs>
      <use xlink:href="#DejaVuSans-50"/>
      <use x="63.623047" xlink:href="#DejaVuSans-48"/>
      <use x="127.246094" xlink:href="#DejaVuSans-48"/>
      <use x="190.869141" xlink:href="#DejaVuSans-48"/>
     </g>
    </g>
   </g>
   <g id="xtick_4">
    <g id="line2d_5">
     <path d="M 222.127052 550.550094 
L 216.715132 555.504271 
" style="fill:none;stroke:#000000;stroke-linecap:square;stroke-width:0.8;"/>
    </g>
    <g id="text_5">
     <!-- 2500 -->
     <g transform="translate(200.150021 575.872875)scale(0.1 -0.1)">
      <use xlink:href="#DejaVuSans-50"/>
      <use x="63.623047" xlink:href="#DejaVuSans-53"/>
      <use x="127.246094" xlink:href="#DejaVuSans-48"/>
      <use x="190.869141" xlink:href="#DejaVuSans-48"/>
     </g>
    </g>
   </g>
   <g id="xtick_5">
    <g id="line2d_6">
     <path d="M 266.267836 564.952227 
L 260.918682 569.969768 
" style="fill:none;stroke:#000000;stroke-linecap:square;stroke-width:0.8;"/>
    </g>
    <g id="text_6">
     <!-- 3000 -->
     <g transform="translate(244.332815 590.421102)scale(0.1 -0.1)">
      <defs>
       <path d="M 40.578125 39.3125 
Q 47.65625 37.796875 51.625 33 
Q 55.609375 28.21875 55.609375 21.1875 
Q 55.609375 10.40625 48.1875 4.484375 
Q 40.765625 -1.421875 27.09375 -1.421875 
Q 22.515625 -1.421875 17.65625 -0.515625 
Q 12.796875 0.390625 7.625 2.203125 
L 7.625 11.71875 
Q 11.71875 9.328125 16.59375 8.109375 
Q 21.484375 6.890625 26.8125 6.890625 
Q 36.078125 6.890625 40.9375 10.546875 
Q 45.796875 14.203125 45.796875 21.1875 
Q 45.796875 27.640625 41.28125 31.265625 
Q 36.765625 34.90625 28.71875 34.90625 
L 20.21875 34.90625 
L 20.21875 43.015625 
L 29.109375 43.015625 
Q 36.375 43.015625 40.234375 45.921875 
Q 44.09375 48.828125 44.09375 54.296875 
Q 44.09375 59.90625 40.109375 62.90625 
Q 36.140625 65.921875 28.71875 65.921875 
Q 24.65625 65.921875 20.015625 65.03125 
Q 15.375 64.15625 9.8125 62.3125 
L 9.8125 71.09375 
Q 15.4375 72.65625 20.34375 73.4375 
Q 25.25 74.21875 29.59375 74.21875 
Q 40.828125 74.21875 47.359375 69.109375 
Q 53.90625 64.015625 53.90625 55.328125 
Q 53.90625 49.265625 50.4375 45.09375 
Q 46.96875 40.921875 40.578125 39.3125 
z
" id="DejaVuSans-51"/>
      </defs>
      <use xlink:href="#DejaVuSans-51"/>
      <use x="63.623047" xlink:href="#DejaVuSans-48"/>
      <use x="127.246094" xlink:href="#DejaVuSans-48"/>
      <use x="190.869141" xlink:href="#DejaVuSans-48"/>
     </g>
    </g>
   </g>
   <g id="xtick_6">
    <g id="line2d_7">
     <path d="M 310.974366 579.538951 
L 305.690039 584.621079 
" style="fill:none;stroke:#000000;stroke-linecap:square;stroke-width:0.8;"/>
    </g>
    <g id="text_7">
     <!-- 3500 -->
     <g transform="translate(289.083198 605.156221)scale(0.1 -0.1)">
      <use xlink:href="#DejaVuSans-51"/>
      <use x="63.623047" xlink:href="#DejaVuSans-53"/>
      <use x="127.246094" xlink:href="#DejaVuSans-48"/>
      <use x="190.869141" xlink:href="#DejaVuSans-48"/>
     </g>
    </g>
   </g>
   <g id="xtick_7">
    <g id="line2d_8">
     <path d="M 356.25759 594.313837 
L 351.040216 599.461807 
" style="fill:none;stroke:#000000;stroke-linecap:square;stroke-width:0.8;"/>
    </g>
    <g id="text_8">
     <!-- 4000 -->
     <g transform="translate(334.412179 620.081858)scale(0.1 -0.1)">
      <defs>
       <path d="M 37.796875 64.3125 
L 12.890625 25.390625 
L 37.796875 25.390625 
z
M 35.203125 72.90625 
L 47.609375 72.90625 
L 47.609375 25.390625 
L 58.015625 25.390625 
L 58.015625 17.1875 
L 47.609375 17.1875 
L 47.609375 0 
L 37.796875 0 
L 37.796875 17.1875 
L 4.890625 17.1875 
L 4.890625 26.703125 
z
" id="DejaVuSans-52"/>
      </defs>
      <use xlink:href="#DejaVuSans-52"/>
      <use x="63.623047" xlink:href="#DejaVuSans-48"/>
      <use x="127.246094" xlink:href="#DejaVuSans-48"/>
      <use x="190.869141" xlink:href="#DejaVuSans-48"/>
     </g>
    </g>
   </g>
   <g id="xtick_8">
    <g id="line2d_9">
     <path d="M 402.128738 609.280549 
L 396.980509 614.495649 
" style="fill:none;stroke:#000000;stroke-linecap:square;stroke-width:0.8;"/>
    </g>
    <g id="text_9">
     <!-- 4500 -->
     <g transform="translate(380.331053 635.20173)scale(0.1 -0.1)">
      <use xlink:href="#DejaVuSans-52"/>
      <use x="63.623047" xlink:href="#DejaVuSans-53"/>
      <use x="127.246094" xlink:href="#DejaVuSans-48"/>
      <use x="190.869141" xlink:href="#DejaVuSans-48"/>
     </g>
    </g>
   </g>
  </g>
  <g id="axis3d_2">
   <g id="line2d_10">
    <path d="M 617.54004 418.583729 
L 422.879637 618.35319 
" style="fill:none;stroke:#000000;stroke-linecap:square;stroke-width:0.8;"/>
   </g>
   <g id="text_10">
    <!-- number of bedrooms -->
    <g transform="translate(516.8749 581.492922)rotate(-45.742112)scale(0.1 -0.1)">
     <defs>
      <path d="M 52 44.1875 
Q 55.375 50.25 60.0625 53.125 
Q 64.75 56 71.09375 56 
Q 79.640625 56 84.28125 50.015625 
Q 88.921875 44.046875 88.921875 33.015625 
L 88.921875 0 
L 79.890625 0 
L 79.890625 32.71875 
Q 79.890625 40.578125 77.09375 44.375 
Q 74.3125 48.1875 68.609375 48.1875 
Q 61.625 48.1875 57.5625 43.546875 
Q 53.515625 38.921875 53.515625 30.90625 
L 53.515625 0 
L 44.484375 0 
L 44.484375 32.71875 
Q 44.484375 40.625 41.703125 44.40625 
Q 38.921875 48.1875 33.109375 48.1875 
Q 26.21875 48.1875 22.15625 43.53125 
Q 18.109375 38.875 18.109375 30.90625 
L 18.109375 0 
L 9.078125 0 
L 9.078125 54.6875 
L 18.109375 54.6875 
L 18.109375 46.1875 
Q 21.1875 51.21875 25.484375 53.609375 
Q 29.78125 56 35.6875 56 
Q 41.65625 56 45.828125 52.96875 
Q 50 49.953125 52 44.1875 
z
" id="DejaVuSans-109"/>
      <path d="M 48.6875 27.296875 
Q 48.6875 37.203125 44.609375 42.84375 
Q 40.53125 48.484375 33.40625 48.484375 
Q 26.265625 48.484375 22.1875 42.84375 
Q 18.109375 37.203125 18.109375 27.296875 
Q 18.109375 17.390625 22.1875 11.75 
Q 26.265625 6.109375 33.40625 6.109375 
Q 40.53125 6.109375 44.609375 11.75 
Q 48.6875 17.390625 48.6875 27.296875 
z
M 18.109375 46.390625 
Q 20.953125 51.265625 25.265625 53.625 
Q 29.59375 56 35.59375 56 
Q 45.5625 56 51.78125 48.09375 
Q 58.015625 40.1875 58.015625 27.296875 
Q 58.015625 14.40625 51.78125 6.484375 
Q 45.5625 -1.421875 35.59375 -1.421875 
Q 29.59375 -1.421875 25.265625 0.953125 
Q 20.953125 3.328125 18.109375 8.203125 
L 18.109375 0 
L 9.078125 0 
L 9.078125 75.984375 
L 18.109375 75.984375 
z
" id="DejaVuSans-98"/>
      <path d="M 45.40625 46.390625 
L 45.40625 75.984375 
L 54.390625 75.984375 
L 54.390625 0 
L 45.40625 0 
L 45.40625 8.203125 
Q 42.578125 3.328125 38.25 0.953125 
Q 33.9375 -1.421875 27.875 -1.421875 
Q 17.96875 -1.421875 11.734375 6.484375 
Q 5.515625 14.40625 5.515625 27.296875 
Q 5.515625 40.1875 11.734375 48.09375 
Q 17.96875 56 27.875 56 
Q 33.9375 56 38.25 53.625 
Q 42.578125 51.265625 45.40625 46.390625 
z
M 14.796875 27.296875 
Q 14.796875 17.390625 18.875 11.75 
Q 22.953125 6.109375 30.078125 6.109375 
Q 37.203125 6.109375 41.296875 11.75 
Q 45.40625 17.390625 45.40625 27.296875 
Q 45.40625 37.203125 41.296875 42.84375 
Q 37.203125 48.484375 30.078125 48.484375 
Q 22.953125 48.484375 18.875 42.84375 
Q 14.796875 37.203125 14.796875 27.296875 
z
" id="DejaVuSans-100"/>
     </defs>
     <use xlink:href="#DejaVuSans-110"/>
     <use x="63.378906" xlink:href="#DejaVuSans-117"/>
     <use x="126.757812" xlink:href="#DejaVuSans-109"/>
     <use x="224.169922" xlink:href="#DejaVuSans-98"/>
     <use x="287.646484" xlink:href="#DejaVuSans-101"/>
     <use x="349.169922" xlink:href="#DejaVuSans-114"/>
     <use x="390.283203" xlink:href="#DejaVuSans-32"/>
     <use x="422.070312" xlink:href="#DejaVuSans-111"/>
     <use x="483.251953" xlink:href="#DejaVuSans-102"/>
     <use x="518.457031" xlink:href="#DejaVuSans-32"/>
     <use x="550.244141" xlink:href="#DejaVuSans-98"/>
     <use x="613.720703" xlink:href="#DejaVuSans-101"/>
     <use x="675.244141" xlink:href="#DejaVuSans-100"/>
     <use x="738.720703" xlink:href="#DejaVuSans-114"/>
     <use x="777.583984" xlink:href="#DejaVuSans-111"/>
     <use x="838.765625" xlink:href="#DejaVuSans-111"/>
     <use x="899.947266" xlink:href="#DejaVuSans-109"/>
     <use x="997.359375" xlink:href="#DejaVuSans-115"/>
    </g>
   </g>
   <g id="Line3DCollection_2">
    <path d="M 58.760845 211.035212 
L 71.298736 486.236193 
L 436.34863 604.53069 
" style="fill:none;stroke:#b0b0b0;stroke-width:0.8;"/>
    <path d="M 85.096435 191.816698 
L 96.36055 465.228884 
L 459.070214 581.212755 
" style="fill:none;stroke:#b0b0b0;stroke-width:0.8;"/>
    <path d="M 110.910637 172.978669 
L 120.947729 444.619423 
L 481.33878 558.359728 
" style="fill:none;stroke:#b0b0b0;stroke-width:0.8;"/>
    <path d="M 136.218784 154.509936 
L 145.07363 424.396614 
L 503.167743 535.957842 
" style="fill:none;stroke:#b0b0b0;stroke-width:0.8;"/>
    <path d="M 161.035611 136.399746 
L 168.751113 404.549679 
L 524.569993 513.993868 
" style="fill:none;stroke:#b0b0b0;stroke-width:0.8;"/>
    <path d="M 185.375289 118.637757 
L 191.992564 385.068233 
L 545.557921 492.455091 
" style="fill:none;stroke:#b0b0b0;stroke-width:0.8;"/>
    <path d="M 209.251448 101.214024 
L 214.809919 365.942274 
L 566.143443 471.329282 
" style="fill:none;stroke:#b0b0b0;stroke-width:0.8;"/>
    <path d="M 232.677203 84.118975 
L 237.21468 347.162159 
L 586.338021 450.604676 
" style="fill:none;stroke:#b0b0b0;stroke-width:0.8;"/>
    <path d="M 255.66518 67.343397 
L 259.217939 328.718591 
L 606.152689 430.269952 
" style="fill:none;stroke:#b0b0b0;stroke-width:0.8;"/>
   </g>
   <g id="xtick_9">
    <g id="line2d_11">
     <path d="M 433.272344 603.533818 
L 442.509159 606.52701 
" style="fill:none;stroke:#000000;stroke-linecap:square;stroke-width:0.8;"/>
    </g>
    <g id="text_11">
     <!-- 1.0 -->
     <g transform="translate(441.273137 625.547663)scale(0.1 -0.1)">
      <defs>
       <path d="M 10.6875 12.40625 
L 21 12.40625 
L 21 0 
L 10.6875 0 
z
" id="DejaVuSans-46"/>
      </defs>
      <use xlink:href="#DejaVuSans-49"/>
      <use x="63.623047" xlink:href="#DejaVuSans-46"/>
      <use x="95.410156" xlink:href="#DejaVuSans-48"/>
     </g>
    </g>
   </g>
   <g id="xtick_10">
    <g id="line2d_12">
     <path d="M 456.015207 580.235854 
L 465.188047 583.169058 
" style="fill:none;stroke:#000000;stroke-linecap:square;stroke-width:0.8;"/>
    </g>
    <g id="text_12">
     <!-- 1.5 -->
     <g transform="translate(463.870529 602.088944)scale(0.1 -0.1)">
      <use xlink:href="#DejaVuSans-49"/>
      <use x="63.623047" xlink:href="#DejaVuSans-46"/>
      <use x="95.410156" xlink:href="#DejaVuSans-53"/>
     </g>
    </g>
   </g>
   <g id="xtick_11">
    <g id="line2d_13">
     <path d="M 478.304821 557.402203 
L 487.414388 560.277205 
" style="fill:none;stroke:#000000;stroke-linecap:square;stroke-width:0.8;"/>
    </g>
    <g id="text_13">
     <!-- 2.0 -->
     <g transform="translate(486.017272 579.098052)scale(0.1 -0.1)">
      <use xlink:href="#DejaVuSans-50"/>
      <use x="63.623047" xlink:href="#DejaVuSans-46"/>
      <use x="95.410156" xlink:href="#DejaVuSans-48"/>
     </g>
    </g>
   </g>
   <g id="xtick_12">
    <g id="line2d_14">
     <path d="M 500.154599 535.019122 
L 509.201592 537.837637 
" style="fill:none;stroke:#000000;stroke-linecap:square;stroke-width:0.8;"/>
    </g>
    <g id="text_14">
     <!-- 2.5 -->
     <g transform="translate(507.726713 556.56113)scale(0.1 -0.1)">
      <use xlink:href="#DejaVuSans-50"/>
      <use x="63.623047" xlink:href="#DejaVuSans-46"/>
      <use x="95.410156" xlink:href="#DejaVuSans-53"/>
     </g>
    </g>
   </g>
   <g id="xtick_13">
    <g id="line2d_15">
     <path d="M 521.577435 513.073405 
L 530.562546 515.837082 
" style="fill:none;stroke:#000000;stroke-linecap:square;stroke-width:0.8;"/>
    </g>
    <g id="text_15">
     <!-- 3.0 -->
     <g transform="translate(529.011678 534.464864)scale(0.1 -0.1)">
      <use xlink:href="#DejaVuSans-51"/>
      <use x="63.623047" xlink:href="#DejaVuSans-46"/>
      <use x="95.410156" xlink:href="#DejaVuSans-48"/>
     </g>
    </g>
   </g>
   <g id="xtick_14">
    <g id="line2d_16">
     <path d="M 542.585719 491.552357 
L 551.509639 494.26278 
" style="fill:none;stroke:#000000;stroke-linecap:square;stroke-width:0.8;"/>
    </g>
    <g id="text_16">
     <!-- 3.5 -->
     <g transform="translate(549.884496 512.796454)scale(0.1 -0.1)">
      <use xlink:href="#DejaVuSans-51"/>
      <use x="63.623047" xlink:href="#DejaVuSans-46"/>
      <use x="95.410156" xlink:href="#DejaVuSans-53"/>
     </g>
    </g>
   </g>
   <g id="xtick_15">
    <g id="line2d_17">
     <path d="M 563.191371 470.44377 
L 572.054782 473.102464 
" style="fill:none;stroke:#000000;stroke-linecap:square;stroke-width:0.8;"/>
    </g>
    <g id="text_17">
     <!-- 4.0 -->
     <g transform="translate(570.357022 491.543594)scale(0.1 -0.1)">
      <use xlink:href="#DejaVuSans-52"/>
      <use x="63.623047" xlink:href="#DejaVuSans-46"/>
      <use x="95.410156" xlink:href="#DejaVuSans-48"/>
     </g>
    </g>
   </g>
   <g id="xtick_16">
    <g id="line2d_18">
     <path d="M 583.405854 449.735898 
L 592.209435 452.34433 
" style="fill:none;stroke:#000000;stroke-linecap:square;stroke-width:0.8;"/>
    </g>
    <g id="text_18">
     <!-- 4.5 -->
     <g transform="translate(590.440662 470.694441)scale(0.1 -0.1)">
      <use xlink:href="#DejaVuSans-52"/>
      <use x="63.623047" xlink:href="#DejaVuSans-46"/>
      <use x="95.410156" xlink:href="#DejaVuSans-53"/>
     </g>
    </g>
   </g>
   <g id="xtick_17">
    <g id="line2d_19">
     <path d="M 603.240204 429.417438 
L 611.984625 431.97702 
" style="fill:none;stroke:#000000;stroke-linecap:square;stroke-width:0.8;"/>
    </g>
    <g id="text_19">
     <!-- 5.0 -->
     <g transform="translate(610.146394 450.237603)scale(0.1 -0.1)">
      <use xlink:href="#DejaVuSans-53"/>
      <use x="63.623047" xlink:href="#DejaVuSans-46"/>
      <use x="95.410156" xlink:href="#DejaVuSans-48"/>
     </g>
    </g>
   </g>
  </g>
  <g id="axis3d_3">
   <g id="line2d_20">
    <path d="M 617.54004 418.583729 
L 629.875713 149.204153 
" style="fill:none;stroke:#000000;stroke-linecap:square;stroke-width:0.8;"/>
   </g>
   <g id="text_20">
    <!-- price (in $1000s) -->
    <g transform="translate(664.915892 324.088671)rotate(-87.378092)scale(0.1 -0.1)">
     <defs>
      <path d="M 18.109375 8.203125 
L 18.109375 -20.796875 
L 9.078125 -20.796875 
L 9.078125 54.6875 
L 18.109375 54.6875 
L 18.109375 46.390625 
Q 20.953125 51.265625 25.265625 53.625 
Q 29.59375 56 35.59375 56 
Q 45.5625 56 51.78125 48.09375 
Q 58.015625 40.1875 58.015625 27.296875 
Q 58.015625 14.40625 51.78125 6.484375 
Q 45.5625 -1.421875 35.59375 -1.421875 
Q 29.59375 -1.421875 25.265625 0.953125 
Q 20.953125 3.328125 18.109375 8.203125 
z
M 48.6875 27.296875 
Q 48.6875 37.203125 44.609375 42.84375 
Q 40.53125 48.484375 33.40625 48.484375 
Q 26.265625 48.484375 22.1875 42.84375 
Q 18.109375 37.203125 18.109375 27.296875 
Q 18.109375 17.390625 22.1875 11.75 
Q 26.265625 6.109375 33.40625 6.109375 
Q 40.53125 6.109375 44.609375 11.75 
Q 48.6875 17.390625 48.6875 27.296875 
z
" id="DejaVuSans-112"/>
      <path d="M 48.78125 52.59375 
L 48.78125 44.1875 
Q 44.96875 46.296875 41.140625 47.34375 
Q 37.3125 48.390625 33.40625 48.390625 
Q 24.65625 48.390625 19.8125 42.84375 
Q 14.984375 37.3125 14.984375 27.296875 
Q 14.984375 17.28125 19.8125 11.734375 
Q 24.65625 6.203125 33.40625 6.203125 
Q 37.3125 6.203125 41.140625 7.25 
Q 44.96875 8.296875 48.78125 10.40625 
L 48.78125 2.09375 
Q 45.015625 0.34375 40.984375 -0.53125 
Q 36.96875 -1.421875 32.421875 -1.421875 
Q 20.0625 -1.421875 12.78125 6.34375 
Q 5.515625 14.109375 5.515625 27.296875 
Q 5.515625 40.671875 12.859375 48.328125 
Q 20.21875 56 33.015625 56 
Q 37.15625 56 41.109375 55.140625 
Q 45.0625 54.296875 48.78125 52.59375 
z
" id="DejaVuSans-99"/>
      <path d="M 33.796875 -14.703125 
L 28.90625 -14.703125 
L 28.859375 0 
Q 23.734375 0.09375 18.609375 1.1875 
Q 13.484375 2.296875 8.296875 4.5 
L 8.296875 13.28125 
Q 13.28125 10.15625 18.375 8.5625 
Q 23.484375 6.984375 28.90625 6.9375 
L 28.90625 29.203125 
Q 18.109375 30.953125 13.203125 35.15625 
Q 8.296875 39.359375 8.296875 46.6875 
Q 8.296875 54.640625 13.625 59.21875 
Q 18.953125 63.8125 28.90625 64.5 
L 28.90625 75.984375 
L 33.796875 75.984375 
L 33.796875 64.65625 
Q 38.328125 64.453125 42.578125 63.6875 
Q 46.828125 62.9375 50.875 61.625 
L 50.875 53.078125 
Q 46.828125 55.125 42.546875 56.25 
Q 38.28125 57.375 33.796875 57.5625 
L 33.796875 36.71875 
Q 44.875 35.015625 50.09375 30.609375 
Q 55.328125 26.21875 55.328125 18.609375 
Q 55.328125 10.359375 49.78125 5.59375 
Q 44.234375 0.828125 33.796875 0.09375 
z
M 28.90625 37.59375 
L 28.90625 57.625 
Q 23.25 56.984375 20.265625 54.390625 
Q 17.28125 51.8125 17.28125 47.515625 
Q 17.28125 43.3125 20.03125 40.96875 
Q 22.796875 38.625 28.90625 37.59375 
z
M 33.796875 28.21875 
L 33.796875 7.078125 
Q 39.984375 7.90625 43.140625 10.59375 
Q 46.296875 13.28125 46.296875 17.671875 
Q 46.296875 21.96875 43.28125 24.5 
Q 40.28125 27.046875 33.796875 28.21875 
z
" id="DejaVuSans-36"/>
     </defs>
     <use xlink:href="#DejaVuSans-112"/>
     <use x="63.476562" xlink:href="#DejaVuSans-114"/>
     <use x="104.589844" xlink:href="#DejaVuSans-105"/>
     <use x="132.373047" xlink:href="#DejaVuSans-99"/>
     <use x="187.353516" xlink:href="#DejaVuSans-101"/>
     <use x="248.876953" xlink:href="#DejaVuSans-32"/>
     <use x="280.664062" xlink:href="#DejaVuSans-40"/>
     <use x="319.677734" xlink:href="#DejaVuSans-105"/>
     <use x="347.460938" xlink:href="#DejaVuSans-110"/>
     <use x="410.839844" xlink:href="#DejaVuSans-32"/>
     <use x="442.626953" xlink:href="#DejaVuSans-36"/>
     <use x="506.25" xlink:href="#DejaVuSans-49"/>
     <use x="569.873047" xlink:href="#DejaVuSans-48"/>
     <use x="633.496094" xlink:href="#DejaVuSans-48"/>
     <use x="697.119141" xlink:href="#DejaVuSans-48"/>
     <use x="760.742188" xlink:href="#DejaVuSans-115"/>
     <use x="812.841797" xlink:href="#DejaVuSans-41"/>
    </g>
   </g>
   <g id="Line3DCollection_3">
    <path d="M 618.883092 389.254906 
L 271.545384 289.706041 
L 55.008426 468.646844 
" style="fill:none;stroke:#b0b0b0;stroke-width:0.8;"/>
    <path d="M 620.860297 346.077801 
L 271.064784 247.911791 
L 52.878356 424.414558 
" style="fill:none;stroke:#b0b0b0;stroke-width:0.8;"/>
    <path d="M 622.865962 302.279216 
L 270.577598 205.544866 
L 50.71645 379.52118 
" style="fill:none;stroke:#b0b0b0;stroke-width:0.8;"/>
    <path d="M 624.900704 257.845634 
L 270.08369 162.593413 
L 48.521989 333.951776 
" style="fill:none;stroke:#b0b0b0;stroke-width:0.8;"/>
    <path d="M 626.965162 212.763145 
L 269.582921 119.045254 
L 46.294232 287.690961 
" style="fill:none;stroke:#b0b0b0;stroke-width:0.8;"/>
    <path d="M 629.059992 167.01743 
L 269.075147 74.887864 
L 44.032416 240.722879 
" style="fill:none;stroke:#b0b0b0;stroke-width:0.8;"/>
   </g>
   <g id="xtick_18">
    <g id="line2d_21">
     <path d="M 615.967307 388.419226 
L 624.721631 390.928262 
" style="fill:none;stroke:#000000;stroke-linecap:square;stroke-width:0.8;"/>
    </g>
    <g id="text_21">
     <!-- 200 -->
     <g transform="translate(627.707832 394.267112)scale(0.1 -0.1)">
      <use xlink:href="#DejaVuSans-50"/>
      <use x="63.623047" xlink:href="#DejaVuSans-48"/>
      <use x="127.246094" xlink:href="#DejaVuSans-48"/>
     </g>
    </g>
   </g>
   <g id="xtick_19">
    <g id="line2d_22">
     <path d="M 617.922894 345.253453 
L 626.742175 347.728481 
" style="fill:none;stroke:#000000;stroke-linecap:square;stroke-width:0.8;"/>
    </g>
    <g id="text_22">
     <!-- 300 -->
     <g transform="translate(629.813674 351.125093)scale(0.1 -0.1)">
      <use xlink:href="#DejaVuSans-51"/>
      <use x="63.623047" xlink:href="#DejaVuSans-48"/>
      <use x="127.246094" xlink:href="#DejaVuSans-48"/>
     </g>
    </g>
   </g>
   <g id="xtick_20">
    <g id="line2d_23">
     <path d="M 619.906617 301.466613 
L 628.791826 303.90639 
" style="fill:none;stroke:#000000;stroke-linecap:square;stroke-width:0.8;"/>
    </g>
    <g id="text_23">
     <!-- 400 -->
     <g transform="translate(631.949789 307.362872)scale(0.1 -0.1)">
      <use xlink:href="#DejaVuSans-52"/>
      <use x="63.623047" xlink:href="#DejaVuSans-48"/>
      <use x="127.246094" xlink:href="#DejaVuSans-48"/>
     </g>
    </g>
   </g>
   <g id="xtick_21">
    <g id="line2d_24">
     <path d="M 621.919089 257.045205 
L 630.871217 259.448444 
" style="fill:none;stroke:#000000;stroke-linecap:square;stroke-width:0.8;"/>
    </g>
    <g id="text_24">
     <!-- 500 -->
     <g transform="translate(634.116834 262.966981)scale(0.1 -0.1)">
      <use xlink:href="#DejaVuSans-53"/>
      <use x="63.623047" xlink:href="#DejaVuSans-48"/>
      <use x="127.246094" xlink:href="#DejaVuSans-48"/>
     </g>
    </g>
   </g>
   <g id="xtick_22">
    <g id="line2d_25">
     <path d="M 623.960939 211.975334 
L 632.981 214.340704 
" style="fill:none;stroke:#000000;stroke-linecap:square;stroke-width:0.8;"/>
    </g>
    <g id="text_25">
     <!-- 600 -->
     <g transform="translate(636.315487 217.923555)scale(0.1 -0.1)">
      <defs>
       <path d="M 33.015625 40.375 
Q 26.375 40.375 22.484375 35.828125 
Q 18.609375 31.296875 18.609375 23.390625 
Q 18.609375 15.53125 22.484375 10.953125 
Q 26.375 6.390625 33.015625 6.390625 
Q 39.65625 6.390625 43.53125 10.953125 
Q 47.40625 15.53125 47.40625 23.390625 
Q 47.40625 31.296875 43.53125 35.828125 
Q 39.65625 40.375 33.015625 40.375 
z
M 52.59375 71.296875 
L 52.59375 62.3125 
Q 48.875 64.0625 45.09375 64.984375 
Q 41.3125 65.921875 37.59375 65.921875 
Q 27.828125 65.921875 22.671875 59.328125 
Q 17.53125 52.734375 16.796875 39.40625 
Q 19.671875 43.65625 24.015625 45.921875 
Q 28.375 48.1875 33.59375 48.1875 
Q 44.578125 48.1875 50.953125 41.515625 
Q 57.328125 34.859375 57.328125 23.390625 
Q 57.328125 12.15625 50.6875 5.359375 
Q 44.046875 -1.421875 33.015625 -1.421875 
Q 20.359375 -1.421875 13.671875 8.265625 
Q 6.984375 17.96875 6.984375 36.375 
Q 6.984375 53.65625 15.1875 63.9375 
Q 23.390625 74.21875 37.203125 74.21875 
Q 40.921875 74.21875 44.703125 73.484375 
Q 48.484375 72.75 52.59375 71.296875 
z
" id="DejaVuSans-54"/>
      </defs>
      <use xlink:href="#DejaVuSans-54"/>
      <use x="63.623047" xlink:href="#DejaVuSans-48"/>
      <use x="127.246094" xlink:href="#DejaVuSans-48"/>
     </g>
    </g>
   </g>
   <g id="xtick_23">
    <g id="line2d_26">
     <path d="M 626.032815 166.242696 
L 635.121847 168.568817 
" style="fill:none;stroke:#000000;stroke-linecap:square;stroke-width:0.8;"/>
    </g>
    <g id="text_26">
     <!-- 700 -->
     <g transform="translate(638.546444 172.218323)scale(0.1 -0.1)">
      <defs>
       <path d="M 8.203125 72.90625 
L 55.078125 72.90625 
L 55.078125 68.703125 
L 28.609375 0 
L 18.3125 0 
L 43.21875 64.59375 
L 8.203125 64.59375 
z
" id="DejaVuSans-55"/>
      </defs>
      <use xlink:href="#DejaVuSans-55"/>
      <use x="63.623047" xlink:href="#DejaVuSans-48"/>
      <use x="127.246094" xlink:href="#DejaVuSans-48"/>
     </g>
    </g>
   </g>
  </g>
  <g id="axes_1">
   <g id="Path3DCollection_1">
    <path clip-path="url(#pff2edd0c7e)" d="M 325.257169 358.720622 
C 326.810147 358.720622 328.299729 358.103617 329.39785 357.005496 
C 330.495971 355.907374 331.112976 354.417793 331.112976 352.864815 
C 331.112976 351.311837 330.495971 349.822256 329.39785 348.724135 
C 328.299729 347.626013 326.810147 347.009009 325.257169 347.009009 
C 323.704191 347.009009 322.21461 347.626013 321.116489 348.724135 
C 320.018367 349.822256 319.401363 351.311837 319.401363 352.864815 
C 319.401363 354.417793 320.018367 355.907374 321.116489 357.005496 
C 322.21461 358.103617 323.704191 358.720622 325.257169 358.720622 
z
" style="fill:#d2e21b;fill-opacity:0.6;stroke:#d2e21b;stroke-opacity:0.6;"/>
    <path clip-path="url(#pff2edd0c7e)" d="M 327.077951 350.957317 
C 328.694035 350.957317 330.244145 350.315241 331.386888 349.172497 
C 332.529632 348.029754 333.171709 346.479643 333.171709 344.86356 
C 333.171709 343.247477 332.529632 341.697367 331.386888 340.554623 
C 330.244145 339.41188 328.694035 338.769803 327.077951 338.769803 
C 325.461868 338.769803 323.911758 339.41188 322.769014 340.554623 
C 321.626271 341.697367 320.984194 343.247477 320.984194 344.86356 
C 320.984194 346.479643 321.626271 348.029754 322.769014 349.172497 
C 323.911758 350.315241 325.461868 350.957317 327.077951 350.957317 
z
" style="fill:#30698e;fill-opacity:0.6;stroke:#30698e;stroke-opacity:0.6;"/>
    <path clip-path="url(#pff2edd0c7e)" d="M 314.386135 336.37913 
C 316.081128 336.37913 317.706925 335.705702 318.905466 334.507162 
C 320.104006 333.308621 320.777434 331.682823 320.777434 329.987831 
C 320.777434 328.292839 320.104006 326.667041 318.905466 325.468501 
C 317.706925 324.269961 316.081128 323.596533 314.386135 323.596533 
C 312.691143 323.596533 311.065346 324.269961 309.866805 325.468501 
C 308.668265 326.667041 307.994837 328.292839 307.994837 329.987831 
C 307.994837 331.682823 308.668265 333.308621 309.866805 334.507162 
C 311.065346 335.705702 312.691143 336.37913 314.386135 336.37913 
z
" style="fill:#481467;fill-opacity:0.6;stroke:#481467;stroke-opacity:0.6;"/>
    <path clip-path="url(#pff2edd0c7e)" d="M 317.796095 331.491434 
C 319.532091 331.491434 321.19722 330.801716 322.424755 329.574181 
C 323.652289 328.346646 324.342008 326.681518 324.342008 324.945521 
C 324.342008 323.209525 323.652289 321.544397 322.424755 320.316862 
C 321.19722 319.089327 319.532091 318.399608 317.796095 318.399608 
C 316.060099 318.399608 314.39497 319.089327 313.167435 320.316862 
C 311.939901 321.544397 311.250182 323.209525 311.250182 324.945521 
C 311.250182 326.681518 311.939901 328.346646 313.167435 329.574181 
C 314.39497 330.801716 316.060099 331.491434 317.796095 331.491434 
z
" style="fill:#fde725;fill-opacity:0.6;stroke:#fde725;stroke-opacity:0.6;"/>
    <path clip-path="url(#pff2edd0c7e)" d="M 328.970071 334.72891 
C 330.706068 334.72891 332.371196 334.039192 333.598731 332.811657 
C 334.826266 331.584122 335.515985 329.918994 335.515985 328.182997 
C 335.515985 326.447001 334.826266 324.781872 333.598731 323.554338 
C 332.371196 322.326803 330.706068 321.637084 328.970071 321.637084 
C 327.234075 321.637084 325.568947 322.326803 324.341412 323.554338 
C 323.113877 324.781872 322.424158 326.447001 322.424158 328.182997 
C 322.424158 329.918994 323.113877 331.584122 324.341412 332.811657 
C 325.568947 334.039192 327.234075 334.72891 328.970071 334.72891 
z
" style="fill:#472f7d;fill-opacity:0.6;stroke:#472f7d;stroke-opacity:0.6;"/>
    <path clip-path="url(#pff2edd0c7e)" d="M 343.894355 344.490903 
C 345.592604 344.490903 347.221527 343.816181 348.422371 342.615337 
C 349.623214 341.414493 350.297936 339.785571 350.297936 338.087321 
C 350.297936 336.389072 349.623214 334.760149 348.422371 333.559305 
C 347.221527 332.358461 345.592604 331.68374 343.894355 331.68374 
C 342.196105 331.68374 340.567182 332.358461 339.366339 333.559305 
C 338.165495 334.760149 337.490773 336.389072 337.490773 338.087321 
C 337.490773 339.785571 338.165495 341.414493 339.366339 342.615337 
C 340.567182 343.816181 342.196105 344.490903 343.894355 344.490903 
z
" style="fill:#d2e21b;fill-opacity:0.6;stroke:#d2e21b;stroke-opacity:0.6;"/>
    <path clip-path="url(#pff2edd0c7e)" d="M 333.592156 329.737751 
C 335.371037 329.737751 337.077299 329.030994 338.335158 327.773135 
C 339.593017 326.515276 340.299774 324.809014 340.299774 323.030132 
C 340.299774 321.251251 339.593017 319.544989 338.335158 318.28713 
C 337.077299 317.029271 335.371037 316.322514 333.592156 316.322514 
C 331.813275 316.322514 330.107012 317.029271 328.849153 318.28713 
C 327.591294 319.544989 326.884538 321.251251 326.884538 323.030132 
C 326.884538 324.809014 327.591294 326.515276 328.849153 327.773135 
C 330.107012 329.030994 331.813275 329.737751 333.592156 329.737751 
z
" style="fill:#470e61;fill-opacity:0.6;stroke:#470e61;stroke-opacity:0.6;"/>
    <path clip-path="url(#pff2edd0c7e)" d="M 221.371267 396.952551 
C 222.788584 396.952551 224.148042 396.389445 225.150236 395.38725 
C 226.152431 394.385056 226.715537 393.025597 226.715537 391.60828 
C 226.715537 390.190963 226.152431 388.831505 225.150236 387.829311 
C 224.148042 386.827116 222.788584 386.26401 221.371267 386.26401 
C 219.95395 386.26401 218.594491 386.827116 217.592297 387.829311 
C 216.590102 388.831505 216.026996 390.190963 216.026996 391.60828 
C 216.026996 393.025597 216.590102 394.385056 217.592297 395.38725 
C 218.594491 396.389445 219.95395 396.952551 221.371267 396.952551 
z
" style="fill:#33638d;fill-opacity:0.6;stroke:#33638d;stroke-opacity:0.6;"/>
    <path clip-path="url(#pff2edd0c7e)" d="M 209.619554 372.657062 
C 211.204242 372.657062 212.724238 372.027459 213.844782 370.906916 
C 214.965326 369.786372 215.594929 368.266376 215.594929 366.681688 
C 215.594929 365.097 214.965326 363.577004 213.844782 362.45646 
C 212.724238 361.335916 211.204242 360.706313 209.619554 360.706313 
C 208.034866 360.706313 206.51487 361.335916 205.394326 362.45646 
C 204.273783 363.577004 203.64418 365.097 203.64418 366.681688 
C 203.64418 368.266376 204.273783 369.786372 205.394326 370.906916 
C 206.51487 372.027459 208.034866 372.657062 209.619554 372.657062 
z
" style="fill:#424086;fill-opacity:0.6;stroke:#424086;stroke-opacity:0.6;"/>
    <path clip-path="url(#pff2edd0c7e)" d="M 221.363113 384.517126 
C 222.883066 384.517126 224.34097 383.913243 225.415739 382.838474 
C 226.490508 381.763705 227.094391 380.305801 227.094391 378.785848 
C 227.094391 377.265895 226.490508 375.807991 225.415739 374.733222 
C 224.34097 373.658453 222.883066 373.05457 221.363113 373.05457 
C 219.84316 373.05457 218.385256 373.658453 217.310487 374.733222 
C 216.235718 375.807991 215.631835 377.265895 215.631835 378.785848 
C 215.631835 380.305801 216.235718 381.763705 217.310487 382.838474 
C 218.385256 383.913243 219.84316 384.517126 221.363113 384.517126 
z
" style="fill:#f1e51d;fill-opacity:0.6;stroke:#f1e51d;stroke-opacity:0.6;"/>
    <path clip-path="url(#pff2edd0c7e)" d="M 341.359057 319.210591 
C 343.221016 319.210591 345.006965 318.470827 346.323569 317.154223 
C 347.640173 315.837619 348.379937 314.05167 348.379937 312.189711 
C 348.379937 310.327752 347.640173 308.541803 346.323569 307.225199 
C 345.006965 305.908595 343.221016 305.168831 341.359057 305.168831 
C 339.497098 305.168831 337.711149 305.908595 336.394545 307.225199 
C 335.077942 308.541803 334.338177 310.327752 334.338177 312.189711 
C 334.338177 314.05167 335.077942 315.837619 336.394545 317.154223 
C 337.711149 318.470827 339.497098 319.210591 341.359057 319.210591 
z
" style="fill:#dde318;fill-opacity:0.6;stroke:#dde318;stroke-opacity:0.6;"/>
    <path clip-path="url(#pff2edd0c7e)" d="M 237.284452 402.153313 
C 238.698572 402.153313 240.054963 401.591478 241.054896 400.591544 
C 242.054829 399.591611 242.616665 398.23522 242.616665 396.821101 
C 242.616665 395.406981 242.054829 394.05059 241.054896 393.050657 
C 240.054963 392.050724 238.698572 391.488888 237.284452 391.488888 
C 235.870333 391.488888 234.513942 392.050724 233.514009 393.050657 
C 232.514076 394.05059 231.95224 395.406981 231.95224 396.821101 
C 231.95224 398.23522 232.514076 399.591611 233.514009 400.591544 
C 234.513942 401.591478 235.870333 402.153313 237.284452 402.153313 
z
" style="fill:#fde725;fill-opacity:0.6;stroke:#fde725;stroke-opacity:0.6;"/>
    <path clip-path="url(#pff2edd0c7e)" d="M 218.282084 379.594203 
C 219.833446 379.594203 221.321478 378.97784 222.418457 377.880861 
C 223.515436 376.783882 224.131799 375.29585 224.131799 373.744487 
C 224.131799 372.193124 223.515436 370.705093 222.418457 369.608113 
C 221.321478 368.511134 219.833446 367.894771 218.282084 367.894771 
C 216.730721 367.894771 215.242689 368.511134 214.14571 369.608113 
C 213.048731 370.705093 212.432368 372.193124 212.432368 373.744487 
C 212.432368 375.29585 213.048731 376.783882 214.14571 377.880861 
C 215.242689 378.97784 216.730721 379.594203 218.282084 379.594203 
z
" style="fill:#21a585;fill-opacity:0.6;stroke:#21a585;stroke-opacity:0.6;"/>
    <path clip-path="url(#pff2edd0c7e)" d="M 233.26304 395.546779 
C 234.722623 395.546779 236.12262 394.966881 237.154701 393.934801 
C 238.186781 392.90272 238.766679 391.502722 238.766679 390.04314 
C 238.766679 388.583558 238.186781 387.18356 237.154701 386.15148 
C 236.12262 385.119399 234.722623 384.539501 233.26304 384.539501 
C 231.803458 384.539501 230.40346 385.119399 229.37138 386.15148 
C 228.3393 387.18356 227.759401 388.583558 227.759401 390.04314 
C 227.759401 391.502722 228.3393 392.90272 229.37138 393.934801 
C 230.40346 394.966881 231.803458 395.546779 233.26304 395.546779 
z
" style="fill:#228c8d;fill-opacity:0.6;stroke:#228c8d;stroke-opacity:0.6;"/>
    <path clip-path="url(#pff2edd0c7e)" d="M 223.52532 372.651778 
C 225.141403 372.651778 226.691514 372.009702 227.834257 370.866958 
C 228.977001 369.724215 229.619077 368.174105 229.619077 366.558021 
C 229.619077 364.941938 228.977001 363.391828 227.834257 362.249084 
C 226.691514 361.106341 225.141403 360.464264 223.52532 360.464264 
C 221.909237 360.464264 220.359127 361.106341 219.216383 362.249084 
C 218.07364 363.391828 217.431563 364.941938 217.431563 366.558021 
C 217.431563 368.174105 218.07364 369.724215 219.216383 370.866958 
C 220.359127 372.009702 221.909237 372.651778 223.52532 372.651778 
z
" style="fill:#58c765;fill-opacity:0.6;stroke:#58c765;stroke-opacity:0.6;"/>
    <path clip-path="url(#pff2edd0c7e)" d="M 378.323956 343.039621 
C 380.100293 343.039621 381.804115 342.333875 383.060175 341.077815 
C 384.316235 339.821754 385.021982 338.117932 385.021982 336.341595 
C 385.021982 334.565258 384.316235 332.861435 383.060175 331.605375 
C 381.804115 330.349315 380.100293 329.643569 378.323956 329.643569 
C 376.547618 329.643569 374.843796 330.349315 373.587736 331.605375 
C 372.331676 332.861435 371.62593 334.565258 371.62593 336.341595 
C 371.62593 338.117932 372.331676 339.821754 373.587736 341.077815 
C 374.843796 342.333875 376.547618 343.039621 378.323956 343.039621 
z
" style="fill:#481a6c;fill-opacity:0.6;stroke:#481a6c;stroke-opacity:0.6;"/>
    <path clip-path="url(#pff2edd0c7e)" d="M 237.740766 381.101714 
C 239.325454 381.101714 240.84545 380.472111 241.965994 379.351567 
C 243.086537 378.231024 243.71614 376.711027 243.71614 375.126339 
C 243.71614 373.541651 243.086537 372.021655 241.965994 370.901111 
C 240.84545 369.780568 239.325454 369.150965 237.740766 369.150965 
C 236.156078 369.150965 234.636082 369.780568 233.515538 370.901111 
C 232.394995 372.021655 231.765391 373.541651 231.765391 375.126339 
C 231.765391 376.711027 232.394995 378.231024 233.515538 379.351567 
C 234.636082 380.472111 236.156078 381.101714 237.740766 381.101714 
z
" style="fill:#48186a;fill-opacity:0.6;stroke:#48186a;stroke-opacity:0.6;"/>
    <path clip-path="url(#pff2edd0c7e)" d="M 242.572488 385.649861 
C 244.133537 385.649861 245.630859 385.02965 246.734687 383.925822 
C 247.838515 382.821994 248.458727 381.324671 248.458727 379.763622 
C 248.458727 378.202574 247.838515 376.705251 246.734687 375.601423 
C 245.630859 374.497595 244.133537 373.877384 242.572488 373.877384 
C 241.011439 373.877384 239.514117 374.497595 238.410288 375.601423 
C 237.30646 376.705251 236.686249 378.202574 236.686249 379.763622 
C 236.686249 381.324671 237.30646 382.821994 238.410288 383.925822 
C 239.514117 385.02965 241.011439 385.649861 242.572488 385.649861 
z
" style="fill:#28ae80;fill-opacity:0.6;stroke:#28ae80;stroke-opacity:0.6;"/>
    <path clip-path="url(#pff2edd0c7e)" d="M 217.504216 354.433282 
C 219.237606 354.433282 220.900233 353.744599 222.125925 352.518907 
C 223.351617 351.293216 224.0403 349.630588 224.0403 347.897198 
C 224.0403 346.163809 223.351617 344.501181 222.125925 343.275489 
C 220.900233 342.049798 219.237606 341.361115 217.504216 341.361115 
C 215.770826 341.361115 214.108199 342.049798 212.882507 343.275489 
C 211.656815 344.501181 210.968132 346.163809 210.968132 347.897198 
C 210.968132 349.630588 211.656815 351.293216 212.882507 352.518907 
C 214.108199 353.744599 215.770826 354.433282 217.504216 354.433282 
z
" style="fill:#1f998a;fill-opacity:0.6;stroke:#1f998a;stroke-opacity:0.6;"/>
    <path clip-path="url(#pff2edd0c7e)" d="M 251.806363 388.259454 
C 253.368698 388.259454 254.867255 387.638731 255.971993 386.533993 
C 257.076732 385.429255 257.697454 383.930698 257.697454 382.368362 
C 257.697454 380.806026 257.076732 379.30747 255.971993 378.202732 
C 254.867255 377.097993 253.368698 376.477271 251.806363 376.477271 
C 250.244027 376.477271 248.74547 377.097993 247.640732 378.202732 
C 246.535994 379.30747 245.915271 380.806026 245.915271 382.368362 
C 245.915271 383.930698 246.535994 385.429255 247.640732 386.533993 
C 248.74547 387.638731 250.244027 388.259454 251.806363 388.259454 
z
" style="fill:#2b748e;fill-opacity:0.6;stroke:#2b748e;stroke-opacity:0.6;"/>
    <path clip-path="url(#pff2edd0c7e)" d="M 265.483736 388.171546 
C 267.077907 388.171546 268.607 387.538175 269.73425 386.410925 
C 270.861499 385.283676 271.49487 383.754583 271.49487 382.160412 
C 271.49487 380.56624 270.861499 379.037147 269.73425 377.909898 
C 268.607 376.782648 267.077907 376.149277 265.483736 376.149277 
C 263.889565 376.149277 262.360472 376.782648 261.233222 377.909898 
C 260.105973 379.037147 259.472602 380.56624 259.472602 382.160412 
C 259.472602 383.754583 260.105973 385.283676 261.233222 386.410925 
C 262.360472 387.538175 263.889565 388.171546 265.483736 388.171546 
z
" style="fill:#d2e21b;fill-opacity:0.6;stroke:#d2e21b;stroke-opacity:0.6;"/>
    <path clip-path="url(#pff2edd0c7e)" d="M 355.721495 278.196345 
C 357.847766 278.196345 359.887237 277.351569 361.390738 275.848068 
C 362.894238 274.344568 363.739015 272.305097 363.739015 270.178826 
C 363.739015 268.052555 362.894238 266.013085 361.390738 264.509584 
C 359.887237 263.006084 357.847766 262.161307 355.721495 262.161307 
C 353.595225 262.161307 351.555754 263.006084 350.052253 264.509584 
C 348.548753 266.013085 347.703976 268.052555 347.703976 270.178826 
C 347.703976 272.305097 348.548753 274.344568 350.052253 275.848068 
C 351.555754 277.351569 353.595225 278.196345 355.721495 278.196345 
z
" style="fill:#440256;fill-opacity:0.6;stroke:#440256;stroke-opacity:0.6;"/>
    <path clip-path="url(#pff2edd0c7e)" d="M 245.427562 355.994907 
C 247.206443 355.994907 248.912706 355.28815 250.170565 354.030291 
C 251.428423 352.772432 252.13518 351.06617 252.13518 349.287289 
C 252.13518 347.508407 251.428423 345.802145 250.170565 344.544286 
C 248.912706 343.286427 247.206443 342.57967 245.427562 342.57967 
C 243.648681 342.57967 241.942419 343.286427 240.68456 344.544286 
C 239.426701 345.802145 238.719944 347.508407 238.719944 349.287289 
C 238.719944 351.06617 239.426701 352.772432 240.68456 354.030291 
C 241.942419 355.28815 243.648681 355.994907 245.427562 355.994907 
z
" style="fill:#443b84;fill-opacity:0.6;stroke:#443b84;stroke-opacity:0.6;"/>
    <path clip-path="url(#pff2edd0c7e)" d="M 142.104284 435.6562 
C 143.448832 435.6562 144.738491 435.122006 145.68923 434.171267 
C 146.639969 433.220529 147.174163 431.930869 147.174163 430.586322 
C 147.174163 429.241774 146.639969 427.952115 145.68923 427.001376 
C 144.738491 426.050637 143.448832 425.516443 142.104284 425.516443 
C 140.759737 425.516443 139.470077 426.050637 138.519338 427.001376 
C 137.5686 427.952115 137.034405 429.241774 137.034405 430.586322 
C 137.034405 431.930869 137.5686 433.220529 138.519338 434.171267 
C 139.470077 435.122006 140.759737 435.6562 142.104284 435.6562 
z
" style="fill:#1f948c;fill-opacity:0.6;stroke:#1f948c;stroke-opacity:0.6;"/>
    <path clip-path="url(#pff2edd0c7e)" d="M 250.901842 351.235955 
C 252.722598 351.235955 254.469026 350.512561 255.756495 349.225092 
C 257.043964 347.937623 257.767358 346.191196 257.767358 344.37044 
C 257.767358 342.549684 257.043964 340.803256 255.756495 339.515787 
C 254.469026 338.228318 252.722598 337.504924 250.901842 337.504924 
C 249.081086 337.504924 247.334659 338.228318 246.04719 339.515787 
C 244.759721 340.803256 244.036327 342.549684 244.036327 344.37044 
C 244.036327 346.191196 244.759721 347.937623 246.04719 349.225092 
C 247.334659 350.512561 249.081086 351.235955 250.901842 351.235955 
z
" style="fill:#1f9e89;fill-opacity:0.6;stroke:#1f9e89;stroke-opacity:0.6;"/>
    <path clip-path="url(#pff2edd0c7e)" d="M 275.520216 358.463646 
C 277.341245 358.463646 279.087935 357.740143 280.375597 356.452481 
C 281.663259 355.164819 282.386761 353.418129 282.386761 351.5971 
C 282.386761 349.776071 281.663259 348.029381 280.375597 346.741719 
C 279.087935 345.454057 277.341245 344.730554 275.520216 344.730554 
C 273.699186 344.730554 271.952497 345.454057 270.664835 346.741719 
C 269.377172 348.029381 268.65367 349.776071 268.65367 351.5971 
C 268.65367 353.418129 269.377172 355.164819 270.664835 356.452481 
C 271.952497 357.740143 273.699186 358.463646 275.520216 358.463646 
z
" style="fill:#34b679;fill-opacity:0.6;stroke:#34b679;stroke-opacity:0.6;"/>
    <path clip-path="url(#pff2edd0c7e)" d="M 382.448436 263.764035 
C 384.689967 263.764035 386.839992 262.873465 388.424994 261.288464 
C 390.009995 259.703462 390.900565 257.553437 390.900565 255.311906 
C 390.900565 253.070375 390.009995 250.920349 388.424994 249.335348 
C 386.839992 247.750346 384.689967 246.859776 382.448436 246.859776 
C 380.206905 246.859776 378.056879 247.750346 376.471878 249.335348 
C 374.886876 250.920349 373.996306 253.070375 373.996306 255.311906 
C 373.996306 257.553437 374.886876 259.703462 376.471878 261.288464 
C 378.056879 262.873465 380.206905 263.764035 382.448436 263.764035 
z
" style="fill:#5ec962;fill-opacity:0.6;stroke:#5ec962;stroke-opacity:0.6;"/>
    <path clip-path="url(#pff2edd0c7e)" d="M 284.833545 353.924068 
C 286.700893 353.924068 288.492011 353.182163 289.812426 351.861748 
C 291.13284 350.541334 291.874746 348.750216 291.874746 346.882867 
C 291.874746 345.015519 291.13284 343.224401 289.812426 341.903986 
C 288.492011 340.583572 286.700893 339.841666 284.833545 339.841666 
C 282.966196 339.841666 281.175078 340.583572 279.854664 341.903986 
C 278.534249 343.224401 277.792344 345.015519 277.792344 346.882867 
C 277.792344 348.750216 278.534249 350.541334 279.854664 351.861748 
C 281.175078 353.182163 282.966196 353.924068 284.833545 353.924068 
z
" style="fill:#440154;fill-opacity:0.6;stroke:#440154;stroke-opacity:0.6;"/>
    <path clip-path="url(#pff2edd0c7e)" d="M 305.29416 367.29847 
C 307.114916 367.29847 308.861344 366.575076 310.148813 365.287607 
C 311.436282 364.000138 312.159676 362.253711 312.159676 360.432954 
C 312.159676 358.612198 311.436282 356.865771 310.148813 355.578302 
C 308.861344 354.290833 307.114916 353.567439 305.29416 353.567439 
C 303.473404 353.567439 301.726976 354.290833 300.439507 355.578302 
C 299.152038 356.865771 298.428644 358.612198 298.428644 360.432954 
C 298.428644 362.253711 299.152038 364.000138 300.439507 365.287607 
C 301.726976 366.575076 303.473404 367.29847 305.29416 367.29847 
z
" style="fill:#dde318;fill-opacity:0.6;stroke:#dde318;stroke-opacity:0.6;"/>
    <path clip-path="url(#pff2edd0c7e)" d="M 237.901418 289.469039 
C 240.061914 289.469039 242.134213 288.610665 243.661914 287.082964 
C 245.189615 285.555262 246.04799 283.482964 246.04799 281.322468 
C 246.04799 279.161972 245.189615 277.089673 243.661914 275.561972 
C 242.134213 274.034271 240.061914 273.175897 237.901418 273.175897 
C 235.740922 273.175897 233.668624 274.034271 232.140922 275.561972 
C 230.613221 277.089673 229.754847 279.161972 229.754847 281.322468 
C 229.754847 283.482964 230.613221 285.555262 232.140922 287.082964 
C 233.668624 288.610665 235.740922 289.469039 237.901418 289.469039 
z
" style="fill:#2cb17e;fill-opacity:0.6;stroke:#2cb17e;stroke-opacity:0.6;"/>
    <path clip-path="url(#pff2edd0c7e)" d="M 188.775881 428.433288 
C 190.30276 428.433288 191.767308 427.826653 192.846974 426.746986 
C 193.926641 425.66732 194.533276 424.202773 194.533276 422.675894 
C 194.533276 421.149015 193.926641 419.684467 192.846974 418.604801 
C 191.767308 417.525135 190.30276 416.918499 188.775881 416.918499 
C 187.249002 416.918499 185.784455 417.525135 184.704789 418.604801 
C 183.625122 419.684467 183.018487 421.149015 183.018487 422.675894 
C 183.018487 424.202773 183.625122 425.66732 184.704789 426.746986 
C 185.784455 427.826653 187.249002 428.433288 188.775881 428.433288 
z
" style="fill:#228d8d;fill-opacity:0.6;stroke:#228d8d;stroke-opacity:0.6;"/>
    <path clip-path="url(#pff2edd0c7e)" d="M 339.750139 390.383655 
C 341.486136 390.383655 343.151264 389.693936 344.378799 388.466401 
C 345.606334 387.238866 346.296052 385.573738 346.296052 383.837741 
C 346.296052 382.101745 345.606334 380.436617 344.378799 379.209082 
C 343.151264 377.981547 341.486136 377.291828 339.750139 377.291828 
C 338.014143 377.291828 336.349015 377.981547 335.12148 379.209082 
C 333.893945 380.436617 333.204226 382.101745 333.204226 383.837741 
C 333.204226 385.573738 333.893945 387.238866 335.12148 388.466401 
C 336.349015 389.693936 338.014143 390.383655 339.750139 390.383655 
z
" style="fill:#2e6e8e;fill-opacity:0.6;stroke:#2e6e8e;stroke-opacity:0.6;"/>
    <path clip-path="url(#pff2edd0c7e)" d="M 293.553085 333.632863 
C 295.557724 333.632863 297.480529 332.836411 298.898023 331.418917 
C 300.315518 330.001422 301.111969 328.078618 301.111969 326.073978 
C 301.111969 324.069339 300.315518 322.146534 298.898023 320.72904 
C 297.480529 319.311546 295.557724 318.515094 293.553085 318.515094 
C 291.548445 318.515094 289.625641 319.311546 288.208146 320.72904 
C 286.790652 322.146534 285.9942 324.069339 285.9942 326.073978 
C 285.9942 328.078618 286.790652 330.001422 288.208146 331.418917 
C 289.625641 332.836411 291.548445 333.632863 293.553085 333.632863 
z
" style="fill:#75d054;fill-opacity:0.6;stroke:#75d054;stroke-opacity:0.6;"/>
    <path clip-path="url(#pff2edd0c7e)" d="M 319.175582 354.514014 
C 321.101216 354.514014 322.94824 353.748952 324.309869 352.387323 
C 325.671498 351.025694 326.436561 349.178669 326.436561 347.253035 
C 326.436561 345.327401 325.671498 343.480377 324.309869 342.118748 
C 322.94824 340.757119 321.101216 339.992056 319.175582 339.992056 
C 317.249947 339.992056 315.402923 340.757119 314.041294 342.118748 
C 312.679665 343.480377 311.914602 345.327401 311.914602 347.253035 
C 311.914602 349.178669 312.679665 351.025694 314.041294 352.387323 
C 315.402923 353.748952 317.249947 354.514014 319.175582 354.514014 
z
" style="fill:#453781;fill-opacity:0.6;stroke:#453781;stroke-opacity:0.6;"/>
    <path clip-path="url(#pff2edd0c7e)" d="M 416.71251 255.582271 
C 419.041766 255.582271 421.275935 254.656848 422.922968 253.009815 
C 424.570001 251.362782 425.495424 249.128613 425.495424 246.799357 
C 425.495424 244.470101 424.570001 242.235931 422.922968 240.588898 
C 421.275935 238.941865 419.041766 238.016442 416.71251 238.016442 
C 414.383253 238.016442 412.149084 238.941865 410.502051 240.588898 
C 408.855018 242.235931 407.929595 244.470101 407.929595 246.799357 
C 407.929595 249.128613 408.855018 251.362782 410.502051 253.009815 
C 412.149084 254.656848 414.383253 255.582271 416.71251 255.582271 
z
" style="fill:#2e6d8e;fill-opacity:0.6;stroke:#2e6d8e;stroke-opacity:0.6;"/>
    <path clip-path="url(#pff2edd0c7e)" d="M 179.856844 396.916192 
C 181.59284 396.916192 183.257969 396.226473 184.485504 394.998938 
C 185.713038 393.771403 186.402757 392.106275 186.402757 390.370279 
C 186.402757 388.634282 185.713038 386.969154 184.485504 385.741619 
C 183.257969 384.514084 181.59284 383.824365 179.856844 383.824365 
C 178.120848 383.824365 176.455719 384.514084 175.228184 385.741619 
C 174.00065 386.969154 173.310931 388.634282 173.310931 390.370279 
C 173.310931 392.106275 174.00065 393.771403 175.228184 394.998938 
C 176.455719 396.226473 178.120848 396.916192 179.856844 396.916192 
z
" style="fill:#25848e;fill-opacity:0.6;stroke:#25848e;stroke-opacity:0.6;"/>
    <path clip-path="url(#pff2edd0c7e)" d="M 228.781171 431.040459 
C 230.381948 431.040459 231.917376 430.404463 233.049296 429.272543 
C 234.181216 428.140624 234.817211 426.605195 234.817211 425.004419 
C 234.817211 423.403642 234.181216 421.868214 233.049296 420.736294 
C 231.917376 419.604374 230.381948 418.968379 228.781171 418.968379 
C 227.180395 418.968379 225.644967 419.604374 224.513047 420.736294 
C 223.381127 421.868214 222.745132 423.403642 222.745132 425.004419 
C 222.745132 426.605195 223.381127 428.140624 224.513047 429.272543 
C 225.644967 430.404463 227.180395 431.040459 228.781171 431.040459 
z
" style="fill:#7fd34e;fill-opacity:0.6;stroke:#7fd34e;stroke-opacity:0.6;"/>
    <path clip-path="url(#pff2edd0c7e)" d="M 419.768611 230.00741 
C 422.222043 230.00741 424.575319 229.032651 426.310158 227.297813 
C 428.044996 225.562974 429.019755 223.209698 429.019755 220.756266 
C 429.019755 218.302834 428.044996 215.949558 426.310158 214.21472 
C 424.575319 212.479882 422.222043 211.505123 419.768611 211.505123 
C 417.315179 211.505123 414.961903 212.479882 413.227065 214.21472 
C 411.492227 215.949558 410.517468 218.302834 410.517468 220.756266 
C 410.517468 223.209698 411.492227 225.562974 413.227065 227.297813 
C 414.961903 229.032651 417.315179 230.00741 419.768611 230.00741 
z
" style="fill:#3e4c8a;fill-opacity:0.6;stroke:#3e4c8a;stroke-opacity:0.6;"/>
    <path clip-path="url(#pff2edd0c7e)" d="M 301.6037 303.118532 
C 303.788479 303.118532 305.884068 302.25051 307.42894 300.705638 
C 308.973812 299.160767 309.841833 297.065177 309.841833 294.880398 
C 309.841833 292.69562 308.973812 290.60003 307.42894 289.055159 
C 305.884068 287.510287 303.788479 286.642265 301.6037 286.642265 
C 299.418922 286.642265 297.323332 287.510287 295.77846 289.055159 
C 294.233589 290.60003 293.365567 292.69562 293.365567 294.880398 
C 293.365567 297.065177 294.233589 299.160767 295.77846 300.705638 
C 297.323332 302.25051 299.418922 303.118532 301.6037 303.118532 
z
" style="fill:#e7e419;fill-opacity:0.6;stroke:#e7e419;stroke-opacity:0.6;"/>
    <path clip-path="url(#pff2edd0c7e)" d="M 105.186543 485.522492 
C 106.493187 485.522492 107.74649 485.003357 108.670427 484.07942 
C 109.594364 483.155483 110.113499 481.90218 110.113499 480.595536 
C 110.113499 479.288892 109.594364 478.035589 108.670427 477.111652 
C 107.74649 476.187715 106.493187 475.66858 105.186543 475.66858 
C 103.879899 475.66858 102.626596 476.187715 101.702659 477.111652 
C 100.778722 478.035589 100.259587 479.288892 100.259587 480.595536 
C 100.259587 481.90218 100.778722 483.155483 101.702659 484.07942 
C 102.626596 485.003357 103.879899 485.522492 105.186543 485.522492 
z
" style="fill:#d8e219;fill-opacity:0.6;stroke:#d8e219;stroke-opacity:0.6;"/>
    <path clip-path="url(#pff2edd0c7e)" d="M 330.003591 313.89578 
C 332.174527 313.89578 334.256839 313.033258 335.791923 311.498175 
C 337.327007 309.963091 338.189529 307.880779 338.189529 305.709843 
C 338.189529 303.538907 337.327007 301.456595 335.791923 299.921511 
C 334.256839 298.386427 332.174527 297.523905 330.003591 297.523905 
C 327.832655 297.523905 325.750343 298.386427 324.215259 299.921511 
C 322.680176 301.456595 321.817654 303.538907 321.817654 305.709843 
C 321.817654 307.880779 322.680176 309.963091 324.215259 311.498175 
C 325.750343 313.033258 327.832655 313.89578 330.003591 313.89578 
z
" style="fill:#29af7f;fill-opacity:0.6;stroke:#29af7f;stroke-opacity:0.6;"/>
    <path clip-path="url(#pff2edd0c7e)" d="M 208.506781 376.082639 
C 210.43111 376.082639 212.276883 375.318094 213.637589 373.957388 
C 214.998295 372.596682 215.762839 370.75091 215.762839 368.82658 
C 215.762839 366.902251 214.998295 365.056479 213.637589 363.695773 
C 212.276883 362.335066 210.43111 361.570522 208.506781 361.570522 
C 206.582452 361.570522 204.73668 362.335066 203.375974 363.695773 
C 202.015267 365.056479 201.250723 366.902251 201.250723 368.82658 
C 201.250723 370.75091 202.015267 372.596682 203.375974 373.957388 
C 204.73668 375.318094 206.582452 376.082639 208.506781 376.082639 
z
" style="fill:#29798e;fill-opacity:0.6;stroke:#29798e;stroke-opacity:0.6;"/>
    <path clip-path="url(#pff2edd0c7e)" d="M 223.756723 388.741824 
C 225.631858 388.741824 227.430445 387.996825 228.756366 386.670904 
C 230.082286 385.344983 230.827286 383.546396 230.827286 381.671261 
C 230.827286 379.796126 230.082286 377.997539 228.756366 376.671619 
C 227.430445 375.345698 225.631858 374.600699 223.756723 374.600699 
C 221.881588 374.600699 220.083001 375.345698 218.75708 376.671619 
C 217.431159 377.997539 216.68616 379.796126 216.68616 381.671261 
C 216.68616 383.546396 217.431159 385.344983 218.75708 386.670904 
C 220.083001 387.996825 221.881588 388.741824 223.756723 388.741824 
z
" style="fill:#481c6e;fill-opacity:0.6;stroke:#481c6e;stroke-opacity:0.6;"/>
    <path clip-path="url(#pff2edd0c7e)" d="M 593.148593 181.587699 
C 595.800624 181.587699 598.344392 180.534036 600.219661 178.658767 
C 602.09493 176.783498 603.148593 174.23973 603.148593 171.587699 
C 603.148593 168.935668 602.09493 166.391901 600.219661 164.516632 
C 598.344392 162.641363 595.800624 161.587699 593.148593 161.587699 
C 590.496562 161.587699 587.952795 162.641363 586.077526 164.516632 
C 584.202257 166.391901 583.148593 168.935668 583.148593 171.587699 
C 583.148593 174.23973 584.202257 176.783498 586.077526 178.658767 
C 587.952795 180.534036 590.496562 181.587699 593.148593 181.587699 
z
" style="fill:#2b748e;fill-opacity:0.6;stroke:#2b748e;stroke-opacity:0.6;"/>
    <path clip-path="url(#pff2edd0c7e)" d="M 525.076227 281.243288 
C 527.425031 281.243288 529.67795 280.310098 531.338806 278.649243 
C 532.999661 276.988388 533.932851 274.735469 533.932851 272.386665 
C 533.932851 270.037861 532.999661 267.784941 531.338806 266.124086 
C 529.67795 264.463231 527.425031 263.530041 525.076227 263.530041 
C 522.727423 263.530041 520.474504 264.463231 518.813649 266.124086 
C 517.152794 267.784941 516.219604 270.037861 516.219604 272.386665 
C 516.219604 274.735469 517.152794 276.988388 518.813649 278.649243 
C 520.474504 280.310098 522.727423 281.243288 525.076227 281.243288 
z
" style="fill:#482878;fill-opacity:0.6;stroke:#482878;stroke-opacity:0.6;"/>
    <path clip-path="url(#pff2edd0c7e)" d="M 384.167029 279.577464 
C 386.581029 279.577464 388.896482 278.618372 390.603437 276.911417 
C 392.310392 275.204462 393.269484 272.889008 393.269484 270.475009 
C 393.269484 268.06101 392.310392 265.745556 390.603437 264.038601 
C 388.896482 262.331646 386.581029 261.372554 384.167029 261.372554 
C 381.75303 261.372554 379.437577 262.331646 377.730621 264.038601 
C 376.023666 265.745556 375.064574 268.06101 375.064574 270.475009 
C 375.064574 272.889008 376.023666 275.204462 377.730621 276.911417 
C 379.437577 278.618372 381.75303 279.577464 384.167029 279.577464 
z
" style="fill:#38598c;fill-opacity:0.6;stroke:#38598c;stroke-opacity:0.6;"/>
    <path clip-path="url(#pff2edd0c7e)" d="M 452.153751 301.315745 
C 454.555229 301.315745 456.858673 300.361627 458.556775 298.663525 
C 460.254876 296.965423 461.208994 294.66198 461.208994 292.260501 
C 461.208994 289.859023 460.254876 287.555579 458.556775 285.857478 
C 456.858673 284.159376 454.555229 283.205258 452.153751 283.205258 
C 449.752272 283.205258 447.448829 284.159376 445.750727 285.857478 
C 444.052625 287.555579 443.098508 289.859023 443.098508 292.260501 
C 443.098508 294.66198 444.052625 296.965423 445.750727 298.663525 
C 447.448829 300.361627 449.752272 301.315745 452.153751 301.315745 
z
" style="fill:#63cb5f;fill-opacity:0.6;stroke:#63cb5f;stroke-opacity:0.6;"/>
   </g>
  </g>
 </g>
 <defs>
  <clipPath id="pff2edd0c7e">
   <rect height="652.32" width="652.32" x="7.2" y="7.2"/>
  </clipPath>
 </defs>
</svg>
