<?xml version="1.0" encoding="utf-8" standalone="no"?>
<!DOCTYPE svg PUBLIC "-//W3C//DTD SVG 1.1//EN"
  "http://www.w3.org/Graphics/SVG/1.1/DTD/svg11.dtd">
<!-- Created with matplotlib (https://matplotlib.org/) -->
<svg height="588.35625pt" version="1.1" viewBox="0 0 623.723438 588.35625" width="623.723438pt" xmlns="http://www.w3.org/2000/svg" xmlns:xlink="http://www.w3.org/1999/xlink">
 <metadata>
  <rdf:RDF xmlns:cc="http://creativecommons.org/ns#" xmlns:dc="http://purl.org/dc/elements/1.1/" xmlns:rdf="http://www.w3.org/1999/02/22-rdf-syntax-ns#">
   <cc:Work>
    <dc:type rdf:resource="http://purl.org/dc/dcmitype/StillImage"/>
    <dc:date>2020-12-27T22:11:51.872875</dc:date>
    <dc:format>image/svg+xml</dc:format>
    <dc:creator>
     <cc:Agent>
      <dc:title>Matplotlib v3.3.2, https://matplotlib.org/</dc:title>
     </cc:Agent>
    </dc:creator>
   </cc:Work>
  </rdf:RDF>
 </metadata>
 <defs>
  <style type="text/css">*{stroke-linecap:butt;stroke-linejoin:round;}</style>
 </defs>
 <g id="figure_1">
  <g id="patch_1">
   <path d="M -0 588.35625 
L 623.723438 588.35625 
L 623.723438 0 
L -0 0 
z
" style="fill:none;"/>
  </g>
  <g id="axes_1">
   <g id="patch_2">
    <path d="M 58.523438 550.8 
L 616.523438 550.8 
L 616.523438 7.2 
L 58.523438 7.2 
z
" style="fill:#ffffff;"/>
   </g>
   <g id="PathCollection_1">
    <defs>
     <path d="M -1.178511 3.535534 
L 1.178511 3.535534 
L 1.178511 1.178511 
L 3.535534 1.178511 
L 3.535534 -1.178511 
L 1.178511 -1.178511 
L 1.178511 -3.535534 
L -1.178511 -3.535534 
L -1.178511 -1.178511 
L -3.535534 -1.178511 
L -3.535534 1.178511 
L -1.178511 1.178511 
z
" id="m8072e228e3" style="stroke:#ff7f0e;"/>
    </defs>
    <g clip-path="url(#pa98c8a6521)">
     <use style="fill:#ff7f0e;stroke:#ff7f0e;" x="319.071334" xlink:href="#m8072e228e3" y="139.587191"/>
     <use style="fill:#ff7f0e;stroke:#ff7f0e;" x="280.642617" xlink:href="#m8072e228e3" y="143.433025"/>
     <use style="fill:#ff7f0e;stroke:#ff7f0e;" x="248.362378" xlink:href="#m8072e228e3" y="141.510108"/>
     <use style="fill:#ff7f0e;stroke:#ff7f0e;" x="205.322236" xlink:href="#m8072e228e3" y="191.505954"/>
     <use style="fill:#ff7f0e;stroke:#ff7f0e;" x="168.430305" xlink:href="#m8072e228e3" y="201.12054"/>
     <use style="fill:#ff7f0e;stroke:#ff7f0e;" x="165.356199" xlink:href="#m8072e228e3" y="268.42001"/>
     <use style="fill:#ff7f0e;stroke:#ff7f0e;" x="199.174025" xlink:href="#m8072e228e3" y="314.570811"/>
     <use style="fill:#ff7f0e;stroke:#ff7f0e;" x="223.766867" xlink:href="#m8072e228e3" y="374.180454"/>
     <use style="fill:#ff7f0e;stroke:#ff7f0e;" x="309.848485" xlink:href="#m8072e228e3" y="429.945051"/>
     <use style="fill:#ff7f0e;stroke:#ff7f0e;" x="340.590871" xlink:href="#m8072e228e3" y="458.788809"/>
     <use style="fill:#ff7f0e;stroke:#ff7f0e;" x="408.226524" xlink:href="#m8072e228e3" y="472.249229"/>
     <use style="fill:#ff7f0e;stroke:#ff7f0e;" x="446.655507" xlink:href="#m8072e228e3" y="460.711726"/>
     <use style="fill:#ff7f0e;stroke:#ff7f0e;" x="475.859507" xlink:href="#m8072e228e3" y="387.640874"/>
     <use style="fill:#ff7f0e;stroke:#ff7f0e;" x="501.99207" xlink:href="#m8072e228e3" y="372.257536"/>
     <use style="fill:#ff7f0e;stroke:#ff7f0e;" x="451.266665" xlink:href="#m8072e228e3" y="195.351788"/>
     <use style="fill:#ff7f0e;stroke:#ff7f0e;" x="391.316276" xlink:href="#m8072e228e3" y="170.353865"/>
     <use style="fill:#ff7f0e;stroke:#ff7f0e;" x="349.813187" xlink:href="#m8072e228e3" y="181.891368"/>
     <use style="fill:#ff7f0e;stroke:#ff7f0e;" x="292.939839" xlink:href="#m8072e228e3" y="108.820516"/>
     <use style="fill:#ff7f0e;stroke:#ff7f0e;" x="259.121746" xlink:href="#m8072e228e3" y="139.587191"/>
     <use style="fill:#ff7f0e;stroke:#ff7f0e;" x="177.65262" xlink:href="#m8072e228e3" y="156.893445"/>
     <use style="fill:#ff7f0e;stroke:#ff7f0e;" x="143.837463" xlink:href="#m8072e228e3" y="166.508031"/>
     <use style="fill:#ff7f0e;stroke:#ff7f0e;" x="137.686584" xlink:href="#m8072e228e3" y="235.733049"/>
     <use style="fill:#ff7f0e;stroke:#ff7f0e;" x="146.911568" xlink:href="#m8072e228e3" y="322.262479"/>
     <use style="fill:#ff7f0e;stroke:#ff7f0e;" x="193.025815" xlink:href="#m8072e228e3" y="395.332542"/>
     <use style="fill:#ff7f0e;stroke:#ff7f0e;" x="274.494941" xlink:href="#m8072e228e3" y="428.022134"/>
     <use style="fill:#ff7f0e;stroke:#ff7f0e;" x="359.038171" xlink:href="#m8072e228e3" y="481.863814"/>
     <use style="fill:#ff7f0e;stroke:#ff7f0e;" x="429.74526" xlink:href="#m8072e228e3" y="464.55756"/>
     <use style="fill:#ff7f0e;stroke:#ff7f0e;" x="485.084491" xlink:href="#m8072e228e3" y="464.55756"/>
     <use style="fill:#ff7f0e;stroke:#ff7f0e;" x="268.34673" xlink:href="#m8072e228e3" y="179.968451"/>
     <use style="fill:#ff7f0e;stroke:#ff7f0e;" x="226.843641" xlink:href="#m8072e228e3" y="118.435102"/>
     <use style="fill:#ff7f0e;stroke:#ff7f0e;" x="234.528904" xlink:href="#m8072e228e3" y="70.362173"/>
     <use style="fill:#ff7f0e;stroke:#ff7f0e;" x="262.195851" xlink:href="#m8072e228e3" y="112.666351"/>
     <use style="fill:#ff7f0e;stroke:#ff7f0e;" x="259.121746" xlink:href="#m8072e228e3" y="153.047611"/>
     <use style="fill:#ff7f0e;stroke:#ff7f0e;" x="229.917746" xlink:href="#m8072e228e3" y="199.197623"/>
     <use style="fill:#ff7f0e;stroke:#ff7f0e;" x="208.396341" xlink:href="#m8072e228e3" y="241.5018"/>
     <use style="fill:#ff7f0e;stroke:#ff7f0e;" x="225.30392" xlink:href="#m8072e228e3" y="316.493728"/>
     <use style="fill:#ff7f0e;stroke:#ff7f0e;" x="242.214167" xlink:href="#m8072e228e3" y="379.949205"/>
     <use style="fill:#ff7f0e;stroke:#ff7f0e;" x="288.328414" xlink:href="#m8072e228e3" y="372.257536"/>
     <use style="fill:#ff7f0e;stroke:#ff7f0e;" x="322.145706" xlink:href="#m8072e228e3" y="366.488785"/>
     <use style="fill:#ff7f0e;stroke:#ff7f0e;" x="366.723434" xlink:href="#m8072e228e3" y="431.867968"/>
     <use style="fill:#ff7f0e;stroke:#ff7f0e;" x="383.631013" xlink:href="#m8072e228e3" y="383.795039"/>
     <use style="fill:#ff7f0e;stroke:#ff7f0e;" x="434.356418" xlink:href="#m8072e228e3" y="372.257536"/>
     <use style="fill:#ff7f0e;stroke:#ff7f0e;" x="477.399228" xlink:href="#m8072e228e3" y="360.720033"/>
     <use style="fill:#ff7f0e;stroke:#ff7f0e;" x="428.208208" xlink:href="#m8072e228e3" y="320.339562"/>
     <use style="fill:#ff7f0e;stroke:#ff7f0e;" x="472.785402" xlink:href="#m8072e228e3" y="281.88043"/>
     <use style="fill:#ff7f0e;stroke:#ff7f0e;" x="458.951928" xlink:href="#m8072e228e3" y="253.039303"/>
     <use style="fill:#ff7f0e;stroke:#ff7f0e;" x="498.917965" xlink:href="#m8072e228e3" y="206.889291"/>
     <use style="fill:#ff7f0e;stroke:#ff7f0e;" x="365.186382" xlink:href="#m8072e228e3" y="185.737203"/>
     <use style="fill:#ff7f0e;stroke:#ff7f0e;" x="423.59705" xlink:href="#m8072e228e3" y="147.278859"/>
     <use style="fill:#ff7f0e;stroke:#ff7f0e;" x="391.316276" xlink:href="#m8072e228e3" y="141.510108"/>
     <use style="fill:#ff7f0e;stroke:#ff7f0e;" x="342.127924" xlink:href="#m8072e228e3" y="172.276782"/>
     <use style="fill:#ff7f0e;stroke:#ff7f0e;" x="303.699901" xlink:href="#m8072e228e3" y="218.426794"/>
     <use style="fill:#ff7f0e;stroke:#ff7f0e;" x="280.642617" xlink:href="#m8072e228e3" y="178.045534"/>
     <use style="fill:#ff7f0e;stroke:#ff7f0e;" x="249.89943" xlink:href="#m8072e228e3" y="229.964297"/>
     <use style="fill:#ff7f0e;stroke:#ff7f0e;" x="249.89943" xlink:href="#m8072e228e3" y="278.034596"/>
     <use style="fill:#ff7f0e;stroke:#ff7f0e;" x="188.414657" xlink:href="#m8072e228e3" y="266.497093"/>
     <use style="fill:#ff7f0e;stroke:#ff7f0e;" x="246.825325" xlink:href="#m8072e228e3" y="328.031231"/>
     <use style="fill:#ff7f0e;stroke:#ff7f0e;" x="268.34673" xlink:href="#m8072e228e3" y="395.332542"/>
    </g>
   </g>
   <g id="PathCollection_2">
    <defs>
     <path d="M 0 3.535534 
C 0.937635 3.535534 1.836992 3.163008 2.5 2.5 
C 3.163008 1.836992 3.535534 0.937635 3.535534 0 
C 3.535534 -0.937635 3.163008 -1.836992 2.5 -2.5 
C 1.836992 -3.163008 0.937635 -3.535534 0 -3.535534 
C -0.937635 -3.535534 -1.836992 -3.163008 -2.5 -2.5 
C -3.163008 -1.836992 -3.535534 -0.937635 -3.535534 0 
C -3.535534 0.937635 -3.163008 1.836992 -2.5 2.5 
C -1.836992 3.163008 -0.937635 3.535534 0 3.535534 
z
" id="m0b056b8071" style="stroke:#1f77b4;"/>
    </defs>
    <g clip-path="url(#pa98c8a6521)">
     <use style="fill:#1f77b4;stroke:#1f77b4;" x="354.427014" xlink:href="#m0b056b8071" y="78.053842"/>
     <use style="fill:#1f77b4;stroke:#1f77b4;" x="365.186382" xlink:href="#m0b056b8071" y="118.435102"/>
     <use style="fill:#1f77b4;stroke:#1f77b4;" x="385.168066" xlink:href="#m0b056b8071" y="160.739279"/>
     <use style="fill:#1f77b4;stroke:#1f77b4;" x="440.507297" xlink:href="#m0b056b8071" y="124.203853"/>
     <use style="fill:#1f77b4;stroke:#1f77b4;" x="469.711297" xlink:href="#m0b056b8071" y="131.895522"/>
     <use style="fill:#1f77b4;stroke:#1f77b4;" x="466.637191" xlink:href="#m0b056b8071" y="166.508031"/>
     <use style="fill:#1f77b4;stroke:#1f77b4;" x="509.677333" xlink:href="#m0b056b8071" y="191.505954"/>
     <use style="fill:#1f77b4;stroke:#1f77b4;" x="552.717475" xlink:href="#m0b056b8071" y="228.04138"/>
     <use style="fill:#1f77b4;stroke:#1f77b4;" x="525.050528" xlink:href="#m0b056b8071" y="251.116386"/>
     <use style="fill:#1f77b4;stroke:#1f77b4;" x="561.942459" xlink:href="#m0b056b8071" y="301.110654"/>
     <use style="fill:#1f77b4;stroke:#1f77b4;" x="555.79158" xlink:href="#m0b056b8071" y="320.339562"/>
     <use style="fill:#1f77b4;stroke:#1f77b4;" x="535.809896" xlink:href="#m0b056b8071" y="345.337222"/>
     <use style="fill:#1f77b4;stroke:#1f77b4;" x="545.032212" xlink:href="#m0b056b8071" y="378.026288"/>
     <use style="fill:#1f77b4;stroke:#1f77b4;" x="532.735791" xlink:href="#m0b056b8071" y="420.330465"/>
     <use style="fill:#1f77b4;stroke:#1f77b4;" x="526.58758" xlink:href="#m0b056b8071" y="460.711726"/>
     <use style="fill:#1f77b4;stroke:#1f77b4;" x="517.362596" xlink:href="#m0b056b8071" y="470.326311"/>
     <use style="fill:#1f77b4;stroke:#1f77b4;" x="463.563086" xlink:href="#m0b056b8071" y="518.39924"/>
     <use style="fill:#1f77b4;stroke:#1f77b4;" x="443.581402" xlink:href="#m0b056b8071" y="479.940897"/>
     <use style="fill:#1f77b4;stroke:#1f77b4;" x="429.74526" xlink:href="#m0b056b8071" y="433.790885"/>
     <use style="fill:#1f77b4;stroke:#1f77b4;" x="399.004208" xlink:href="#m0b056b8071" y="476.095063"/>
     <use style="fill:#1f77b4;stroke:#1f77b4;" x="382.093961" xlink:href="#m0b056b8071" y="526.090909"/>
     <use style="fill:#1f77b4;stroke:#1f77b4;" x="328.294184" xlink:href="#m0b056b8071" y="522.245075"/>
     <use style="fill:#1f77b4;stroke:#1f77b4;" x="345.202029" xlink:href="#m0b056b8071" y="476.095063"/>
     <use style="fill:#1f77b4;stroke:#1f77b4;" x="269.883783" xlink:href="#m0b056b8071" y="441.482554"/>
     <use style="fill:#1f77b4;stroke:#1f77b4;" x="196.09992" xlink:href="#m0b056b8071" y="431.867968"/>
     <use style="fill:#1f77b4;stroke:#1f77b4;" x="200.711078" xlink:href="#m0b056b8071" y="391.486708"/>
     <use style="fill:#1f77b4;stroke:#1f77b4;" x="106.945532" xlink:href="#m0b056b8071" y="391.486708"/>
     <use style="fill:#1f77b4;stroke:#1f77b4;" x="119.241952" xlink:href="#m0b056b8071" y="312.647894"/>
     <use style="fill:#1f77b4;stroke:#1f77b4;" x="103.871426" xlink:href="#m0b056b8071" y="247.270552"/>
     <use style="fill:#1f77b4;stroke:#1f77b4;" x="119.241952" xlink:href="#m0b056b8071" y="143.433025"/>
     <use style="fill:#1f77b4;stroke:#1f77b4;" x="197.636973" xlink:href="#m0b056b8071" y="137.664274"/>
     <use style="fill:#1f77b4;stroke:#1f77b4;" x="203.785183" xlink:href="#m0b056b8071" y="81.899676"/>
     <use style="fill:#1f77b4;stroke:#1f77b4;" x="169.967357" xlink:href="#m0b056b8071" y="85.74551"/>
     <use style="fill:#1f77b4;stroke:#1f77b4;" x="159.207989" xlink:href="#m0b056b8071" y="137.664274"/>
     <use style="fill:#1f77b4;stroke:#1f77b4;" x="332.905608" xlink:href="#m0b056b8071" y="118.435102"/>
     <use style="fill:#1f77b4;stroke:#1f77b4;" x="320.608654" xlink:href="#m0b056b8071" y="81.899676"/>
     <use style="fill:#1f77b4;stroke:#1f77b4;" x="277.569046" xlink:href="#m0b056b8071" y="62.670504"/>
     <use style="fill:#1f77b4;stroke:#1f77b4;" x="283.716989" xlink:href="#m0b056b8071" y="31.909091"/>
     <use style="fill:#1f77b4;stroke:#1f77b4;" x="382.093961" xlink:href="#m0b056b8071" y="37.669951"/>
     <use style="fill:#1f77b4;stroke:#1f77b4;" x="411.300629" xlink:href="#m0b056b8071" y="106.897599"/>
     <use style="fill:#1f77b4;stroke:#1f77b4;" x="475.859507" xlink:href="#m0b056b8071" y="89.591345"/>
     <use style="fill:#1f77b4;stroke:#1f77b4;" x="525.050528" xlink:href="#m0b056b8071" y="149.201777"/>
     <use style="fill:#1f77b4;stroke:#1f77b4;" x="485.084491" xlink:href="#m0b056b8071" y="154.970528"/>
     <use style="fill:#1f77b4;stroke:#1f77b4;" x="591.159801" xlink:href="#m0b056b8071" y="297.263767"/>
     <use style="fill:#1f77b4;stroke:#1f77b4;" x="292.939839" xlink:href="#m0b056b8071" y="476.095063"/>
     <use style="fill:#1f77b4;stroke:#1f77b4;" x="242.214167" xlink:href="#m0b056b8071" y="491.4784"/>
     <use style="fill:#1f77b4;stroke:#1f77b4;" x="265.269956" xlink:href="#m0b056b8071" y="420.330465"/>
     <use style="fill:#1f77b4;stroke:#1f77b4;" x="174.578515" xlink:href="#m0b056b8071" y="403.024211"/>
     <use style="fill:#1f77b4;stroke:#1f77b4;" x="180.726726" xlink:href="#m0b056b8071" y="358.797116"/>
     <use style="fill:#1f77b4;stroke:#1f77b4;" x="228.380694" xlink:href="#m0b056b8071" y="339.568734"/>
     <use style="fill:#1f77b4;stroke:#1f77b4;" x="142.297742" xlink:href="#m0b056b8071" y="341.491388"/>
     <use style="fill:#1f77b4;stroke:#1f77b4;" x="128.464268" xlink:href="#m0b056b8071" y="379.949205"/>
     <use style="fill:#1f77b4;stroke:#1f77b4;" x="145.374515" xlink:href="#m0b056b8071" y="433.790885"/>
     <use style="fill:#1f77b4;stroke:#1f77b4;" x="111.556689" xlink:href="#m0b056b8071" y="345.337222"/>
     <use style="fill:#1f77b4;stroke:#1f77b4;" x="83.887074" xlink:href="#m0b056b8071" y="241.5018"/>
     <use style="fill:#1f77b4;stroke:#1f77b4;" x="113.093742" xlink:href="#m0b056b8071" y="181.891368"/>
     <use style="fill:#1f77b4;stroke:#1f77b4;" x="146.911568" xlink:href="#m0b056b8071" y="193.428871"/>
     <use style="fill:#1f77b4;stroke:#1f77b4;" x="176.115568" xlink:href="#m0b056b8071" y="60.747587"/>
     <use style="fill:#1f77b4;stroke:#1f77b4;" x="303.699901" xlink:href="#m0b056b8071" y="60.747587"/>
     <use style="fill:#1f77b4;stroke:#1f77b4;" x="474.213046" xlink:href="#m0b056b8071" y="331.661099"/>
    </g>
   </g>
   <g id="matplotlib.axis_1">
    <g id="xtick_1">
     <g id="line2d_1">
      <defs>
       <path d="M 0 0 
L 0 3.5 
" id="ma2996b4463" style="stroke:#000000;stroke-width:0.8;"/>
      </defs>
      <g>
       <use style="stroke:#000000;stroke-width:0.8;" x="105.253706" xlink:href="#ma2996b4463" y="550.8"/>
      </g>
     </g>
     <g id="text_1">
      <!-- −0.75 -->
      <g transform="translate(89.93105 565.398438)scale(0.1 -0.1)">
       <defs>
        <path d="M 10.59375 35.5 
L 73.1875 35.5 
L 73.1875 27.203125 
L 10.59375 27.203125 
z
" id="DejaVuSans-8722"/>
        <path d="M 31.78125 66.40625 
Q 24.171875 66.40625 20.328125 58.90625 
Q 16.5 51.421875 16.5 36.375 
Q 16.5 21.390625 20.328125 13.890625 
Q 24.171875 6.390625 31.78125 6.390625 
Q 39.453125 6.390625 43.28125 13.890625 
Q 47.125 21.390625 47.125 36.375 
Q 47.125 51.421875 43.28125 58.90625 
Q 39.453125 66.40625 31.78125 66.40625 
z
M 31.78125 74.21875 
Q 44.046875 74.21875 50.515625 64.515625 
Q 56.984375 54.828125 56.984375 36.375 
Q 56.984375 17.96875 50.515625 8.265625 
Q 44.046875 -1.421875 31.78125 -1.421875 
Q 19.53125 -1.421875 13.0625 8.265625 
Q 6.59375 17.96875 6.59375 36.375 
Q 6.59375 54.828125 13.0625 64.515625 
Q 19.53125 74.21875 31.78125 74.21875 
z
" id="DejaVuSans-48"/>
        <path d="M 10.6875 12.40625 
L 21 12.40625 
L 21 0 
L 10.6875 0 
z
" id="DejaVuSans-46"/>
        <path d="M 8.203125 72.90625 
L 55.078125 72.90625 
L 55.078125 68.703125 
L 28.609375 0 
L 18.3125 0 
L 43.21875 64.59375 
L 8.203125 64.59375 
z
" id="DejaVuSans-55"/>
        <path d="M 10.796875 72.90625 
L 49.515625 72.90625 
L 49.515625 64.59375 
L 19.828125 64.59375 
L 19.828125 46.734375 
Q 21.96875 47.46875 24.109375 47.828125 
Q 26.265625 48.1875 28.421875 48.1875 
Q 40.625 48.1875 47.75 41.5 
Q 54.890625 34.8125 54.890625 23.390625 
Q 54.890625 11.625 47.5625 5.09375 
Q 40.234375 -1.421875 26.90625 -1.421875 
Q 22.3125 -1.421875 17.546875 -0.640625 
Q 12.796875 0.140625 7.71875 1.703125 
L 7.71875 11.625 
Q 12.109375 9.234375 16.796875 8.0625 
Q 21.484375 6.890625 26.703125 6.890625 
Q 35.15625 6.890625 40.078125 11.328125 
Q 45.015625 15.765625 45.015625 23.390625 
Q 45.015625 31 40.078125 35.4375 
Q 35.15625 39.890625 26.703125 39.890625 
Q 22.75 39.890625 18.8125 39.015625 
Q 14.890625 38.140625 10.796875 36.28125 
z
" id="DejaVuSans-53"/>
       </defs>
       <use xlink:href="#DejaVuSans-8722"/>
       <use x="83.789062" xlink:href="#DejaVuSans-48"/>
       <use x="147.412109" xlink:href="#DejaVuSans-46"/>
       <use x="179.199219" xlink:href="#DejaVuSans-55"/>
       <use x="242.822266" xlink:href="#DejaVuSans-53"/>
      </g>
     </g>
    </g>
    <g id="xtick_2">
     <g id="line2d_2">
      <g>
       <use style="stroke:#000000;stroke-width:0.8;" x="171.966059" xlink:href="#ma2996b4463" y="550.8"/>
      </g>
     </g>
     <g id="text_2">
      <!-- −0.50 -->
      <g transform="translate(156.643403 565.398438)scale(0.1 -0.1)">
       <use xlink:href="#DejaVuSans-8722"/>
       <use x="83.789062" xlink:href="#DejaVuSans-48"/>
       <use x="147.412109" xlink:href="#DejaVuSans-46"/>
       <use x="179.199219" xlink:href="#DejaVuSans-53"/>
       <use x="242.822266" xlink:href="#DejaVuSans-48"/>
      </g>
     </g>
    </g>
    <g id="xtick_3">
     <g id="line2d_3">
      <g>
       <use style="stroke:#000000;stroke-width:0.8;" x="238.678412" xlink:href="#ma2996b4463" y="550.8"/>
      </g>
     </g>
     <g id="text_3">
      <!-- −0.25 -->
      <g transform="translate(223.355756 565.398438)scale(0.1 -0.1)">
       <defs>
        <path d="M 19.1875 8.296875 
L 53.609375 8.296875 
L 53.609375 0 
L 7.328125 0 
L 7.328125 8.296875 
Q 12.9375 14.109375 22.625 23.890625 
Q 32.328125 33.6875 34.8125 36.53125 
Q 39.546875 41.84375 41.421875 45.53125 
Q 43.3125 49.21875 43.3125 52.78125 
Q 43.3125 58.59375 39.234375 62.25 
Q 35.15625 65.921875 28.609375 65.921875 
Q 23.96875 65.921875 18.8125 64.3125 
Q 13.671875 62.703125 7.8125 59.421875 
L 7.8125 69.390625 
Q 13.765625 71.78125 18.9375 73 
Q 24.125 74.21875 28.421875 74.21875 
Q 39.75 74.21875 46.484375 68.546875 
Q 53.21875 62.890625 53.21875 53.421875 
Q 53.21875 48.921875 51.53125 44.890625 
Q 49.859375 40.875 45.40625 35.40625 
Q 44.1875 33.984375 37.640625 27.21875 
Q 31.109375 20.453125 19.1875 8.296875 
z
" id="DejaVuSans-50"/>
       </defs>
       <use xlink:href="#DejaVuSans-8722"/>
       <use x="83.789062" xlink:href="#DejaVuSans-48"/>
       <use x="147.412109" xlink:href="#DejaVuSans-46"/>
       <use x="179.199219" xlink:href="#DejaVuSans-50"/>
       <use x="242.822266" xlink:href="#DejaVuSans-53"/>
      </g>
     </g>
    </g>
    <g id="xtick_4">
     <g id="line2d_4">
      <g>
       <use style="stroke:#000000;stroke-width:0.8;" x="305.390766" xlink:href="#ma2996b4463" y="550.8"/>
      </g>
     </g>
     <g id="text_4">
      <!-- 0.00 -->
      <g transform="translate(294.257953 565.398438)scale(0.1 -0.1)">
       <use xlink:href="#DejaVuSans-48"/>
       <use x="63.623047" xlink:href="#DejaVuSans-46"/>
       <use x="95.410156" xlink:href="#DejaVuSans-48"/>
       <use x="159.033203" xlink:href="#DejaVuSans-48"/>
      </g>
     </g>
    </g>
    <g id="xtick_5">
     <g id="line2d_5">
      <g>
       <use style="stroke:#000000;stroke-width:0.8;" x="372.103119" xlink:href="#ma2996b4463" y="550.8"/>
      </g>
     </g>
     <g id="text_5">
      <!-- 0.25 -->
      <g transform="translate(360.970306 565.398438)scale(0.1 -0.1)">
       <use xlink:href="#DejaVuSans-48"/>
       <use x="63.623047" xlink:href="#DejaVuSans-46"/>
       <use x="95.410156" xlink:href="#DejaVuSans-50"/>
       <use x="159.033203" xlink:href="#DejaVuSans-53"/>
      </g>
     </g>
    </g>
    <g id="xtick_6">
     <g id="line2d_6">
      <g>
       <use style="stroke:#000000;stroke-width:0.8;" x="438.815472" xlink:href="#ma2996b4463" y="550.8"/>
      </g>
     </g>
     <g id="text_6">
      <!-- 0.50 -->
      <g transform="translate(427.682659 565.398438)scale(0.1 -0.1)">
       <use xlink:href="#DejaVuSans-48"/>
       <use x="63.623047" xlink:href="#DejaVuSans-46"/>
       <use x="95.410156" xlink:href="#DejaVuSans-53"/>
       <use x="159.033203" xlink:href="#DejaVuSans-48"/>
      </g>
     </g>
    </g>
    <g id="xtick_7">
     <g id="line2d_7">
      <g>
       <use style="stroke:#000000;stroke-width:0.8;" x="505.527825" xlink:href="#ma2996b4463" y="550.8"/>
      </g>
     </g>
     <g id="text_7">
      <!-- 0.75 -->
      <g transform="translate(494.395012 565.398438)scale(0.1 -0.1)">
       <use xlink:href="#DejaVuSans-48"/>
       <use x="63.623047" xlink:href="#DejaVuSans-46"/>
       <use x="95.410156" xlink:href="#DejaVuSans-55"/>
       <use x="159.033203" xlink:href="#DejaVuSans-53"/>
      </g>
     </g>
    </g>
    <g id="xtick_8">
     <g id="line2d_8">
      <g>
       <use style="stroke:#000000;stroke-width:0.8;" x="572.240178" xlink:href="#ma2996b4463" y="550.8"/>
      </g>
     </g>
     <g id="text_8">
      <!-- 1.00 -->
      <g transform="translate(561.107365 565.398438)scale(0.1 -0.1)">
       <defs>
        <path d="M 12.40625 8.296875 
L 28.515625 8.296875 
L 28.515625 63.921875 
L 10.984375 60.40625 
L 10.984375 69.390625 
L 28.421875 72.90625 
L 38.28125 72.90625 
L 38.28125 8.296875 
L 54.390625 8.296875 
L 54.390625 0 
L 12.40625 0 
z
" id="DejaVuSans-49"/>
       </defs>
       <use xlink:href="#DejaVuSans-49"/>
       <use x="63.623047" xlink:href="#DejaVuSans-46"/>
       <use x="95.410156" xlink:href="#DejaVuSans-48"/>
       <use x="159.033203" xlink:href="#DejaVuSans-48"/>
      </g>
     </g>
    </g>
    <g id="text_9">
     <!-- Test 1 score -->
     <g transform="translate(307.885938 579.076563)scale(0.1 -0.1)">
      <defs>
       <path d="M -0.296875 72.90625 
L 61.375 72.90625 
L 61.375 64.59375 
L 35.5 64.59375 
L 35.5 0 
L 25.59375 0 
L 25.59375 64.59375 
L -0.296875 64.59375 
z
" id="DejaVuSans-84"/>
       <path d="M 56.203125 29.59375 
L 56.203125 25.203125 
L 14.890625 25.203125 
Q 15.484375 15.921875 20.484375 11.0625 
Q 25.484375 6.203125 34.421875 6.203125 
Q 39.59375 6.203125 44.453125 7.46875 
Q 49.3125 8.734375 54.109375 11.28125 
L 54.109375 2.78125 
Q 49.265625 0.734375 44.1875 -0.34375 
Q 39.109375 -1.421875 33.890625 -1.421875 
Q 20.796875 -1.421875 13.15625 6.1875 
Q 5.515625 13.8125 5.515625 26.8125 
Q 5.515625 40.234375 12.765625 48.109375 
Q 20.015625 56 32.328125 56 
Q 43.359375 56 49.78125 48.890625 
Q 56.203125 41.796875 56.203125 29.59375 
z
M 47.21875 32.234375 
Q 47.125 39.59375 43.09375 43.984375 
Q 39.0625 48.390625 32.421875 48.390625 
Q 24.90625 48.390625 20.390625 44.140625 
Q 15.875 39.890625 15.1875 32.171875 
z
" id="DejaVuSans-101"/>
       <path d="M 44.28125 53.078125 
L 44.28125 44.578125 
Q 40.484375 46.53125 36.375 47.5 
Q 32.28125 48.484375 27.875 48.484375 
Q 21.1875 48.484375 17.84375 46.4375 
Q 14.5 44.390625 14.5 40.28125 
Q 14.5 37.15625 16.890625 35.375 
Q 19.28125 33.59375 26.515625 31.984375 
L 29.59375 31.296875 
Q 39.15625 29.25 43.1875 25.515625 
Q 47.21875 21.78125 47.21875 15.09375 
Q 47.21875 7.46875 41.1875 3.015625 
Q 35.15625 -1.421875 24.609375 -1.421875 
Q 20.21875 -1.421875 15.453125 -0.5625 
Q 10.6875 0.296875 5.421875 2 
L 5.421875 11.28125 
Q 10.40625 8.6875 15.234375 7.390625 
Q 20.0625 6.109375 24.8125 6.109375 
Q 31.15625 6.109375 34.5625 8.28125 
Q 37.984375 10.453125 37.984375 14.40625 
Q 37.984375 18.0625 35.515625 20.015625 
Q 33.0625 21.96875 24.703125 23.78125 
L 21.578125 24.515625 
Q 13.234375 26.265625 9.515625 29.90625 
Q 5.8125 33.546875 5.8125 39.890625 
Q 5.8125 47.609375 11.28125 51.796875 
Q 16.75 56 26.8125 56 
Q 31.78125 56 36.171875 55.265625 
Q 40.578125 54.546875 44.28125 53.078125 
z
" id="DejaVuSans-115"/>
       <path d="M 18.3125 70.21875 
L 18.3125 54.6875 
L 36.8125 54.6875 
L 36.8125 47.703125 
L 18.3125 47.703125 
L 18.3125 18.015625 
Q 18.3125 11.328125 20.140625 9.421875 
Q 21.96875 7.515625 27.59375 7.515625 
L 36.8125 7.515625 
L 36.8125 0 
L 27.59375 0 
Q 17.1875 0 13.234375 3.875 
Q 9.28125 7.765625 9.28125 18.015625 
L 9.28125 47.703125 
L 2.6875 47.703125 
L 2.6875 54.6875 
L 9.28125 54.6875 
L 9.28125 70.21875 
z
" id="DejaVuSans-116"/>
       <path id="DejaVuSans-32"/>
       <path d="M 48.78125 52.59375 
L 48.78125 44.1875 
Q 44.96875 46.296875 41.140625 47.34375 
Q 37.3125 48.390625 33.40625 48.390625 
Q 24.65625 48.390625 19.8125 42.84375 
Q 14.984375 37.3125 14.984375 27.296875 
Q 14.984375 17.28125 19.8125 11.734375 
Q 24.65625 6.203125 33.40625 6.203125 
Q 37.3125 6.203125 41.140625 7.25 
Q 44.96875 8.296875 48.78125 10.40625 
L 48.78125 2.09375 
Q 45.015625 0.34375 40.984375 -0.53125 
Q 36.96875 -1.421875 32.421875 -1.421875 
Q 20.0625 -1.421875 12.78125 6.34375 
Q 5.515625 14.109375 5.515625 27.296875 
Q 5.515625 40.671875 12.859375 48.328125 
Q 20.21875 56 33.015625 56 
Q 37.15625 56 41.109375 55.140625 
Q 45.0625 54.296875 48.78125 52.59375 
z
" id="DejaVuSans-99"/>
       <path d="M 30.609375 48.390625 
Q 23.390625 48.390625 19.1875 42.75 
Q 14.984375 37.109375 14.984375 27.296875 
Q 14.984375 17.484375 19.15625 11.84375 
Q 23.34375 6.203125 30.609375 6.203125 
Q 37.796875 6.203125 41.984375 11.859375 
Q 46.1875 17.53125 46.1875 27.296875 
Q 46.1875 37.015625 41.984375 42.703125 
Q 37.796875 48.390625 30.609375 48.390625 
z
M 30.609375 56 
Q 42.328125 56 49.015625 48.375 
Q 55.71875 40.765625 55.71875 27.296875 
Q 55.71875 13.875 49.015625 6.21875 
Q 42.328125 -1.421875 30.609375 -1.421875 
Q 18.84375 -1.421875 12.171875 6.21875 
Q 5.515625 13.875 5.515625 27.296875 
Q 5.515625 40.765625 12.171875 48.375 
Q 18.84375 56 30.609375 56 
z
" id="DejaVuSans-111"/>
       <path d="M 41.109375 46.296875 
Q 39.59375 47.171875 37.8125 47.578125 
Q 36.03125 48 33.890625 48 
Q 26.265625 48 22.1875 43.046875 
Q 18.109375 38.09375 18.109375 28.8125 
L 18.109375 0 
L 9.078125 0 
L 9.078125 54.6875 
L 18.109375 54.6875 
L 18.109375 46.1875 
Q 20.953125 51.171875 25.484375 53.578125 
Q 30.03125 56 36.53125 56 
Q 37.453125 56 38.578125 55.875 
Q 39.703125 55.765625 41.0625 55.515625 
z
" id="DejaVuSans-114"/>
      </defs>
      <use xlink:href="#DejaVuSans-84"/>
      <use x="44.083984" xlink:href="#DejaVuSans-101"/>
      <use x="105.607422" xlink:href="#DejaVuSans-115"/>
      <use x="157.707031" xlink:href="#DejaVuSans-116"/>
      <use x="196.916016" xlink:href="#DejaVuSans-32"/>
      <use x="228.703125" xlink:href="#DejaVuSans-49"/>
      <use x="292.326172" xlink:href="#DejaVuSans-32"/>
      <use x="324.113281" xlink:href="#DejaVuSans-115"/>
      <use x="376.212891" xlink:href="#DejaVuSans-99"/>
      <use x="431.193359" xlink:href="#DejaVuSans-111"/>
      <use x="492.375" xlink:href="#DejaVuSans-114"/>
      <use x="531.238281" xlink:href="#DejaVuSans-101"/>
     </g>
    </g>
   </g>
   <g id="matplotlib.axis_2">
    <g id="ytick_1">
     <g id="line2d_9">
      <defs>
       <path d="M 0 0 
L -3.5 0 
" id="m853c870356" style="stroke:#000000;stroke-width:0.8;"/>
      </defs>
      <g>
       <use style="stroke:#000000;stroke-width:0.8;" x="58.523438" xlink:href="#m853c870356" y="520.898244"/>
      </g>
     </g>
     <g id="text_10">
      <!-- −0.75 -->
      <g transform="translate(20.878125 524.697462)scale(0.1 -0.1)">
       <use xlink:href="#DejaVuSans-8722"/>
       <use x="83.789062" xlink:href="#DejaVuSans-48"/>
       <use x="147.412109" xlink:href="#DejaVuSans-46"/>
       <use x="179.199219" xlink:href="#DejaVuSans-55"/>
       <use x="242.822266" xlink:href="#DejaVuSans-53"/>
      </g>
     </g>
    </g>
    <g id="ytick_2">
     <g id="line2d_10">
      <g>
       <use style="stroke:#000000;stroke-width:0.8;" x="58.523438" xlink:href="#m853c870356" y="455.135003"/>
      </g>
     </g>
     <g id="text_11">
      <!-- −0.50 -->
      <g transform="translate(20.878125 458.934222)scale(0.1 -0.1)">
       <use xlink:href="#DejaVuSans-8722"/>
       <use x="83.789062" xlink:href="#DejaVuSans-48"/>
       <use x="147.412109" xlink:href="#DejaVuSans-46"/>
       <use x="179.199219" xlink:href="#DejaVuSans-53"/>
       <use x="242.822266" xlink:href="#DejaVuSans-48"/>
      </g>
     </g>
    </g>
    <g id="ytick_3">
     <g id="line2d_11">
      <g>
       <use style="stroke:#000000;stroke-width:0.8;" x="58.523438" xlink:href="#m853c870356" y="389.371762"/>
      </g>
     </g>
     <g id="text_12">
      <!-- −0.25 -->
      <g transform="translate(20.878125 393.170981)scale(0.1 -0.1)">
       <use xlink:href="#DejaVuSans-8722"/>
       <use x="83.789062" xlink:href="#DejaVuSans-48"/>
       <use x="147.412109" xlink:href="#DejaVuSans-46"/>
       <use x="179.199219" xlink:href="#DejaVuSans-50"/>
       <use x="242.822266" xlink:href="#DejaVuSans-53"/>
      </g>
     </g>
    </g>
    <g id="ytick_4">
     <g id="line2d_12">
      <g>
       <use style="stroke:#000000;stroke-width:0.8;" x="58.523438" xlink:href="#m853c870356" y="323.608521"/>
      </g>
     </g>
     <g id="text_13">
      <!-- 0.00 -->
      <g transform="translate(29.257812 327.40774)scale(0.1 -0.1)">
       <use xlink:href="#DejaVuSans-48"/>
       <use x="63.623047" xlink:href="#DejaVuSans-46"/>
       <use x="95.410156" xlink:href="#DejaVuSans-48"/>
       <use x="159.033203" xlink:href="#DejaVuSans-48"/>
      </g>
     </g>
    </g>
    <g id="ytick_5">
     <g id="line2d_13">
      <g>
       <use style="stroke:#000000;stroke-width:0.8;" x="58.523438" xlink:href="#m853c870356" y="257.845281"/>
      </g>
     </g>
     <g id="text_14">
      <!-- 0.25 -->
      <g transform="translate(29.257812 261.644499)scale(0.1 -0.1)">
       <use xlink:href="#DejaVuSans-48"/>
       <use x="63.623047" xlink:href="#DejaVuSans-46"/>
       <use x="95.410156" xlink:href="#DejaVuSans-50"/>
       <use x="159.033203" xlink:href="#DejaVuSans-53"/>
      </g>
     </g>
    </g>
    <g id="ytick_6">
     <g id="line2d_14">
      <g>
       <use style="stroke:#000000;stroke-width:0.8;" x="58.523438" xlink:href="#m853c870356" y="192.08204"/>
      </g>
     </g>
     <g id="text_15">
      <!-- 0.50 -->
      <g transform="translate(29.257812 195.881259)scale(0.1 -0.1)">
       <use xlink:href="#DejaVuSans-48"/>
       <use x="63.623047" xlink:href="#DejaVuSans-46"/>
       <use x="95.410156" xlink:href="#DejaVuSans-53"/>
       <use x="159.033203" xlink:href="#DejaVuSans-48"/>
      </g>
     </g>
    </g>
    <g id="ytick_7">
     <g id="line2d_15">
      <g>
       <use style="stroke:#000000;stroke-width:0.8;" x="58.523438" xlink:href="#m853c870356" y="126.318799"/>
      </g>
     </g>
     <g id="text_16">
      <!-- 0.75 -->
      <g transform="translate(29.257812 130.118018)scale(0.1 -0.1)">
       <use xlink:href="#DejaVuSans-48"/>
       <use x="63.623047" xlink:href="#DejaVuSans-46"/>
       <use x="95.410156" xlink:href="#DejaVuSans-55"/>
       <use x="159.033203" xlink:href="#DejaVuSans-53"/>
      </g>
     </g>
    </g>
    <g id="ytick_8">
     <g id="line2d_16">
      <g>
       <use style="stroke:#000000;stroke-width:0.8;" x="58.523438" xlink:href="#m853c870356" y="60.555559"/>
      </g>
     </g>
     <g id="text_17">
      <!-- 1.00 -->
      <g transform="translate(29.257812 64.354777)scale(0.1 -0.1)">
       <use xlink:href="#DejaVuSans-49"/>
       <use x="63.623047" xlink:href="#DejaVuSans-46"/>
       <use x="95.410156" xlink:href="#DejaVuSans-48"/>
       <use x="159.033203" xlink:href="#DejaVuSans-48"/>
      </g>
     </g>
    </g>
    <g id="text_18">
     <!-- Test 2 score -->
     <g transform="translate(14.798437 308.6375)rotate(-90)scale(0.1 -0.1)">
      <use xlink:href="#DejaVuSans-84"/>
      <use x="44.083984" xlink:href="#DejaVuSans-101"/>
      <use x="105.607422" xlink:href="#DejaVuSans-115"/>
      <use x="157.707031" xlink:href="#DejaVuSans-116"/>
      <use x="196.916016" xlink:href="#DejaVuSans-32"/>
      <use x="228.703125" xlink:href="#DejaVuSans-50"/>
      <use x="292.326172" xlink:href="#DejaVuSans-32"/>
      <use x="324.113281" xlink:href="#DejaVuSans-115"/>
      <use x="376.212891" xlink:href="#DejaVuSans-99"/>
      <use x="431.193359" xlink:href="#DejaVuSans-111"/>
      <use x="492.375" xlink:href="#DejaVuSans-114"/>
      <use x="531.238281" xlink:href="#DejaVuSans-101"/>
     </g>
    </g>
   </g>
   <g id="patch_3">
    <path d="M 58.523438 550.8 
L 58.523438 7.2 
" style="fill:none;stroke:#000000;stroke-linecap:square;stroke-linejoin:miter;stroke-width:0.8;"/>
   </g>
   <g id="patch_4">
    <path d="M 616.523438 550.8 
L 616.523438 7.2 
" style="fill:none;stroke:#000000;stroke-linecap:square;stroke-linejoin:miter;stroke-width:0.8;"/>
   </g>
   <g id="patch_5">
    <path d="M 58.523437 550.8 
L 616.523438 550.8 
" style="fill:none;stroke:#000000;stroke-linecap:square;stroke-linejoin:miter;stroke-width:0.8;"/>
   </g>
   <g id="patch_6">
    <path d="M 58.523437 7.2 
L 616.523438 7.2 
" style="fill:none;stroke:#000000;stroke-linecap:square;stroke-linejoin:miter;stroke-width:0.8;"/>
   </g>
   <g id="legend_1">
    <g id="patch_7">
     <path d="M 530.9375 44.55625 
L 609.523438 44.55625 
Q 611.523438 44.55625 611.523438 42.55625 
L 611.523438 14.2 
Q 611.523438 12.2 609.523438 12.2 
L 530.9375 12.2 
Q 528.9375 12.2 528.9375 14.2 
L 528.9375 42.55625 
Q 528.9375 44.55625 530.9375 44.55625 
z
" style="fill:#ffffff;opacity:0.8;stroke:#cccccc;stroke-linejoin:miter;"/>
    </g>
    <g id="PathCollection_3">
     <g>
      <use style="fill:#ff7f0e;stroke:#ff7f0e;" x="542.9375" xlink:href="#m8072e228e3" y="21.173437"/>
     </g>
    </g>
    <g id="text_19">
     <!-- Accepted -->
     <g transform="translate(560.9375 23.798437)scale(0.1 -0.1)">
      <defs>
       <path d="M 34.1875 63.1875 
L 20.796875 26.90625 
L 47.609375 26.90625 
z
M 28.609375 72.90625 
L 39.796875 72.90625 
L 67.578125 0 
L 57.328125 0 
L 50.6875 18.703125 
L 17.828125 18.703125 
L 11.1875 0 
L 0.78125 0 
z
" id="DejaVuSans-65"/>
       <path d="M 18.109375 8.203125 
L 18.109375 -20.796875 
L 9.078125 -20.796875 
L 9.078125 54.6875 
L 18.109375 54.6875 
L 18.109375 46.390625 
Q 20.953125 51.265625 25.265625 53.625 
Q 29.59375 56 35.59375 56 
Q 45.5625 56 51.78125 48.09375 
Q 58.015625 40.1875 58.015625 27.296875 
Q 58.015625 14.40625 51.78125 6.484375 
Q 45.5625 -1.421875 35.59375 -1.421875 
Q 29.59375 -1.421875 25.265625 0.953125 
Q 20.953125 3.328125 18.109375 8.203125 
z
M 48.6875 27.296875 
Q 48.6875 37.203125 44.609375 42.84375 
Q 40.53125 48.484375 33.40625 48.484375 
Q 26.265625 48.484375 22.1875 42.84375 
Q 18.109375 37.203125 18.109375 27.296875 
Q 18.109375 17.390625 22.1875 11.75 
Q 26.265625 6.109375 33.40625 6.109375 
Q 40.53125 6.109375 44.609375 11.75 
Q 48.6875 17.390625 48.6875 27.296875 
z
" id="DejaVuSans-112"/>
       <path d="M 45.40625 46.390625 
L 45.40625 75.984375 
L 54.390625 75.984375 
L 54.390625 0 
L 45.40625 0 
L 45.40625 8.203125 
Q 42.578125 3.328125 38.25 0.953125 
Q 33.9375 -1.421875 27.875 -1.421875 
Q 17.96875 -1.421875 11.734375 6.484375 
Q 5.515625 14.40625 5.515625 27.296875 
Q 5.515625 40.1875 11.734375 48.09375 
Q 17.96875 56 27.875 56 
Q 33.9375 56 38.25 53.625 
Q 42.578125 51.265625 45.40625 46.390625 
z
M 14.796875 27.296875 
Q 14.796875 17.390625 18.875 11.75 
Q 22.953125 6.109375 30.078125 6.109375 
Q 37.203125 6.109375 41.296875 11.75 
Q 45.40625 17.390625 45.40625 27.296875 
Q 45.40625 37.203125 41.296875 42.84375 
Q 37.203125 48.484375 30.078125 48.484375 
Q 22.953125 48.484375 18.875 42.84375 
Q 14.796875 37.203125 14.796875 27.296875 
z
" id="DejaVuSans-100"/>
      </defs>
      <use xlink:href="#DejaVuSans-65"/>
      <use x="66.658203" xlink:href="#DejaVuSans-99"/>
      <use x="121.638672" xlink:href="#DejaVuSans-99"/>
      <use x="176.619141" xlink:href="#DejaVuSans-101"/>
      <use x="238.142578" xlink:href="#DejaVuSans-112"/>
      <use x="301.619141" xlink:href="#DejaVuSans-116"/>
      <use x="340.828125" xlink:href="#DejaVuSans-101"/>
      <use x="402.351562" xlink:href="#DejaVuSans-100"/>
     </g>
    </g>
    <g id="PathCollection_4">
     <g>
      <use style="fill:#1f77b4;stroke:#1f77b4;" x="542.9375" xlink:href="#m0b056b8071" y="35.851562"/>
     </g>
    </g>
    <g id="text_20">
     <!-- Rejected -->
     <g transform="translate(560.9375 38.476562)scale(0.1 -0.1)">
      <defs>
       <path d="M 44.390625 34.1875 
Q 47.5625 33.109375 50.5625 29.59375 
Q 53.5625 26.078125 56.59375 19.921875 
L 66.609375 0 
L 56 0 
L 46.6875 18.703125 
Q 43.0625 26.03125 39.671875 28.421875 
Q 36.28125 30.8125 30.421875 30.8125 
L 19.671875 30.8125 
L 19.671875 0 
L 9.8125 0 
L 9.8125 72.90625 
L 32.078125 72.90625 
Q 44.578125 72.90625 50.734375 67.671875 
Q 56.890625 62.453125 56.890625 51.90625 
Q 56.890625 45.015625 53.6875 40.46875 
Q 50.484375 35.9375 44.390625 34.1875 
z
M 19.671875 64.796875 
L 19.671875 38.921875 
L 32.078125 38.921875 
Q 39.203125 38.921875 42.84375 42.21875 
Q 46.484375 45.515625 46.484375 51.90625 
Q 46.484375 58.296875 42.84375 61.546875 
Q 39.203125 64.796875 32.078125 64.796875 
z
" id="DejaVuSans-82"/>
       <path d="M 9.421875 54.6875 
L 18.40625 54.6875 
L 18.40625 -0.984375 
Q 18.40625 -11.421875 14.421875 -16.109375 
Q 10.453125 -20.796875 1.609375 -20.796875 
L -1.8125 -20.796875 
L -1.8125 -13.1875 
L 0.59375 -13.1875 
Q 5.71875 -13.1875 7.5625 -10.8125 
Q 9.421875 -8.453125 9.421875 -0.984375 
z
M 9.421875 75.984375 
L 18.40625 75.984375 
L 18.40625 64.59375 
L 9.421875 64.59375 
z
" id="DejaVuSans-106"/>
      </defs>
      <use xlink:href="#DejaVuSans-82"/>
      <use x="64.982422" xlink:href="#DejaVuSans-101"/>
      <use x="126.505859" xlink:href="#DejaVuSans-106"/>
      <use x="154.289062" xlink:href="#DejaVuSans-101"/>
      <use x="215.8125" xlink:href="#DejaVuSans-99"/>
      <use x="270.792969" xlink:href="#DejaVuSans-116"/>
      <use x="310.001953" xlink:href="#DejaVuSans-101"/>
      <use x="371.525391" xlink:href="#DejaVuSans-100"/>
     </g>
    </g>
   </g>
  </g>
 </g>
 <defs>
  <clipPath id="pa98c8a6521">
   <rect height="543.6" width="558" x="58.523438" y="7.2"/>
  </clipPath>
 </defs>
</svg>
